<?xml version="1.0" standalone="no"?>
 <!DOCTYPE svg PUBLIC "-//W3C//DTD SVG 1.1//EN" 
 "http://www.w3.org/Graphics/SVG/1.1/DTD/svg11.dtd"> 
<svg
  xmlns:svg="http://www.w3.org/2000/svg"
  xmlns="http://www.w3.org/2000/svg"
  xmlns:xlink="http://www.w3.org/1999/xlink"
  version="1.1"
  width="25.4000mm" height="33.0200mm" viewBox="0.0000 0.0000 25.4000 33.0200">
<title>SVG Image created as mask-back.svg date 2025/12/30 14:56:52 </title>
  <desc>Image generated by PCBNEW </desc>
<g style="fill:#000000; fill-opacity:1.0000;stroke:#000000; stroke-opacity:1.0000;
stroke-linecap:round; stroke-linejoin:round;"
 transform="translate(0 0) scale(1 1)">
<path style="fill:#000000; fill-opacity:1.0000; stroke:none;fill-rule:evenodd;"
d="M 19.0500,10.7950
19.0500,8.2550
13.9700,8.2550
13.9700,10.7950
Z" /> 
<path style="fill:#000000; fill-opacity:1.0000; stroke:none;fill-rule:evenodd;"
d="M 13.9700,0.0000
13.9700,3.8100
19.0500,3.8100
19.0500,0.0000
Z" /> 
<path style="fill:#000000; fill-opacity:1.0000; stroke:none;fill-rule:evenodd;"
d="M 18.9650,32.5500
19.0607,32.5310
19.1418,32.4768
19.1960,32.3957
19.2150,32.3000
19.2150,31.2000
19.1960,31.1043
19.1418,31.0232
19.0607,30.9690
18.9650,30.9500
17.8650,30.9500
17.7693,30.9690
17.6882,31.0232
17.6340,31.1043
17.6150,31.2000
17.6150,32.3000
17.6340,32.3957
17.6882,32.4768
17.7693,32.5310
17.8650,32.5500
Z" /> 
</g>
<g style="fill:#000000; fill-opacity:1.0000; stroke:none;">
<circle cx="18.4150" cy="29.2500" r="0.8000" /> 
<path style="fill:#000000; fill-opacity:1.0000; stroke:none;fill-rule:evenodd;"
d="M 23.5345,4.4450
23.5345,3.1750
20.9945,3.1750
20.9945,4.4450
Z" /> 
<path style="fill:#000000; fill-opacity:1.0000; stroke:none;fill-rule:evenodd;"
d="M 24.9315,6.9850
24.9315,5.7150
20.6135,5.7150
20.6135,6.9850
Z" /> 
<path style="fill:#000000; fill-opacity:1.0000; stroke:none;fill-rule:evenodd;"
d="M 24.9315,9.5250
24.9315,8.2550
20.6135,8.2550
20.6135,9.5250
Z" /> 
<path style="fill:#000000; fill-opacity:1.0000; stroke:none;fill-rule:evenodd;"
d="M 24.9315,12.0650
24.9315,10.7950
20.6135,10.7950
20.6135,12.0650
Z" /> 
<path style="fill:#000000; fill-opacity:1.0000; stroke:none;fill-rule:evenodd;"
d="M 24.9315,14.6050
24.9315,13.3350
20.6135,13.3350
20.6135,14.6050
Z" /> 
<path style="fill:#000000; fill-opacity:1.0000; stroke:none;fill-rule:evenodd;"
d="M 24.9315,17.1450
24.9315,15.8750
20.6135,15.8750
20.6135,17.1450
Z" /> 
<path style="fill:#000000; fill-opacity:1.0000; stroke:none;fill-rule:evenodd;"
d="M 24.9315,19.6850
24.9315,18.4150
20.6135,18.4150
20.6135,19.6850
Z" /> 
<path style="fill:#000000; fill-opacity:1.0000; stroke:none;fill-rule:evenodd;"
d="M 24.9315,22.2250
24.9315,20.9550
20.6135,20.9550
20.6135,22.2250
Z" /> 
<path style="fill:#000000; fill-opacity:1.0000; stroke:none;fill-rule:evenodd;"
d="M 24.9315,24.7650
24.9315,23.4950
20.6135,23.4950
20.6135,24.7650
Z" /> 
<path style="fill:#000000; fill-opacity:1.0000; stroke:none;fill-rule:evenodd;"
d="M 24.1695,27.3050
24.1695,26.0350
22.8995,26.0350
22.8995,27.3050
Z" /> 
<path style="fill:#000000; fill-opacity:1.0000; stroke:none;fill-rule:evenodd;"
d="M 24.9315,29.8450
24.9315,28.5750
20.6135,28.5750
20.6135,29.8450
Z" /> 
<path style="fill:#000000; fill-opacity:1.0000; stroke:none;fill-rule:evenodd;"
d="M 24.9315,32.3850
24.9315,31.1150
20.6135,31.1150
20.6135,32.3850
Z" /> 
<path style="fill:#000000; fill-opacity:1.0000; stroke:none;fill-rule:evenodd;"
d="M 12.2315,4.4450
12.2315,3.1750
7.9135,3.1750
7.9135,4.4450
Z" /> 
<path style="fill:#000000; fill-opacity:1.0000; stroke:none;fill-rule:evenodd;"
d="M 12.2315,6.9850
12.2315,5.7150
7.9135,5.7150
7.9135,6.9850
Z" /> 
<path style="fill:#000000; fill-opacity:1.0000; stroke:none;fill-rule:evenodd;"
d="M 12.2315,9.5250
12.2315,8.2550
7.9135,8.2550
7.9135,9.5250
Z" /> 
<path style="fill:#000000; fill-opacity:1.0000; stroke:none;fill-rule:evenodd;"
d="M 12.2315,12.0650
12.2315,10.7950
7.9135,10.7950
7.9135,12.0650
Z" /> 
<path style="fill:#000000; fill-opacity:1.0000; stroke:none;fill-rule:evenodd;"
d="M 12.2315,14.6050
12.2315,13.3350
7.9135,13.3350
7.9135,14.6050
Z" /> 
<path style="fill:#000000; fill-opacity:1.0000; stroke:none;fill-rule:evenodd;"
d="M 12.2315,17.1450
12.2315,15.8750
7.9135,15.8750
7.9135,17.1450
Z" /> 
<path style="fill:#000000; fill-opacity:1.0000; stroke:none;fill-rule:evenodd;"
d="M 12.2315,19.6850
12.2315,18.4150
7.9135,18.4150
7.9135,19.6850
Z" /> 
<path style="fill:#000000; fill-opacity:1.0000; stroke:none;fill-rule:evenodd;"
d="M 12.2315,22.2250
12.2315,20.9550
7.9135,20.9550
7.9135,22.2250
Z" /> 
<path style="fill:#000000; fill-opacity:1.0000; stroke:none;fill-rule:evenodd;"
d="M 12.2315,24.7650
12.2315,23.4950
7.9135,23.4950
7.9135,24.7650
Z" /> 
<path style="fill:#000000; fill-opacity:1.0000; stroke:none;fill-rule:evenodd;"
d="M 12.2315,27.3050
12.2315,26.0350
7.9135,26.0350
7.9135,27.3050
Z" /> 
<path style="fill:#000000; fill-opacity:1.0000; stroke:none;fill-rule:evenodd;"
d="M 12.2315,29.8450
12.2315,28.5750
7.9135,28.5750
7.9135,29.8450
Z" /> 
<path style="fill:#000000; fill-opacity:1.0000; stroke:none;fill-rule:evenodd;"
d="M 12.2315,32.3850
12.2315,31.1150
7.9135,31.1150
7.9135,32.3850
Z" /> 
</g>
<g style="fill:#000000; fill-opacity:1.0000; stroke:none;">
<circle cx="21.5025" cy="26.6700" r="0.9000" /> 
</g>
<g style="fill:#000000; fill-opacity:1.0000; stroke:none;">
<circle cx="18.9625" cy="26.6700" r="0.9000" /> 
</g>
<g style="fill:#000000; fill-opacity:1.0000; stroke:none;">
<circle cx="16.4225" cy="26.6700" r="0.9000" /> 
<path style="fill:#000000; fill-opacity:1.0000; stroke:none;fill-rule:evenodd;"
d="M 24.9315,1.9050
24.9315,0.6350
20.6135,0.6350
20.6135,1.9050
Z" /> 
<path style="fill:#000000; fill-opacity:1.0000; stroke:none;fill-rule:evenodd;"
d="M 12.2315,1.9050
12.2315,0.6350
7.9135,0.6350
7.9135,1.9050
Z" /> 
<path style="fill:#000000; fill-opacity:1.0000; stroke:none;fill-rule:evenodd;"
d="M 14.3300,21.0000
14.2535,21.0152
14.1886,21.0586
14.1452,21.1235
14.1300,21.2000
14.1300,21.6000
14.1452,21.6765
14.1886,21.7414
14.2535,21.7848
14.3300,21.8000
14.8800,21.8000
14.9565,21.7848
15.0214,21.7414
15.0648,21.6765
15.0800,21.6000
15.0800,21.2000
15.0648,21.1235
15.0214,21.0586
14.9565,21.0152
14.8800,21.0000
Z" /> 
<path style="fill:#000000; fill-opacity:1.0000; stroke:none;fill-rule:evenodd;"
d="M 14.3300,22.6500
14.2535,22.6652
14.1886,22.7086
14.1452,22.7735
14.1300,22.8500
14.1300,23.2500
14.1452,23.3265
14.1886,23.3914
14.2535,23.4348
14.3300,23.4500
14.8800,23.4500
14.9565,23.4348
15.0214,23.3914
15.0648,23.3265
15.0800,23.2500
15.0800,22.8500
15.0648,22.7735
15.0214,22.7086
14.9565,22.6652
14.8800,22.6500
Z" /> 
<path style="fill:#000000; fill-opacity:1.0000; stroke:none;fill-rule:evenodd;"
d="M 14.3550,4.4900
14.2689,4.5071
14.1959,4.5559
14.1471,4.6289
14.1300,4.7150
14.1300,5.1650
14.1471,5.2511
14.1959,5.3241
14.2689,5.3729
14.3550,5.3900
14.8550,5.3900
14.9411,5.3729
15.0141,5.3241
15.0629,5.2511
15.0800,5.1650
15.0800,4.7150
15.0629,4.6289
15.0141,4.5559
14.9411,4.5071
14.8550,4.4900
Z" /> 
<path style="fill:#000000; fill-opacity:1.0000; stroke:none;fill-rule:evenodd;"
d="M 14.3550,6.0400
14.2689,6.0571
14.1959,6.1059
14.1471,6.1789
14.1300,6.2650
14.1300,6.7150
14.1471,6.8011
14.1959,6.8741
14.2689,6.9229
14.3550,6.9400
14.8550,6.9400
14.9411,6.9229
15.0141,6.8741
15.0629,6.8011
15.0800,6.7150
15.0800,6.2650
15.0629,6.1789
15.0141,6.1059
14.9411,6.0571
14.8550,6.0400
Z" /> 
<path style="fill:#000000; fill-opacity:1.0000; stroke:none;fill-rule:evenodd;"
d="M 16.5550,23.1100
16.5721,23.1961
16.6209,23.2691
16.6939,23.3179
16.7800,23.3350
17.2300,23.3350
17.3161,23.3179
17.3891,23.2691
17.4379,23.1961
17.4550,23.1100
17.4550,22.6100
17.4379,22.5239
17.3891,22.4509
17.3161,22.4021
17.2300,22.3850
16.7800,22.3850
16.6939,22.4021
16.6209,22.4509
16.5721,22.5239
16.5550,22.6100
Z" /> 
<path style="fill:#000000; fill-opacity:1.0000; stroke:none;fill-rule:evenodd;"
d="M 18.1050,23.1100
18.1221,23.1961
18.1709,23.2691
18.2439,23.3179
18.3300,23.3350
18.7800,23.3350
18.8661,23.3179
18.9391,23.2691
18.9879,23.1961
19.0050,23.1100
19.0050,22.6100
18.9879,22.5239
18.9391,22.4509
18.8661,22.4021
18.7800,22.3850
18.3300,22.3850
18.2439,22.4021
18.1709,22.4509
18.1221,22.5239
18.1050,22.6100
Z" /> 
<path style="fill:#000000; fill-opacity:1.0000; stroke:none;fill-rule:evenodd;"
d="M 16.2600,4.4900
16.1739,4.5071
16.1009,4.5559
16.0521,4.6289
16.0350,4.7150
16.0350,5.1650
16.0521,5.2511
16.1009,5.3241
16.1739,5.3729
16.2600,5.3900
16.7600,5.3900
16.8461,5.3729
16.9191,5.3241
16.9679,5.2511
16.9850,5.1650
16.9850,4.7150
16.9679,4.6289
16.9191,4.5559
16.8461,4.5071
16.7600,4.4900
Z" /> 
<path style="fill:#000000; fill-opacity:1.0000; stroke:none;fill-rule:evenodd;"
d="M 16.2600,6.0400
16.1739,6.0571
16.1009,6.1059
16.0521,6.1789
16.0350,6.2650
16.0350,6.7150
16.0521,6.8011
16.1009,6.8741
16.1739,6.9229
16.2600,6.9400
16.7600,6.9400
16.8461,6.9229
16.9191,6.8741
16.9679,6.8011
16.9850,6.7150
16.9850,6.2650
16.9679,6.1789
16.9191,6.1059
16.8461,6.0571
16.7600,6.0400
Z" /> 
<path style="fill:none; 
stroke:#000000; stroke-width:0.0500; stroke-opacity:1; 
stroke-linecap:round; stroke-linejoin:round;fill:none"
d="M 25.2730,0.0000
5.7150,0.0000
5.7150,33.0200
25.2730,33.0200
Z" /> 
</g>
<g style="fill:#FFFFFF; fill-opacity:1.0000; stroke:none;">
<circle cx="16.5100" cy="9.5250" r="0.0127" /> 
</g>
<g style="fill:#FFFFFF; fill-opacity:1.0000; stroke:none;">
<circle cx="16.5100" cy="1.9050" r="0.0127" /> 
</g>
<g style="fill:#FFFFFF; fill-opacity:1.0000; stroke:none;">
<circle cx="18.4150" cy="31.7500" r="0.4000" /> 
</g>
<g style="fill:#FFFFFF; fill-opacity:1.0000; stroke:none;">
<circle cx="18.4150" cy="29.2500" r="0.4000" /> 
</g>
<g style="fill:#FFFFFF; fill-opacity:1.0000; stroke:none;">
<circle cx="24.0425" cy="3.8100" r="0.5000" /> 
</g>
<g style="fill:#FFFFFF; fill-opacity:1.0000; stroke:none;">
<circle cx="24.0425" cy="6.3500" r="0.2540" /> 
</g>
<g style="fill:#FFFFFF; fill-opacity:1.0000; stroke:none;">
<circle cx="24.0425" cy="8.8900" r="0.2540" /> 
</g>
<g style="fill:#FFFFFF; fill-opacity:1.0000; stroke:none;">
<circle cx="24.0425" cy="11.4300" r="0.2540" /> 
</g>
<g style="fill:#FFFFFF; fill-opacity:1.0000; stroke:none;">
<circle cx="24.0425" cy="13.9700" r="0.2540" /> 
</g>
<g style="fill:#FFFFFF; fill-opacity:1.0000; stroke:none;">
<circle cx="24.0425" cy="16.5100" r="0.2540" /> 
</g>
<g style="fill:#FFFFFF; fill-opacity:1.0000; stroke:none;">
<circle cx="24.0425" cy="19.0500" r="0.2540" /> 
</g>
<g style="fill:#FFFFFF; fill-opacity:1.0000; stroke:none;">
<circle cx="24.0425" cy="21.5900" r="0.2540" /> 
</g>
<g style="fill:#FFFFFF; fill-opacity:1.0000; stroke:none;">
<circle cx="24.0425" cy="24.1300" r="0.2540" /> 
</g>
<g style="fill:#FFFFFF; fill-opacity:1.0000; stroke:none;">
<circle cx="24.0425" cy="26.6700" r="0.5000" /> 
</g>
<g style="fill:#FFFFFF; fill-opacity:1.0000; stroke:none;">
<circle cx="24.0425" cy="29.2100" r="0.2540" /> 
</g>
<g style="fill:#FFFFFF; fill-opacity:1.0000; stroke:none;">
<circle cx="24.0425" cy="31.7500" r="0.2540" /> 
</g>
<g style="fill:#FFFFFF; fill-opacity:1.0000; stroke:none;">
<circle cx="8.8025" cy="3.8100" r="0.2540" /> 
</g>
<g style="fill:#FFFFFF; fill-opacity:1.0000; stroke:none;">
<circle cx="8.8025" cy="6.3500" r="0.2540" /> 
</g>
<g style="fill:#FFFFFF; fill-opacity:1.0000; stroke:none;">
<circle cx="8.8025" cy="8.8900" r="0.2540" /> 
</g>
<g style="fill:#FFFFFF; fill-opacity:1.0000; stroke:none;">
<circle cx="8.8025" cy="11.4300" r="0.2540" /> 
</g>
<g style="fill:#FFFFFF; fill-opacity:1.0000; stroke:none;">
<circle cx="8.8025" cy="13.9700" r="0.2540" /> 
</g>
<g style="fill:#FFFFFF; fill-opacity:1.0000; stroke:none;">
<circle cx="8.8025" cy="16.5100" r="0.2540" /> 
</g>
<g style="fill:#FFFFFF; fill-opacity:1.0000; stroke:none;">
<circle cx="8.8025" cy="19.0500" r="0.2540" /> 
</g>
<g style="fill:#FFFFFF; fill-opacity:1.0000; stroke:none;">
<circle cx="8.8025" cy="21.5900" r="0.2540" /> 
</g>
<g style="fill:#FFFFFF; fill-opacity:1.0000; stroke:none;">
<circle cx="8.8025" cy="24.1300" r="0.2540" /> 
</g>
<g style="fill:#FFFFFF; fill-opacity:1.0000; stroke:none;">
<circle cx="8.8025" cy="26.6700" r="0.2540" /> 
</g>
<g style="fill:#FFFFFF; fill-opacity:1.0000; stroke:none;">
<circle cx="8.8025" cy="29.2100" r="0.2540" /> 
</g>
<g style="fill:#FFFFFF; fill-opacity:1.0000; stroke:none;">
<circle cx="8.8025" cy="31.7500" r="0.2540" /> 
</g>
<g style="fill:#FFFFFF; fill-opacity:1.0000; stroke:none;">
<circle cx="21.5025" cy="26.6700" r="0.5000" /> 
</g>
<g style="fill:#FFFFFF; fill-opacity:1.0000; stroke:none;">
<circle cx="18.9625" cy="26.6700" r="0.5000" /> 
</g>
<g style="fill:#FFFFFF; fill-opacity:1.0000; stroke:none;">
<circle cx="16.4225" cy="26.6700" r="0.5000" /> 
</g>
<g style="fill:#FFFFFF; fill-opacity:1.0000; stroke:none;">
<circle cx="24.0425" cy="1.2700" r="0.2540" /> 
</g>
<g style="fill:#FFFFFF; fill-opacity:1.0000; stroke:none;">
<circle cx="8.8025" cy="1.2700" r="0.2540" /> 
</g> 
</svg>
