<?xml version="1.0" standalone="no"?>
 <!DOCTYPE svg PUBLIC "-//W3C//DTD SVG 1.1//EN" 
 "http://www.w3.org/Graphics/SVG/1.1/DTD/svg11.dtd"> 
<svg
  xmlns:svg="http://www.w3.org/2000/svg"
  xmlns="http://www.w3.org/2000/svg"
  xmlns:xlink="http://www.w3.org/1999/xlink"
  version="1.1"
  width="25.4000mm" height="33.0200mm" viewBox="0.0000 0.0000 25.4000 33.0200">
<title>SVG Image created as back.svg date 2026/01/04 09:24:35 </title>
  <desc>Image generated by PCBNEW </desc>
<g style="fill:#000000; fill-opacity:1.0000;stroke:#000000; stroke-opacity:1.0000;
stroke-linecap:round; stroke-linejoin:round;"
 transform="translate(0 0) scale(1 1)">
</g>
<g style="fill:#000000; fill-opacity:1.0000; 
stroke:#000000; stroke-width:0.0212; stroke-opacity:1; 
stroke-linecap:round; stroke-linejoin:round;">
<rect x="-5.025000" y="-6.713250" width="38.595412" height="49.733250" rx="0.000000" />
<path style="fill:#FFFFFF; fill-opacity:1.0000; stroke:none;fill-rule:evenodd;"
d="M 19.4310,10.9220
19.4310,8.3820
14.8590,8.3820
14.8590,10.9220
Z" /> 
<path style="fill:#FFFFFF; fill-opacity:1.0000; stroke:none;fill-rule:evenodd;"
d="M 13.9700,0.0000
13.9700,3.8100
19.0500,3.8100
19.0500,0.0000
Z" /> 
<path style="fill:#FFFFFF; fill-opacity:1.0000; stroke:none;fill-rule:evenodd;"
d="M 18.9650,32.5500
19.0607,32.5310
19.1418,32.4768
19.1960,32.3957
19.2150,32.3000
19.2150,31.2000
19.1960,31.1043
19.1418,31.0232
19.0607,30.9690
18.9650,30.9500
17.8650,30.9500
17.7693,30.9690
17.6882,31.0232
17.6340,31.1043
17.6150,31.2000
17.6150,32.3000
17.6340,32.3957
17.6882,32.4768
17.7693,32.5310
17.8650,32.5500
Z" /> 
</g>
<g style="fill:#FFFFFF; fill-opacity:1.0000; stroke:none;">
<circle cx="18.4150" cy="29.2500" r="0.8000" /> 
<path style="fill:#FFFFFF; fill-opacity:1.0000; stroke:none;fill-rule:evenodd;"
d="M 24.9315,4.4450
24.9315,3.1750
23.1535,3.1750
23.1535,4.4450
Z" /> 
<path style="fill:#FFFFFF; fill-opacity:1.0000; stroke:none;fill-rule:evenodd;"
d="M 24.8045,6.9850
24.8045,5.7150
21.2485,5.7150
21.2485,6.9850
Z" /> 
<path style="fill:#FFFFFF; fill-opacity:1.0000; stroke:none;fill-rule:evenodd;"
d="M 24.8045,9.5250
24.8045,8.2550
21.2485,8.2550
21.2485,9.5250
Z" /> 
<path style="fill:#FFFFFF; fill-opacity:1.0000; stroke:none;fill-rule:evenodd;"
d="M 24.8045,12.0650
24.8045,10.7950
21.2485,10.7950
21.2485,12.0650
Z" /> 
<path style="fill:#FFFFFF; fill-opacity:1.0000; stroke:none;fill-rule:evenodd;"
d="M 24.8045,14.6050
24.8045,13.3350
21.2485,13.3350
21.2485,14.6050
Z" /> 
<path style="fill:#FFFFFF; fill-opacity:1.0000; stroke:none;fill-rule:evenodd;"
d="M 24.8045,17.1450
24.8045,15.8750
21.2485,15.8750
21.2485,17.1450
Z" /> 
<path style="fill:#FFFFFF; fill-opacity:1.0000; stroke:none;fill-rule:evenodd;"
d="M 24.8045,19.6850
24.8045,18.4150
21.2485,18.4150
21.2485,19.6850
Z" /> 
<path style="fill:#FFFFFF; fill-opacity:1.0000; stroke:none;fill-rule:evenodd;"
d="M 24.8045,22.2250
24.8045,20.9550
21.2485,20.9550
21.2485,22.2250
Z" /> 
<path style="fill:#FFFFFF; fill-opacity:1.0000; stroke:none;fill-rule:evenodd;"
d="M 24.8045,24.7650
24.8045,23.4950
21.2485,23.4950
21.2485,24.7650
Z" /> 
<path style="fill:#FFFFFF; fill-opacity:1.0000; stroke:none;fill-rule:evenodd;"
d="M 24.9315,27.3050
24.9315,26.0350
23.1535,26.0350
23.1535,27.3050
Z" /> 
<path style="fill:#FFFFFF; fill-opacity:1.0000; stroke:none;fill-rule:evenodd;"
d="M 24.8045,29.8450
24.8045,28.5750
21.2485,28.5750
21.2485,29.8450
Z" /> 
<path style="fill:#FFFFFF; fill-opacity:1.0000; stroke:none;fill-rule:evenodd;"
d="M 24.8045,32.3850
24.8045,31.1150
21.2485,31.1150
21.2485,32.3850
Z" /> 
<path style="fill:#FFFFFF; fill-opacity:1.0000; stroke:none;fill-rule:evenodd;"
d="M 11.5965,4.4450
11.5965,3.1750
8.0405,3.1750
8.0405,4.4450
Z" /> 
<path style="fill:#FFFFFF; fill-opacity:1.0000; stroke:none;fill-rule:evenodd;"
d="M 11.5965,6.9850
11.5965,5.7150
8.0405,5.7150
8.0405,6.9850
Z" /> 
<path style="fill:#FFFFFF; fill-opacity:1.0000; stroke:none;fill-rule:evenodd;"
d="M 11.5965,9.5250
11.5965,8.2550
8.0405,8.2550
8.0405,9.5250
Z" /> 
<path style="fill:#FFFFFF; fill-opacity:1.0000; stroke:none;fill-rule:evenodd;"
d="M 11.5965,12.0650
11.5965,10.7950
8.0405,10.7950
8.0405,12.0650
Z" /> 
<path style="fill:#FFFFFF; fill-opacity:1.0000; stroke:none;fill-rule:evenodd;"
d="M 11.5965,14.6050
11.5965,13.3350
8.0405,13.3350
8.0405,14.6050
Z" /> 
<path style="fill:#FFFFFF; fill-opacity:1.0000; stroke:none;fill-rule:evenodd;"
d="M 11.5965,17.1450
11.5965,15.8750
8.0405,15.8750
8.0405,17.1450
Z" /> 
<path style="fill:#FFFFFF; fill-opacity:1.0000; stroke:none;fill-rule:evenodd;"
d="M 11.5965,19.6850
11.5965,18.4150
8.0405,18.4150
8.0405,19.6850
Z" /> 
<path style="fill:#FFFFFF; fill-opacity:1.0000; stroke:none;fill-rule:evenodd;"
d="M 11.5965,22.2250
11.5965,20.9550
8.0405,20.9550
8.0405,22.2250
Z" /> 
<path style="fill:#FFFFFF; fill-opacity:1.0000; stroke:none;fill-rule:evenodd;"
d="M 11.5965,24.7650
11.5965,23.4950
8.0405,23.4950
8.0405,24.7650
Z" /> 
<path style="fill:#FFFFFF; fill-opacity:1.0000; stroke:none;fill-rule:evenodd;"
d="M 11.5965,27.3050
11.5965,26.0350
8.0405,26.0350
8.0405,27.3050
Z" /> 
<path style="fill:#FFFFFF; fill-opacity:1.0000; stroke:none;fill-rule:evenodd;"
d="M 11.5965,29.8450
11.5965,28.5750
8.0405,28.5750
8.0405,29.8450
Z" /> 
<path style="fill:#FFFFFF; fill-opacity:1.0000; stroke:none;fill-rule:evenodd;"
d="M 11.5965,32.3850
11.5965,31.1150
8.0405,31.1150
8.0405,32.3850
Z" /> 
</g>
<g style="fill:#FFFFFF; fill-opacity:1.0000; stroke:none;">
<circle cx="21.5025" cy="26.6700" r="0.9000" /> 
</g>
<g style="fill:#FFFFFF; fill-opacity:1.0000; stroke:none;">
<circle cx="18.9625" cy="26.6700" r="0.9000" /> 
</g>
<g style="fill:#FFFFFF; fill-opacity:1.0000; stroke:none;">
<circle cx="16.4225" cy="26.6700" r="0.9000" /> 
<path style="fill:#FFFFFF; fill-opacity:1.0000; stroke:none;fill-rule:evenodd;"
d="M 24.8045,1.9050
24.8045,0.6350
21.2485,0.6350
21.2485,1.9050
Z" /> 
<path style="fill:#FFFFFF; fill-opacity:1.0000; stroke:none;fill-rule:evenodd;"
d="M 11.5965,1.9050
11.5965,0.6350
8.0405,0.6350
8.0405,1.9050
Z" /> 
<path style="fill:#FFFFFF; fill-opacity:1.0000; stroke:none;fill-rule:evenodd;"
d="M 14.3300,21.0000
14.2535,21.0152
14.1886,21.0586
14.1452,21.1235
14.1300,21.2000
14.1300,21.6000
14.1452,21.6765
14.1886,21.7414
14.2535,21.7848
14.3300,21.8000
14.8800,21.8000
14.9565,21.7848
15.0214,21.7414
15.0648,21.6765
15.0800,21.6000
15.0800,21.2000
15.0648,21.1235
15.0214,21.0586
14.9565,21.0152
14.8800,21.0000
Z" /> 
<path style="fill:#FFFFFF; fill-opacity:1.0000; stroke:none;fill-rule:evenodd;"
d="M 14.3300,22.6500
14.2535,22.6652
14.1886,22.7086
14.1452,22.7735
14.1300,22.8500
14.1300,23.2500
14.1452,23.3265
14.1886,23.3914
14.2535,23.4348
14.3300,23.4500
14.8800,23.4500
14.9565,23.4348
15.0214,23.3914
15.0648,23.3265
15.0800,23.2500
15.0800,22.8500
15.0648,22.7735
15.0214,22.7086
14.9565,22.6652
14.8800,22.6500
Z" /> 
<path style="fill:#FFFFFF; fill-opacity:1.0000; stroke:none;fill-rule:evenodd;"
d="M 15.6250,4.8710
15.5389,4.8881
15.4659,4.9369
15.4171,5.0099
15.4000,5.0960
15.4000,5.5460
15.4171,5.6321
15.4659,5.7051
15.5389,5.7539
15.6250,5.7710
16.1250,5.7710
16.2111,5.7539
16.2841,5.7051
16.3329,5.6321
16.3500,5.5460
16.3500,5.0960
16.3329,5.0099
16.2841,4.9369
16.2111,4.8881
16.1250,4.8710
Z" /> 
<path style="fill:#FFFFFF; fill-opacity:1.0000; stroke:none;fill-rule:evenodd;"
d="M 15.6250,6.4210
15.5389,6.4381
15.4659,6.4869
15.4171,6.5599
15.4000,6.6460
15.4000,7.0960
15.4171,7.1821
15.4659,7.2551
15.5389,7.3039
15.6250,7.3210
16.1250,7.3210
16.2111,7.3039
16.2841,7.2551
16.3329,7.1821
16.3500,7.0960
16.3500,6.6460
16.3329,6.5599
16.2841,6.4869
16.2111,6.4381
16.1250,6.4210
Z" /> 
<path style="fill:#FFFFFF; fill-opacity:1.0000; stroke:none;fill-rule:evenodd;"
d="M 16.5550,23.1100
16.5721,23.1961
16.6209,23.2691
16.6939,23.3179
16.7800,23.3350
17.2300,23.3350
17.3161,23.3179
17.3891,23.2691
17.4379,23.1961
17.4550,23.1100
17.4550,22.6100
17.4379,22.5239
17.3891,22.4509
17.3161,22.4021
17.2300,22.3850
16.7800,22.3850
16.6939,22.4021
16.6209,22.4509
16.5721,22.5239
16.5550,22.6100
Z" /> 
<path style="fill:#FFFFFF; fill-opacity:1.0000; stroke:none;fill-rule:evenodd;"
d="M 18.1050,23.1100
18.1221,23.1961
18.1709,23.2691
18.2439,23.3179
18.3300,23.3350
18.7800,23.3350
18.8661,23.3179
18.9391,23.2691
18.9879,23.1961
19.0050,23.1100
19.0050,22.6100
18.9879,22.5239
18.9391,22.4509
18.8661,22.4021
18.7800,22.3850
18.3300,22.3850
18.2439,22.4021
18.1709,22.4509
18.1221,22.5239
18.1050,22.6100
Z" /> 
<path style="fill:#FFFFFF; fill-opacity:1.0000; stroke:none;fill-rule:evenodd;"
d="M 17.5300,4.8710
17.4439,4.8881
17.3709,4.9369
17.3221,5.0099
17.3050,5.0960
17.3050,5.5460
17.3221,5.6321
17.3709,5.7051
17.4439,5.7539
17.5300,5.7710
18.0300,5.7710
18.1161,5.7539
18.1891,5.7051
18.2379,5.6321
18.2550,5.5460
18.2550,5.0960
18.2379,5.0099
18.1891,4.9369
18.1161,4.8881
18.0300,4.8710
Z" /> 
<path style="fill:#FFFFFF; fill-opacity:1.0000; stroke:none;fill-rule:evenodd;"
d="M 17.5300,6.4210
17.4439,6.4381
17.3709,6.4869
17.3221,6.5599
17.3050,6.6460
17.3050,7.0960
17.3221,7.1821
17.3709,7.2551
17.4439,7.3039
17.5300,7.3210
18.0300,7.3210
18.1161,7.3039
18.1891,7.2551
18.2379,7.1821
18.2550,7.0960
18.2550,6.6460
18.2379,6.5599
18.1891,6.4869
18.1161,6.4381
18.0300,6.4210
Z" /> 
</g>
<g style="fill:none; 
stroke:#FFFFFF; stroke-width:0.7620; stroke-opacity:1; 
stroke-linecap:round; stroke-linejoin:round;">
<path d="M9.2710 3.8100
L8.8025 3.8100
" />
</g>
<g style="fill:none; 
stroke:#FFFFFF; stroke-width:0.2000; stroke-opacity:1; 
stroke-linecap:round; stroke-linejoin:round;">
<path d="M16.5100 1.9050
L16.5100 2.5400
" />
</g>
<g style="fill:none; 
stroke:#FFFFFF; stroke-width:0.7620; stroke-opacity:1; 
stroke-linecap:round; stroke-linejoin:round;">
<path d="M8.8025 1.2700
L9.7790 1.2700
" />
</g>
<g style="fill:none; 
stroke:#FFFFFF; stroke-width:0.5080; stroke-opacity:1; 
stroke-linecap:round; stroke-linejoin:round;">
<path d="M17.7800 3.1750
L17.7800 5.3210
" />
</g>
<g style="fill:none; 
stroke:#FFFFFF; stroke-width:0.7620; stroke-opacity:1; 
stroke-linecap:round; stroke-linejoin:round;">
<path d="M10.5410 2.0320
L10.5410 2.5400
" />
</g>
<g style="fill:none; 
stroke:#FFFFFF; stroke-width:0.2000; stroke-opacity:1; 
stroke-linecap:round; stroke-linejoin:round;">
<path d="M16.5100 2.5400
L15.8750 3.1750
" />
<path d="M16.5100 1.9050
L17.7800 3.1750
" />
<path d="M8.8025 3.8100
L10.1600 3.8100
" />
</g>
<g style="fill:none; 
stroke:#FFFFFF; stroke-width:0.7620; stroke-opacity:1; 
stroke-linecap:round; stroke-linejoin:round;">
<path d="M9.7790 1.2700
L10.5410 2.0320
" />
</g>
<g style="fill:none; 
stroke:#FFFFFF; stroke-width:0.5080; stroke-opacity:1; 
stroke-linecap:round; stroke-linejoin:round;">
<path d="M15.8750 3.1750
L15.8750 5.3210
" />
<path d="M13.3350 20.1300
L14.6050 21.4000
" />
</g>
<g style="fill:none; 
stroke:#FFFFFF; stroke-width:0.7620; stroke-opacity:1; 
stroke-linecap:round; stroke-linejoin:round;">
<path d="M10.5410 2.5400
L9.2710 3.8100
" />
</g>
<g style="fill:none; 
stroke:#FFFFFF; stroke-width:0.5080; stroke-opacity:1; 
stroke-linecap:round; stroke-linejoin:round;">
<path d="M15.8750 5.3210
L13.8560 5.3210
" />
<path d="M13.8560 5.3210
L13.3350 5.8420
" />
<path d="M13.3350 5.8420
L13.3350 20.1300
" />
</g>
<g style="fill:none; 
stroke:#FFFFFF; stroke-width:0.7620; stroke-opacity:1; 
stroke-linecap:round; stroke-linejoin:round;">
<path d="M8.8025 1.2700
L15.8750 1.2700
" />
<path d="M18.4150 31.7500
L13.3350 31.7500
" />
<path d="M24.0425 31.7500
L18.4150 31.7500
" />
<path d="M17.0050 22.8600
L14.7950 22.8600
" />
<path d="M13.3350 24.1300
L14.6050 23.0500
" />
<path d="M13.3350 31.7500
L13.3350 24.1300
" />
<path d="M14.7950 22.8600
L14.6050 23.0500
" />
<path d="M18.4150 10.9220
L17.1450 9.6520
" />
<path d="M18.5550 22.8600
L18.5550 23.9900
" />
<path d="M8.8025 6.3500
L8.9425 6.4900
" />
</g>
<g style="fill:none; 
stroke:#FFFFFF; stroke-width:0.5080; stroke-opacity:1; 
stroke-linecap:round; stroke-linejoin:round;">
<path d="M17.7800 8.2550
L16.5100 9.5250
" />
<path d="M19.9390 1.2700
L19.9390 4.5720
" />
</g>
<g style="fill:none; 
stroke:#FFFFFF; stroke-width:0.7620; stroke-opacity:1; 
stroke-linecap:round; stroke-linejoin:round;">
<path d="M14.6050 29.2100
L15.2400 29.2100
" />
<path d="M15.2800 29.2500
L18.4150 29.2500
" />
</g>
<g style="fill:none; 
stroke:#FFFFFF; stroke-width:0.5080; stroke-opacity:1; 
stroke-linecap:round; stroke-linejoin:round;">
<path d="M17.7800 6.8710
L17.7800 8.2550
" />
</g>
<g style="fill:none; 
stroke:#FFFFFF; stroke-width:0.7620; stroke-opacity:1; 
stroke-linecap:round; stroke-linejoin:round;">
<path d="M14.6050 25.4000
L14.6050 29.2100
" />
</g>
<g style="fill:none; 
stroke:#FFFFFF; stroke-width:0.5080; stroke-opacity:1; 
stroke-linecap:round; stroke-linejoin:round;">
<path d="M19.9390 4.5720
L19.4310 5.0800
" />
<path d="M19.4310 6.2230
L18.7830 6.8710
" />
</g>
<g style="fill:none; 
stroke:#FFFFFF; stroke-width:0.7620; stroke-opacity:1; 
stroke-linecap:round; stroke-linejoin:round;">
<path d="M17.1450 8.8900
L16.5100 9.5250
" />
<path d="M18.4150 11.4300
L18.4150 10.9220
" />
</g>
<g style="fill:none; 
stroke:#FFFFFF; stroke-width:0.5080; stroke-opacity:1; 
stroke-linecap:round; stroke-linejoin:round;">
<path d="M24.0425 1.2700
L19.9390 1.2700
" />
<path d="M18.7830 6.8710
L17.7800 6.8710
" />
</g>
<g style="fill:none; 
stroke:#FFFFFF; stroke-width:0.7620; stroke-opacity:1; 
stroke-linecap:round; stroke-linejoin:round;">
<path d="M24.0425 11.4300
L18.4150 11.4300
" />
<path d="M15.2400 24.7650
L14.6050 25.4000
" />
<path d="M15.2400 29.2100
L15.2800 29.2500
" />
<path d="M18.4150 11.4300
L18.5550 22.8600
" />
</g>
<g style="fill:none; 
stroke:#FFFFFF; stroke-width:0.5080; stroke-opacity:1; 
stroke-linecap:round; stroke-linejoin:round;">
<path d="M17.7800 6.8710
L15.8750 6.8710
" />
<path d="M19.4310 5.0800
L19.4310 6.2230
" />
</g>
<g style="fill:none; 
stroke:#FFFFFF; stroke-width:0.7620; stroke-opacity:1; 
stroke-linecap:round; stroke-linejoin:round;">
<path d="M18.5550 23.9900
L17.7800 24.7650
" />
<path d="M17.7800 24.7650
L15.2400 24.7650
" />
<path d="M24.0425 8.8900
L17.1450 8.8900
" />
<path style="fill:#FFFFFF; fill-opacity:1.0000; stroke:none;fill-rule:evenodd;"
d="M 0.6567,0.5198
0.5746,0.5746
0.5198,0.6567
0.5005,0.7535
0.5005,32.2665
0.5198,32.3633
0.5746,32.4454
0.6567,32.5002
0.7535,32.5195
6.5170,32.5195
6.6138,32.5002
6.6959,32.4454
6.7507,32.3633
6.7700,32.2665
6.7700,31.0498
6.7700,31.0497
6.7806,30.9155
6.7806,30.9155
6.7806,30.9154
6.8364,30.6937
6.8860,30.5846
6.9085,30.4885
6.8925,30.3911
6.8860,30.3754
6.8365,30.2663
6.8364,30.2663
6.7806,30.0446
6.7700,29.9102
6.7700,28.5098
6.7806,28.3754
6.8364,28.1537
6.8860,28.0446
6.9085,27.9485
6.8925,27.8511
6.8860,27.8354
6.8365,27.7263
6.8364,27.7263
6.7806,27.5046
6.7700,27.3702
6.7700,25.9698
6.7806,25.8354
6.8364,25.6137
6.8860,25.5046
6.9085,25.4085
6.8925,25.3111
6.8860,25.2954
6.8365,25.1863
6.8364,25.1863
6.7806,24.9646
6.7700,24.8302
6.7700,23.4298
6.7734,23.3865
6.7806,23.2955
6.7806,23.2955
6.7806,23.2954
6.8364,23.0737
6.8860,22.9646
6.9085,22.8685
6.8925,22.7711
6.8860,22.7554
6.8607,22.6997
6.8364,22.6463
6.7806,22.4246
6.7700,22.2902
6.7700,20.8898
6.7787,20.7790
6.7806,20.7555
6.7806,20.7555
6.7806,20.7554
6.8364,20.5337
6.8860,20.4246
6.9085,20.3285
6.8925,20.2311
6.8860,20.2154
6.8365,20.1063
6.8364,20.1063
6.7806,19.8846
6.7700,19.7502
6.7700,18.3498
6.7806,18.2154
6.8364,17.9937
6.8860,17.8846
6.9085,17.7885
6.8925,17.6911
6.8860,17.6754
6.8365,17.5663
6.8364,17.5663
6.7806,17.3446
6.7700,17.2102
6.7700,15.8098
6.7806,15.6754
6.8364,15.4537
6.8860,15.3446
6.9085,15.2485
6.8925,15.1511
6.8860,15.1354
6.8365,15.0263
6.8364,15.0263
6.7806,14.8046
6.7700,14.6702
6.7700,13.2698
6.7806,13.1354
6.8364,12.9137
6.8860,12.8046
6.9085,12.7085
6.8925,12.6111
6.8860,12.5954
6.8365,12.4863
6.8364,12.4863
6.7806,12.2646
6.7700,12.1302
6.7700,10.7298
6.7806,10.5954
6.8364,10.3737
6.8860,10.2646
6.9085,10.1685
6.8925,10.0711
6.8860,10.0554
6.8607,9.9997
6.8364,9.9463
6.7806,9.7246
6.7700,9.5902
6.7700,8.1898
6.7746,8.1319
6.7806,8.0555
6.7806,8.0555
6.7806,8.0554
6.8364,7.8337
6.9310,7.6255
7.0613,7.4375
7.2230,7.2758
7.2230,7.2758
7.4203,7.1391
7.4188,7.1368
7.4791,7.0847
7.5234,6.9965
7.5325,6.9292
7.5325,6.8580
9.5655,6.8580
9.6623,6.8387
9.7444,6.7839
9.7992,6.7018
9.8185,6.6050
9.8185,6.2995
9.0565,6.2995
9.0565,6.4005
9.0178,6.4939
8.9464,6.5653
8.8530,6.6040
8.7520,6.6040
8.6586,6.5653
8.5872,6.4939
8.5485,6.4005
8.5485,6.2995
8.5872,6.2061
8.6586,6.1347
8.7520,6.0960
8.8530,6.0960
8.9464,6.1347
9.0178,6.2061
9.0565,6.2995
9.8185,6.2995
9.8185,6.0950
9.7992,5.9982
9.7444,5.9161
9.6623,5.8613
9.5655,5.8420
7.5325,5.8420
7.5325,5.7708
7.5132,5.6739
7.4584,5.5919
7.4194,5.5622
7.4203,5.5609
7.3546,5.5154
7.2230,5.4242
7.0613,5.2625
6.9310,5.0745
6.8364,4.8663
6.7806,4.6446
6.7700,4.5102
6.7700,3.1098
6.7806,2.9754
6.8364,2.7537
6.8400,2.7459
6.8860,2.6446
6.9085,2.5485
6.8925,2.4511
6.8860,2.4354
6.8365,2.3263
6.8364,2.3263
6.7806,2.1046
6.7700,1.9702
6.7700,0.7535
6.7507,0.6567
6.6959,0.5746
6.6138,0.5198
6.5170,0.5005
0.7535,0.5005
Z" /> 
<path style="fill:#FFFFFF; fill-opacity:1.0000; stroke:none;fill-rule:evenodd;"
d="M 19.6282,5.7487
19.5461,5.8036
19.4913,5.8857
19.4774,5.9306
19.4682,5.9742
19.4682,5.9742
19.4682,5.9742
19.3781,6.2051
19.2513,6.4180
19.0911,6.6071
18.9020,6.7673
18.7379,6.8651
18.6646,6.9312
18.6221,7.0203
18.6170,7.1189
18.6501,7.2119
18.6623,7.2305
18.7276,7.3210
18.6988,7.4079
18.6988,7.4079
18.6493,7.4882
18.6149,7.5807
18.6185,7.6793
18.6595,7.7691
18.7318,7.8363
18.8243,7.8708
18.8647,7.8740
19.4796,7.8740
19.5401,7.8805
19.5401,7.8805
19.6770,7.9316
19.6770,7.9316
19.7939,8.0191
19.7939,8.0191
19.8814,8.1360
19.8814,8.1360
19.9325,8.2729
19.9325,8.2729
19.9390,8.3334
19.9390,9.1440
17.3980,9.1440
17.3012,9.1633
17.2191,9.2181
17.1643,9.3002
17.1450,9.3970
17.1450,9.6393
17.1503,9.6393
17.1577,9.6467
17.1577,9.6573
17.1503,9.6647
17.1397,9.6647
17.1323,9.6573
17.1323,9.6520
16.8900,9.6520
16.7932,9.6713
16.7111,9.7261
16.6563,9.8082
16.6370,9.9050
16.6370,11.4300
15.1125,11.4300
15.0157,11.4493
14.9336,11.5041
14.8788,11.5862
14.8595,11.6830
14.8595,19.3937
14.8788,19.4906
14.9336,19.5726
15.0526,19.6916
15.1347,19.7465
15.1796,19.7603
15.3010,19.7858
15.3010,19.7858
15.5281,19.8744
15.5281,19.8744
15.7374,19.9991
15.7374,19.9991
15.9234,20.1566
16.0809,20.3426
16.0809,20.3426
16.2056,20.5519
16.2056,20.5519
16.2942,20.7790
16.2942,20.7790
16.3239,20.9207
16.3626,21.0116
16.4332,21.0806
16.5248,21.1175
16.5872,21.1213
16.6974,21.1145
16.6975,21.1145
17.3125,21.1145
17.3126,21.1145
17.4156,21.1209
17.4156,21.1209
17.6582,21.1718
17.6582,21.1718
17.8891,21.2619
18.1020,21.3887
18.1020,21.3887
18.2911,21.5489
18.4513,21.7380
18.4513,21.7380
18.5491,21.9021
18.6152,21.9754
18.7043,22.0179
18.8029,22.0230
18.8959,21.9899
18.9145,21.9777
19.0050,21.9124
19.0919,21.9412
19.0919,21.9412
19.2377,22.0311
19.2377,22.0311
19.3589,22.1523
19.3589,22.1523
19.4488,22.2981
19.4488,22.2981
19.4789,22.3888
19.4811,22.4100
18.9785,22.4100
18.8817,22.4293
18.7996,22.4841
18.7448,22.5662
18.7255,22.6630
18.7255,23.0570
18.7448,23.1538
18.7996,23.2359
18.8817,23.2907
18.9785,23.3100
19.4688,23.3100
19.4437,23.4302
19.3589,23.5677
19.3589,23.5677
19.2377,23.6889
19.2377,23.6889
19.0919,23.7788
19.0919,23.7788
19.0050,23.8076
18.9145,23.7423
18.9136,23.7419
18.9129,23.7412
18.8687,23.7213
18.8247,23.7012
18.8238,23.7012
18.8229,23.7008
18.7745,23.6994
18.7261,23.6976
18.7252,23.6980
18.7242,23.6979
18.6789,23.7152
18.6336,23.7321
18.6329,23.7327
18.6319,23.7331
18.6266,23.7386
18.5613,23.7993
18.5602,23.8008
18.5543,23.8091
18.4513,23.9820
18.3281,24.1275
18.3218,24.1362
18.3060,24.1716
18.2871,24.2056
18.2859,24.2164
18.2814,24.2263
18.2803,24.2651
18.2759,24.3037
18.2789,24.3141
18.2786,24.3250
18.2924,24.3613
18.3031,24.3986
18.3099,24.4071
18.3137,24.4172
18.3404,24.4455
18.3645,24.4758
18.3741,24.4811
18.3815,24.4890
18.4169,24.5049
18.4509,24.5237
18.4617,24.5250
18.4716,24.5294
18.5104,24.5305
18.5490,24.5349
18.5611,24.5336
18.8202,24.4995
18.8202,24.4995
19.1048,24.4995
19.1048,24.4995
19.3869,24.5366
19.3869,24.5366
19.6595,24.6097
19.7580,24.6162
19.8515,24.5844
19.9257,24.5193
19.9694,24.4308
19.9780,24.3653
19.9780,23.4298
19.9780,23.4297
19.9886,23.2954
20.0444,23.0737
20.0940,22.9646
20.1165,22.8685
20.1005,22.7711
20.0940,22.7554
20.0800,22.7246
20.0444,22.6463
19.9886,22.4246
19.9780,22.2902
19.9780,20.8898
19.9867,20.7790
19.9886,20.7555
19.9886,20.7555
19.9886,20.7554
20.0444,20.5337
20.0940,20.4246
20.1165,20.3285
20.1005,20.2311
20.0940,20.2154
20.0445,20.1063
20.0444,20.1063
19.9886,19.8846
19.9780,19.7502
19.9780,18.3498
19.9886,18.2154
20.0444,17.9937
20.0940,17.8846
20.1165,17.7885
20.1005,17.6911
20.0940,17.6754
20.0445,17.5663
20.0444,17.5663
19.9886,17.3446
19.9780,17.2102
19.9780,15.8098
19.9886,15.6754
20.0444,15.4537
20.0940,15.3446
20.1165,15.2485
20.1005,15.1511
20.0940,15.1354
20.0445,15.0263
20.0444,15.0263
19.9886,14.8046
19.9780,14.6702
19.9780,13.2698
19.9886,13.1354
20.0444,12.9137
20.1390,12.7055
20.2693,12.5175
20.4310,12.3558
20.4310,12.3558
20.6283,12.2191
20.6268,12.2168
20.6871,12.1647
20.7314,12.0765
20.7405,12.0092
20.7405,11.9380
22.7735,11.9380
22.8703,11.9187
22.9524,11.8639
23.0072,11.7818
23.0265,11.6850
23.0265,11.4300
23.2815,11.4300
23.3783,11.4107
23.4604,11.3559
23.5152,11.2738
23.5345,11.1770
23.5345,10.9706
19.9390,10.9706
19.9325,11.0311
19.9325,11.0311
19.8814,11.1680
19.8814,11.1680
19.7939,11.2849
19.7939,11.2849
19.6770,11.3724
19.6770,11.3724
19.5401,11.4235
19.5401,11.4235
19.4796,11.4300
19.4796,11.4300
17.6530,11.4300
17.6530,10.1600
19.9390,10.1600
19.9390,10.9706
23.5345,10.9706
23.5345,10.2612
23.5374,10.2568
23.5567,10.1600
23.5374,10.0632
23.5345,10.0588
22.5185,10.0588
22.5156,10.0632
22.4963,10.1600
22.5156,10.2568
22.5185,10.2612
22.5185,10.9220
20.7405,10.9220
20.7405,10.7464
20.7405,10.7464
20.7470,10.6859
20.7470,10.6859
20.7981,10.5490
20.7981,10.5490
20.8856,10.4321
20.8856,10.4321
20.9785,10.3625
21.0002,10.3384
21.0249,10.3175
21.0329,10.3020
21.0445,10.2891
21.0553,10.2585
21.0701,10.2297
21.0715,10.2124
21.0773,10.1960
21.0756,10.1636
21.0783,10.1313
21.0730,10.1148
21.0720,10.0974
21.0580,10.0682
21.0482,10.0373
21.0373,10.0249
21.0294,10.0084
20.9844,9.9620
20.8773,9.8769
20.7981,9.7710
20.7981,9.7710
20.7470,9.6341
20.7470,9.6341
20.7405,9.5736
20.7405,9.5736
20.7405,9.3980
22.5185,9.3980
22.5185,10.0588
23.5345,10.0588
23.5345,9.1430
23.5152,9.0462
23.4604,8.9641
23.3783,8.9093
23.2815,8.8900
23.0265,8.8900
23.0265,8.6350
23.0072,8.5382
22.9524,8.4561
22.8703,8.4013
22.7735,8.3820
20.7405,8.3820
20.7405,8.3108
20.7212,8.2139
20.6664,8.1319
20.6274,8.1022
20.6283,8.1009
20.5102,8.0191
20.4310,7.9642
20.2693,7.8025
20.1390,7.6145
20.0444,7.4063
19.9886,7.1846
19.9780,7.0502
19.9780,5.9825
19.9587,5.8857
19.9039,5.8036
19.8218,5.7487
19.7250,5.7295
Z" /> 
<path style="fill:none; 
stroke:#FFFFFF; stroke-width:0.0500; stroke-opacity:1; 
stroke-linecap:round; stroke-linejoin:round;fill:none"
d="M 25.2730,0.0000
0.0000,0.0000
0.0000,33.0200
25.2730,33.0200
Z" /> 
</g>
<g style="fill:#000000; fill-opacity:1.0000; stroke:none;">
<circle cx="17.1450" cy="9.6520" r="0.0127" /> 
</g>
<g style="fill:#000000; fill-opacity:1.0000; stroke:none;">
<circle cx="16.5100" cy="1.9050" r="0.0127" /> 
</g>
<g style="fill:#000000; fill-opacity:1.0000; stroke:none;">
<circle cx="18.4150" cy="31.7500" r="0.4000" /> 
</g>
<g style="fill:#000000; fill-opacity:1.0000; stroke:none;">
<circle cx="18.4150" cy="29.2500" r="0.4000" /> 
</g>
<g style="fill:#000000; fill-opacity:1.0000; stroke:none;">
<circle cx="24.0425" cy="3.8100" r="0.2540" /> 
</g>
<g style="fill:#000000; fill-opacity:1.0000; stroke:none;">
<circle cx="24.0425" cy="6.3500" r="0.2540" /> 
</g>
<g style="fill:#000000; fill-opacity:1.0000; stroke:none;">
<circle cx="24.0425" cy="8.8900" r="0.2540" /> 
</g>
<g style="fill:#000000; fill-opacity:1.0000; stroke:none;">
<circle cx="24.0425" cy="11.4300" r="0.2540" /> 
</g>
<g style="fill:#000000; fill-opacity:1.0000; stroke:none;">
<circle cx="24.0425" cy="13.9700" r="0.2540" /> 
</g>
<g style="fill:#000000; fill-opacity:1.0000; stroke:none;">
<circle cx="24.0425" cy="16.5100" r="0.2540" /> 
</g>
<g style="fill:#000000; fill-opacity:1.0000; stroke:none;">
<circle cx="24.0425" cy="19.0500" r="0.2540" /> 
</g>
<g style="fill:#000000; fill-opacity:1.0000; stroke:none;">
<circle cx="24.0425" cy="21.5900" r="0.2540" /> 
</g>
<g style="fill:#000000; fill-opacity:1.0000; stroke:none;">
<circle cx="24.0425" cy="24.1300" r="0.2540" /> 
</g>
<g style="fill:#000000; fill-opacity:1.0000; stroke:none;">
<circle cx="24.0425" cy="26.6700" r="0.2540" /> 
</g>
<g style="fill:#000000; fill-opacity:1.0000; stroke:none;">
<circle cx="24.0425" cy="29.2100" r="0.2540" /> 
</g>
<g style="fill:#000000; fill-opacity:1.0000; stroke:none;">
<circle cx="24.0425" cy="31.7500" r="0.2540" /> 
</g>
<g style="fill:#000000; fill-opacity:1.0000; stroke:none;">
<circle cx="8.8025" cy="3.8100" r="0.2540" /> 
</g>
<g style="fill:#000000; fill-opacity:1.0000; stroke:none;">
<circle cx="8.8025" cy="6.3500" r="0.2540" /> 
</g>
<g style="fill:#000000; fill-opacity:1.0000; stroke:none;">
<circle cx="8.8025" cy="8.8900" r="0.2540" /> 
</g>
<g style="fill:#000000; fill-opacity:1.0000; stroke:none;">
<circle cx="8.8025" cy="11.4300" r="0.2540" /> 
</g>
<g style="fill:#000000; fill-opacity:1.0000; stroke:none;">
<circle cx="8.8025" cy="13.9700" r="0.2540" /> 
</g>
<g style="fill:#000000; fill-opacity:1.0000; stroke:none;">
<circle cx="8.8025" cy="16.5100" r="0.2540" /> 
</g>
<g style="fill:#000000; fill-opacity:1.0000; stroke:none;">
<circle cx="8.8025" cy="19.0500" r="0.2540" /> 
</g>
<g style="fill:#000000; fill-opacity:1.0000; stroke:none;">
<circle cx="8.8025" cy="21.5900" r="0.2540" /> 
</g>
<g style="fill:#000000; fill-opacity:1.0000; stroke:none;">
<circle cx="8.8025" cy="24.1300" r="0.2540" /> 
</g>
<g style="fill:#000000; fill-opacity:1.0000; stroke:none;">
<circle cx="8.8025" cy="26.6700" r="0.2540" /> 
</g>
<g style="fill:#000000; fill-opacity:1.0000; stroke:none;">
<circle cx="8.8025" cy="29.2100" r="0.2540" /> 
</g>
<g style="fill:#000000; fill-opacity:1.0000; stroke:none;">
<circle cx="8.8025" cy="31.7500" r="0.2540" /> 
</g>
<g style="fill:#000000; fill-opacity:1.0000; stroke:none;">
<circle cx="21.5025" cy="26.6700" r="0.5000" /> 
</g>
<g style="fill:#000000; fill-opacity:1.0000; stroke:none;">
<circle cx="18.9625" cy="26.6700" r="0.5000" /> 
</g>
<g style="fill:#000000; fill-opacity:1.0000; stroke:none;">
<circle cx="16.4225" cy="26.6700" r="0.5000" /> 
</g>
<g style="fill:#000000; fill-opacity:1.0000; stroke:none;">
<circle cx="24.0425" cy="1.2700" r="0.2540" /> 
</g>
<g style="fill:#000000; fill-opacity:1.0000; stroke:none;">
<circle cx="8.8025" cy="1.2700" r="0.2540" /> 
</g> 
</svg>
