<?xml version="1.0" standalone="no"?>
 <!DOCTYPE svg PUBLIC "-//W3C//DTD SVG 1.1//EN" 
 "http://www.w3.org/Graphics/SVG/1.1/DTD/svg11.dtd"> 
<svg
  xmlns:svg="http://www.w3.org/2000/svg"
  xmlns="http://www.w3.org/2000/svg"
  xmlns:xlink="http://www.w3.org/1999/xlink"
  version="1.1"
  width="25.4000mm" height="33.0200mm" viewBox="0.0000 0.0000 25.4000 33.0200">
<title>SVG Image created as mask-back.svg date 2026/01/04 09:24:36 </title>
  <desc>Image generated by PCBNEW </desc>
<g style="fill:#000000; fill-opacity:1.0000;stroke:#000000; stroke-opacity:1.0000;
stroke-linecap:round; stroke-linejoin:round;"
 transform="translate(0 0) scale(1 1)">
<path style="fill:#000000; fill-opacity:1.0000; stroke:none;fill-rule:evenodd;"
d="M 19.4310,10.9220
19.4310,8.3820
14.8590,8.3820
14.8590,10.9220
Z" /> 
<path style="fill:#000000; fill-opacity:1.0000; stroke:none;fill-rule:evenodd;"
d="M 13.9700,0.0000
13.9700,3.8100
19.0500,3.8100
19.0500,0.0000
Z" /> 
<path style="fill:#000000; fill-opacity:1.0000; stroke:none;fill-rule:evenodd;"
d="M 18.9650,32.5500
19.0607,32.5310
19.1418,32.4768
19.1960,32.3957
19.2150,32.3000
19.2150,31.2000
19.1960,31.1043
19.1418,31.0232
19.0607,30.9690
18.9650,30.9500
17.8650,30.9500
17.7693,30.9690
17.6882,31.0232
17.6340,31.1043
17.6150,31.2000
17.6150,32.3000
17.6340,32.3957
17.6882,32.4768
17.7693,32.5310
17.8650,32.5500
Z" /> 
</g>
<g style="fill:#000000; fill-opacity:1.0000; stroke:none;">
<circle cx="18.4150" cy="29.2500" r="0.8000" /> 
<path style="fill:#000000; fill-opacity:1.0000; stroke:none;fill-rule:evenodd;"
d="M 24.9315,4.4450
24.9315,3.1750
23.1535,3.1750
23.1535,4.4450
Z" /> 
<path style="fill:#000000; fill-opacity:1.0000; stroke:none;fill-rule:evenodd;"
d="M 24.8045,6.9850
24.8045,5.7150
21.2485,5.7150
21.2485,6.9850
Z" /> 
<path style="fill:#000000; fill-opacity:1.0000; stroke:none;fill-rule:evenodd;"
d="M 24.8045,9.5250
24.8045,8.2550
21.2485,8.2550
21.2485,9.5250
Z" /> 
<path style="fill:#000000; fill-opacity:1.0000; stroke:none;fill-rule:evenodd;"
d="M 24.8045,12.0650
24.8045,10.7950
21.2485,10.7950
21.2485,12.0650
Z" /> 
<path style="fill:#000000; fill-opacity:1.0000; stroke:none;fill-rule:evenodd;"
d="M 24.8045,14.6050
24.8045,13.3350
21.2485,13.3350
21.2485,14.6050
Z" /> 
<path style="fill:#000000; fill-opacity:1.0000; stroke:none;fill-rule:evenodd;"
d="M 24.8045,17.1450
24.8045,15.8750
21.2485,15.8750
21.2485,17.1450
Z" /> 
<path style="fill:#000000; fill-opacity:1.0000; stroke:none;fill-rule:evenodd;"
d="M 24.8045,19.6850
24.8045,18.4150
21.2485,18.4150
21.2485,19.6850
Z" /> 
<path style="fill:#000000; fill-opacity:1.0000; stroke:none;fill-rule:evenodd;"
d="M 24.8045,22.2250
24.8045,20.9550
21.2485,20.9550
21.2485,22.2250
Z" /> 
<path style="fill:#000000; fill-opacity:1.0000; stroke:none;fill-rule:evenodd;"
d="M 24.8045,24.7650
24.8045,23.4950
21.2485,23.4950
21.2485,24.7650
Z" /> 
<path style="fill:#000000; fill-opacity:1.0000; stroke:none;fill-rule:evenodd;"
d="M 24.9315,27.3050
24.9315,26.0350
23.1535,26.0350
23.1535,27.3050
Z" /> 
<path style="fill:#000000; fill-opacity:1.0000; stroke:none;fill-rule:evenodd;"
d="M 24.8045,29.8450
24.8045,28.5750
21.2485,28.5750
21.2485,29.8450
Z" /> 
<path style="fill:#000000; fill-opacity:1.0000; stroke:none;fill-rule:evenodd;"
d="M 24.8045,32.3850
24.8045,31.1150
21.2485,31.1150
21.2485,32.3850
Z" /> 
<path style="fill:#000000; fill-opacity:1.0000; stroke:none;fill-rule:evenodd;"
d="M 11.5965,4.4450
11.5965,3.1750
8.0405,3.1750
8.0405,4.4450
Z" /> 
<path style="fill:#000000; fill-opacity:1.0000; stroke:none;fill-rule:evenodd;"
d="M 11.5965,6.9850
11.5965,5.7150
8.0405,5.7150
8.0405,6.9850
Z" /> 
<path style="fill:#000000; fill-opacity:1.0000; stroke:none;fill-rule:evenodd;"
d="M 11.5965,9.5250
11.5965,8.2550
8.0405,8.2550
8.0405,9.5250
Z" /> 
<path style="fill:#000000; fill-opacity:1.0000; stroke:none;fill-rule:evenodd;"
d="M 11.5965,12.0650
11.5965,10.7950
8.0405,10.7950
8.0405,12.0650
Z" /> 
<path style="fill:#000000; fill-opacity:1.0000; stroke:none;fill-rule:evenodd;"
d="M 11.5965,14.6050
11.5965,13.3350
8.0405,13.3350
8.0405,14.6050
Z" /> 
<path style="fill:#000000; fill-opacity:1.0000; stroke:none;fill-rule:evenodd;"
d="M 11.5965,17.1450
11.5965,15.8750
8.0405,15.8750
8.0405,17.1450
Z" /> 
<path style="fill:#000000; fill-opacity:1.0000; stroke:none;fill-rule:evenodd;"
d="M 11.5965,19.6850
11.5965,18.4150
8.0405,18.4150
8.0405,19.6850
Z" /> 
<path style="fill:#000000; fill-opacity:1.0000; stroke:none;fill-rule:evenodd;"
d="M 11.5965,22.2250
11.5965,20.9550
8.0405,20.9550
8.0405,22.2250
Z" /> 
<path style="fill:#000000; fill-opacity:1.0000; stroke:none;fill-rule:evenodd;"
d="M 11.5965,24.7650
11.5965,23.4950
8.0405,23.4950
8.0405,24.7650
Z" /> 
<path style="fill:#000000; fill-opacity:1.0000; stroke:none;fill-rule:evenodd;"
d="M 11.5965,27.3050
11.5965,26.0350
8.0405,26.0350
8.0405,27.3050
Z" /> 
<path style="fill:#000000; fill-opacity:1.0000; stroke:none;fill-rule:evenodd;"
d="M 11.5965,29.8450
11.5965,28.5750
8.0405,28.5750
8.0405,29.8450
Z" /> 
<path style="fill:#000000; fill-opacity:1.0000; stroke:none;fill-rule:evenodd;"
d="M 11.5965,32.3850
11.5965,31.1150
8.0405,31.1150
8.0405,32.3850
Z" /> 
</g>
<g style="fill:#000000; fill-opacity:1.0000; stroke:none;">
<circle cx="21.5025" cy="26.6700" r="0.9000" /> 
</g>
<g style="fill:#000000; fill-opacity:1.0000; stroke:none;">
<circle cx="18.9625" cy="26.6700" r="0.9000" /> 
</g>
<g style="fill:#000000; fill-opacity:1.0000; stroke:none;">
<circle cx="16.4225" cy="26.6700" r="0.9000" /> 
<path style="fill:#000000; fill-opacity:1.0000; stroke:none;fill-rule:evenodd;"
d="M 24.8045,1.9050
24.8045,0.6350
21.2485,0.6350
21.2485,1.9050
Z" /> 
<path style="fill:#000000; fill-opacity:1.0000; stroke:none;fill-rule:evenodd;"
d="M 11.5965,1.9050
11.5965,0.6350
8.0405,0.6350
8.0405,1.9050
Z" /> 
<path style="fill:#000000; fill-opacity:1.0000; stroke:none;fill-rule:evenodd;"
d="M 14.3300,21.0000
14.2535,21.0152
14.1886,21.0586
14.1452,21.1235
14.1300,21.2000
14.1300,21.6000
14.1452,21.6765
14.1886,21.7414
14.2535,21.7848
14.3300,21.8000
14.8800,21.8000
14.9565,21.7848
15.0214,21.7414
15.0648,21.6765
15.0800,21.6000
15.0800,21.2000
15.0648,21.1235
15.0214,21.0586
14.9565,21.0152
14.8800,21.0000
Z" /> 
<path style="fill:#000000; fill-opacity:1.0000; stroke:none;fill-rule:evenodd;"
d="M 14.3300,22.6500
14.2535,22.6652
14.1886,22.7086
14.1452,22.7735
14.1300,22.8500
14.1300,23.2500
14.1452,23.3265
14.1886,23.3914
14.2535,23.4348
14.3300,23.4500
14.8800,23.4500
14.9565,23.4348
15.0214,23.3914
15.0648,23.3265
15.0800,23.2500
15.0800,22.8500
15.0648,22.7735
15.0214,22.7086
14.9565,22.6652
14.8800,22.6500
Z" /> 
<path style="fill:#000000; fill-opacity:1.0000; stroke:none;fill-rule:evenodd;"
d="M 15.6250,4.8710
15.5389,4.8881
15.4659,4.9369
15.4171,5.0099
15.4000,5.0960
15.4000,5.5460
15.4171,5.6321
15.4659,5.7051
15.5389,5.7539
15.6250,5.7710
16.1250,5.7710
16.2111,5.7539
16.2841,5.7051
16.3329,5.6321
16.3500,5.5460
16.3500,5.0960
16.3329,5.0099
16.2841,4.9369
16.2111,4.8881
16.1250,4.8710
Z" /> 
<path style="fill:#000000; fill-opacity:1.0000; stroke:none;fill-rule:evenodd;"
d="M 15.6250,6.4210
15.5389,6.4381
15.4659,6.4869
15.4171,6.5599
15.4000,6.6460
15.4000,7.0960
15.4171,7.1821
15.4659,7.2551
15.5389,7.3039
15.6250,7.3210
16.1250,7.3210
16.2111,7.3039
16.2841,7.2551
16.3329,7.1821
16.3500,7.0960
16.3500,6.6460
16.3329,6.5599
16.2841,6.4869
16.2111,6.4381
16.1250,6.4210
Z" /> 
<path style="fill:#000000; fill-opacity:1.0000; stroke:none;fill-rule:evenodd;"
d="M 16.5550,23.1100
16.5721,23.1961
16.6209,23.2691
16.6939,23.3179
16.7800,23.3350
17.2300,23.3350
17.3161,23.3179
17.3891,23.2691
17.4379,23.1961
17.4550,23.1100
17.4550,22.6100
17.4379,22.5239
17.3891,22.4509
17.3161,22.4021
17.2300,22.3850
16.7800,22.3850
16.6939,22.4021
16.6209,22.4509
16.5721,22.5239
16.5550,22.6100
Z" /> 
<path style="fill:#000000; fill-opacity:1.0000; stroke:none;fill-rule:evenodd;"
d="M 18.1050,23.1100
18.1221,23.1961
18.1709,23.2691
18.2439,23.3179
18.3300,23.3350
18.7800,23.3350
18.8661,23.3179
18.9391,23.2691
18.9879,23.1961
19.0050,23.1100
19.0050,22.6100
18.9879,22.5239
18.9391,22.4509
18.8661,22.4021
18.7800,22.3850
18.3300,22.3850
18.2439,22.4021
18.1709,22.4509
18.1221,22.5239
18.1050,22.6100
Z" /> 
<path style="fill:#000000; fill-opacity:1.0000; stroke:none;fill-rule:evenodd;"
d="M 17.5300,4.8710
17.4439,4.8881
17.3709,4.9369
17.3221,5.0099
17.3050,5.0960
17.3050,5.5460
17.3221,5.6321
17.3709,5.7051
17.4439,5.7539
17.5300,5.7710
18.0300,5.7710
18.1161,5.7539
18.1891,5.7051
18.2379,5.6321
18.2550,5.5460
18.2550,5.0960
18.2379,5.0099
18.1891,4.9369
18.1161,4.8881
18.0300,4.8710
Z" /> 
<path style="fill:#000000; fill-opacity:1.0000; stroke:none;fill-rule:evenodd;"
d="M 17.5300,6.4210
17.4439,6.4381
17.3709,6.4869
17.3221,6.5599
17.3050,6.6460
17.3050,7.0960
17.3221,7.1821
17.3709,7.2551
17.4439,7.3039
17.5300,7.3210
18.0300,7.3210
18.1161,7.3039
18.1891,7.2551
18.2379,7.1821
18.2550,7.0960
18.2550,6.6460
18.2379,6.5599
18.1891,6.4869
18.1161,6.4381
18.0300,6.4210
Z" /> 
<path style="fill:none; 
stroke:#000000; stroke-width:0.0500; stroke-opacity:1; 
stroke-linecap:round; stroke-linejoin:round;fill:none"
d="M 25.2730,0.0000
0.0000,0.0000
0.0000,33.0200
25.2730,33.0200
Z" /> 
</g>
<g style="fill:#FFFFFF; fill-opacity:1.0000; stroke:none;">
<circle cx="17.1450" cy="9.6520" r="0.0127" /> 
</g>
<g style="fill:#FFFFFF; fill-opacity:1.0000; stroke:none;">
<circle cx="16.5100" cy="1.9050" r="0.0127" /> 
</g>
<g style="fill:#FFFFFF; fill-opacity:1.0000; stroke:none;">
<circle cx="18.4150" cy="31.7500" r="0.4000" /> 
</g>
<g style="fill:#FFFFFF; fill-opacity:1.0000; stroke:none;">
<circle cx="18.4150" cy="29.2500" r="0.4000" /> 
</g>
<g style="fill:#FFFFFF; fill-opacity:1.0000; stroke:none;">
<circle cx="24.0425" cy="3.8100" r="0.2540" /> 
</g>
<g style="fill:#FFFFFF; fill-opacity:1.0000; stroke:none;">
<circle cx="24.0425" cy="6.3500" r="0.2540" /> 
</g>
<g style="fill:#FFFFFF; fill-opacity:1.0000; stroke:none;">
<circle cx="24.0425" cy="8.8900" r="0.2540" /> 
</g>
<g style="fill:#FFFFFF; fill-opacity:1.0000; stroke:none;">
<circle cx="24.0425" cy="11.4300" r="0.2540" /> 
</g>
<g style="fill:#FFFFFF; fill-opacity:1.0000; stroke:none;">
<circle cx="24.0425" cy="13.9700" r="0.2540" /> 
</g>
<g style="fill:#FFFFFF; fill-opacity:1.0000; stroke:none;">
<circle cx="24.0425" cy="16.5100" r="0.2540" /> 
</g>
<g style="fill:#FFFFFF; fill-opacity:1.0000; stroke:none;">
<circle cx="24.0425" cy="19.0500" r="0.2540" /> 
</g>
<g style="fill:#FFFFFF; fill-opacity:1.0000; stroke:none;">
<circle cx="24.0425" cy="21.5900" r="0.2540" /> 
</g>
<g style="fill:#FFFFFF; fill-opacity:1.0000; stroke:none;">
<circle cx="24.0425" cy="24.1300" r="0.2540" /> 
</g>
<g style="fill:#FFFFFF; fill-opacity:1.0000; stroke:none;">
<circle cx="24.0425" cy="26.6700" r="0.2540" /> 
</g>
<g style="fill:#FFFFFF; fill-opacity:1.0000; stroke:none;">
<circle cx="24.0425" cy="29.2100" r="0.2540" /> 
</g>
<g style="fill:#FFFFFF; fill-opacity:1.0000; stroke:none;">
<circle cx="24.0425" cy="31.7500" r="0.2540" /> 
</g>
<g style="fill:#FFFFFF; fill-opacity:1.0000; stroke:none;">
<circle cx="8.8025" cy="3.8100" r="0.2540" /> 
</g>
<g style="fill:#FFFFFF; fill-opacity:1.0000; stroke:none;">
<circle cx="8.8025" cy="6.3500" r="0.2540" /> 
</g>
<g style="fill:#FFFFFF; fill-opacity:1.0000; stroke:none;">
<circle cx="8.8025" cy="8.8900" r="0.2540" /> 
</g>
<g style="fill:#FFFFFF; fill-opacity:1.0000; stroke:none;">
<circle cx="8.8025" cy="11.4300" r="0.2540" /> 
</g>
<g style="fill:#FFFFFF; fill-opacity:1.0000; stroke:none;">
<circle cx="8.8025" cy="13.9700" r="0.2540" /> 
</g>
<g style="fill:#FFFFFF; fill-opacity:1.0000; stroke:none;">
<circle cx="8.8025" cy="16.5100" r="0.2540" /> 
</g>
<g style="fill:#FFFFFF; fill-opacity:1.0000; stroke:none;">
<circle cx="8.8025" cy="19.0500" r="0.2540" /> 
</g>
<g style="fill:#FFFFFF; fill-opacity:1.0000; stroke:none;">
<circle cx="8.8025" cy="21.5900" r="0.2540" /> 
</g>
<g style="fill:#FFFFFF; fill-opacity:1.0000; stroke:none;">
<circle cx="8.8025" cy="24.1300" r="0.2540" /> 
</g>
<g style="fill:#FFFFFF; fill-opacity:1.0000; stroke:none;">
<circle cx="8.8025" cy="26.6700" r="0.2540" /> 
</g>
<g style="fill:#FFFFFF; fill-opacity:1.0000; stroke:none;">
<circle cx="8.8025" cy="29.2100" r="0.2540" /> 
</g>
<g style="fill:#FFFFFF; fill-opacity:1.0000; stroke:none;">
<circle cx="8.8025" cy="31.7500" r="0.2540" /> 
</g>
<g style="fill:#FFFFFF; fill-opacity:1.0000; stroke:none;">
<circle cx="21.5025" cy="26.6700" r="0.5000" /> 
</g>
<g style="fill:#FFFFFF; fill-opacity:1.0000; stroke:none;">
<circle cx="18.9625" cy="26.6700" r="0.5000" /> 
</g>
<g style="fill:#FFFFFF; fill-opacity:1.0000; stroke:none;">
<circle cx="16.4225" cy="26.6700" r="0.5000" /> 
</g>
<g style="fill:#FFFFFF; fill-opacity:1.0000; stroke:none;">
<circle cx="24.0425" cy="1.2700" r="0.2540" /> 
</g>
<g style="fill:#FFFFFF; fill-opacity:1.0000; stroke:none;">
<circle cx="8.8025" cy="1.2700" r="0.2540" /> 
</g> 
</svg>
