<?xml version="1.0" standalone="no"?>
 <!DOCTYPE svg PUBLIC "-//W3C//DTD SVG 1.1//EN" 
 "http://www.w3.org/Graphics/SVG/1.1/DTD/svg11.dtd"> 
<svg
  xmlns:svg="http://www.w3.org/2000/svg"
  xmlns="http://www.w3.org/2000/svg"
  xmlns:xlink="http://www.w3.org/1999/xlink"
  version="1.1"
  width="25.4000mm" height="33.0200mm" viewBox="0.0000 0.0000 25.4000 33.0200">
<title>SVG Image created as mask-front.svg date 2026/01/04 09:24:38 </title>
  <desc>Image generated by PCBNEW </desc>
<g style="fill:#000000; fill-opacity:1.0000;stroke:#000000; stroke-opacity:1.0000;
stroke-linecap:round; stroke-linejoin:round;"
 transform="translate(0 0) scale(1 1)">
<path style="fill:#000000; fill-opacity:1.0000; stroke:none;fill-rule:evenodd;"
d="M 5.9690,10.9220
5.9690,8.3820
10.5410,8.3820
10.5410,10.9220
Z" /> 
<path style="fill:#000000; fill-opacity:1.0000; stroke:none;fill-rule:evenodd;"
d="M 11.4300,0.0000
11.4300,3.8100
6.3500,3.8100
6.3500,0.0000
Z" /> 
<path style="fill:#000000; fill-opacity:1.0000; stroke:none;fill-rule:evenodd;"
d="M 6.4350,32.5500
6.3393,32.5310
6.2582,32.4768
6.2040,32.3957
6.1850,32.3000
6.1850,31.2000
6.2040,31.1043
6.2582,31.0232
6.3393,30.9690
6.4350,30.9500
7.5350,30.9500
7.6307,30.9690
7.7118,31.0232
7.7660,31.1043
7.7850,31.2000
7.7850,32.3000
7.7660,32.3957
7.7118,32.4768
7.6307,32.5310
7.5350,32.5500
Z" /> 
</g>
<g style="fill:#000000; fill-opacity:1.0000; stroke:none;">
<circle cx="6.9850" cy="29.2500" r="0.8000" /> 
<path style="fill:none; 
stroke:#000000; stroke-width:0.0500; stroke-opacity:1; 
stroke-linecap:round; stroke-linejoin:round;fill:none"
d="M 0.1270,0.0000
25.4000,0.0000
25.4000,33.0200
0.1270,33.0200
Z" /> 
</g>
<g style="fill:#FFFFFF; fill-opacity:1.0000; stroke:none;">
<circle cx="8.2550" cy="9.6520" r="0.0127" /> 
</g>
<g style="fill:#FFFFFF; fill-opacity:1.0000; stroke:none;">
<circle cx="8.8900" cy="1.9050" r="0.0127" /> 
</g>
<g style="fill:#FFFFFF; fill-opacity:1.0000; stroke:none;">
<circle cx="6.9850" cy="31.7500" r="0.4000" /> 
</g>
<g style="fill:#FFFFFF; fill-opacity:1.0000; stroke:none;">
<circle cx="6.9850" cy="29.2500" r="0.4000" /> 
</g>
<g style="fill:#000000; fill-opacity:1.0000; stroke:none;">
<circle cx="1.3575" cy="3.8100" r="0.2540" /> 
</g>
<g style="fill:#000000; fill-opacity:1.0000; stroke:none;">
<circle cx="1.3575" cy="6.3500" r="0.2540" /> 
</g>
<g style="fill:#000000; fill-opacity:1.0000; stroke:none;">
<circle cx="1.3575" cy="8.8900" r="0.2540" /> 
</g>
<g style="fill:#000000; fill-opacity:1.0000; stroke:none;">
<circle cx="1.3575" cy="11.4300" r="0.2540" /> 
</g>
<g style="fill:#000000; fill-opacity:1.0000; stroke:none;">
<circle cx="1.3575" cy="13.9700" r="0.2540" /> 
</g>
<g style="fill:#000000; fill-opacity:1.0000; stroke:none;">
<circle cx="1.3575" cy="16.5100" r="0.2540" /> 
</g>
<g style="fill:#000000; fill-opacity:1.0000; stroke:none;">
<circle cx="1.3575" cy="19.0500" r="0.2540" /> 
</g>
<g style="fill:#000000; fill-opacity:1.0000; stroke:none;">
<circle cx="1.3575" cy="21.5900" r="0.2540" /> 
</g>
<g style="fill:#000000; fill-opacity:1.0000; stroke:none;">
<circle cx="1.3575" cy="24.1300" r="0.2540" /> 
</g>
<g style="fill:#000000; fill-opacity:1.0000; stroke:none;">
<circle cx="1.3575" cy="26.6700" r="0.2540" /> 
</g>
<g style="fill:#000000; fill-opacity:1.0000; stroke:none;">
<circle cx="1.3575" cy="29.2100" r="0.2540" /> 
</g>
<g style="fill:#000000; fill-opacity:1.0000; stroke:none;">
<circle cx="1.3575" cy="31.7500" r="0.2540" /> 
</g>
<g style="fill:#000000; fill-opacity:1.0000; stroke:none;">
<circle cx="16.5975" cy="3.8100" r="0.2540" /> 
</g>
<g style="fill:#000000; fill-opacity:1.0000; stroke:none;">
<circle cx="16.5975" cy="6.3500" r="0.2540" /> 
</g>
<g style="fill:#000000; fill-opacity:1.0000; stroke:none;">
<circle cx="16.5975" cy="8.8900" r="0.2540" /> 
</g>
<g style="fill:#000000; fill-opacity:1.0000; stroke:none;">
<circle cx="16.5975" cy="11.4300" r="0.2540" /> 
</g>
<g style="fill:#000000; fill-opacity:1.0000; stroke:none;">
<circle cx="16.5975" cy="13.9700" r="0.2540" /> 
</g>
<g style="fill:#000000; fill-opacity:1.0000; stroke:none;">
<circle cx="16.5975" cy="16.5100" r="0.2540" /> 
</g>
<g style="fill:#000000; fill-opacity:1.0000; stroke:none;">
<circle cx="16.5975" cy="19.0500" r="0.2540" /> 
</g>
<g style="fill:#000000; fill-opacity:1.0000; stroke:none;">
<circle cx="16.5975" cy="21.5900" r="0.2540" /> 
</g>
<g style="fill:#000000; fill-opacity:1.0000; stroke:none;">
<circle cx="16.5975" cy="24.1300" r="0.2540" /> 
</g>
<g style="fill:#000000; fill-opacity:1.0000; stroke:none;">
<circle cx="16.5975" cy="26.6700" r="0.2540" /> 
</g>
<g style="fill:#000000; fill-opacity:1.0000; stroke:none;">
<circle cx="16.5975" cy="29.2100" r="0.2540" /> 
</g>
<g style="fill:#000000; fill-opacity:1.0000; stroke:none;">
<circle cx="16.5975" cy="31.7500" r="0.2540" /> 
</g>
<g style="fill:#000000; fill-opacity:1.0000; stroke:none;">
<circle cx="3.8975" cy="26.6700" r="0.5000" /> 
</g>
<g style="fill:#000000; fill-opacity:1.0000; stroke:none;">
<circle cx="6.4375" cy="26.6700" r="0.5000" /> 
</g>
<g style="fill:#000000; fill-opacity:1.0000; stroke:none;">
<circle cx="8.9775" cy="26.6700" r="0.5000" /> 
</g>
<g style="fill:#000000; fill-opacity:1.0000; stroke:none;">
<circle cx="1.3575" cy="1.2700" r="0.2540" /> 
</g>
<g style="fill:#000000; fill-opacity:1.0000; stroke:none;">
<circle cx="16.5975" cy="1.2700" r="0.2540" /> 
</g> 
</svg>
