  0
SECTION
  2
HEADER
  9
$ANGBASE
  50
0.0
  9
$ANGDIR
  70
1
  9
$MEASUREMENT
  70
1
  0
ENDSEC
  0
SECTION
  2
TABLES
  0
TABLE
  2
LTYPE
  70
4
  0
LTYPE
  5
40F
  2
CONTINUOUS
  70
0
  3
Solid line
  72
65
  73
0
  40
0.0
  0
LTYPE
  5
410
  2
DASHDOT
 70
0
  3
Dash Dot ____ _ ____ _
 72
65
 73
4
 40
2.0
 49
1.25
 49
-0.25
 49
0.25
 49
-0.25
  0
LTYPE
  5
411
  2
DASHED
 70
0
  3
Dashed __ __ __ __ __
 72
65
 73
2
 40
0.75
 49
0.5
 49
-0.25
  0
LTYPE
  5
43B
  2
DOTTED
 70
0
  3
Dotted .  .  .  .
 72
65
 73
2
 40
0.2
 49
0.0
 49
-0.2
  0
ENDTAB
  0
TABLE
  2
STYLE
  70
4
  0
STYLE
  2
KICAD
  70
0
  40
0
  41
1
  42
1
  50
0
  71
0
  3
isocp.shx
  0
STYLE
  2
KICADB
  70
0
  40
0
  41
1
  42
1
  50
0
  71
0
  3
isocp.shx
  0
STYLE
  2
KICADI
  70
0
  40
0
  41
1
  42
1
  50
15
  71
0
  3
isocp.shx
  0
STYLE
  2
KICADBI
  70
0
  40
0
  41
1
  42
1
  50
15
  71
0
  3
isocp.shx
  0
ENDTAB
  0
TABLE
  2
LAYER
  70
35
  0
LAYER
  2
BLACK
  70
0
  62
7
  6
CONTINUOUS
  0
LAYER
  2
GRAY1
  70
0
  62
251
  6
CONTINUOUS
  0
LAYER
  2
GRAY2
  70
0
  62
8
  6
CONTINUOUS
  0
LAYER
  2
GRAY3
  70
0
  62
9
  6
CONTINUOUS
  0
LAYER
  2
WHITE
  70
0
  62
7
  6
CONTINUOUS
  0
LAYER
  2
LYELLOW
  70
0
  62
51
  6
CONTINUOUS
  0
LAYER
  2
LORANGE
  70
0
  62
41
  6
CONTINUOUS
  0
LAYER
  2
BLUE1
  70
0
  62
178
  6
CONTINUOUS
  0
LAYER
  2
GREEN1
  70
0
  62
98
  6
CONTINUOUS
  0
LAYER
  2
CYAN1
  70
0
  62
138
  6
CONTINUOUS
  0
LAYER
  2
RED1
  70
0
  62
18
  6
CONTINUOUS
  0
LAYER
  2
MAGENTA1
  70
0
  62
228
  6
CONTINUOUS
  0
LAYER
  2
BROWN1
  70
0
  62
58
  6
CONTINUOUS
  0
LAYER
  2
ORANGE1
  70
0
  62
34
  6
CONTINUOUS
  0
LAYER
  2
BLUE2
  70
0
  62
5
  6
CONTINUOUS
  0
LAYER
  2
GREEN2
  70
0
  62
3
  6
CONTINUOUS
  0
LAYER
  2
CYAN2
  70
0
  62
4
  6
CONTINUOUS
  0
LAYER
  2
RED2
  70
0
  62
1
  6
CONTINUOUS
  0
LAYER
  2
MAGENTA2
  70
0
  62
6
  6
CONTINUOUS
  0
LAYER
  2
BROWN2
  70
0
  62
54
  6
CONTINUOUS
  0
LAYER
  2
ORANGE2
  70
0
  62
42
  6
CONTINUOUS
  0
LAYER
  2
BLUE3
  70
0
  62
171
  6
CONTINUOUS
  0
LAYER
  2
GREEN3
  70
0
  62
91
  6
CONTINUOUS
  0
LAYER
  2
CYAN3
  70
0
  62
131
  6
CONTINUOUS
  0
LAYER
  2
RED3
  70
0
  62
11
  6
CONTINUOUS
  0
LAYER
  2
MAGENTA3
  70
0
  62
221
  6
CONTINUOUS
  0
LAYER
  2
YELLOW3
  70
0
  62
2
  6
CONTINUOUS
  0
LAYER
  2
ORANGE3
  70
0
  62
32
  6
CONTINUOUS
  0
LAYER
  2
BLUE4
  70
0
  62
5
  6
CONTINUOUS
  0
LAYER
  2
GREEN4
  70
0
  62
3
  6
CONTINUOUS
  0
LAYER
  2
CYAN4
  70
0
  62
4
  6
CONTINUOUS
  0
LAYER
  2
RED4
  70
0
  62
1
  6
CONTINUOUS
  0
LAYER
  2
MAGENTA4
  70
0
  62
6
  6
CONTINUOUS
  0
LAYER
  2
YELLOW4
  70
0
  62
2
  6
CONTINUOUS
  0
LAYER
  2
ORANGE4
  70
0
  62
40
  6
CONTINUOUS
  0
ENDTAB
  0
ENDSEC
  0
SECTION
  2
ENTITIES
0
LINE
8
LORANGE
6
CONTINUOUS
10
9.819818999999999
20
-22.0583329999999975
11
9.3436279999999989
21
-21.7249999999999979
0
LINE
8
LORANGE
6
CONTINUOUS
10
9.819818999999999
20
-21.4869050000000001
11
8.819818999999999
21
-21.4869050000000001
0
LINE
8
LORANGE
6
CONTINUOUS
10
8.819818999999999
20
-21.4869050000000001
11
8.819818999999999
21
-21.8678570000000008
0
LINE
8
LORANGE
6
CONTINUOUS
10
8.819818999999999
20
-21.8678570000000008
11
8.8674379999999999
21
-21.9630949999999991
0
LINE
8
LORANGE
6
CONTINUOUS
10
8.8674379999999999
20
-21.9630949999999991
11
8.9150569999999991
21
-22.0107140000000001
0
LINE
8
LORANGE
6
CONTINUOUS
10
8.9150569999999991
20
-22.0107140000000001
11
9.0102949999999993
21
-22.0583329999999975
0
LINE
8
LORANGE
6
CONTINUOUS
10
9.0102949999999993
20
-22.0583329999999975
11
9.1531520000000004
21
-22.0583329999999975
0
LINE
8
LORANGE
6
CONTINUOUS
10
9.1531520000000004
20
-22.0583329999999975
11
9.2483899999999988
21
-22.0107140000000001
0
LINE
8
LORANGE
6
CONTINUOUS
10
9.2483899999999988
20
-22.0107140000000001
11
9.2960089999999997
21
-21.9630949999999991
0
LINE
8
LORANGE
6
CONTINUOUS
10
9.2960089999999997
20
-21.9630949999999991
11
9.3436279999999989
21
-21.8678570000000008
0
LINE
8
LORANGE
6
CONTINUOUS
10
9.3436279999999989
20
-21.8678570000000008
11
9.3436279999999989
21
-21.4869050000000001
0
LINE
8
LORANGE
6
CONTINUOUS
10
9.819818999999999
20
-23.0107140000000001
11
9.819818999999999
21
-22.4392859999999992
0
LINE
8
LORANGE
6
CONTINUOUS
10
9.819818999999999
20
-22.7249999999999979
11
8.819818999999999
21
-22.7249999999999979
0
LINE
8
LORANGE
6
CONTINUOUS
10
8.819818999999999
20
-22.7249999999999979
11
8.9626760000000001
21
-22.6297619999999995
0
LINE
8
LORANGE
6
CONTINUOUS
10
8.9626760000000001
20
-22.6297619999999995
11
9.0579140000000002
21
-22.5345239999999976
0
LINE
8
LORANGE
6
CONTINUOUS
10
9.0579140000000002
20
-22.5345239999999976
11
9.1055329999999994
21
-22.4392859999999992
0
LINE
8
LORANGE
6
CONTINUOUS
10
9.7245799999999996
20
-5.5483329999999995
11
9.7721999999999998
21
-5.5007139999999994
0
LINE
8
LORANGE
6
CONTINUOUS
10
9.7721999999999998
20
-5.5007139999999994
11
9.819818999999999
21
-5.3578570000000001
0
LINE
8
LORANGE
6
CONTINUOUS
10
9.819818999999999
20
-5.3578570000000001
11
9.819818999999999
21
-5.2626189999999999
0
LINE
8
LORANGE
6
CONTINUOUS
10
9.819818999999999
20
-5.2626189999999999
11
9.7721999999999998
21
-5.1197619999999997
0
LINE
8
LORANGE
6
CONTINUOUS
10
9.7721999999999998
20
-5.1197619999999997
11
9.6769610000000004
21
-5.0245239999999995
0
LINE
8
LORANGE
6
CONTINUOUS
10
9.6769610000000004
20
-5.0245239999999995
11
9.5817230000000002
21
-4.9769049999999995
0
LINE
8
LORANGE
6
CONTINUOUS
10
9.5817230000000002
20
-4.9769049999999995
11
9.3912469999999999
21
-4.9292859999999994
0
LINE
8
LORANGE
6
CONTINUOUS
10
9.3912469999999999
20
-4.9292859999999994
11
9.2483899999999988
21
-4.9292859999999994
0
LINE
8
LORANGE
6
CONTINUOUS
10
9.2483899999999988
20
-4.9292859999999994
11
9.0579140000000002
21
-4.9769049999999995
0
LINE
8
LORANGE
6
CONTINUOUS
10
9.0579140000000002
20
-4.9769049999999995
11
8.9626760000000001
21
-5.0245239999999995
0
LINE
8
LORANGE
6
CONTINUOUS
10
8.9626760000000001
20
-5.0245239999999995
11
8.8674379999999999
21
-5.1197619999999997
0
LINE
8
LORANGE
6
CONTINUOUS
10
8.8674379999999999
20
-5.1197619999999997
11
8.819818999999999
21
-5.2626189999999999
0
LINE
8
LORANGE
6
CONTINUOUS
10
8.819818999999999
20
-5.2626189999999999
11
8.819818999999999
21
-5.3578570000000001
0
LINE
8
LORANGE
6
CONTINUOUS
10
8.819818999999999
20
-5.3578570000000001
11
8.8674379999999999
21
-5.5007139999999994
0
LINE
8
LORANGE
6
CONTINUOUS
10
8.8674379999999999
20
-5.5007139999999994
11
8.9150569999999991
21
-5.5483329999999995
0
LINE
8
LORANGE
6
CONTINUOUS
10
8.9150569999999991
20
-5.9292859999999994
11
8.8674379999999999
21
-5.9769049999999995
0
LINE
8
LORANGE
6
CONTINUOUS
10
8.8674379999999999
20
-5.9769049999999995
11
8.819818999999999
21
-6.0721429999999996
0
LINE
8
LORANGE
6
CONTINUOUS
10
8.819818999999999
20
-6.0721429999999996
11
8.819818999999999
21
-6.310238
0
LINE
8
LORANGE
6
CONTINUOUS
10
8.819818999999999
20
-6.310238
11
8.8674379999999999
21
-6.4054759999999993
0
LINE
8
LORANGE
6
CONTINUOUS
10
8.8674379999999999
20
-6.4054759999999993
11
8.9150569999999991
21
-6.4530949999999994
0
LINE
8
LORANGE
6
CONTINUOUS
10
8.9150569999999991
20
-6.4530949999999994
11
9.0102949999999993
21
-6.5007139999999994
0
LINE
8
LORANGE
6
CONTINUOUS
10
9.0102949999999993
20
-6.5007139999999994
11
9.1055329999999994
21
-6.5007139999999994
0
LINE
8
LORANGE
6
CONTINUOUS
10
9.1055329999999994
20
-6.5007139999999994
11
9.2483899999999988
21
-6.4530949999999994
0
LINE
8
LORANGE
6
CONTINUOUS
10
9.2483899999999988
20
-6.4530949999999994
11
9.819818999999999
21
-5.8816669999999993
0
LINE
8
LORANGE
6
CONTINUOUS
10
9.819818999999999
20
-5.8816669999999993
11
9.819818999999999
21
-6.5007139999999994
0
LINE
8
LORANGE
6
CONTINUOUS
10
7.7866659999999994
20
-21.7895799999999973
11
7.8342849999999995
21
-21.8371999999999993
0
LINE
8
LORANGE
6
CONTINUOUS
10
7.8342849999999995
20
-21.8371999999999993
11
7.9771419999999997
21
-21.8848190000000002
0
LINE
8
LORANGE
6
CONTINUOUS
10
7.9771419999999997
20
-21.8848190000000002
11
8.072379999999999
21
-21.8848190000000002
0
LINE
8
LORANGE
6
CONTINUOUS
10
8.072379999999999
20
-21.8848190000000002
11
8.2152370000000001
21
-21.8371999999999993
0
LINE
8
LORANGE
6
CONTINUOUS
10
8.2152370000000001
20
-21.8371999999999993
11
8.3104750000000003
21
-21.7419609999999999
0
LINE
8
LORANGE
6
CONTINUOUS
10
8.3104750000000003
20
-21.7419609999999999
11
8.3580939999999995
21
-21.6467229999999979
0
LINE
8
LORANGE
6
CONTINUOUS
10
8.3580939999999995
20
-21.6467229999999979
11
8.4057130000000004
21
-21.4562469999999976
0
LINE
8
LORANGE
6
CONTINUOUS
10
8.4057130000000004
20
-21.4562469999999976
11
8.4057130000000004
21
-21.3133899999999983
0
LINE
8
LORANGE
6
CONTINUOUS
10
8.4057130000000004
20
-21.3133899999999983
11
8.3580939999999995
21
-21.122913999999998
0
LINE
8
LORANGE
6
CONTINUOUS
10
8.3580939999999995
20
-21.122913999999998
11
8.3104750000000003
21
-21.0276759999999996
0
LINE
8
LORANGE
6
CONTINUOUS
10
8.3104750000000003
20
-21.0276759999999996
11
8.2152370000000001
21
-20.9324379999999977
0
LINE
8
LORANGE
6
CONTINUOUS
10
8.2152370000000001
20
-20.9324379999999977
11
8.072379999999999
21
-20.8848190000000002
0
LINE
8
LORANGE
6
CONTINUOUS
10
8.072379999999999
20
-20.8848190000000002
11
7.9771419999999997
21
-20.8848190000000002
0
LINE
8
LORANGE
6
CONTINUOUS
10
7.9771419999999997
20
-20.8848190000000002
11
7.8342849999999995
21
-20.9324379999999977
0
LINE
8
LORANGE
6
CONTINUOUS
10
7.8342849999999995
20
-20.9324379999999977
11
7.7866659999999994
21
-20.9800569999999986
0
LINE
8
LORANGE
6
CONTINUOUS
10
7.4533319999999996
20
-20.8848190000000002
11
6.8342849999999995
21
-20.8848190000000002
0
LINE
8
LORANGE
6
CONTINUOUS
10
6.8342849999999995
20
-20.8848190000000002
11
7.167618
21
-21.2657709999999973
0
LINE
8
LORANGE
6
CONTINUOUS
10
7.167618
20
-21.2657709999999973
11
7.0247609999999998
21
-21.2657709999999973
0
LINE
8
LORANGE
6
CONTINUOUS
10
7.0247609999999998
20
-21.2657709999999973
11
6.9295229999999997
21
-21.3133899999999983
0
LINE
8
LORANGE
6
CONTINUOUS
10
6.9295229999999997
20
-21.3133899999999983
11
6.8819039999999996
21
-21.3610089999999992
0
LINE
8
LORANGE
6
CONTINUOUS
10
6.8819039999999996
20
-21.3610089999999992
11
6.8342849999999995
21
-21.4562469999999976
0
LINE
8
LORANGE
6
CONTINUOUS
10
6.8342849999999995
20
-21.4562469999999976
11
6.8342849999999995
21
-21.6943419999999989
0
LINE
8
LORANGE
6
CONTINUOUS
10
6.8342849999999995
20
-21.6943419999999989
11
6.8819039999999996
21
-21.7895799999999973
0
LINE
8
LORANGE
6
CONTINUOUS
10
6.8819039999999996
20
-21.7895799999999973
11
6.9295229999999997
21
-21.8371999999999993
0
LINE
8
LORANGE
6
CONTINUOUS
10
6.9295229999999997
20
-21.8371999999999993
11
7.0247609999999998
21
-21.8848190000000002
0
LINE
8
LORANGE
6
CONTINUOUS
10
7.0247609999999998
20
-21.8848190000000002
11
7.3104749999999994
21
-21.8848190000000002
0
LINE
8
LORANGE
6
CONTINUOUS
10
7.3104749999999994
20
-21.8848190000000002
11
7.4057129999999995
21
-21.8371999999999993
0
LINE
8
LORANGE
6
CONTINUOUS
10
7.4057129999999995
20
-21.8371999999999993
11
7.4533319999999996
21
-21.7895799999999973
0
LINE
8
LORANGE
6
CONTINUOUS
10
7.8195799999999993
20
-5.5483329999999995
11
7.8671999999999995
21
-5.5007139999999994
0
LINE
8
LORANGE
6
CONTINUOUS
10
7.8671999999999995
20
-5.5007139999999994
11
7.9148189999999996
21
-5.3578570000000001
0
LINE
8
LORANGE
6
CONTINUOUS
10
7.9148189999999996
20
-5.3578570000000001
11
7.9148189999999996
21
-5.2626189999999999
0
LINE
8
LORANGE
6
CONTINUOUS
10
7.9148189999999996
20
-5.2626189999999999
11
7.8671999999999995
21
-5.1197619999999997
0
LINE
8
LORANGE
6
CONTINUOUS
10
7.8671999999999995
20
-5.1197619999999997
11
7.7719609999999992
21
-5.0245239999999995
0
LINE
8
LORANGE
6
CONTINUOUS
10
7.7719609999999992
20
-5.0245239999999995
11
7.676723
21
-4.9769049999999995
0
LINE
8
LORANGE
6
CONTINUOUS
10
7.676723
20
-4.9769049999999995
11
7.4862469999999997
21
-4.9292859999999994
0
LINE
8
LORANGE
6
CONTINUOUS
10
7.4862469999999997
20
-4.9292859999999994
11
7.3433899999999994
21
-4.9292859999999994
0
LINE
8
LORANGE
6
CONTINUOUS
10
7.3433899999999994
20
-4.9292859999999994
11
7.152914
21
-4.9769049999999995
0
LINE
8
LORANGE
6
CONTINUOUS
10
7.152914
20
-4.9769049999999995
11
7.0576759999999998
21
-5.0245239999999995
0
LINE
8
LORANGE
6
CONTINUOUS
10
7.0576759999999998
20
-5.0245239999999995
11
6.9624379999999997
21
-5.1197619999999997
0
LINE
8
LORANGE
6
CONTINUOUS
10
6.9624379999999997
20
-5.1197619999999997
11
6.9148189999999996
21
-5.2626189999999999
0
LINE
8
LORANGE
6
CONTINUOUS
10
6.9148189999999996
20
-5.2626189999999999
11
6.9148189999999996
21
-5.3578570000000001
0
LINE
8
LORANGE
6
CONTINUOUS
10
6.9148189999999996
20
-5.3578570000000001
11
6.9624379999999997
21
-5.5007139999999994
0
LINE
8
LORANGE
6
CONTINUOUS
10
6.9624379999999997
20
-5.5007139999999994
11
7.0100569999999998
21
-5.5483329999999995
0
LINE
8
LORANGE
6
CONTINUOUS
10
7.9148189999999996
20
-6.5007139999999994
11
7.9148189999999996
21
-5.9292859999999994
0
LINE
8
LORANGE
6
CONTINUOUS
10
7.9148189999999996
20
-6.2149999999999999
11
6.9148189999999996
21
-6.2149999999999999
0
LINE
8
LORANGE
6
CONTINUOUS
10
6.9148189999999996
20
-6.2149999999999999
11
7.0576759999999998
21
-6.1197619999999997
0
LINE
8
LORANGE
6
CONTINUOUS
10
7.0576759999999998
20
-6.1197619999999997
11
7.152914
21
-6.0245239999999995
0
LINE
8
LORANGE
6
CONTINUOUS
10
7.152914
20
-6.0245239999999995
11
7.2005330000000001
21
-5.9292859999999994
0
LINE
8
LORANGE
6
CONTINUOUS
10
10.2724999999999991
20
-21.9877419999999972
11
10.2724999999999991
21
-22.4622579999999985
0
LINE
8
LORANGE
6
CONTINUOUS
10
11.317499999999999
20
-21.9877419999999972
11
11.317499999999999
21
-22.4622579999999985
0
LINE
8
LORANGE
6
CONTINUOUS
10
10.2850000000000001
20
-5.5744199999999999
11
10.2850000000000001
21
-5.8555799999999998
0
LINE
8
LORANGE
6
CONTINUOUS
10
11.3049999999999997
20
-5.5744199999999999
11
11.3049999999999997
21
-5.8555799999999998
0
LINE
8
LORANGE
6
CONTINUOUS
10
7.76058
20
-22.3499999999999979
11
7.4794199999999993
21
-22.3499999999999979
0
LINE
8
LORANGE
6
CONTINUOUS
10
7.76058
20
-23.3699999999999974
11
7.4794199999999993
21
-23.3699999999999974
0
LINE
8
LORANGE
6
CONTINUOUS
10
8.379999999999999
20
-5.5744199999999999
11
8.379999999999999
21
-5.8555799999999998
0
LINE
8
LORANGE
6
CONTINUOUS
10
9.4000000000000004
20
-5.5744199999999999
11
9.4000000000000004
21
-5.8555799999999998
0
CIRCLE
8
BLACK
10
8.8899999999999988
20
-9.5250000000000004
40
0.0127
0
CIRCLE
8
BLACK
10
8.8899999999999988
20
-1.9049999999999998
40
0.0127
0
CIRCLE
8
BLACK
10
6.9849999999999994
20
-31.75
40
0.4
0
CIRCLE
8
BLACK
10
6.9849999999999994
20
-29.25
40
0.4
0
CIRCLE
8
BLACK
10
1.3574999999999999
20
-3.8099999999999996
40
0.5
0
CIRCLE
8
BLACK
10
1.3574999999999999
20
-6.3499999999999996
40
0.254
0
CIRCLE
8
BLACK
10
1.3574999999999999
20
-8.8899999999999988
40
0.254
0
CIRCLE
8
BLACK
10
1.3574999999999999
20
-11.4299999999999997
40
0.254
0
CIRCLE
8
BLACK
10
1.3574999999999999
20
-13.9699999999999989
40
0.254
0
CIRCLE
8
BLACK
10
1.3574999999999999
20
-16.509999999999998
40
0.254
0
CIRCLE
8
BLACK
10
1.3574999999999999
20
-19.0500000000000007
40
0.254
0
CIRCLE
8
BLACK
10
1.3574999999999999
20
-21.5899999999999999
40
0.254
0
CIRCLE
8
BLACK
10
1.3574999999999999
20
-24.129999999999999
40
0.254
0
CIRCLE
8
BLACK
10
1.3574999999999999
20
-26.6699999999999982
40
0.5
0
CIRCLE
8
BLACK
10
1.3574999999999999
20
-29.2099999999999973
40
0.254
0
CIRCLE
8
BLACK
10
1.3574999999999999
20
-31.75
40
0.254
0
CIRCLE
8
BLACK
10
16.5975000000000001
20
-3.8099999999999996
40
0.254
0
CIRCLE
8
BLACK
10
16.5975000000000001
20
-6.3499999999999996
40
0.254
0
CIRCLE
8
BLACK
10
16.5975000000000001
20
-8.8899999999999988
40
0.254
0
CIRCLE
8
BLACK
10
16.5975000000000001
20
-11.4299999999999997
40
0.254
0
CIRCLE
8
BLACK
10
16.5975000000000001
20
-13.9699999999999989
40
0.254
0
CIRCLE
8
BLACK
10
16.5975000000000001
20
-16.509999999999998
40
0.254
0
CIRCLE
8
BLACK
10
16.5975000000000001
20
-19.0500000000000007
40
0.254
0
CIRCLE
8
BLACK
10
16.5975000000000001
20
-21.5899999999999999
40
0.254
0
CIRCLE
8
BLACK
10
16.5975000000000001
20
-24.129999999999999
40
0.254
0
CIRCLE
8
BLACK
10
16.5975000000000001
20
-26.6699999999999982
40
0.254
0
CIRCLE
8
BLACK
10
16.5975000000000001
20
-29.2099999999999973
40
0.254
0
CIRCLE
8
BLACK
10
16.5975000000000001
20
-31.75
40
0.254
0
CIRCLE
8
BLACK
10
3.8975
20
-26.6699999999999982
40
0.5
0
CIRCLE
8
BLACK
10
6.4375
20
-26.6699999999999982
40
0.5
0
CIRCLE
8
BLACK
10
8.9774999999999991
20
-26.6699999999999982
40
0.5
0
CIRCLE
8
BLACK
10
1.3574999999999999
20
-1.27
40
0.254
0
CIRCLE
8
BLACK
10
16.5975000000000001
20
-1.27
40
0.254
  0
ENDSEC
  0
EOF
