<?xml version="1.0" standalone="no"?>
 <!DOCTYPE svg PUBLIC "-//W3C//DTD SVG 1.1//EN" 
 "http://www.w3.org/Graphics/SVG/1.1/DTD/svg11.dtd"> 
<svg
  xmlns:svg="http://www.w3.org/2000/svg"
  xmlns="http://www.w3.org/2000/svg"
  xmlns:xlink="http://www.w3.org/1999/xlink"
  version="1.1"
  width="50.1650mm" height="70.6628mm" viewBox="0.0000 0.0000 50.1650 70.6628">
<title>SVG Image created as back.svg date 2025/12/12 17:11:10 </title>
  <desc>Image generated by PCBNEW </desc>
<g style="fill:#000000; fill-opacity:1.0000;stroke:#000000; stroke-opacity:1.0000;
stroke-linecap:round; stroke-linejoin:round;"
 transform="translate(0 0) scale(1 1)">
</g>
<g style="fill:#000000; fill-opacity:1.0000; 
stroke:#000000; stroke-width:0.0212; stroke-opacity:1; 
stroke-linecap:round; stroke-linejoin:round;">
<rect x="-12.006297" y="-5.025000" width="67.432332" height="80.535000" rx="0.000000" />
<path style="fill:#FFFFFF; fill-opacity:1.0000; stroke:none;fill-rule:evenodd;"
d="M 10.1215,47.8770
10.0243,47.8963
9.9419,47.9514
9.8868,48.0338
9.8675,48.1310
9.8675,49.6550
9.8868,49.7522
9.9419,49.8346
10.0243,49.8896
10.1215,49.9090
10.6295,49.9090
10.7267,49.8896
10.8091,49.8346
10.8641,49.7522
10.8835,49.6550
10.8835,48.1310
10.8641,48.0338
10.8091,47.9514
10.7267,47.8963
10.6295,47.8770
Z" /> 
<path style="fill:#FFFFFF; fill-opacity:1.0000; stroke:none;fill-rule:evenodd;"
d="M 8.7245,49.9090
8.8217,49.8896
8.9041,49.8346
8.9591,49.7522
8.9785,49.6550
8.9785,48.1310
8.9591,48.0338
8.9041,47.9514
8.8217,47.8963
8.7245,47.8770
8.2165,47.8770
8.1193,47.8963
8.0369,47.9514
7.9818,48.0338
7.9625,48.1310
7.9625,49.6550
7.9818,49.7522
8.0369,49.8346
8.1193,49.8896
8.2165,49.9090
Z" /> 
</g>
<g style="fill:none; 
stroke:#FFFFFF; stroke-width:0.8890; stroke-opacity:1; 
stroke-linecap:round; stroke-linejoin:round;">
<path d="M0.9650 58.2750
L1.8540 58.2750
" />
<path d="M0.9650 49.6750
L1.8540 49.6750
" />
</g>
<g style="fill:none; 
stroke:#FFFFFF; stroke-width:0.9144; stroke-opacity:1; 
stroke-linecap:round; stroke-linejoin:round;">
<path d="M5.1523 58.2750
L6.0667 58.2750
" />
<path d="M5.1523 49.6750
L6.0667 49.6750
" />
<path style="fill:#FFFFFF; fill-opacity:1.0000; stroke:none;fill-rule:evenodd;"
d="M 3.5950,8.6400
3.6140,8.7357
3.6682,8.8168
3.7493,8.8710
3.8450,8.8900
5.0450,8.8900
5.1407,8.8710
5.2218,8.8168
5.2760,8.7357
5.2950,8.6400
5.2950,5.3300
5.2760,5.2343
5.2218,5.1532
5.1407,5.0990
5.0450,5.0800
3.8450,5.0800
3.7493,5.0990
3.6682,5.1532
3.6140,5.2343
3.5950,5.3300
Z" /> 
<path style="fill:#FFFFFF; fill-opacity:1.0000; stroke:none;fill-rule:evenodd;"
d="M 6.0950,8.6400
6.1140,8.7357
6.1682,8.8168
6.2493,8.8710
6.3450,8.8900
7.5450,8.8900
7.6407,8.8710
7.7218,8.8168
7.7760,8.7357
7.7950,8.6400
7.7950,5.3300
7.7760,5.2343
7.7218,5.1532
7.6407,5.0990
7.5450,5.0800
6.3450,5.0800
6.2493,5.0990
6.1682,5.1532
6.1140,5.2343
6.0950,5.3300
Z" /> 
</g>
<g style="fill:#FFFFFF; fill-opacity:1.0000; stroke:none;">
<circle cx="33.6550" cy="11.4300" r="1.0160" /> 
</g>
<g style="fill:#FFFFFF; fill-opacity:1.0000; stroke:none;">
<circle cx="8.8900" cy="68.5800" r="1.0160" /> 
</g>
<g style="fill:#FFFFFF; fill-opacity:1.0000; stroke:none;">
<circle cx="27.9400" cy="26.6700" r="1.0160" /> 
</g>
<g style="fill:#FFFFFF; fill-opacity:1.0000; stroke:none;">
<circle cx="17.1450" cy="21.5900" r="1.0160" /> 
</g>
<g style="fill:#FFFFFF; fill-opacity:1.0000; stroke:none;">
<circle cx="42.0370" cy="44.4500" r="1.0160" /> 
</g>
<g style="fill:#FFFFFF; fill-opacity:1.0000; stroke:none;">
<circle cx="12.7000" cy="52.0700" r="1.0160" /> 
</g>
<g style="fill:#FFFFFF; fill-opacity:1.0000; stroke:none;">
<circle cx="8.8900" cy="52.7050" r="1.0160" /> 
</g>
<g style="fill:none; 
stroke:#FFFFFF; stroke-width:1.0160; stroke-opacity:1; 
stroke-linecap:round; stroke-linejoin:round;">
<path d="M12.0650 6.9850
L12.0650 48.2600
" />
<path d="M11.4300 48.8950
L11.4280 48.8930
" />
<path d="M6.9450 6.9850
L12.0650 6.9850
" />
<path d="M12.0650 48.2600
L11.4300 48.8950
" />
<path d="M11.4300 50.8000
L12.7000 52.0700
" />
<path d="M11.4280 48.8930
L10.3755 48.8930
" />
<path d="M11.4300 48.8950
L11.4300 50.8000
" />
<path d="M4.4450 44.8675
L8.4705 48.8930
" />
</g>
<g style="fill:none; 
stroke:#FFFFFF; stroke-width:0.6350; stroke-opacity:1; 
stroke-linecap:round; stroke-linejoin:round;">
<path d="M8.4705 51.6505
L8.8900 52.0700
" />
</g>
<g style="fill:none; 
stroke:#FFFFFF; stroke-width:1.0160; stroke-opacity:1; 
stroke-linecap:round; stroke-linejoin:round;">
<path d="M8.4705 48.8930
L8.4705 51.6505
" />
<path d="M4.4450 6.9850
L4.4450 44.8675
" />
<path style="fill:#FFFFFF; fill-opacity:1.0000; stroke:none;fill-rule:evenodd;"
d="M 3.1066,0.5202
3.0609,0.5730
3.0509,0.6421
3.0799,0.7057
3.0860,0.7122
3.1697,0.7959
3.1697,0.7959
3.3036,0.9705
3.3036,0.9705
3.4137,1.1610
3.4137,1.1610
3.4979,1.3643
3.4979,1.3643
3.5548,1.5768
3.5548,1.5768
3.5835,1.7950
3.5835,1.7950
3.5835,2.0150
3.5835,2.0150
3.5548,2.2332
3.5548,2.2332
3.5548,2.2332
3.5548,2.2332
3.4979,2.4457
3.4979,2.4457
3.4533,2.5534
3.4137,2.6490
3.3036,2.8395
3.3036,2.8395
3.3036,2.8395
3.1697,3.0141
3.1697,3.0141
3.0141,3.1697
3.0141,3.1697
2.8899,3.2650
2.8395,3.3036
2.6490,3.4137
2.4457,3.4979
2.2332,3.5548
2.0150,3.5835
2.0150,3.5835
1.7950,3.5835
1.7950,3.5835
1.5768,3.5548
1.3643,3.4979
1.1610,3.4137
0.9705,3.3036
0.7959,3.1697
0.7684,3.1422
0.7122,3.0860
0.6509,3.0525
0.5812,3.0575
0.5252,3.0993
0.5008,3.1648
0.5005,3.1737
0.5005,48.5197
0.5202,48.5867
0.5730,48.6325
0.6421,48.6424
0.6628,48.6376
0.7121,48.6216
0.8800,48.5950
0.8800,48.5950
1.9390,48.5950
1.9390,48.5950
2.1069,48.6216
2.2686,48.6741
2.2686,48.6741
2.4200,48.7513
2.4985,48.8083
2.5576,48.8512
2.5576,48.8512
2.5576,48.8512
2.6778,48.9714
2.6778,48.9714
2.6778,48.9714
2.7021,49.0049
2.7777,49.1090
2.8549,49.2604
2.8549,49.2604
2.9074,49.4221
2.9340,49.5900
2.9340,49.7600
2.9074,49.9279
2.8549,50.0896
2.8549,50.0896
2.7777,50.2410
2.6778,50.3786
2.5576,50.4988
2.4200,50.5987
2.3525,50.6331
2.2686,50.6759
2.2686,50.6759
2.1970,50.6991
2.1069,50.7284
2.0291,50.7407
1.9390,50.7550
1.9390,50.7550
0.8800,50.7550
0.7899,50.7407
0.7121,50.7284
0.6628,50.7124
0.5930,50.7104
0.5331,50.7465
0.5023,50.8092
0.5005,50.8303
0.5005,57.1197
0.5202,57.1867
0.5730,57.2325
0.6421,57.2424
0.6628,57.2376
0.7121,57.2216
0.8800,57.1950
0.8800,57.1950
1.9390,57.1950
1.9390,57.1950
2.1069,57.2216
2.2686,57.2741
2.2686,57.2741
2.4200,57.3513
2.4985,57.4083
2.5576,57.4512
2.5576,57.4512
2.5576,57.4512
2.6778,57.5714
2.6778,57.5714
2.6778,57.5714
2.7207,57.6305
2.7777,57.7090
2.8549,57.8604
2.8549,57.8604
2.9074,58.0221
2.9340,58.1900
2.9340,58.3600
2.9074,58.5279
2.8549,58.6896
2.8549,58.6896
2.7777,58.8410
2.6778,58.9786
2.5576,59.0988
2.4200,59.1987
2.3458,59.2366
2.2686,59.2759
2.2686,59.2759
2.1877,59.3021
2.1069,59.3284
2.0291,59.3407
1.9390,59.3550
1.9390,59.3550
0.8800,59.3550
0.7899,59.3407
0.7121,59.3284
0.6628,59.3124
0.5930,59.3104
0.5331,59.3465
0.5023,59.4092
0.5005,59.4303
0.5005,67.3113
0.5202,67.3784
0.5730,67.4241
0.6421,67.4341
0.7057,67.4051
0.7122,67.3990
0.7959,67.3153
0.7959,67.3153
0.9705,67.1814
0.9705,67.1814
0.9705,67.1814
1.1610,67.0713
1.1610,67.0713
1.3643,66.9871
1.3643,66.9871
1.3643,66.9871
1.5768,66.9302
1.5768,66.9302
1.5768,66.9302
1.7950,66.9015
1.7950,66.9015
1.7950,66.9015
2.0150,66.9015
2.0150,66.9015
2.0150,66.9015
2.2332,66.9302
2.2332,66.9302
2.2332,66.9302
2.4457,66.9871
2.4457,66.9871
2.6490,67.0713
2.6490,67.0713
2.8395,67.1814
2.8395,67.1814
3.0141,67.3153
3.0141,67.3153
3.1697,67.4709
3.1697,67.4709
3.3036,67.6455
3.3036,67.6455
3.4137,67.8360
3.4137,67.8360
3.4979,68.0393
3.4979,68.0393
3.5548,68.2518
3.5548,68.2518
3.5835,68.4700
3.5835,68.4700
3.5835,68.6900
3.5835,68.6900
3.5548,68.9082
3.5548,68.9082
3.5548,68.9082
3.5548,68.9082
3.4979,69.1207
3.4979,69.1207
3.4533,69.2284
3.4137,69.3240
3.3036,69.5145
3.3036,69.5145
3.3036,69.5145
3.1697,69.6891
3.1697,69.6891
3.0860,69.7728
3.0525,69.8341
3.0575,69.9038
3.0993,69.9598
3.1648,69.9842
3.1737,69.9845
46.3563,69.9845
46.4234,69.9648
46.4691,69.9120
46.4791,69.8429
46.4501,69.7793
46.4440,69.7728
46.3603,69.6891
46.3603,69.6891
46.2264,69.5145
46.1163,69.3240
46.0321,69.1207
45.9752,68.9082
45.9465,68.6900
45.9465,68.4700
45.9752,68.2518
46.0321,68.0393
46.1163,67.8360
46.2264,67.6455
46.3603,67.4709
46.3603,67.4709
46.5159,67.3153
46.5159,67.3153
46.6905,67.1814
46.6905,67.1814
46.6905,67.1814
46.8810,67.0713
46.8810,67.0713
47.0843,66.9871
47.0843,66.9871
47.0843,66.9871
47.2968,66.9302
47.2968,66.9302
47.2968,66.9302
47.5150,66.9015
47.5150,66.9015
47.5150,66.9015
47.7350,66.9015
47.7350,66.9015
47.7350,66.9015
47.9532,66.9302
47.9532,66.9302
47.9532,66.9302
48.1657,66.9871
48.1657,66.9871
48.3690,67.0713
48.3690,67.0713
48.5595,67.1814
48.5595,67.1814
48.7341,67.3153
48.7341,67.3153
48.8897,67.4709
48.8897,67.4709
49.0236,67.6455
49.0236,67.6455
49.1337,67.8360
49.1337,67.8360
49.2179,68.0393
49.2179,68.0393
49.2748,68.2518
49.2748,68.2518
49.3035,68.4700
49.3035,68.4700
49.3035,68.6900
49.3035,68.6900
49.2748,68.9082
49.2748,68.9082
49.2748,68.9082
49.2748,68.9082
49.2179,69.1207
49.2179,69.1207
49.1733,69.2284
49.1337,69.3240
49.0236,69.5145
49.0236,69.5145
49.0236,69.5145
48.8897,69.6891
48.8897,69.6891
48.8060,69.7728
48.7725,69.8341
48.7775,69.9038
48.8193,69.9598
48.8848,69.9842
48.8937,69.9845
49.5405,69.9845
49.6075,69.9648
49.6533,69.9120
49.6645,69.8605
49.6645,58.1890
7.1594,58.1890
7.1594,58.3610
7.1325,58.5309
7.1325,58.5309
7.0793,58.6944
7.0793,58.6945
7.0013,58.8477
6.9002,58.9868
6.7785,59.1085
6.6394,59.2096
6.5592,59.2504
6.4861,59.2876
6.3336,59.3372
6.3226,59.3408
6.2549,59.3515
6.1527,59.3677
6.1527,59.3677
5.0663,59.3677
4.9839,59.3547
4.8964,59.3408
4.8964,59.3408
4.8964,59.3408
4.7329,59.2876
4.7329,59.2876
4.7328,59.2876
4.5796,59.2096
4.4405,59.1085
4.3188,58.9868
4.2177,58.8477
4.1397,58.6945
4.0865,58.5309
4.0726,58.4434
4.0596,58.3610
4.0596,58.1890
4.0753,58.0902
4.0865,58.0191
4.0865,58.0191
4.0865,58.0191
4.1397,57.8556
4.2143,57.7090
4.2177,57.7023
4.3188,57.5632
4.4405,57.4415
4.5006,57.3978
4.5729,57.3453
4.6156,57.2900
4.6216,57.2203
4.6074,57.1830
4.5465,57.0775
4.5090,56.9375
4.5090,56.7925
4.5465,56.6525
4.6190,56.5270
4.7215,56.4245
4.7215,56.4245
4.7215,56.4245
4.8470,56.3520
4.8470,56.3520
4.8585,56.3489
4.9870,56.3145
5.1320,56.3145
5.2605,56.3489
5.2720,56.3520
5.3975,56.4245
5.3975,56.4245
5.5000,56.5270
5.5000,56.5270
5.5725,56.6525
5.5725,56.6525
5.6100,56.7925
5.6100,56.7925
5.6100,56.9375
5.5862,57.0262
5.5879,57.0961
5.6270,57.1539
5.6913,57.1814
5.7060,57.1823
6.1527,57.1823
6.3226,57.2092
6.3226,57.2092
6.4861,57.2624
6.6394,57.3404
6.7188,57.3981
6.7785,57.4415
6.7785,57.4415
6.7785,57.4415
6.9002,57.5632
6.9002,57.5632
6.9002,57.5632
6.9436,57.6229
7.0013,57.7023
7.0793,57.8556
7.1325,58.0191
7.1325,58.0191
7.1594,58.1890
49.6645,58.1890
49.6645,51.9400
14.3515,51.9400
14.3515,52.2000
14.3108,52.4567
14.2305,52.7040
14.1637,52.8350
14.1125,52.9356
13.9597,53.1459
13.7759,53.3297
13.5656,53.4825
13.4561,53.5382
13.3340,53.6005
13.3340,53.6005
13.3340,53.6005
13.2014,53.6436
13.0867,53.6808
12.8300,53.7215
12.8300,53.7215
12.5700,53.7215
12.3133,53.6808
12.0660,53.6005
11.8344,53.4825
11.6241,53.3297
11.4403,53.1459
11.2875,52.9356
11.1695,52.7040
11.0892,52.4567
11.0672,52.3183
11.0485,52.2000
11.0485,52.0870
11.0288,52.0200
11.0122,51.9993
10.8523,51.8394
10.5578,51.5449
10.4979,51.4625
10.4520,51.3993
10.3703,51.2390
10.3147,51.0678
10.2865,50.8900
10.2865,50.6685
10.2668,50.6014
10.2140,50.5557
10.1625,50.5445
10.0592,50.5445
10.0592,50.5445
9.9815,50.5384
9.8009,50.4900
9.7943,50.4866
9.7256,50.4737
9.6608,50.4999
9.6206,50.5570
9.6140,50.5970
9.6140,51.1444
9.6336,51.2114
9.6817,51.2549
9.7556,51.2925
9.8756,51.3797
9.9659,51.4453
9.9659,51.4453
9.9659,51.4453
10.1497,51.6291
10.1497,51.6291
10.1497,51.6291
10.2153,51.7194
10.3025,51.8394
10.4205,52.0710
10.5008,52.3183
10.5415,52.5750
10.5415,52.8350
10.5008,53.0917
10.4205,53.3390
10.3025,53.5706
10.1497,53.7809
9.9659,53.9647
9.7556,54.1175
9.6461,54.1732
9.5240,54.2355
9.5240,54.2355
9.5240,54.2355
9.3914,54.2786
9.2767,54.3158
9.0200,54.3565
9.0200,54.3565
8.7600,54.3565
8.5033,54.3158
8.2560,54.2355
8.0244,54.1175
7.8141,53.9647
7.6303,53.7809
7.4775,53.5706
7.3595,53.3390
7.2792,53.0917
7.2544,52.9356
7.2385,52.8350
7.2385,52.5750
7.2792,52.3183
7.3176,52.2000
7.3595,52.0710
7.3638,52.0625
7.3767,51.9939
7.3713,51.9679
7.3551,51.9182
7.3270,51.7405
7.3270,50.1153
7.3073,50.0482
7.2545,50.0025
7.1853,49.9925
7.1218,50.0216
7.0850,50.0770
7.0793,50.0944
7.0793,50.0945
7.0013,50.2477
6.9002,50.3868
6.7785,50.5085
6.6394,50.6096
6.5592,50.6504
6.4861,50.6876
6.3336,50.7372
6.3226,50.7408
6.2549,50.7515
6.1527,50.7677
6.1527,50.7677
5.7060,50.7677
5.6390,50.7874
5.5932,50.8402
5.5833,50.9093
5.5862,50.9238
5.6100,51.0125
5.6100,51.1575
5.5738,51.2925
5.5725,51.2975
5.5000,51.4230
5.5000,51.4230
5.5000,51.4230
5.3975,51.5255
5.3975,51.5255
5.3975,51.5255
5.2720,51.5980
5.2720,51.5980
5.2720,51.5980
5.1320,51.6355
5.1320,51.6355
4.9870,51.6355
4.9870,51.6355
4.8470,51.5980
4.7215,51.5255
4.6190,51.4230
4.5465,51.2975
4.5090,51.1575
4.5090,51.0125
4.5465,50.8725
4.6074,50.7670
4.6239,50.6991
4.6010,50.6331
4.5729,50.6047
4.4405,50.5085
4.3188,50.3868
4.2177,50.2477
4.1397,50.0945
4.1340,50.0770
4.0865,49.9309
4.0865,49.9309
4.0865,49.9309
4.0726,49.8434
4.0596,49.7610
4.0596,49.5890
4.0753,49.4902
4.0865,49.4191
4.0865,49.4191
4.0865,49.4191
4.1397,49.2556
4.2143,49.1090
4.2177,49.1023
4.3188,48.9632
4.4405,48.8415
4.5796,48.7404
4.7329,48.6624
4.8964,48.6092
5.0663,48.5823
5.0663,48.5823
6.1527,48.5823
6.1527,48.5823
6.2391,48.5960
6.3084,48.5870
6.3618,48.5420
6.3825,48.4753
6.3638,48.4080
6.3462,48.3858
3.5728,45.6124
3.4670,45.4668
3.3853,45.3065
3.3716,45.2645
3.3297,45.1353
3.3171,45.0563
3.3015,44.9575
3.3015,9.3985
3.2818,9.3314
3.2555,9.3021
3.2154,9.2696
3.0983,9.1249
3.0138,8.9591
2.9656,8.7793
2.9595,8.7020
2.9595,5.2680
2.9656,5.1907
3.0138,5.0109
3.0560,4.9280
3.0983,4.8451
3.0983,4.8451
3.1431,4.7897
3.2154,4.7004
3.2877,4.6418
3.3601,4.5833
3.3601,4.5833
3.4837,4.5203
3.5259,4.4988
3.7057,4.4506
3.7057,4.4506
3.7057,4.4506
3.7686,4.4456
3.7830,4.4445
3.7830,4.4445
5.1070,4.4445
5.1070,4.4445
5.1843,4.4506
5.3641,4.4988
5.5299,4.5833
5.5299,4.5833
5.6170,4.6537
5.6815,4.6806
5.7502,4.6684
5.7730,4.6537
5.8601,4.5833
5.8601,4.5833
5.9837,4.5203
6.0259,4.4988
6.2057,4.4506
6.2057,4.4506
6.2057,4.4506
6.2686,4.4456
6.2830,4.4445
6.2830,4.4445
7.6070,4.4445
7.6070,4.4445
7.6843,4.4506
7.8641,4.4988
8.0299,4.5833
8.0299,4.5833
8.1746,4.7004
8.2917,4.8451
8.2917,4.8451
8.3762,5.0109
8.4244,5.1907
8.4305,5.2680
8.4305,5.7175
8.4502,5.7845
8.5030,5.8303
8.5545,5.8415
11.9750,5.8415
12.1550,5.8415
12.2143,5.8509
12.3328,5.8697
12.5039,5.9253
12.5040,5.9253
12.6643,6.0070
12.7474,6.0674
12.8099,6.1128
12.8099,6.1128
12.8099,6.1128
12.9372,6.2401
12.9372,6.2401
12.9372,6.2401
12.9826,6.3026
13.0430,6.3857
13.1247,6.5460
13.1247,6.5461
13.1803,6.7172
13.2085,6.8950
13.2085,48.3500
13.1803,48.5278
13.1803,48.5278
13.1487,48.6252
13.1247,48.6990
13.0521,48.8415
13.0521,48.8415
13.0430,48.8593
13.0430,48.8593
12.9372,49.0049
12.9372,49.0049
12.6098,49.3323
12.5763,49.3937
12.5735,49.4200
12.5735,50.2750
12.5821,50.3044
12.5887,50.3344
12.5924,50.3394
12.5932,50.3420
12.6098,50.3627
12.6293,50.3822
12.6907,50.4157
12.7170,50.4185
12.8300,50.4185
13.0867,50.4592
13.3340,50.5395
13.5656,50.6575
13.6632,50.7284
13.7759,50.8103
13.7759,50.8103
13.7759,50.8103
13.9597,50.9941
13.9597,50.9941
13.9597,50.9941
14.0132,51.0678
14.1125,51.2044
14.2305,51.4360
14.3108,51.6833
14.3515,51.9400
49.6645,51.9400
49.6645,3.2650
49.6448,3.1979
49.5920,3.1522
49.5229,3.1422
49.4653,3.1685
49.4643,3.1672
49.3369,3.2650
49.2865,3.3036
49.0960,3.4137
48.8927,3.4979
48.6801,3.5548
48.4620,3.5835
48.4620,3.5835
48.2420,3.5835
48.2420,3.5835
48.0238,3.5548
47.8113,3.4979
47.6080,3.4137
47.4174,3.3036
47.2429,3.1697
47.0873,3.0141
46.9533,2.8395
46.8433,2.6490
46.7591,2.4457
46.7022,2.2332
46.6734,2.0150
46.6734,1.7950
46.7022,1.5768
46.7591,1.3643
46.8433,1.1610
46.9533,0.9705
47.0873,0.7959
47.0873,0.7959
47.1710,0.7122
47.2045,0.6509
47.1995,0.5812
47.1576,0.5252
47.0922,0.5008
47.0833,0.5005
3.1737,0.5005
Z" /> 
</g>
<g style="fill:none; 
stroke:#FFFFFF; stroke-width:0.0500; stroke-opacity:1; 
stroke-linecap:round; stroke-linejoin:round;">
<circle cx="48.3520" cy="1.9050" r="1.1780" /> 
<circle cx="47.6250" cy="68.5800" r="1.1780" /> 
<path style="fill:none; 
stroke:#FFFFFF; stroke-width:0.0500; stroke-opacity:1; 
stroke-linecap:round; stroke-linejoin:round;fill:none"
d="M 50.1650,0.0000
0.0000,0.0000
0.0000,70.4850
50.1650,70.4850
Z" /> 
<circle cx="1.9050" cy="68.5800" r="1.1780" /> 
<circle cx="1.9050" cy="1.9050" r="1.1780" /> 
</g>
<g style="fill:#000000; fill-opacity:1.0000; stroke:none;">
<circle cx="33.6550" cy="11.4300" r="0.3810" /> 
</g>
<g style="fill:#000000; fill-opacity:1.0000; stroke:none;">
<circle cx="8.8900" cy="68.5800" r="0.3810" /> 
</g>
<g style="fill:#000000; fill-opacity:1.0000; stroke:none;">
<circle cx="27.9400" cy="26.6700" r="0.3810" /> 
</g>
<g style="fill:#000000; fill-opacity:1.0000; stroke:none;">
<circle cx="17.1450" cy="21.5900" r="0.3810" /> 
</g>
<g style="fill:#000000; fill-opacity:1.0000; stroke:none;">
<circle cx="42.0370" cy="44.4500" r="0.3810" /> 
</g>
<g style="fill:#000000; fill-opacity:1.0000; stroke:none;">
<circle cx="12.7000" cy="52.0700" r="0.3810" /> 
</g>
<g style="fill:#000000; fill-opacity:1.0000; stroke:none;">
<circle cx="8.8900" cy="52.7050" r="0.3810" /> 
</g>
<g style="fill:#000000; fill-opacity:1.0000; stroke:none;">
<circle cx="5.0595" cy="51.0850" r="0.3000" /> 
</g>
<g style="fill:#000000; fill-opacity:1.0000; stroke:none;">
<circle cx="5.0595" cy="56.8650" r="0.3000" /> 
</g>
<g style="fill:#000000; fill-opacity:1.0000; stroke:none;">
<circle cx="1.4095" cy="58.2750" r="0.2540" /> 
</g>
<g style="fill:#000000; fill-opacity:1.0000; stroke:none;">
<circle cx="1.4095" cy="49.6750" r="0.2540" /> 
</g>
<g style="fill:#000000; fill-opacity:1.0000; stroke:none;">
<circle cx="5.6095" cy="58.2750" r="0.2540" /> 
</g>
<g style="fill:#000000; fill-opacity:1.0000; stroke:none;">
<circle cx="5.6095" cy="49.6750" r="0.2540" /> 
</g>
<g style="fill:#000000; fill-opacity:1.0000; stroke:none;">
<circle cx="4.4450" cy="6.9850" r="0.5000" /> 
</g>
<g style="fill:#000000; fill-opacity:1.0000; stroke:none;">
<circle cx="6.9450" cy="6.9850" r="0.5000" /> 
</g> 
</svg>
