<?xml version="1.0" standalone="no"?>
 <!DOCTYPE svg PUBLIC "-//W3C//DTD SVG 1.1//EN" 
 "http://www.w3.org/Graphics/SVG/1.1/DTD/svg11.dtd"> 
<svg
  xmlns:svg="http://www.w3.org/2000/svg"
  xmlns="http://www.w3.org/2000/svg"
  xmlns:xlink="http://www.w3.org/1999/xlink"
  version="1.1"
  width="50.1650mm" height="70.6628mm" viewBox="0.0000 0.0000 50.1650 70.6628">
<title>SVG Image created as front.svg date 2025/12/12 17:11:11 </title>
  <desc>Image generated by PCBNEW </desc>
<g style="fill:#000000; fill-opacity:1.0000;stroke:#000000; stroke-opacity:1.0000;
stroke-linecap:round; stroke-linejoin:round;"
 transform="translate(0 0) scale(1 1)">
</g>
<g style="fill:#000000; fill-opacity:1.0000; 
stroke:#000000; stroke-width:0.0212; stroke-opacity:1; 
stroke-linecap:round; stroke-linejoin:round;">
<rect x="-5.261035" y="-5.025000" width="67.432332" height="80.535000" rx="0.000000" />
</g>
<g style="fill:none; 
stroke:#FFFFFF; stroke-width:1.2700; stroke-opacity:1; 
stroke-linecap:round; stroke-linejoin:round;">
<path d="M37.4570 11.4186
L41.2670 11.4186
" />
</g>
<g style="fill:none; 
stroke:#FFFFFF; stroke-width:1.5240; stroke-opacity:1; 
stroke-linecap:round; stroke-linejoin:round;">
<path d="M35.0440 13.9586
L38.6000 13.9586
" />
</g>
<g style="fill:none; 
stroke:#FFFFFF; stroke-width:1.2700; stroke-opacity:1; 
stroke-linecap:round; stroke-linejoin:round;">
<path d="M37.4570 16.4986
L41.2670 16.4986
" />
</g>
<g style="fill:none; 
stroke:#FFFFFF; stroke-width:1.5240; stroke-opacity:1; 
stroke-linecap:round; stroke-linejoin:round;">
<path d="M35.0440 19.0386
L38.6000 19.0386
" />
</g>
<g style="fill:none; 
stroke:#FFFFFF; stroke-width:1.2700; stroke-opacity:1; 
stroke-linecap:round; stroke-linejoin:round;">
<path d="M37.4570 21.5786
L41.2670 21.5786
" />
<path style="fill:#FFFFFF; fill-opacity:1.0000; stroke:none;fill-rule:evenodd;"
d="M 25.4950,65.1950
25.4950,64.3450
27.8450,64.3450
27.8450,65.1950
Z" /> 
<path style="fill:#FFFFFF; fill-opacity:1.0000; stroke:none;fill-rule:evenodd;"
d="M 27.8450,67.1950
27.8450,66.3450
30.1950,66.3450
30.1950,67.1950
Z" /> 
<path style="fill:#FFFFFF; fill-opacity:1.0000; stroke:none;fill-rule:evenodd;"
d="M 25.4950,69.1950
25.4950,68.3450
27.8450,68.3450
27.8450,69.1950
Z" /> 
<path style="fill:#FFFFFF; fill-opacity:1.0000; stroke:none;fill-rule:evenodd;"
d="M 31.1150,64.7700
31.1150,60.9600
32.3850,60.9600
32.3850,64.7700
Z" /> 
<path style="fill:#FFFFFF; fill-opacity:1.0000; stroke:none;fill-rule:evenodd;"
d="M 33.6550,62.4840
33.6550,58.6740
34.9250,58.6740
34.9250,62.4840
Z" /> 
<path style="fill:#FFFFFF; fill-opacity:1.0000; stroke:none;fill-rule:evenodd;"
d="M 36.1950,64.7700
36.1950,60.9600
37.4650,60.9600
37.4650,64.7700
Z" /> 
<path style="fill:#FFFFFF; fill-opacity:1.0000; stroke:none;fill-rule:evenodd;"
d="M 38.7350,62.4840
38.7350,58.6740
40.0050,58.6740
40.0050,62.4840
Z" /> 
<path style="fill:#FFFFFF; fill-opacity:1.0000; stroke:none;fill-rule:evenodd;"
d="M 41.2750,64.7700
41.2750,60.9600
42.5450,60.9600
42.5450,64.7700
Z" /> 
<path style="fill:#FFFFFF; fill-opacity:1.0000; stroke:none;fill-rule:evenodd;"
d="M 43.8150,62.4840
43.8150,58.6740
45.0850,58.6740
45.0850,62.4840
Z" /> 
<path style="fill:#FFFFFF; fill-opacity:1.0000; stroke:none;fill-rule:evenodd;"
d="M 46.3550,64.7700
46.3550,60.9600
47.6250,60.9600
47.6250,64.7700
Z" /> 
<path style="fill:#FFFFFF; fill-opacity:1.0000; stroke:none;fill-rule:evenodd;"
d="M 31.1150,49.5300
31.1150,45.7200
32.3850,45.7200
32.3850,49.5300
Z" /> 
<path style="fill:#FFFFFF; fill-opacity:1.0000; stroke:none;fill-rule:evenodd;"
d="M 33.6550,47.2440
33.6550,43.4340
34.9250,43.4340
34.9250,47.2440
Z" /> 
<path style="fill:#FFFFFF; fill-opacity:1.0000; stroke:none;fill-rule:evenodd;"
d="M 36.1950,49.5300
36.1950,45.7200
37.4650,45.7200
37.4650,49.5300
Z" /> 
<path style="fill:#FFFFFF; fill-opacity:1.0000; stroke:none;fill-rule:evenodd;"
d="M 38.7350,47.2440
38.7350,43.4340
40.0050,43.4340
40.0050,47.2440
Z" /> 
<path style="fill:#FFFFFF; fill-opacity:1.0000; stroke:none;fill-rule:evenodd;"
d="M 41.2750,47.2440
41.2750,43.4340
42.5450,43.4340
42.5450,47.2440
Z" /> 
<path style="fill:#FFFFFF; fill-opacity:1.0000; stroke:none;fill-rule:evenodd;"
d="M 43.8150,49.5300
43.8150,45.7200
45.0850,45.7200
45.0850,49.5300
Z" /> 
<path style="fill:#FFFFFF; fill-opacity:1.0000; stroke:none;fill-rule:evenodd;"
d="M 46.3550,47.2440
46.3550,43.4340
47.6250,43.4340
47.6250,47.2440
Z" /> 
<path style="fill:#FFFFFF; fill-opacity:1.0000; stroke:none;fill-rule:evenodd;"
d="M 44.5555,57.3850
44.5486,57.4194
44.5291,57.4486
44.4999,57.4681
44.4655,57.4750
43.4455,57.4750
43.4111,57.4681
43.3819,57.4486
43.3624,57.4194
43.3555,57.3850
43.3555,56.9650
43.3624,56.9306
43.3819,56.9014
43.4111,56.8819
43.4455,56.8750
44.4655,56.8750
44.4999,56.8819
44.5291,56.9014
44.5486,56.9306
44.5555,56.9650
Z" /> 
<path style="fill:#FFFFFF; fill-opacity:1.0000; stroke:none;fill-rule:evenodd;"
d="M 44.5555,56.5850
44.5486,56.6194
44.5291,56.6486
44.4999,56.6681
44.4655,56.6750
43.4455,56.6750
43.4111,56.6681
43.3819,56.6486
43.3624,56.6194
43.3555,56.5850
43.3555,56.1650
43.3624,56.1306
43.3819,56.1014
43.4111,56.0819
43.4455,56.0750
44.4655,56.0750
44.4999,56.0819
44.5291,56.1014
44.5486,56.1306
44.5555,56.1650
Z" /> 
<path style="fill:#FFFFFF; fill-opacity:1.0000; stroke:none;fill-rule:evenodd;"
d="M 44.5555,55.3300
44.5521,55.3472
44.5423,55.3618
44.5277,55.3716
44.5105,55.3750
43.4005,55.3750
43.3833,55.3716
43.3687,55.3618
43.3589,55.3472
43.3555,55.3300
43.3555,55.1200
43.3589,55.1028
43.3687,55.0882
43.3833,55.0784
43.4005,55.0750
44.5105,55.0750
44.5277,55.0784
44.5423,55.0882
44.5521,55.1028
44.5555,55.1200
Z" /> 
<path style="fill:#FFFFFF; fill-opacity:1.0000; stroke:none;fill-rule:evenodd;"
d="M 44.5555,54.3300
44.5521,54.3472
44.5423,54.3618
44.5277,54.3716
44.5105,54.3750
43.4005,54.3750
43.3833,54.3716
43.3687,54.3618
43.3589,54.3472
43.3555,54.3300
43.3555,54.1200
43.3589,54.1028
43.3687,54.0882
43.3833,54.0784
43.4005,54.0750
44.5105,54.0750
44.5277,54.0784
44.5423,54.0882
44.5521,54.1028
44.5555,54.1200
Z" /> 
<path style="fill:#FFFFFF; fill-opacity:1.0000; stroke:none;fill-rule:evenodd;"
d="M 44.5555,53.8300
44.5521,53.8472
44.5423,53.8618
44.5277,53.8716
44.5105,53.8750
43.4005,53.8750
43.3833,53.8716
43.3687,53.8618
43.3589,53.8472
43.3555,53.8300
43.3555,53.6200
43.3589,53.6028
43.3687,53.5882
43.3833,53.5784
43.4005,53.5750
44.5105,53.5750
44.5277,53.5784
44.5423,53.5882
44.5521,53.6028
44.5555,53.6200
Z" /> 
<path style="fill:#FFFFFF; fill-opacity:1.0000; stroke:none;fill-rule:evenodd;"
d="M 44.5555,52.8300
44.5521,52.8472
44.5423,52.8618
44.5277,52.8716
44.5105,52.8750
43.4005,52.8750
43.3833,52.8716
43.3687,52.8618
43.3589,52.8472
43.3555,52.8300
43.3555,52.6200
43.3589,52.6028
43.3687,52.5882
43.3833,52.5784
43.4005,52.5750
44.5105,52.5750
44.5277,52.5784
44.5423,52.5882
44.5521,52.6028
44.5555,52.6200
Z" /> 
<path style="fill:#FFFFFF; fill-opacity:1.0000; stroke:none;fill-rule:evenodd;"
d="M 44.5555,50.9850
44.5486,51.0194
44.5291,51.0486
44.4999,51.0681
44.4655,51.0750
43.4455,51.0750
43.4111,51.0681
43.3819,51.0486
43.3624,51.0194
43.3555,50.9850
43.3555,50.5650
43.3624,50.5306
43.3819,50.5014
43.4111,50.4819
43.4455,50.4750
44.4655,50.4750
44.4999,50.4819
44.5291,50.5014
44.5486,50.5306
44.5555,50.5650
Z" /> 
<path style="fill:#FFFFFF; fill-opacity:1.0000; stroke:none;fill-rule:evenodd;"
d="M 44.5555,51.7850
44.5486,51.8194
44.5291,51.8486
44.4999,51.8681
44.4655,51.8750
43.4455,51.8750
43.4111,51.8681
43.3819,51.8486
43.3624,51.8194
43.3555,51.7850
43.3555,51.3650
43.3624,51.3306
43.3819,51.3014
43.4111,51.2819
43.4455,51.2750
44.4655,51.2750
44.4999,51.2819
44.5291,51.3014
44.5486,51.3306
44.5555,51.3650
Z" /> 
<path style="fill:#FFFFFF; fill-opacity:1.0000; stroke:none;fill-rule:evenodd;"
d="M 44.5555,52.3300
44.5521,52.3472
44.5423,52.3618
44.5277,52.3716
44.5105,52.3750
43.4005,52.3750
43.3833,52.3716
43.3687,52.3618
43.3589,52.3472
43.3555,52.3300
43.3555,52.1200
43.3589,52.1028
43.3687,52.0882
43.3833,52.0784
43.4005,52.0750
44.5105,52.0750
44.5277,52.0784
44.5423,52.0882
44.5521,52.1028
44.5555,52.1200
Z" /> 
<path style="fill:#FFFFFF; fill-opacity:1.0000; stroke:none;fill-rule:evenodd;"
d="M 44.5555,53.3300
44.5521,53.3472
44.5423,53.3618
44.5277,53.3716
44.5105,53.3750
43.4005,53.3750
43.3833,53.3716
43.3687,53.3618
43.3589,53.3472
43.3555,53.3300
43.3555,53.1200
43.3589,53.1028
43.3687,53.0882
43.3833,53.0784
43.4005,53.0750
44.5105,53.0750
44.5277,53.0784
44.5423,53.0882
44.5521,53.1028
44.5555,53.1200
Z" /> 
<path style="fill:#FFFFFF; fill-opacity:1.0000; stroke:none;fill-rule:evenodd;"
d="M 44.5555,54.8300
44.5521,54.8472
44.5423,54.8618
44.5277,54.8716
44.5105,54.8750
43.4005,54.8750
43.3833,54.8716
43.3687,54.8618
43.3589,54.8472
43.3555,54.8300
43.3555,54.6200
43.3589,54.6028
43.3687,54.5882
43.3833,54.5784
43.4005,54.5750
44.5105,54.5750
44.5277,54.5784
44.5423,54.5882
44.5521,54.6028
44.5555,54.6200
Z" /> 
<path style="fill:#FFFFFF; fill-opacity:1.0000; stroke:none;fill-rule:evenodd;"
d="M 44.5555,55.8300
44.5521,55.8472
44.5423,55.8618
44.5277,55.8716
44.5105,55.8750
43.4005,55.8750
43.3833,55.8716
43.3687,55.8618
43.3589,55.8472
43.3555,55.8300
43.3555,55.6200
43.3589,55.6028
43.3687,55.5882
43.3833,55.5784
43.4005,55.5750
44.5105,55.5750
44.5277,55.5784
44.5423,55.5882
44.5521,55.6028
44.5555,55.6200
Z" /> 
</g>
<g style="fill:none; 
stroke:#FFFFFF; stroke-width:0.8890; stroke-opacity:1; 
stroke-linecap:round; stroke-linejoin:round;">
<path d="M49.2000 58.2750
L48.3110 58.2750
" />
<path d="M49.2000 49.6750
L48.3110 49.6750
" />
</g>
<g style="fill:none; 
stroke:#FFFFFF; stroke-width:0.9144; stroke-opacity:1; 
stroke-linecap:round; stroke-linejoin:round;">
<path d="M45.0127 58.2750
L44.0983 58.2750
" />
<path d="M45.0127 49.6750
L44.0983 49.6750
" />
</g>
<g style="fill:none; 
stroke:#FFFFFF; stroke-width:1.5240; stroke-opacity:1; 
stroke-linecap:round; stroke-linejoin:round;">
<path d="M13.9540 5.8050
L13.9540 9.3610
" />
<path d="M16.4940 3.2650
L16.4940 6.8210
" />
<path d="M19.0340 5.8050
L19.0340 9.3610
" />
<path d="M21.5740 3.2650
L21.5740 6.8210
" />
<path style="fill:#FFFFFF; fill-opacity:1.0000; stroke:none;fill-rule:evenodd;"
d="M 46.5700,8.6400
46.5510,8.7357
46.4968,8.8168
46.4157,8.8710
46.3200,8.8900
45.1200,8.8900
45.0243,8.8710
44.9432,8.8168
44.8890,8.7357
44.8700,8.6400
44.8700,5.3300
44.8890,5.2343
44.9432,5.1532
45.0243,5.0990
45.1200,5.0800
46.3200,5.0800
46.4157,5.0990
46.4968,5.1532
46.5510,5.2343
46.5700,5.3300
Z" /> 
<path style="fill:#FFFFFF; fill-opacity:1.0000; stroke:none;fill-rule:evenodd;"
d="M 44.0700,8.6400
44.0510,8.7357
43.9968,8.8168
43.9157,8.8710
43.8200,8.8900
42.6200,8.8900
42.5243,8.8710
42.4432,8.8168
42.3890,8.7357
42.3700,8.6400
42.3700,5.3300
42.3890,5.2343
42.4432,5.1532
42.5243,5.0990
42.6200,5.0800
43.8200,5.0800
43.9157,5.0990
43.9968,5.1532
44.0510,5.2343
44.0700,5.3300
Z" /> 
<path style="fill:#FFFFFF; fill-opacity:1.0000; stroke:none;fill-rule:evenodd;"
d="M 12.2550,65.1000
12.2550,64.2500
14.6050,64.2500
14.6050,65.1000
Z" /> 
<path style="fill:#FFFFFF; fill-opacity:1.0000; stroke:none;fill-rule:evenodd;"
d="M 14.6050,67.1000
14.6050,66.2500
16.9550,66.2500
16.9550,67.1000
Z" /> 
<path style="fill:#FFFFFF; fill-opacity:1.0000; stroke:none;fill-rule:evenodd;"
d="M 12.2550,69.1000
12.2550,68.2500
14.6050,68.2500
14.6050,69.1000
Z" /> 
<path style="fill:#FFFFFF; fill-opacity:1.0000; stroke:none;fill-rule:evenodd;"
d="M 19.1450,65.1950
19.1450,64.3450
21.4950,64.3450
21.4950,65.1950
Z" /> 
<path style="fill:#FFFFFF; fill-opacity:1.0000; stroke:none;fill-rule:evenodd;"
d="M 21.4950,67.1950
21.4950,66.3450
23.8450,66.3450
23.8450,67.1950
Z" /> 
<path style="fill:#FFFFFF; fill-opacity:1.0000; stroke:none;fill-rule:evenodd;"
d="M 19.1450,69.1950
19.1450,68.3450
21.4950,68.3450
21.4950,69.1950
Z" /> 
<path style="fill:#FFFFFF; fill-opacity:1.0000; stroke:none;fill-rule:evenodd;"
d="M 3.1750,12.0650
3.1750,10.7950
6.9850,10.7950
6.9850,12.0650
Z" /> 
<path style="fill:#FFFFFF; fill-opacity:1.0000; stroke:none;fill-rule:evenodd;"
d="M 0.6350,14.6050
0.6350,13.3350
4.4450,13.3350
4.4450,14.6050
Z" /> 
<path style="fill:#FFFFFF; fill-opacity:1.0000; stroke:none;fill-rule:evenodd;"
d="M 3.1750,17.1450
3.1750,15.8750
6.9850,15.8750
6.9850,17.1450
Z" /> 
<path style="fill:#FFFFFF; fill-opacity:1.0000; stroke:none;fill-rule:evenodd;"
d="M 0.6350,19.6850
0.6350,18.4150
4.4450,18.4150
4.4450,19.6850
Z" /> 
<path style="fill:#FFFFFF; fill-opacity:1.0000; stroke:none;fill-rule:evenodd;"
d="M 3.1750,22.2250
3.1750,20.9550
6.9850,20.9550
6.9850,22.2250
Z" /> 
<path style="fill:#FFFFFF; fill-opacity:1.0000; stroke:none;fill-rule:evenodd;"
d="M 0.6350,24.7650
0.6350,23.4950
4.4450,23.4950
4.4450,24.7650
Z" /> 
<path style="fill:#FFFFFF; fill-opacity:1.0000; stroke:none;fill-rule:evenodd;"
d="M 3.1750,27.3050
3.1750,26.0350
6.9850,26.0350
6.9850,27.3050
Z" /> 
<path style="fill:#FFFFFF; fill-opacity:1.0000; stroke:none;fill-rule:evenodd;"
d="M 0.6350,29.8450
0.6350,28.5750
4.4450,28.5750
4.4450,29.8450
Z" /> 
<path style="fill:#FFFFFF; fill-opacity:1.0000; stroke:none;fill-rule:evenodd;"
d="M 3.1750,32.3850
3.1750,31.1150
6.9850,31.1150
6.9850,32.3850
Z" /> 
<path style="fill:#FFFFFF; fill-opacity:1.0000; stroke:none;fill-rule:evenodd;"
d="M 0.6350,34.9250
0.6350,33.6550
4.4450,33.6550
4.4450,34.9250
Z" /> 
<path style="fill:#FFFFFF; fill-opacity:1.0000; stroke:none;fill-rule:evenodd;"
d="M 3.1750,37.4650
3.1750,36.1950
6.9850,36.1950
6.9850,37.4650
Z" /> 
<path style="fill:#FFFFFF; fill-opacity:1.0000; stroke:none;fill-rule:evenodd;"
d="M 0.6350,40.0050
0.6350,38.7350
4.4450,38.7350
4.4450,40.0050
Z" /> 
<path style="fill:#FFFFFF; fill-opacity:1.0000; stroke:none;fill-rule:evenodd;"
d="M 3.1750,42.5450
3.1750,41.2750
6.9850,41.2750
6.9850,42.5450
Z" /> 
<path style="fill:#FFFFFF; fill-opacity:1.0000; stroke:none;fill-rule:evenodd;"
d="M 0.6350,45.0850
0.6350,43.8150
4.4450,43.8150
4.4450,45.0850
Z" /> 
<path style="fill:#FFFFFF; fill-opacity:1.0000; stroke:none;fill-rule:evenodd;"
d="M 3.1750,47.6250
3.1750,46.3550
6.9850,46.3550
6.9850,47.6250
Z" /> 
<path style="fill:#FFFFFF; fill-opacity:1.0000; stroke:none;fill-rule:evenodd;"
d="M 0.6350,50.1650
0.6350,48.8950
4.4450,48.8950
4.4450,50.1650
Z" /> 
<path style="fill:#FFFFFF; fill-opacity:1.0000; stroke:none;fill-rule:evenodd;"
d="M 3.1750,52.7050
3.1750,51.4350
6.9850,51.4350
6.9850,52.7050
Z" /> 
<path style="fill:#FFFFFF; fill-opacity:1.0000; stroke:none;fill-rule:evenodd;"
d="M 0.6350,55.2450
0.6350,53.9750
4.4450,53.9750
4.4450,55.2450
Z" /> 
<path style="fill:#FFFFFF; fill-opacity:1.0000; stroke:none;fill-rule:evenodd;"
d="M 3.1750,57.7850
3.1750,56.5150
6.9850,56.5150
6.9850,57.7850
Z" /> 
<path style="fill:#FFFFFF; fill-opacity:1.0000; stroke:none;fill-rule:evenodd;"
d="M 26.0350,12.0650
26.0350,10.7950
29.8450,10.7950
29.8450,12.0650
Z" /> 
<path style="fill:#FFFFFF; fill-opacity:1.0000; stroke:none;fill-rule:evenodd;"
d="M 23.4950,14.6050
23.4950,13.3350
27.3050,13.3350
27.3050,14.6050
Z" /> 
<path style="fill:#FFFFFF; fill-opacity:1.0000; stroke:none;fill-rule:evenodd;"
d="M 26.0350,17.1450
26.0350,15.8750
29.8450,15.8750
29.8450,17.1450
Z" /> 
<path style="fill:#FFFFFF; fill-opacity:1.0000; stroke:none;fill-rule:evenodd;"
d="M 23.4950,19.6850
23.4950,18.4150
27.3050,18.4150
27.3050,19.6850
Z" /> 
<path style="fill:#FFFFFF; fill-opacity:1.0000; stroke:none;fill-rule:evenodd;"
d="M 26.0350,22.2250
26.0350,20.9550
29.8450,20.9550
29.8450,22.2250
Z" /> 
<path style="fill:#FFFFFF; fill-opacity:1.0000; stroke:none;fill-rule:evenodd;"
d="M 23.4950,24.7650
23.4950,23.4950
27.3050,23.4950
27.3050,24.7650
Z" /> 
<path style="fill:#FFFFFF; fill-opacity:1.0000; stroke:none;fill-rule:evenodd;"
d="M 26.0350,27.3050
26.0350,26.0350
29.8450,26.0350
29.8450,27.3050
Z" /> 
<path style="fill:#FFFFFF; fill-opacity:1.0000; stroke:none;fill-rule:evenodd;"
d="M 23.4950,29.8450
23.4950,28.5750
27.3050,28.5750
27.3050,29.8450
Z" /> 
<path style="fill:#FFFFFF; fill-opacity:1.0000; stroke:none;fill-rule:evenodd;"
d="M 26.0350,32.2580
26.0350,31.2420
29.8450,31.2420
29.8450,32.2580
Z" /> 
<path style="fill:#FFFFFF; fill-opacity:1.0000; stroke:none;fill-rule:evenodd;"
d="M 23.4950,34.7980
23.4950,33.7820
27.3050,33.7820
27.3050,34.7980
Z" /> 
<path style="fill:#FFFFFF; fill-opacity:1.0000; stroke:none;fill-rule:evenodd;"
d="M 26.0350,37.4650
26.0350,36.1950
29.8450,36.1950
29.8450,37.4650
Z" /> 
<path style="fill:#FFFFFF; fill-opacity:1.0000; stroke:none;fill-rule:evenodd;"
d="M 23.4950,40.0050
23.4950,38.7350
27.3050,38.7350
27.3050,40.0050
Z" /> 
<path style="fill:#FFFFFF; fill-opacity:1.0000; stroke:none;fill-rule:evenodd;"
d="M 26.0350,42.5450
26.0350,41.2750
29.8450,41.2750
29.8450,42.5450
Z" /> 
<path style="fill:#FFFFFF; fill-opacity:1.0000; stroke:none;fill-rule:evenodd;"
d="M 23.4950,45.0850
23.4950,43.8150
27.3050,43.8150
27.3050,45.0850
Z" /> 
<path style="fill:#FFFFFF; fill-opacity:1.0000; stroke:none;fill-rule:evenodd;"
d="M 26.0350,47.6250
26.0350,46.3550
29.8450,46.3550
29.8450,47.6250
Z" /> 
<path style="fill:#FFFFFF; fill-opacity:1.0000; stroke:none;fill-rule:evenodd;"
d="M 23.4950,50.1650
23.4950,48.8950
27.3050,48.8950
27.3050,50.1650
Z" /> 
<path style="fill:#FFFFFF; fill-opacity:1.0000; stroke:none;fill-rule:evenodd;"
d="M 26.0350,52.7050
26.0350,51.4350
29.8450,51.4350
29.8450,52.7050
Z" /> 
<path style="fill:#FFFFFF; fill-opacity:1.0000; stroke:none;fill-rule:evenodd;"
d="M 23.4950,55.2450
23.4950,53.9750
27.3050,53.9750
27.3050,55.2450
Z" /> 
<path style="fill:#FFFFFF; fill-opacity:1.0000; stroke:none;fill-rule:evenodd;"
d="M 26.0350,57.7850
26.0350,56.5150
29.8450,56.5150
29.8450,57.7850
Z" /> 
</g>
<g style="fill:none; 
stroke:#FFFFFF; stroke-width:1.7000; stroke-opacity:1; 
stroke-linecap:round; stroke-linejoin:round;">
<path d="M42.2884 26.6299
L38.9084 26.6299
" />
<path d="M39.7484 29.1299
L36.3684 29.1299
" />
<path d="M42.2884 31.6299
L38.9084 31.6299
" />
<path d="M39.7484 34.1299
L36.3684 34.1299
" />
<path d="M42.2884 36.6299
L38.9084 36.6299
" />
<path d="M39.7484 39.1299
L36.3684 39.1299
" />
</g>
<g style="fill:#FFFFFF; fill-opacity:1.0000; stroke:none;">
<circle cx="16.5100" cy="11.4300" r="1.0160" /> 
</g>
<g style="fill:#FFFFFF; fill-opacity:1.0000; stroke:none;">
<circle cx="41.2750" cy="68.5800" r="1.0160" /> 
</g>
<g style="fill:#FFFFFF; fill-opacity:1.0000; stroke:none;">
<circle cx="22.2250" cy="26.6700" r="1.0160" /> 
</g>
<g style="fill:#FFFFFF; fill-opacity:1.0000; stroke:none;">
<circle cx="33.0200" cy="21.5900" r="1.0160" /> 
</g>
<g style="fill:#FFFFFF; fill-opacity:1.0000; stroke:none;">
<circle cx="8.1280" cy="44.4500" r="1.0160" /> 
</g>
<g style="fill:#FFFFFF; fill-opacity:1.0000; stroke:none;">
<circle cx="37.4650" cy="52.0700" r="1.0160" /> 
</g>
<g style="fill:#FFFFFF; fill-opacity:1.0000; stroke:none;">
<circle cx="41.2750" cy="52.7050" r="1.0160" /> 
</g>
<g style="fill:none; 
stroke:#FFFFFF; stroke-width:0.6350; stroke-opacity:1; 
stroke-linecap:round; stroke-linejoin:round;">
<path d="M13.4300 68.6750
L20.2250 68.6750
" />
<path d="M20.3200 68.7700
L26.6700 68.7700
" />
<path d="M3.8100 44.4500
L8.1280 44.4500
" />
<path d="M20.2250 68.6750
L20.3200 68.7700
" />
<path d="M22.2250 26.6700
L26.6700 26.6700
" />
<path d="M16.4940 11.4140
L16.5100 11.4300
" />
<path d="M26.6700 68.7700
L41.0850 68.7700
" />
<path d="M38.0806 21.5900
L38.0920 21.5786
" />
<path d="M26.6700 26.6700
L39.2883 26.6700
" />
<path d="M44.4500 65.4050
L44.4500 61.5950
" />
<path d="M16.4940 6.3130
L16.4940 11.4140
" />
<path d="M41.2750 68.5800
L44.4500 65.4050
" />
<path d="M33.0200 21.5900
L38.0806 21.5900
" />
<path d="M16.5100 11.4300
L26.6700 11.4300
" />
<path d="M39.2883 26.6700
L39.3284 26.6299
" />
<path d="M41.0850 68.7700
L41.2750 68.5800
" />
</g>
<g style="fill:none; 
stroke:#FFFFFF; stroke-width:0.7620; stroke-opacity:1; 
stroke-linecap:round; stroke-linejoin:round;">
<path d="M26.6700 31.7500
L39.2083 31.7500
" />
</g>
<g style="fill:none; 
stroke:#FFFFFF; stroke-width:0.6350; stroke-opacity:1; 
stroke-linecap:round; stroke-linejoin:round;">
<path d="M39.2083 31.7500
L39.3284 31.6299
" />
</g>
<g style="fill:none; 
stroke:#FFFFFF; stroke-width:0.7620; stroke-opacity:1; 
stroke-linecap:round; stroke-linejoin:round;">
<path d="M31.7500 34.2900
L34.0899 36.6299
" />
<path d="M26.6700 34.2900
L31.7500 34.2900
" />
<path d="M34.0899 36.6299
L39.3284 36.6299
" />
</g>
<g style="fill:none; 
stroke:#FFFFFF; stroke-width:1.0160; stroke-opacity:1; 
stroke-linecap:round; stroke-linejoin:round;">
<path d="M8.2550 11.4300
L7.6200 11.4300
" />
<path d="M7.8740 11.4300
L10.6680 14.2240
" />
<path d="M38.0920 11.4186
L44.4386 11.4186
" />
<path d="M22.6700 66.7700
L15.8750 66.7700
" />
<path d="M14.6050 1.2700
L34.9250 1.2700
" />
<path d="M10.6680 14.2240
L10.6680 57.4040
" />
<path d="M10.6680 57.4040
L10.1600 57.9120
" />
<path d="M34.9250 1.2700
L38.1000 4.4450
" />
<path d="M13.9540 1.9210
L14.6050 1.2700
" />
<path d="M38.0920 4.4530
L38.0920 11.4186
" />
<path d="M29.0200 66.7700
L22.6700 66.7700
" />
<path d="M45.7200 39.3700
L39.5684 39.3700
" />
<path d="M7.6200 11.4300
L3.8100 11.4300
" />
<path d="M45.7200 12.7000
L45.7200 39.3700
" />
<path d="M7.6200 11.4300
L7.8740 11.4300
" />
<path d="M41.9100 64.1350
L39.3700 66.6750
" />
<path d="M39.3700 66.6750
L29.7500 66.6750
" />
</g>
<g style="fill:none; 
stroke:#FFFFFF; stroke-width:0.6350; stroke-opacity:1; 
stroke-linecap:round; stroke-linejoin:round;">
<path d="M13.9540 6.3130
L13.3720 6.3130
" />
</g>
<g style="fill:none; 
stroke:#FFFFFF; stroke-width:1.0160; stroke-opacity:1; 
stroke-linecap:round; stroke-linejoin:round;">
<path d="M13.3720 6.3130
L8.2550 11.4300
" />
</g>
<g style="fill:none; 
stroke:#FFFFFF; stroke-width:0.6350; stroke-opacity:1; 
stroke-linecap:round; stroke-linejoin:round;">
<path d="M39.5684 39.3700
L39.3284 39.1299
" />
<path d="M41.9100 61.5950
L41.9100 64.1350
" />
<path d="M38.1000 4.4450
L38.0920 4.4530
" />
</g>
<g style="fill:none; 
stroke:#FFFFFF; stroke-width:1.0160; stroke-opacity:1; 
stroke-linecap:round; stroke-linejoin:round;">
<path d="M13.9540 6.3130
L13.9540 1.9210
" />
<path d="M10.1600 66.0400
L10.1600 57.9120
" />
</g>
<g style="fill:none; 
stroke:#FFFFFF; stroke-width:0.6350; stroke-opacity:1; 
stroke-linecap:round; stroke-linejoin:round;">
<path d="M15.8750 66.7700
L15.7800 66.6750
" />
</g>
<g style="fill:none; 
stroke:#FFFFFF; stroke-width:1.0160; stroke-opacity:1; 
stroke-linecap:round; stroke-linejoin:round;">
<path d="M15.7800 66.6750
L10.7950 66.6750
" />
<path d="M10.7950 66.6750
L10.1600 66.0400
" />
<path d="M44.4386 11.4186
L45.7200 12.7000
" />
</g>
<g style="fill:none; 
stroke:#FFFFFF; stroke-width:0.6350; stroke-opacity:1; 
stroke-linecap:round; stroke-linejoin:round;">
<path d="M39.2483 29.2100
L39.3284 29.1299
" />
</g>
<g style="fill:none; 
stroke:#FFFFFF; stroke-width:0.7620; stroke-opacity:1; 
stroke-linecap:round; stroke-linejoin:round;">
<path d="M26.6700 29.2100
L39.2483 29.2100
" />
</g>
<g style="fill:none; 
stroke:#FFFFFF; stroke-width:0.6350; stroke-opacity:1; 
stroke-linecap:round; stroke-linejoin:round;">
<path d="M26.6700 13.9700
L22.8600 13.9700
" />
</g>
<g style="fill:none; 
stroke:#FFFFFF; stroke-width:0.3810; stroke-opacity:1; 
stroke-linecap:round; stroke-linejoin:round;">
<path d="M35.3999 34.1299
L39.3284 34.1299
" />
</g>
<g style="fill:none; 
stroke:#FFFFFF; stroke-width:0.6350; stroke-opacity:1; 
stroke-linecap:round; stroke-linejoin:round;">
<path d="M22.8600 13.9700
L19.0500 17.7800
" />
<path d="M19.0500 17.7800
L19.0500 32.3850
" />
<path d="M19.0500 32.3850
L19.6215 33.0200
" />
<path d="M19.6215 33.0200
L34.2265 33.0200
" />
<path d="M34.2265 33.0200
L35.3999 34.1299
" />
</g>
<g style="fill:none; 
stroke:#FFFFFF; stroke-width:0.7620; stroke-opacity:1; 
stroke-linecap:round; stroke-linejoin:round;">
<path d="M19.0340 7.6040
L20.3200 8.8900
" />
</g>
<g style="fill:none; 
stroke:#FFFFFF; stroke-width:0.6350; stroke-opacity:1; 
stroke-linecap:round; stroke-linejoin:round;">
<path d="M19.0340 6.3130
L19.0340 7.6040
" />
</g>
<g style="fill:none; 
stroke:#FFFFFF; stroke-width:0.7620; stroke-opacity:1; 
stroke-linecap:round; stroke-linejoin:round;">
<path d="M26.6700 16.5100
L31.7500 16.5100
" />
<path d="M30.4800 8.8900
L31.7500 10.1600
" />
<path d="M20.3200 8.8900
L30.4800 8.8900
" />
</g>
<g style="fill:none; 
stroke:#FFFFFF; stroke-width:0.6350; stroke-opacity:1; 
stroke-linecap:round; stroke-linejoin:round;">
<path d="M38.0806 16.5100
L38.0920 16.4986
" />
</g>
<g style="fill:none; 
stroke:#FFFFFF; stroke-width:0.7620; stroke-opacity:1; 
stroke-linecap:round; stroke-linejoin:round;">
<path d="M31.7500 10.1600
L31.7500 16.5100
" />
<path d="M31.7500 16.5100
L38.0806 16.5100
" />
</g>
<g style="fill:none; 
stroke:#FFFFFF; stroke-width:0.6350; stroke-opacity:1; 
stroke-linecap:round; stroke-linejoin:round;">
<path d="M41.8986 13.9586
L38.0920 13.9586
" />
<path d="M43.1800 22.2250
L43.1800 15.2400
" />
</g>
<g style="fill:none; 
stroke:#FFFFFF; stroke-width:0.7620; stroke-opacity:1; 
stroke-linecap:round; stroke-linejoin:round;">
<path d="M26.6700 24.1300
L41.2750 24.1300
" />
<path d="M35.5600 10.7950
L35.5600 12.0650
" />
</g>
<g style="fill:none; 
stroke:#FFFFFF; stroke-width:0.6350; stroke-opacity:1; 
stroke-linecap:round; stroke-linejoin:round;">
<path d="M43.1800 15.2400
L41.8986 13.9586
" />
</g>
<g style="fill:none; 
stroke:#FFFFFF; stroke-width:0.7620; stroke-opacity:1; 
stroke-linecap:round; stroke-linejoin:round;">
<path d="M21.5740 6.3130
L31.0780 6.3130
" />
</g>
<g style="fill:none; 
stroke:#FFFFFF; stroke-width:0.6350; stroke-opacity:1; 
stroke-linecap:round; stroke-linejoin:round;">
<path d="M37.4536 13.9586
L38.0920 13.9586
" />
<path d="M41.2750 24.1300
L43.1800 22.2250
" />
</g>
<g style="fill:none; 
stroke:#FFFFFF; stroke-width:0.7620; stroke-opacity:1; 
stroke-linecap:round; stroke-linejoin:round;">
<path d="M35.5600 12.0650
L37.4536 13.9586
" />
<path d="M31.0780 6.3130
L35.5600 10.7950
" />
<path d="M31.1150 39.3700
L31.7500 40.0050
" />
<path d="M26.6700 39.3700
L31.1150 39.3700
" />
<path d="M31.7500 40.0050
L31.7500 46.3550
" />
<path d="M13.4300 47.0850
L13.4300 64.6750
" />
<path d="M18.4150 41.9100
L13.3350 46.9900
" />
<path d="M26.6700 41.9100
L18.4150 41.9100
" />
</g>
<g style="fill:none; 
stroke:#FFFFFF; stroke-width:0.6350; stroke-opacity:1; 
stroke-linecap:round; stroke-linejoin:round;">
<path d="M13.3350 46.9900
L13.4300 47.0850
" />
</g>
<g style="fill:none; 
stroke:#FFFFFF; stroke-width:0.7620; stroke-opacity:1; 
stroke-linecap:round; stroke-linejoin:round;">
<path d="M20.3200 45.7200
L20.3200 64.7700
" />
<path d="M21.5900 44.4500
L20.3200 45.7200
" />
<path d="M26.6700 44.4500
L21.5900 44.4500
" />
<path d="M22.2250 48.2600
L22.2250 59.0550
" />
<path d="M22.2250 59.0550
L26.6700 63.5000
" />
<path d="M26.6700 63.5000
L26.6700 64.7700
" />
<path d="M23.4950 46.9900
L22.2250 48.2600
" />
<path d="M26.6700 46.9900
L23.4950 46.9900
" />
<path style="fill:#FFFFFF; fill-opacity:1.0000; stroke:none;fill-rule:evenodd;"
d="M 47.0584,0.5202
47.1041,0.5730
47.1141,0.6421
47.0851,0.7057
47.0790,0.7122
46.9953,0.7959
46.9953,0.7959
46.8614,0.9705
46.8614,0.9705
46.7513,1.1610
46.7513,1.1610
46.6671,1.3643
46.6671,1.3643
46.6102,1.5768
46.6102,1.5768
46.5815,1.7950
46.5815,1.7950
46.5815,2.0150
46.5815,2.0150
46.6102,2.2332
46.6102,2.2332
46.6102,2.2332
46.6102,2.2332
46.6671,2.4457
46.6671,2.4457
46.7325,2.6036
46.7513,2.6490
46.8614,2.8395
46.8614,2.8395
46.8614,2.8395
46.9953,3.0141
46.9953,3.0141
47.1509,3.1697
47.1509,3.1697
47.2751,3.2650
47.3255,3.3036
47.5160,3.4137
47.7193,3.4979
47.9318,3.5548
48.1500,3.5835
48.1500,3.5835
48.3700,3.5835
48.3700,3.5835
48.5882,3.5548
48.8007,3.4979
49.0040,3.4137
49.1945,3.3036
49.3691,3.1697
49.3966,3.1422
49.4528,3.0860
49.5141,3.0525
49.5838,3.0575
49.6398,3.0993
49.6642,3.1648
49.6645,3.1737
49.6645,48.5197
49.6448,48.5867
49.5920,48.6325
49.5229,48.6424
49.5022,48.6376
49.4529,48.6216
49.2850,48.5950
49.2850,48.5950
48.2260,48.5950
48.2260,48.5950
48.0581,48.6216
47.8964,48.6741
47.8964,48.6741
47.7450,48.7513
47.6851,48.7948
47.6074,48.8512
47.6074,48.8512
47.6074,48.8512
47.4872,48.9714
47.4872,48.9714
47.4872,48.9714
47.4443,49.0305
47.3873,49.1090
47.3101,49.2604
47.3101,49.2604
47.2576,49.4221
47.2310,49.5900
47.2310,49.7600
47.2576,49.9279
47.3101,50.0896
47.3101,50.0896
47.3488,50.1655
47.3873,50.2410
47.4872,50.3786
47.6074,50.4988
47.7450,50.5987
47.8125,50.6331
47.8964,50.6759
47.8964,50.6759
47.9680,50.6991
48.0581,50.7284
48.1359,50.7407
48.2260,50.7550
48.2260,50.7550
49.2850,50.7550
49.3751,50.7407
49.4529,50.7284
49.5022,50.7124
49.5720,50.7104
49.6319,50.7465
49.6627,50.8092
49.6645,50.8303
49.6645,57.1197
49.6448,57.1867
49.5920,57.2325
49.5229,57.2424
49.5022,57.2376
49.4529,57.2216
49.2850,57.1950
49.2850,57.1950
48.2260,57.1950
48.2260,57.1950
48.0581,57.2216
47.8964,57.2741
47.8964,57.2741
47.7450,57.3513
47.6665,57.4083
47.6074,57.4512
47.6074,57.4512
47.6074,57.4512
47.4872,57.5714
47.4872,57.5714
47.4872,57.5714
47.4443,57.6305
47.3873,57.7090
47.3101,57.8604
47.3101,57.8604
47.2576,58.0221
47.2310,58.1900
47.2310,58.3600
47.2576,58.5279
47.3101,58.6896
47.3101,58.6896
47.3873,58.8410
47.4872,58.9786
47.6074,59.0988
47.7450,59.1987
47.8192,59.2366
47.8964,59.2759
47.8964,59.2759
47.9773,59.3021
48.0581,59.3284
48.1359,59.3407
48.2260,59.3550
48.2260,59.3550
49.2850,59.3550
49.3751,59.3407
49.4529,59.3284
49.5022,59.3124
49.5720,59.3104
49.6319,59.3465
49.6627,59.4092
49.6645,59.4303
49.6645,67.3113
49.6448,67.3784
49.5920,67.4241
49.5229,67.4341
49.4593,67.4051
49.4528,67.3990
49.3691,67.3153
49.3691,67.3153
49.1945,67.1814
49.1945,67.1814
49.1945,67.1814
49.0040,67.0713
49.0040,67.0713
48.8007,66.9871
48.8007,66.9871
48.8007,66.9871
48.5882,66.9302
48.5882,66.9302
48.5882,66.9302
48.3700,66.9015
48.3700,66.9015
48.3700,66.9015
48.1500,66.9015
48.1500,66.9015
48.1500,66.9015
47.9318,66.9302
47.9318,66.9302
47.9318,66.9302
47.7193,66.9871
47.7193,66.9871
47.5160,67.0713
47.5160,67.0713
47.3255,67.1814
47.3255,67.1814
47.1509,67.3153
47.1509,67.3153
46.9953,67.4709
46.9953,67.4709
46.8614,67.6455
46.8614,67.6455
46.7513,67.8360
46.7513,67.8360
46.6671,68.0393
46.6671,68.0393
46.6140,68.2376
46.6102,68.2518
46.6102,68.2518
46.5815,68.4700
46.5815,68.4700
46.5815,68.6900
46.5815,68.6900
46.6102,68.9082
46.6102,68.9082
46.6102,68.9082
46.6626,69.1037
46.6671,69.1207
46.6671,69.1207
46.7225,69.2543
46.7513,69.3240
46.8614,69.5145
46.8614,69.5145
46.8614,69.5145
46.9953,69.6891
46.9953,69.6891
47.0790,69.7728
47.1125,69.8341
47.1075,69.9038
47.0657,69.9598
47.0002,69.9842
46.9913,69.9845
3.8087,69.9845
3.7416,69.9648
3.6959,69.9120
3.6859,69.8429
3.7149,69.7793
3.7210,69.7728
3.8047,69.6891
3.8047,69.6891
3.9386,69.5145
4.0487,69.3240
4.1216,69.1478
11.7550,69.1478
11.7614,69.2074
11.7614,69.2074
11.8116,69.3421
11.8116,69.3421
11.8978,69.4572
11.8978,69.4572
12.0129,69.5434
12.0129,69.5434
12.1476,69.5936
12.1476,69.5936
12.2072,69.6000
12.2072,69.6000
13.1800,69.6000
13.6800,69.6000
14.6528,69.6000
14.6528,69.6000
14.7124,69.5936
14.7124,69.5936
14.8471,69.5434
14.8471,69.5434
14.9622,69.4572
14.9622,69.4572
15.0483,69.3421
15.0484,69.3421
15.0854,69.2428
18.6450,69.2428
18.6514,69.3024
18.6514,69.3024
18.7016,69.4371
18.7016,69.4371
18.7878,69.5522
18.7878,69.5522
18.9029,69.6384
18.9029,69.6384
19.0376,69.6886
19.0376,69.6886
19.0972,69.6950
19.0972,69.6950
20.0700,69.6950
20.5700,69.6950
21.5428,69.6950
21.5428,69.6950
21.6024,69.6886
21.6024,69.6886
21.7371,69.6384
21.7371,69.6384
21.8522,69.5522
21.8522,69.5522
21.9383,69.4371
21.9384,69.4371
21.9886,69.3024
21.9886,69.3024
21.9950,69.2428
24.9950,69.2428
25.0014,69.3024
25.0014,69.3024
25.0516,69.4371
25.0516,69.4371
25.1378,69.5522
25.1378,69.5522
25.2529,69.6384
25.2529,69.6384
25.3876,69.6886
25.3876,69.6886
25.4472,69.6950
25.4472,69.6950
26.4200,69.6950
26.9200,69.6950
27.8928,69.6950
27.8928,69.6950
27.9524,69.6886
27.9524,69.6886
28.0871,69.6384
28.0871,69.6384
28.2022,69.5522
28.2022,69.5522
28.2883,69.4371
28.2884,69.4371
28.3386,69.3024
28.3386,69.3024
28.3450,69.2428
28.3450,69.2428
28.3450,69.0200
26.9200,69.0200
26.9200,69.6950
26.4200,69.6950
26.4200,69.0200
24.9950,69.0200
24.9950,69.2428
21.9950,69.2428
21.9950,69.2428
21.9950,69.0200
20.5700,69.0200
20.5700,69.6950
20.0700,69.6950
20.0700,69.0200
18.6450,69.0200
18.6450,69.2428
15.0854,69.2428
15.0986,69.2074
15.0986,69.2074
15.1050,69.1478
15.1050,69.1478
15.1050,68.9250
13.6800,68.9250
13.6800,69.6000
13.1800,69.6000
13.1800,68.9250
11.7550,68.9250
11.7550,69.1478
4.1216,69.1478
4.1329,69.1207
4.1898,68.9082
4.2185,68.6900
4.2185,68.4700
4.1898,68.2518
4.1329,68.0393
4.0487,67.8360
3.9386,67.6455
3.8633,67.5472
3.8047,67.4709
3.8047,67.4709
3.6491,67.3153
3.6491,67.3153
3.4745,67.1814
3.4745,67.1814
3.4745,67.1814
3.2840,67.0713
3.2840,67.0713
3.0807,66.9871
3.0807,66.9871
3.0807,66.9871
2.8682,66.9302
2.8682,66.9302
2.8682,66.9302
2.6500,66.9015
2.6500,66.9015
2.6500,66.9015
2.4300,66.9015
2.4300,66.9015
2.4300,66.9015
2.2118,66.9302
2.2118,66.9302
2.2118,66.9302
1.9993,66.9871
1.9993,66.9871
1.7960,67.0713
1.7960,67.0713
1.6055,67.1814
1.6055,67.1814
1.4309,67.3153
1.4309,67.3153
1.2753,67.4709
1.2753,67.4709
1.1414,67.6455
1.1414,67.6455
1.0313,67.8360
1.0313,67.8360
0.9471,68.0393
0.9471,68.0393
0.8940,68.2376
0.8902,68.2518
0.8902,68.2518
0.8615,68.4700
0.8615,68.4700
0.8615,68.6900
0.8615,68.6900
0.8902,68.9082
0.8902,68.9082
0.8902,68.9082
0.9426,69.1037
0.9471,69.1207
0.9471,69.1207
1.0025,69.2543
1.0313,69.3240
1.1414,69.5145
1.1414,69.5145
1.1414,69.5145
1.2753,69.6891
1.2753,69.6891
1.3590,69.7728
1.3925,69.8341
1.3875,69.9038
1.3457,69.9598
1.2802,69.9842
1.2713,69.9845
0.6245,69.9845
0.5575,69.9648
0.5117,69.9120
0.5005,69.8605
0.5005,56.0045
0.5202,55.9375
0.5730,55.8917
0.6245,55.8805
2.6114,55.8805
2.6784,55.9002
2.7242,55.9530
2.7341,56.0221
2.7051,56.0857
2.6991,56.0922
2.6689,56.1224
2.6689,56.1224
2.5871,56.2606
2.5871,56.2606
2.5423,56.4148
2.5423,56.4148
2.5395,56.4508
2.5395,57.8492
2.5395,57.8492
2.5423,57.8852
2.5871,58.0394
2.5871,58.0394
2.6689,58.1776
2.6689,58.1776
2.7824,58.2911
2.7824,58.2911
2.7824,58.2911
2.9206,58.3729
2.9613,58.3847
3.0748,58.4177
3.0748,58.4177
3.0748,58.4177
3.1108,58.4205
7.0492,58.4205
7.0852,58.4177
7.2394,58.3729
7.3776,58.2911
7.4911,58.1776
7.5729,58.0394
7.6177,57.8852
7.6205,57.8492
7.6205,56.4508
7.6177,56.4148
7.5729,56.2606
7.4911,56.1224
7.4911,56.1224
7.4911,56.1224
7.3776,56.0089
7.3776,56.0089
7.2394,55.9271
7.2394,55.9271
7.0852,55.8823
7.0852,55.8823
7.0492,55.8795
7.0492,55.8795
5.0086,55.8795
4.9416,55.8598
4.8958,55.8070
4.8859,55.7379
4.9149,55.6743
4.9209,55.6678
4.9511,55.6376
4.9511,55.6376
5.0329,55.4994
5.0777,55.3452
5.0805,55.3092
5.0805,53.9108
5.0777,53.8748
5.0329,53.7206
4.9511,53.5824
4.9511,53.5824
4.9511,53.5824
4.9209,53.5522
4.8874,53.4909
4.8924,53.4212
4.9343,53.3652
4.9997,53.3408
5.0086,53.3405
7.0492,53.3405
7.0492,53.3405
7.0852,53.3377
7.2394,53.2929
7.3776,53.2111
7.4911,53.0976
7.5729,52.9594
7.6177,52.8052
7.6205,52.7692
7.6205,51.3708
7.6177,51.3348
7.5729,51.1806
7.4911,51.0424
7.4911,51.0424
7.4911,51.0424
7.3776,50.9289
7.3776,50.9289
7.2394,50.8471
7.2394,50.8471
7.0852,50.8023
7.0852,50.8023
7.0492,50.7995
7.0492,50.7995
5.0086,50.7995
4.9416,50.7798
4.8958,50.7270
4.8859,50.6579
4.9149,50.5943
4.9209,50.5878
4.9511,50.5576
4.9511,50.5576
5.0329,50.4194
5.0777,50.2652
5.0805,50.2292
5.0805,48.8308
5.0777,48.7948
5.0329,48.6406
4.9511,48.5024
4.9511,48.5024
4.9511,48.5024
4.9209,48.4722
4.8874,48.4109
4.8924,48.3412
4.9343,48.2852
4.9997,48.2608
5.0086,48.2605
7.0492,48.2605
7.0492,48.2605
7.0852,48.2577
7.2394,48.2129
7.3776,48.1311
7.4911,48.0176
7.5729,47.8794
7.6177,47.7252
7.6205,47.6892
7.6205,46.2908
7.6177,46.2548
7.5729,46.1006
7.4911,45.9624
7.4911,45.9624
7.4911,45.9624
7.3776,45.8489
7.3776,45.8489
7.2394,45.7671
7.2394,45.7671
7.0852,45.7223
7.0852,45.7223
7.0492,45.7195
4.8043,45.7195
4.7373,45.6998
4.6915,45.6470
4.6816,45.5779
4.7106,45.5143
4.7300,45.4962
4.8022,45.4422
4.8883,45.3271
4.8884,45.3271
4.9386,45.1924
4.9386,45.1924
4.9450,45.1328
4.9450,45.1328
4.9450,44.7000
2.7900,44.7000
2.7900,45.5850
2.7961,45.5911
2.8423,45.6047
2.8881,45.6575
2.8980,45.7266
2.8690,45.7902
2.8384,45.8157
2.7824,45.8489
2.7824,45.8489
2.6689,45.9624
2.6689,45.9624
2.5871,46.1006
2.5871,46.1006
2.5423,46.2548
2.5423,46.2548
2.5395,46.2908
2.5395,47.6892
2.5395,47.6892
2.5423,47.7252
2.5871,47.8794
2.5871,47.8794
2.6689,48.0176
2.6689,48.0176
2.6991,48.0478
2.7326,48.1091
2.7276,48.1788
2.6857,48.2348
2.6202,48.2592
2.6114,48.2595
0.6245,48.2595
0.5575,48.2398
0.5117,48.1870
0.5005,48.1355
0.5005,45.7090
0.5202,45.6420
0.5730,45.5962
0.6245,45.5850
2.2900,45.5850
2.2900,43.3150
0.6245,43.3150
0.5575,43.2953
0.5117,43.2425
0.5005,43.1910
0.5005,40.7645
0.5202,40.6975
0.5730,40.6517
0.6245,40.6405
2.6114,40.6405
2.6784,40.6602
2.7242,40.7130
2.7341,40.7821
2.7051,40.8457
2.6991,40.8522
2.6689,40.8824
2.6689,40.8824
2.5871,41.0206
2.5871,41.0206
2.5423,41.1748
2.5423,41.1748
2.5395,41.2108
2.5395,42.6092
2.5395,42.6092
2.5423,42.6452
2.5871,42.7994
2.5871,42.7994
2.6689,42.9376
2.6689,42.9376
2.7824,43.0511
2.7824,43.0511
2.7824,43.0511
2.7824,43.0511
2.8384,43.0843
2.8861,43.1353
2.8986,43.2041
2.8720,43.2687
2.8146,43.3086
2.7929,43.3121
2.7900,43.3150
2.7900,44.2000
4.9450,44.2000
4.9450,43.7672
4.9450,43.7672
4.9386,43.7076
4.9386,43.7076
4.8884,43.5729
4.8883,43.5729
4.8022,43.4578
4.8022,43.4578
4.7300,43.4038
4.6881,43.3478
4.6831,43.2781
4.7166,43.2168
4.7779,43.1833
4.8043,43.1805
7.0492,43.1805
7.0852,43.1777
7.2394,43.1329
7.3776,43.0511
7.4911,42.9376
7.5729,42.7994
7.6177,42.6452
7.6205,42.6092
7.6205,41.2108
7.6177,41.1748
7.5729,41.0206
7.4911,40.8824
7.4911,40.8824
7.4911,40.8824
7.3776,40.7689
7.3776,40.7689
7.2394,40.6871
7.2394,40.6871
7.0852,40.6423
7.0852,40.6423
7.0492,40.6395
7.0492,40.6395
5.0086,40.6395
4.9416,40.6198
4.8958,40.5670
4.8859,40.4979
4.9149,40.4343
4.9209,40.4278
4.9511,40.3976
4.9511,40.3976
5.0329,40.2594
5.0748,40.1149
5.0777,40.1052
5.0777,40.1052
5.0783,40.0977
5.0805,40.0692
5.0805,38.6708
5.0777,38.6348
5.0329,38.4806
4.9511,38.3424
4.9511,38.3424
4.9511,38.3424
4.9209,38.3122
4.8874,38.2509
4.8924,38.1812
4.9343,38.1252
4.9997,38.1008
5.0086,38.1005
7.0492,38.1005
7.0492,38.1005
7.0852,38.0977
7.2394,38.0529
7.3776,37.9711
7.4911,37.8576
7.5729,37.7194
7.6177,37.5652
7.6205,37.5292
7.6205,36.1308
7.6177,36.0948
7.5729,35.9406
7.4911,35.8024
7.4911,35.8024
7.4911,35.8024
7.3776,35.6889
7.3776,35.6889
7.2394,35.6071
7.2394,35.6071
7.0852,35.5623
7.0852,35.5623
7.0492,35.5595
7.0492,35.5595
5.0086,35.5595
4.9416,35.5398
4.8958,35.4870
4.8859,35.4179
4.9149,35.3543
4.9209,35.3478
4.9511,35.3176
4.9511,35.3176
5.0329,35.1794
5.0777,35.0252
5.0805,34.9892
5.0805,33.5908
5.0777,33.5548
5.0329,33.4006
4.9511,33.2624
4.9511,33.2624
4.9511,33.2624
4.9209,33.2322
4.8874,33.1709
4.8924,33.1012
4.9343,33.0452
4.9997,33.0208
5.0086,33.0205
7.0492,33.0205
7.0492,33.0205
7.0852,33.0177
7.2394,32.9729
7.3776,32.8911
7.4911,32.7776
7.5729,32.6394
7.6177,32.4852
7.6205,32.4492
7.6205,31.0508
7.6177,31.0148
7.5729,30.8606
7.4911,30.7224
7.4911,30.7224
7.4911,30.7224
7.3776,30.6089
7.3776,30.6089
7.2394,30.5271
7.2394,30.5271
7.0852,30.4823
7.0852,30.4823
7.0492,30.4795
7.0492,30.4795
5.0086,30.4795
4.9416,30.4598
4.8958,30.4070
4.8859,30.3379
4.9149,30.2743
4.9209,30.2678
4.9511,30.2376
4.9511,30.2376
5.0329,30.0994
5.0777,29.9452
5.0805,29.9092
5.0805,28.5108
5.0777,28.4748
5.0329,28.3206
4.9511,28.1824
4.9511,28.1824
4.9511,28.1824
4.9209,28.1522
4.8874,28.0909
4.8924,28.0212
4.9343,27.9652
4.9997,27.9408
5.0086,27.9405
7.0492,27.9405
7.0492,27.9405
7.0852,27.9377
7.2394,27.8929
7.3776,27.8111
7.4911,27.6976
7.5729,27.5594
7.6059,27.4459
7.6177,27.4052
7.6177,27.4052
7.6205,27.3692
7.6205,27.3692
7.6205,25.9708
7.6177,25.9348
7.5729,25.7806
7.4911,25.6424
7.4911,25.6424
7.4911,25.6424
7.3776,25.5289
7.3776,25.5289
7.2394,25.4471
7.2394,25.4471
7.0852,25.4023
7.0852,25.4023
7.0492,25.3995
7.0492,25.3995
5.0086,25.3995
4.9416,25.3798
4.8958,25.3270
4.8859,25.2579
4.9149,25.1943
4.9209,25.1878
4.9511,25.1576
4.9511,25.1576
5.0329,25.0194
5.0777,24.8652
5.0805,24.8292
5.0805,23.4308
5.0777,23.3948
5.0329,23.2406
4.9511,23.1024
4.9511,23.1024
4.9511,23.1024
4.9209,23.0722
4.8874,23.0109
4.8924,22.9412
4.9343,22.8852
4.9997,22.8608
5.0086,22.8605
7.0492,22.8605
7.0492,22.8605
7.0852,22.8577
7.2394,22.8129
7.3776,22.7311
7.4911,22.6176
7.5729,22.4794
7.6177,22.3252
7.6205,22.2892
7.6205,20.8908
7.6177,20.8548
7.5729,20.7006
7.4911,20.5624
7.4911,20.5624
7.4911,20.5624
7.3776,20.4489
7.3776,20.4489
7.2394,20.3671
7.2394,20.3671
7.0852,20.3223
7.0852,20.3223
7.0492,20.3195
7.0492,20.3195
5.0086,20.3195
4.9416,20.2998
4.8958,20.2470
4.8859,20.1779
4.9149,20.1143
4.9209,20.1078
4.9511,20.0776
4.9511,20.0776
5.0329,19.9394
5.0777,19.7852
5.0805,19.7492
5.0805,18.3508
5.0777,18.3148
5.0329,18.1606
4.9511,18.0224
4.9511,18.0224
4.9511,18.0224
4.9209,17.9922
4.8874,17.9309
4.8924,17.8612
4.9343,17.8052
4.9997,17.7808
5.0086,17.7805
7.0492,17.7805
7.0492,17.7805
7.0852,17.7777
7.2394,17.7329
7.3776,17.6511
7.4911,17.5376
7.5729,17.3994
7.6177,17.2452
7.6205,17.2092
7.6205,15.8108
7.6177,15.7748
7.5729,15.6206
7.4911,15.4824
7.4911,15.4824
7.4911,15.4824
7.3776,15.3689
7.3776,15.3689
7.2394,15.2871
7.2394,15.2871
7.0852,15.2423
7.0852,15.2423
7.0492,15.2395
7.0492,15.2395
5.0086,15.2395
4.9416,15.2198
4.8958,15.1670
4.8859,15.0979
4.9149,15.0343
4.9209,15.0278
4.9511,14.9976
4.9511,14.9976
5.0329,14.8594
5.0659,14.7459
5.0777,14.7052
5.0777,14.7052
5.0805,14.6692
5.0805,14.6692
5.0805,13.2708
5.0777,13.2348
5.0329,13.0806
4.9511,12.9424
4.9511,12.9424
4.9511,12.9424
4.9209,12.9122
4.8874,12.8509
4.8924,12.7812
4.9343,12.7252
4.9997,12.7008
5.0086,12.7005
7.0492,12.7005
7.0492,12.7005
7.0852,12.6977
7.2394,12.6529
7.3076,12.6125
7.3753,12.5953
7.4416,12.6175
7.4584,12.6316
9.4882,14.6613
9.5217,14.7227
9.5245,14.7490
9.5245,56.8790
9.5048,56.9460
9.4882,56.9667
9.2878,57.1671
9.2186,57.2624
9.2186,57.2624
9.1820,57.3127
9.0998,57.4739
9.0988,57.4777
9.0447,57.6442
9.0447,57.6442
9.0346,57.7080
9.0165,57.8220
9.0165,66.1300
9.0447,66.3078
9.0447,66.3078
9.0522,66.3310
9.1003,66.4790
9.1121,66.5022
9.1158,66.5094
9.1158,66.5094
9.1820,66.6393
9.2878,66.7849
9.9228,67.4199
10.0501,67.5472
10.1957,67.6530
10.2641,67.6879
10.3560,67.7347
10.5272,67.7903
10.6195,67.8050
10.7050,67.8185
10.7050,67.8185
10.8850,67.8185
11.7061,67.8185
11.7731,67.8382
11.8189,67.8910
11.8288,67.9601
11.8149,68.0019
11.8116,68.0079
11.7614,68.1426
11.7614,68.1426
11.7550,68.2022
11.7550,68.4250
15.1050,68.4250
15.1050,68.2022
15.1050,68.2022
15.0986,68.1426
15.0986,68.1426
15.0484,68.0079
15.0451,68.0019
15.0441,67.9975
15.0411,67.9940
15.0368,67.9636
15.0302,67.9337
15.0318,67.9294
15.0312,67.9249
15.0439,67.8969
15.0546,67.8682
15.0583,67.8655
15.0602,67.8613
15.0860,67.8447
15.1106,67.8263
15.1162,67.8253
15.1190,67.8235
15.1539,67.8185
15.3843,67.8185
15.4317,67.8279
15.4360,67.8297
15.4360,67.8297
15.6072,67.8853
15.7850,67.9135
15.7850,67.9135
18.5961,67.9135
18.6631,67.9332
18.7089,67.9860
18.7188,68.0551
18.7049,68.0969
18.7016,68.1029
18.6514,68.2376
18.6514,68.2376
18.6450,68.2972
18.6450,68.5200
21.9950,68.5200
21.9950,68.2972
21.9950,68.2972
21.9886,68.2376
21.9886,68.2376
21.9384,68.1029
21.9351,68.0969
21.9202,68.0287
21.9446,67.9632
22.0006,67.9213
22.0439,67.9135
24.9461,67.9135
25.0131,67.9332
25.0589,67.9860
25.0688,68.0551
25.0549,68.0969
25.0516,68.1029
25.0014,68.2376
25.0014,68.2376
24.9950,68.2972
24.9950,68.5200
28.3450,68.5200
28.3450,68.2972
28.3450,68.2972
28.3386,68.2376
28.3386,68.2376
28.2884,68.1029
28.2851,68.0969
28.2702,68.0287
28.2946,67.9632
28.3506,67.9213
28.3939,67.9135
29.1100,67.9135
29.1100,67.9135
29.2878,67.8853
29.4379,67.8366
29.4762,67.8305
30.2592,67.8305
30.2592,67.8305
30.2952,67.8277
30.3098,67.8234
30.3444,67.8185
39.4600,67.8185
39.5588,67.8029
39.6378,67.7903
39.7681,67.7480
39.8090,67.7347
39.9693,67.6530
40.0223,67.6145
40.1149,67.5472
42.2203,65.4418
42.2817,65.4083
42.3080,65.4055
42.6092,65.4055
42.6092,65.4055
42.6452,65.4027
42.7994,65.3579
42.9376,65.2761
43.0511,65.1626
43.1329,65.0244
43.1777,64.8702
43.1805,64.8342
43.1805,62.8433
43.2002,62.7763
43.2530,62.7305
43.3221,62.7206
43.3857,62.7496
43.4038,62.7690
43.4578,62.8412
43.4578,62.8412
43.5729,62.9273
43.5729,62.9274
43.7076,62.9776
43.7076,62.9776
43.7672,62.9840
43.7672,62.9840
44.2000,62.9840
44.2000,60.8290
44.7000,60.8290
44.7000,62.9840
45.1328,62.9840
45.1328,62.9840
45.1924,62.9776
45.1924,62.9776
45.3271,62.9274
45.3271,62.9273
45.4422,62.8412
45.4962,62.7690
45.5522,62.7271
45.6219,62.7221
45.6832,62.7556
45.7167,62.8169
45.7195,62.8433
45.7195,64.8342
45.7195,64.8342
45.7223,64.8702
45.7671,65.0244
45.7671,65.0244
45.8489,65.1626
45.8489,65.1626
45.9624,65.2761
45.9624,65.2761
45.9624,65.2761
46.1006,65.3579
46.1144,65.3619
46.2548,65.4027
46.2548,65.4027
46.2548,65.4027
46.2908,65.4055
47.6892,65.4055
47.7252,65.4027
47.8794,65.3579
48.0176,65.2761
48.1311,65.1626
48.2129,65.0244
48.2577,64.8702
48.2605,64.8342
48.2605,60.8958
48.2577,60.8598
48.2129,60.7056
48.1311,60.5674
48.1311,60.5674
48.1311,60.5674
48.0176,60.4539
48.0176,60.4539
47.8794,60.3721
47.8794,60.3721
47.7252,60.3273
47.7252,60.3273
47.6892,60.3245
46.2908,60.3245
46.2908,60.3245
46.2548,60.3273
46.1006,60.3721
46.1006,60.3721
45.9624,60.4539
45.9624,60.4539
45.8489,60.5674
45.8489,60.5674
45.7671,60.7056
45.7671,60.7056
45.7568,60.7410
45.7192,60.7999
45.6558,60.8291
45.6364,60.8264
45.6364,60.8290
44.7000,60.8290
44.2000,60.8290
43.2636,60.8290
43.2636,60.8258
43.2189,60.8226
43.1629,60.7807
43.1432,60.7410
43.1329,60.7056
43.1329,60.7056
43.1329,60.7056
43.0511,60.5674
43.0511,60.5674
43.0511,60.5674
42.9376,60.4539
42.9376,60.4539
42.7994,60.3721
42.7994,60.3721
42.6452,60.3273
42.6452,60.3273
42.6092,60.3245
41.2108,60.3245
41.2108,60.3245
41.1748,60.3273
41.0206,60.3721
41.0206,60.3721
40.8824,60.4539
40.8824,60.4539
40.8522,60.4841
40.7909,60.5176
40.7212,60.5126
40.6652,60.4707
40.6408,60.4053
40.6405,60.3964
40.6405,58.6098
40.6405,58.6098
40.6402,58.6062
40.6377,58.5738
40.5929,58.4196
40.5111,58.2814
40.5111,58.2814
40.5111,58.2814
40.3976,58.1679
40.3976,58.1679
40.2594,58.0861
40.2594,58.0861
40.1052,58.0413
40.1052,58.0413
40.0692,58.0385
38.6708,58.0385
38.6708,58.0385
38.6348,58.0413
38.4806,58.0861
38.4806,58.0861
38.3424,58.1679
38.3424,58.1679
38.2289,58.2814
38.2289,58.2814
38.1471,58.4196
38.1471,58.4196
38.1023,58.5738
38.1023,58.5738
38.0995,58.6098
38.0995,60.3964
38.0798,60.4634
38.0270,60.5092
37.9579,60.5191
37.8943,60.4901
37.8878,60.4841
37.8576,60.4539
37.8576,60.4539
37.7194,60.3721
37.7194,60.3721
37.5652,60.3273
37.5652,60.3273
37.5292,60.3245
36.1308,60.3245
36.1308,60.3245
36.0948,60.3273
35.9406,60.3721
35.9406,60.3721
35.8024,60.4539
35.8024,60.4539
35.7722,60.4841
35.7109,60.5176
35.6412,60.5126
35.5852,60.4707
35.5608,60.4053
35.5605,60.3964
35.5605,58.6098
35.5605,58.6098
35.5602,58.6062
35.5577,58.5738
35.5129,58.4196
35.4311,58.2814
35.4311,58.2814
35.4311,58.2814
35.3176,58.1679
35.3176,58.1679
35.1794,58.0861
35.1794,58.0861
35.0252,58.0413
35.0252,58.0413
34.9892,58.0385
33.5908,58.0385
33.5908,58.0385
33.5548,58.0413
33.4006,58.0861
33.4006,58.0861
33.2624,58.1679
33.2624,58.1679
33.1489,58.2814
33.1489,58.2814
33.0671,58.4196
33.0671,58.4196
33.0223,58.5738
33.0223,58.5738
33.0195,58.6098
33.0195,60.3964
32.9998,60.4634
32.9470,60.5092
32.8779,60.5191
32.8143,60.4901
32.8078,60.4841
32.7776,60.4539
32.7776,60.4539
32.6394,60.3721
32.6394,60.3721
32.4852,60.3273
32.4852,60.3273
32.4492,60.3245
31.0508,60.3245
31.0508,60.3245
31.0148,60.3273
30.8606,60.3721
30.8606,60.3721
30.7224,60.4539
30.7224,60.4539
30.6089,60.5674
30.6089,60.5674
30.5271,60.7056
30.5271,60.7056
30.4823,60.8598
30.4823,60.8598
30.4795,60.8958
30.4795,64.8342
30.4795,64.8342
30.4823,64.8702
30.5271,65.0244
30.5271,65.0244
30.6089,65.1626
30.6089,65.1626
30.7224,65.2761
30.7224,65.2761
30.7224,65.2761
30.7546,65.2952
30.7641,65.3008
30.8117,65.3518
30.8242,65.4206
30.7976,65.4852
30.7403,65.5251
30.7009,65.5315
29.6600,65.5315
29.6007,65.5409
29.4822,65.5597
29.3111,65.6153
29.2825,65.6298
29.2138,65.6427
29.2068,65.6418
29.1311,65.6298
29.1100,65.6265
29.1100,65.6265
28.5450,65.6265
28.4780,65.6068
28.4322,65.5540
28.4223,65.4849
28.4312,65.4533
28.4329,65.4494
28.4329,65.4494
28.4777,65.2952
28.4805,65.2592
28.4805,64.2808
28.4777,64.2448
28.4329,64.0906
28.3511,63.9524
28.3511,63.9524
28.3511,63.9524
28.2376,63.8389
28.2376,63.8389
28.0994,63.7571
28.0994,63.7571
27.9452,63.7123
27.9452,63.7123
27.9092,63.7095
27.9092,63.7095
27.8105,63.7095
27.7435,63.6898
27.6977,63.6370
27.6865,63.5855
27.6865,63.3999
27.6474,63.2035
27.6474,63.2035
27.6474,63.2035
27.5708,63.0185
27.5708,63.0185
27.5519,62.9901
27.4596,62.8520
23.2778,58.6703
23.2443,58.6089
23.2415,58.5826
23.2415,55.9983
23.2612,55.9312
23.3140,55.8855
23.3831,55.8755
23.3885,55.8767
23.3886,55.8765
23.3948,55.8777
23.3948,55.8777
23.4308,55.8805
25.4714,55.8805
25.5384,55.9002
25.5842,55.9530
25.5941,56.0221
25.5651,56.0857
25.5591,56.0922
25.5289,56.1224
25.5289,56.1224
25.4471,56.2606
25.4471,56.2606
25.4023,56.4148
25.4023,56.4148
25.3995,56.4508
25.3995,57.8492
25.3995,57.8492
25.4023,57.8852
25.4471,58.0394
25.4471,58.0394
25.5289,58.1776
25.5289,58.1776
25.6424,58.2911
25.6424,58.2911
25.6424,58.2911
25.7806,58.3729
25.8213,58.3847
25.9348,58.4177
25.9348,58.4177
25.9348,58.4177
25.9708,58.4205
29.9092,58.4205
29.9452,58.4177
30.0994,58.3729
30.2376,58.2911
30.3511,58.1776
30.4329,58.0394
30.4777,57.8852
30.4805,57.8492
30.4805,56.4508
30.4777,56.4148
30.4329,56.2606
30.3511,56.1224
30.3511,56.1224
30.3511,56.1224
30.2376,56.0089
30.2376,56.0089
30.0994,55.9271
30.0994,55.9271
29.9452,55.8823
29.9452,55.8823
29.9092,55.8795
29.9092,55.8795
27.8686,55.8795
27.8016,55.8598
27.7558,55.8070
27.7459,55.7379
27.7749,55.6743
27.7809,55.6678
27.8111,55.6376
27.8111,55.6376
27.8929,55.4994
27.9377,55.3452
27.9405,55.3092
27.9405,53.9108
27.9377,53.8748
27.8929,53.7206
27.8111,53.5824
27.8111,53.5824
27.8111,53.5824
27.7809,53.5522
27.7474,53.4909
27.7524,53.4212
27.7943,53.3652
27.8597,53.3408
27.8686,53.3405
29.9092,53.3405
29.9092,53.3405
29.9452,53.3377
30.0994,53.2929
30.2376,53.2111
30.3511,53.0976
30.4329,52.9594
30.4777,52.8052
30.4805,52.7692
30.4805,51.9400
35.8135,51.9400
35.8135,52.2000
35.8542,52.4567
35.9345,52.7040
36.0013,52.8350
36.0525,52.9356
36.2053,53.1459
36.3891,53.3297
36.5994,53.4825
36.6268,53.4964
36.8310,53.6005
36.8310,53.6005
36.8310,53.6005
36.9636,53.6436
37.0783,53.6808
37.3350,53.7215
37.3350,53.7215
37.5950,53.7215
37.8517,53.6808
38.0990,53.6005
38.3306,53.4825
38.5409,53.3297
38.7247,53.1459
38.8775,52.9356
38.9955,52.7040
39.0758,52.4567
39.0978,52.3183
39.1165,52.2000
39.1165,51.9400
39.0758,51.6833
38.9955,51.4360
38.8775,51.2044
38.8557,51.1745
38.7247,50.9941
38.5409,50.8103
38.3306,50.6575
38.3167,50.6504
38.0990,50.5395
37.8517,50.4592
37.5950,50.4185
37.5950,50.4185
37.3350,50.4185
37.3350,50.4185
37.0783,50.4592
36.8310,50.5395
36.5994,50.6575
36.5038,50.7270
36.3891,50.8103
36.3891,50.8103
36.3891,50.8103
36.2053,50.9941
36.2053,50.9941
36.2053,50.9941
36.1702,51.0424
36.0525,51.2044
35.9345,51.4360
35.8542,51.6833
35.8135,51.9400
30.4805,51.9400
30.4805,51.3708
30.4777,51.3348
30.4329,51.1806
30.3511,51.0424
30.3511,51.0424
30.3511,51.0424
30.2376,50.9289
30.2376,50.9289
30.0994,50.8471
30.0994,50.8471
29.9452,50.8023
29.9452,50.8023
29.9092,50.7995
29.9092,50.7995
27.8686,50.7995
27.8016,50.7798
27.7558,50.7270
27.7459,50.6579
27.7749,50.5943
27.7809,50.5878
27.8111,50.5576
27.8111,50.5576
27.8929,50.4194
27.9377,50.2652
27.9405,50.2292
27.9405,48.8308
27.9377,48.7948
27.8929,48.6406
27.8111,48.5024
27.8111,48.5024
27.8111,48.5024
27.7809,48.4722
27.7474,48.4109
27.7524,48.3412
27.7943,48.2852
27.8597,48.2608
27.8686,48.2605
29.9092,48.2605
29.9092,48.2605
29.9452,48.2577
30.0994,48.2129
30.2376,48.1311
30.2678,48.1009
30.3291,48.0674
30.3988,48.0724
30.4548,48.1143
30.4792,48.1797
30.4795,48.1886
30.4795,49.5942
30.4795,49.5942
30.4823,49.6302
30.5271,49.7844
30.5271,49.7844
30.6089,49.9226
30.6089,49.9226
30.7224,50.0361
30.7224,50.0361
30.7224,50.0361
30.8606,50.1179
30.9013,50.1297
31.0148,50.1627
31.0148,50.1627
31.0148,50.1627
31.0508,50.1655
32.4492,50.1655
32.4852,50.1627
32.6394,50.1179
32.7776,50.0361
32.8911,49.9226
32.9729,49.7844
33.0177,49.6302
33.0205,49.5942
33.0205,47.8076
33.0402,47.7406
33.0930,47.6948
33.1621,47.6849
33.2257,47.7139
33.2322,47.7199
33.2624,47.7501
33.2624,47.7501
33.2624,47.7501
33.4006,47.8319
33.4413,47.8437
33.5548,47.8767
33.5548,47.8767
33.5548,47.8767
33.5908,47.8795
34.9892,47.8795
35.0252,47.8767
35.1794,47.8319
35.3176,47.7501
35.3478,47.7199
35.4091,47.6864
35.4788,47.6914
35.5348,47.7333
35.5592,47.7987
35.5595,47.8076
35.5595,49.5942
35.5595,49.5942
35.5623,49.6302
35.6071,49.7844
35.6071,49.7844
35.6889,49.9226
35.6889,49.9226
35.8024,50.0361
35.8024,50.0361
35.8024,50.0361
35.9406,50.1179
35.9813,50.1297
36.0948,50.1627
36.0948,50.1627
36.0948,50.1627
36.1308,50.1655
37.5292,50.1655
37.5652,50.1627
37.7194,50.1179
37.8576,50.0361
37.9711,49.9226
38.0529,49.7844
38.0977,49.6302
38.1005,49.5942
38.1005,47.8076
38.1202,47.7406
38.1730,47.6948
38.2421,47.6849
38.3057,47.7139
38.3122,47.7199
38.3424,47.7501
38.3424,47.7501
38.3424,47.7501
38.4806,47.8319
38.5213,47.8437
38.6348,47.8767
38.6348,47.8767
38.6348,47.8767
38.6708,47.8795
40.0692,47.8795
40.1052,47.8767
40.2594,47.8319
40.3976,47.7501
40.5111,47.6366
40.5333,47.5992
40.5843,47.5515
40.6531,47.5390
40.7177,47.5656
40.7467,47.5992
40.7689,47.6366
40.7689,47.6366
40.8824,47.7501
40.8824,47.7501
40.8824,47.7501
41.0206,47.8319
41.0613,47.8437
41.1748,47.8767
41.1748,47.8767
41.1748,47.8767
41.2108,47.8795
42.6092,47.8795
42.6452,47.8767
42.7994,47.8319
42.9376,47.7501
42.9472,47.7406
42.9678,47.7199
43.0291,47.6864
43.0988,47.6914
43.1548,47.7333
43.1792,47.7987
43.1795,47.8076
43.1795,49.0416
43.1641,49.0970
43.1659,49.0980
43.0857,49.2556
43.0325,49.4191
43.0325,49.4191
43.0056,49.5890
43.0056,49.7610
43.0255,49.8867
43.0166,49.9560
42.9907,49.9938
42.8725,50.1120
42.7835,50.2563
42.7835,50.2563
42.7302,50.4173
42.7200,50.5166
42.7200,51.0333
42.7200,51.0334
42.7301,51.1327
42.7302,51.1327
42.7312,51.1360
42.7313,51.1381
42.7316,51.1393
42.7314,51.1394
42.7336,51.2058
42.7312,51.2140
42.7302,51.2173
42.7200,51.3166
42.7200,51.5151
42.7003,51.5821
42.6475,51.6279
42.5784,51.6378
42.5148,51.6088
42.5083,51.6027
42.3509,51.4453
42.3509,51.4453
42.1406,51.2925
41.9090,51.1745
41.6617,51.0942
41.4050,51.0535
41.4050,51.0535
41.1450,51.0535
41.1450,51.0535
40.8883,51.0942
40.6410,51.1745
40.4094,51.2925
40.3512,51.3348
40.1991,51.4453
40.1991,51.4453
40.1991,51.4453
40.0153,51.6291
40.0153,51.6291
40.0153,51.6291
39.9497,51.7194
39.8625,51.8394
39.7445,52.0710
39.6642,52.3183
39.6235,52.5750
39.6235,52.8350
39.6642,53.0917
39.7445,53.3390
39.8531,53.5522
39.8625,53.5706
40.0153,53.7809
40.1991,53.9647
40.4094,54.1175
40.5189,54.1732
40.6410,54.2355
40.6410,54.2355
40.6410,54.2355
40.7736,54.2786
40.8883,54.3158
41.1450,54.3565
41.1450,54.3565
41.4050,54.3565
41.6617,54.3158
41.9090,54.2355
42.1406,54.1175
42.3509,53.9647
42.5087,53.8069
42.5230,53.7991
42.5343,53.7872
42.5531,53.7827
42.5700,53.7734
42.5863,53.7746
42.6022,53.7707
42.6204,53.7770
42.6397,53.7784
42.6528,53.7882
42.6683,53.7935
42.6802,53.8087
42.6956,53.8203
42.7018,53.8361
42.7115,53.8485
42.7196,53.8821
42.7198,53.8827
42.7200,53.8849
42.7200,53.8850
42.7262,53.9536
42.7267,53.9552
42.7275,53.9632
42.7257,53.9726
42.7257,53.9898
42.7268,53.9899
42.7200,54.0650
42.7200,54.3850
42.7268,54.4601
42.7257,54.4602
42.7257,54.4898
42.7268,54.4899
42.7200,54.5650
42.7200,54.8850
42.7268,54.9601
42.7257,54.9602
42.7257,54.9898
42.7268,54.9899
42.7200,55.0650
42.7200,55.3850
42.7268,55.4601
42.7257,55.4602
42.7257,55.4898
42.7268,55.4899
42.7262,55.4964
42.7262,55.4964
42.7200,55.5650
42.7200,55.8850
42.7206,55.8917
42.7262,55.9536
42.7262,55.9536
42.7270,55.9559
42.7270,55.9577
42.7275,55.9600
42.7272,55.9601
42.7295,56.0104
42.7308,56.0106
42.7200,56.1166
42.7200,56.6333
42.7200,56.6334
42.7301,56.7327
42.7302,56.7327
42.7312,56.7360
42.7313,56.7381
42.7316,56.7393
42.7314,56.7394
42.7336,56.8058
42.7312,56.8140
42.7302,56.8173
42.7200,56.9166
42.7200,57.4333
42.7200,57.4334
42.7301,57.5327
42.7302,57.5327
42.7835,57.6937
42.7835,57.6937
42.8725,57.8380
42.8725,57.8380
42.9907,57.9562
43.0242,58.0175
43.0255,58.0633
43.0056,58.1890
43.0056,58.3610
43.0325,58.5309
43.0325,58.5309
43.0857,58.6944
43.0857,58.6945
43.1637,58.8477
43.2648,58.9868
43.2648,58.9868
43.2787,59.0007
43.3122,59.0620
43.3150,59.0884
43.3150,60.3290
45.5850,60.3290
45.5850,59.2730
45.6047,59.2060
45.6361,59.1727
45.7245,59.1085
45.8462,58.9868
45.9473,58.8477
46.0253,58.6945
46.0531,58.6089
46.0785,58.5309
46.0785,58.5309
46.0785,58.5309
46.0960,58.4205
46.1054,58.3610
46.1054,58.1890
46.0855,58.0633
46.0785,58.0191
46.0785,58.0191
46.0785,58.0191
46.0253,57.8556
46.0221,57.8492
45.9473,57.7023
45.8462,57.5632
45.7245,57.4415
45.6644,57.3978
45.5921,57.3453
45.5494,57.2900
45.5434,57.2203
45.5576,57.1830
45.6185,57.0775
45.6560,56.9375
45.6560,56.7925
45.6185,56.6525
45.5460,56.5270
45.4435,56.4245
45.4435,56.4245
45.4435,56.4245
45.3180,56.3520
45.3180,56.3520
45.2829,56.3426
45.2619,56.3298
45.2390,56.3208
45.2326,56.3120
45.2232,56.3062
45.2125,56.2841
45.1981,56.2642
45.1955,56.2492
45.1927,56.2434
45.1912,56.2296
45.1910,56.2262
45.1910,56.1167
45.1808,56.0173
45.1793,56.0127
45.1786,55.9996
45.1829,55.9814
45.1838,55.9601
45.1835,55.9600
45.1840,55.9577
45.1840,55.9559
45.1848,55.9536
45.1910,55.8850
45.1910,55.5650
45.1848,55.4964
45.1848,55.4964
45.1842,55.4899
45.1853,55.4898
45.1853,55.4602
45.1842,55.4601
45.1910,55.3850
45.1910,55.0650
45.1842,54.9899
45.1853,54.9898
45.1853,54.9602
45.1842,54.9601
45.1910,54.8850
45.1910,54.5650
45.1842,54.4899
45.1853,54.4898
45.1853,54.4602
45.1842,54.4601
45.1910,54.3850
45.1910,54.0650
45.1842,53.9899
45.1853,53.9898
45.1853,53.9602
45.1842,53.9601
45.1887,53.9108
45.1910,53.8850
45.1910,53.5650
45.1848,53.4964
45.1848,53.4964
45.1842,53.4899
45.1853,53.4898
45.1853,53.4602
45.1842,53.4601
45.1910,53.3850
45.1910,53.0650
45.1842,52.9899
45.1853,52.9898
45.1853,52.9602
45.1842,52.9601
45.1910,52.8850
45.1910,52.5650
45.1842,52.4899
45.1853,52.4898
45.1853,52.4602
45.1842,52.4601
45.1910,52.3850
45.1910,52.0650
45.1910,52.0650
45.1848,51.9964
45.1840,51.9941
45.1836,51.9905
45.1835,51.9900
45.1835,51.9900
45.1786,51.9504
45.1793,51.9373
45.1808,51.9327
45.1910,51.8333
45.1910,51.7238
45.1912,51.7204
45.2018,51.6905
45.2107,51.6601
45.2133,51.6578
45.2145,51.6545
45.2395,51.6351
45.2635,51.6144
45.2688,51.6125
45.2697,51.6117
45.2712,51.6116
45.2829,51.6074
45.3180,51.5980
45.4435,51.5255
45.5460,51.4230
45.6185,51.2975
45.6560,51.1575
45.6560,51.0125
45.6185,50.8725
45.5576,50.7670
45.5411,50.6991
45.5640,50.6331
45.5921,50.6047
45.7245,50.5085
45.8462,50.3868
45.9473,50.2477
46.0253,50.0945
46.0785,49.9309
46.0924,49.8434
46.1054,49.7610
46.1054,49.5890
46.0897,49.4902
46.0785,49.4191
46.0785,49.4191
46.0785,49.4191
46.0253,49.2556
45.9507,49.1090
45.9473,49.1023
45.8462,48.9632
45.7568,48.8738
45.7233,48.8125
45.7205,48.7861
45.7205,47.8076
45.7402,47.7406
45.7930,47.6948
45.8621,47.6849
45.9257,47.7139
45.9322,47.7199
45.9624,47.7501
45.9624,47.7501
45.9624,47.7501
46.1006,47.8319
46.1413,47.8437
46.2548,47.8767
46.2548,47.8767
46.2548,47.8767
46.2908,47.8795
47.6892,47.8795
47.7252,47.8767
47.8794,47.8319
48.0176,47.7501
48.1311,47.6366
48.2129,47.4984
48.2577,47.3442
48.2605,47.3082
48.2605,43.3698
48.2577,43.3338
48.2129,43.1796
48.1311,43.0414
48.1311,43.0414
48.1311,43.0414
48.0176,42.9279
48.0176,42.9279
47.8794,42.8461
47.8794,42.8461
47.7252,42.8013
47.7252,42.8013
47.6892,42.7985
46.2908,42.7985
46.2908,42.7985
46.2548,42.8013
46.1006,42.8461
46.1006,42.8461
45.9624,42.9279
45.9624,42.9279
45.8489,43.0414
45.8489,43.0414
45.7671,43.1796
45.7671,43.1796
45.7223,43.3338
45.7223,43.3338
45.7195,43.3698
45.7195,45.1564
45.6998,45.2234
45.6470,45.2692
45.5779,45.2791
45.5143,45.2501
45.5078,45.2441
45.4776,45.2139
45.4776,45.2139
45.3394,45.1321
45.3394,45.1321
45.1852,45.0873
45.1852,45.0873
45.1492,45.0845
43.7508,45.0845
43.7508,45.0845
43.7148,45.0873
43.5606,45.1321
43.5606,45.1321
43.4224,45.2139
43.4224,45.2139
43.3922,45.2441
43.3309,45.2776
43.2612,45.2726
43.2052,45.2307
43.1808,45.1653
43.1805,45.1564
43.1805,43.3698
43.1805,43.3698
43.1802,43.3662
43.1777,43.3338
43.1329,43.1796
43.0511,43.0414
43.0511,43.0414
43.0511,43.0414
42.9376,42.9279
42.9376,42.9279
42.7994,42.8461
42.7994,42.8461
42.6452,42.8013
42.6452,42.8013
42.6092,42.7985
41.2108,42.7985
41.2108,42.7985
41.1748,42.8013
41.0206,42.8461
41.0206,42.8461
40.8824,42.9279
40.8824,42.9279
40.7689,43.0414
40.7689,43.0414
40.7467,43.0788
40.6957,43.1265
40.6269,43.1390
40.5623,43.1124
40.5333,43.0788
40.5111,43.0414
40.5111,43.0414
40.5111,43.0414
40.3976,42.9279
40.3976,42.9279
40.2594,42.8461
40.2594,42.8461
40.1052,42.8013
40.1052,42.8013
40.0692,42.7985
38.6708,42.7985
38.6708,42.7985
38.6348,42.8013
38.4806,42.8461
38.4806,42.8461
38.3424,42.9279
38.3424,42.9279
38.2289,43.0414
38.2289,43.0414
38.1471,43.1796
38.1471,43.1796
38.1023,43.3338
38.1023,43.3338
38.0995,43.3698
38.0995,45.1564
38.0798,45.2234
38.0270,45.2692
37.9579,45.2791
37.8943,45.2501
37.8878,45.2441
37.8576,45.2139
37.8576,45.2139
37.7194,45.1321
37.7194,45.1321
37.5652,45.0873
37.5652,45.0873
37.5292,45.0845
36.1308,45.0845
36.1308,45.0845
36.0948,45.0873
35.9406,45.1321
35.9406,45.1321
35.8024,45.2139
35.8024,45.2139
35.7722,45.2441
35.7109,45.2776
35.6412,45.2726
35.5852,45.2307
35.5608,45.1653
35.5605,45.1564
35.5605,43.3698
35.5605,43.3698
35.5602,43.3662
35.5577,43.3338
35.5129,43.1796
35.4311,43.0414
35.4311,43.0414
35.4311,43.0414
35.3176,42.9279
35.3176,42.9279
35.1794,42.8461
35.1794,42.8461
35.0252,42.8013
35.0252,42.8013
34.9892,42.7985
33.5908,42.7985
33.5908,42.7985
33.5548,42.8013
33.4006,42.8461
33.4006,42.8461
33.2624,42.9279
33.2624,42.9279
33.1489,43.0414
33.1489,43.0414
33.0671,43.1796
33.0671,43.1796
33.0223,43.3338
33.0223,43.3338
33.0195,43.3698
33.0195,45.1564
33.0133,45.1776
33.0117,45.1997
33.0036,45.2105
32.9998,45.2234
32.9831,45.2379
32.9698,45.2557
32.9572,45.2604
32.9470,45.2692
32.9251,45.2723
32.9043,45.2801
32.8912,45.2772
32.8779,45.2791
32.8577,45.2699
32.8361,45.2652
32.8183,45.2520
32.8143,45.2501
32.8078,45.2441
32.8028,45.2391
32.7693,45.1778
32.7665,45.1514
32.7665,39.9049
32.7274,39.7085
32.7274,39.7085
32.7274,39.7085
32.6508,39.5235
32.5396,39.3570
32.3980,39.2154
32.1955,39.0130
31.7630,38.5804
31.7630,38.5804
31.6797,38.5248
31.5965,38.4692
31.4115,38.3926
31.4115,38.3926
31.2151,38.3535
31.2151,38.3535
27.8736,38.3535
27.8442,38.3449
27.8142,38.3383
27.8092,38.3346
27.8066,38.3338
27.7859,38.3172
27.7809,38.3122
27.7474,38.2509
27.7524,38.1812
27.7943,38.1252
27.8597,38.1008
27.8686,38.1005
29.9092,38.1005
29.9092,38.1005
29.9452,38.0977
30.0994,38.0529
30.2376,37.9711
30.3511,37.8576
30.4329,37.7194
30.4777,37.5652
30.4805,37.5292
30.4805,36.1308
30.4777,36.0948
30.4329,35.9406
30.3511,35.8024
30.3511,35.8024
30.3511,35.8024
30.2376,35.6889
30.2376,35.6889
30.0994,35.6071
30.0994,35.6071
29.9452,35.5623
29.9452,35.5623
29.9092,35.5595
27.7191,35.5595
27.7168,35.5588
27.7145,35.5594
27.6834,35.5490
27.6520,35.5398
27.6505,35.5380
27.6482,35.5373
27.6277,35.5117
27.6063,35.4870
27.6059,35.4846
27.6044,35.4828
27.6010,35.4502
27.5963,35.4179
27.5973,35.4157
27.5971,35.4133
27.6118,35.3841
27.6254,35.3543
27.6277,35.3523
27.6284,35.3509
27.6559,35.3288
27.6644,35.3238
27.7275,35.3065
31.2776,35.3065
31.3446,35.3262
31.3653,35.3428
33.4419,37.4195
33.4419,37.4195
33.4419,37.4195
33.6084,37.5307
33.7934,37.6073
33.7934,37.6073
33.7934,37.6073
33.9898,37.6464
33.9898,37.6464
34.1900,37.6464
35.5013,37.6464
35.5683,37.6661
35.6141,37.7189
35.6240,37.7881
35.5950,37.8516
35.5742,37.8707
35.4006,37.9968
35.4006,37.9968
35.2353,38.1622
35.2353,38.1622
35.0979,38.3513
34.9917,38.5597
34.9194,38.7821
34.8829,39.0130
34.8829,39.2468
34.9194,39.4778
34.9917,39.7001
35.0960,39.9049
35.0979,39.9085
35.2353,40.0976
35.2353,40.0976
35.4006,40.2630
35.4006,40.2630
35.5656,40.3829
35.5898,40.4004
35.7981,40.5066
36.0205,40.5788
36.2515,40.6154
36.2515,40.6154
39.8653,40.6154
39.8653,40.6154
40.0962,40.5788
40.2786,40.5196
40.3169,40.5135
45.8100,40.5135
45.8100,40.5135
45.9878,40.4853
46.1590,40.4297
46.3193,40.3480
46.4649,40.2422
46.5922,40.1149
46.6980,39.9693
46.7797,39.8090
46.8353,39.6378
46.8635,39.4600
46.8635,12.6100
46.8635,12.6100
46.8543,12.5517
46.8533,12.5453
46.8353,12.4322
46.7812,12.2657
46.7802,12.2619
46.7308,12.1651
46.6980,12.1007
46.6462,12.0293
46.6462,12.0293
46.6462,12.0293
46.6246,11.9996
46.5922,11.9551
45.1836,10.5464
45.1836,10.5464
45.0379,10.4406
44.9630,10.4024
44.9630,10.4024
44.8776,10.3589
44.8776,10.3589
44.8356,10.3453
44.8356,10.3453
44.7064,10.3033
44.5286,10.2751
44.5286,10.2751
44.5286,10.2751
41.8510,10.2751
41.7947,10.2616
41.7547,10.2412
41.5645,10.1794
41.4389,10.1595
41.3670,10.1481
41.3670,10.1481
39.3595,10.1481
39.2924,10.1284
39.2467,10.0756
39.2355,10.0241
39.2355,5.2680
41.7345,5.2680
41.7345,8.7020
41.7345,8.7020
41.7406,8.7793
41.7406,8.7793
41.7406,8.7793
41.7888,8.9591
41.8103,9.0013
41.8733,9.1249
41.8733,9.1249
41.9318,9.1973
41.9904,9.2696
42.0797,9.3419
42.1351,9.3867
42.1351,9.3867
42.2180,9.4290
42.3009,9.4712
42.4807,9.5194
42.5580,9.5255
43.8820,9.5255
43.9593,9.5194
44.1391,9.4712
44.2643,9.4075
44.3049,9.3867
44.3049,9.3867
44.3251,9.3704
44.3920,9.3163
44.4564,9.2894
44.5252,9.3016
44.5480,9.3163
44.5856,9.3467
44.6351,9.3867
44.6351,9.3867
44.7180,9.4290
44.8009,9.4712
44.9807,9.5194
45.0580,9.5255
46.3820,9.5255
46.4593,9.5194
46.6391,9.4712
46.7643,9.4075
46.8049,9.3867
46.8049,9.3867
46.9496,9.2696
47.0667,9.1249
47.1512,8.9591
47.1994,8.7793
47.2055,8.7020
47.2055,5.2680
47.1994,5.1907
47.1512,5.0109
47.1001,4.9106
47.0667,4.8451
47.0667,4.8451
47.0178,4.7846
46.9496,4.7004
46.8773,4.6418
46.8049,4.5833
46.8049,4.5833
46.6813,4.5203
46.6391,4.4988
46.4593,4.4506
46.4593,4.4506
46.4593,4.4506
46.3964,4.4456
46.3820,4.4445
46.3820,4.4445
45.0580,4.4445
45.0580,4.4445
44.9807,4.4506
44.8009,4.4988
44.6351,4.5833
44.6351,4.5833
44.5480,4.6537
44.4835,4.6806
44.4148,4.6684
44.3920,4.6537
44.3049,4.5833
44.3049,4.5833
44.1813,4.5203
44.1391,4.4988
43.9593,4.4506
43.9593,4.4506
43.9593,4.4506
43.8964,4.4456
43.8820,4.4445
43.8820,4.4445
42.5580,4.4445
42.5580,4.4445
42.4807,4.4506
42.3009,4.4988
42.1351,4.5833
42.1351,4.5833
41.9904,4.7004
41.8733,4.8451
41.8733,4.8451
41.7888,5.0109
41.7406,5.1907
41.7345,5.2680
39.2355,5.2680
39.2355,4.5954
39.2370,4.5760
39.2435,4.5350
39.2435,4.3550
39.2281,4.2580
39.2153,4.1772
39.1597,4.0060
39.0780,3.8457
38.9722,3.7001
35.9843,0.7122
35.9508,0.6509
35.9558,0.5812
35.9977,0.5252
36.0632,0.5008
36.0720,0.5005
46.9913,0.5005
Z" /> 
<path style="fill:#FFFFFF; fill-opacity:1.0000; stroke:none;fill-rule:evenodd;"
d="M 16.6870,5.0627
16.7328,5.1155
16.7440,5.1670
16.7440,8.0591
16.7895,8.0519
16.9784,7.9906
17.1554,7.9004
17.3161,7.7836
17.3161,7.7836
17.4248,7.6749
17.4861,7.6414
17.5558,7.6464
17.6117,7.6883
17.6361,7.7538
17.6365,7.7626
17.6365,9.4710
17.6709,9.6883
17.7389,9.8975
17.8216,10.0599
17.8387,10.0935
17.9680,10.2714
18.1236,10.4270
18.3015,10.5563
18.3502,10.5810
18.4975,10.6561
18.4975,10.6561
18.4975,10.6561
18.5944,10.6876
18.7067,10.7241
18.9240,10.7585
18.9240,10.7585
19.1440,10.7585
19.2157,10.7472
25.5350,10.7472
25.5350,11.1800
27.6900,11.1800
28.1900,11.1800
30.3450,11.1800
30.3450,10.7472
30.3450,10.7472
30.3386,10.6876
30.3386,10.6876
30.2884,10.5529
30.2883,10.5529
30.2022,10.4378
30.2022,10.4378
30.0871,10.3516
30.0871,10.3516
29.9524,10.3014
29.9524,10.3014
29.8928,10.2950
28.1900,10.2950
28.1900,11.1800
27.6900,11.1800
27.6900,10.2950
25.9872,10.2950
25.9276,10.3014
25.9276,10.3014
25.7929,10.3516
25.7929,10.3516
25.6778,10.4378
25.6778,10.4378
25.5916,10.5529
25.5916,10.5529
25.5414,10.6876
25.5414,10.6876
25.5350,10.7472
19.2157,10.7472
19.3612,10.7241
19.5704,10.6561
19.7664,10.5563
19.9444,10.4270
20.0999,10.2714
20.2292,10.0935
20.2900,9.9742
20.3380,9.9234
20.4005,9.9065
30.0076,9.9065
30.0746,9.9262
30.0953,9.9428
30.6972,10.5447
30.7307,10.6061
30.7335,10.6324
30.7335,15.3695
30.7309,15.3782
30.7322,15.3871
30.7213,15.4112
30.7138,15.4365
30.7070,15.4425
30.7032,15.4507
30.6810,15.4650
30.6610,15.4823
30.6505,15.4846
30.6444,15.4885
30.6095,15.4935
30.4136,15.4935
30.3466,15.4738
30.3259,15.4572
30.2376,15.3689
30.2302,15.3645
30.0994,15.2871
30.0994,15.2871
29.9452,15.2423
29.9452,15.2423
29.9092,15.2395
29.9092,15.2395
27.8686,15.2395
27.8016,15.2198
27.7558,15.1670
27.7459,15.0979
27.7749,15.0343
27.7809,15.0278
27.8111,14.9976
27.8111,14.9976
27.8929,14.8594
27.9259,14.7459
27.9377,14.7052
27.9377,14.7052
27.9405,14.6692
27.9405,14.6692
27.9405,13.2708
27.9377,13.2348
27.8929,13.0806
27.8111,12.9424
27.8111,12.9424
27.8111,12.9424
27.6976,12.8289
27.6976,12.8289
27.6416,12.7957
27.5939,12.7447
27.5814,12.6759
27.6080,12.6113
27.6654,12.5714
27.6871,12.5679
27.6900,12.5650
28.1900,12.5650
29.8928,12.5650
29.8928,12.5650
29.9524,12.5586
29.9524,12.5586
30.0871,12.5084
30.0871,12.5084
30.2022,12.4222
30.2022,12.4222
30.2883,12.3071
30.2884,12.3071
30.3386,12.1724
30.3386,12.1724
30.3450,12.1128
30.3450,12.1128
30.3450,11.6800
28.1900,11.6800
28.1900,12.5650
27.6900,12.5650
27.6900,11.6800
25.5350,11.6800
25.5350,12.1128
25.5414,12.1724
25.5414,12.1724
25.5916,12.3071
25.5916,12.3071
25.6778,12.4222
25.7500,12.4762
25.7919,12.5322
25.7969,12.6019
25.7634,12.6632
25.7021,12.6967
25.6757,12.6995
23.4308,12.6995
23.4308,12.6995
23.3948,12.7023
23.2406,12.7471
23.2406,12.7471
23.1024,12.8289
23.1024,12.8289
22.9889,12.9424
22.9889,12.9424
22.9808,12.9561
22.9297,13.0038
22.8740,13.0170
22.7661,13.0170
22.5820,13.0536
22.5820,13.0536
22.4086,13.1255
22.4086,13.1255
22.2525,13.2298
22.2525,13.2298
18.4425,17.0398
18.3761,17.1061
18.3098,17.1725
18.2055,17.3286
18.2055,17.3286
18.1336,17.5020
18.1336,17.5020
18.0970,17.6861
18.0970,17.6861
18.0970,32.3599
18.0934,32.4286
18.0970,32.4536
18.0970,32.4789
18.1043,32.5157
18.1098,32.5431
18.1109,32.5496
18.1203,32.6144
18.1287,32.6382
18.1336,32.6630
18.1600,32.7265
18.1610,32.7296
18.1829,32.7914
18.1912,32.8054
18.1992,32.8213
18.2055,32.8364
18.2387,32.8861
18.2437,32.8936
18.2788,32.9528
18.2957,32.9715
18.3007,32.9789
18.3007,32.9789
18.3066,32.9879
18.3098,32.9925
18.3098,32.9925
18.3098,32.9925
18.3561,33.0388
18.3606,33.0435
18.8613,33.5999
18.8613,33.5999
18.8672,33.6065
18.8813,33.6275
18.9299,33.6761
18.9759,33.7273
18.9962,33.7424
19.0140,33.7602
19.0712,33.7985
19.1263,33.8396
19.1410,33.8467
19.1565,33.8555
19.1701,33.8645
19.1701,33.8645
19.1701,33.8645
19.2306,33.8896
19.2366,33.8923
19.2957,33.9205
19.2957,33.9205
19.2957,33.9205
19.3116,33.9245
19.3284,33.9301
19.3435,33.9364
19.4110,33.9498
19.4777,33.9667
19.5029,33.9681
19.5236,33.9722
19.5276,33.9730
19.5276,33.9730
19.5932,33.9730
19.5997,33.9732
19.6024,33.9733
19.6651,33.9766
19.6813,33.9743
19.6991,33.9730
22.7355,33.9730
22.8025,33.9927
22.8483,34.0455
22.8595,34.0970
22.8595,34.8622
22.8595,34.8622
22.8623,34.8982
22.9071,35.0524
22.9071,35.0524
22.9889,35.1906
22.9889,35.1906
23.1024,35.3041
23.1024,35.3041
23.1024,35.3041
23.2406,35.3859
23.2517,35.3891
23.3948,35.4307
23.3948,35.4307
23.3948,35.4307
23.4308,35.4335
25.6209,35.4335
25.6880,35.4532
25.7337,35.5060
25.7437,35.5751
25.7146,35.6387
25.6841,35.6642
25.6424,35.6889
25.6424,35.6889
25.5289,35.8024
25.5289,35.8024
25.4471,35.9406
25.4471,35.9406
25.4023,36.0948
25.4023,36.0948
25.3995,36.1308
25.3995,37.5292
25.3995,37.5292
25.4023,37.5652
25.4471,37.7194
25.4471,37.7194
25.5289,37.8576
25.5289,37.8576
25.5591,37.8878
25.5926,37.9491
25.5876,38.0188
25.5457,38.0748
25.4802,38.0992
25.4714,38.0995
23.4308,38.0995
23.4308,38.0995
23.3948,38.1023
23.2406,38.1471
23.2406,38.1471
23.1024,38.2289
23.1024,38.2289
22.9889,38.3424
22.9889,38.3424
22.9071,38.4806
22.9071,38.4806
22.8623,38.6348
22.8623,38.6348
22.8595,38.6708
22.8595,40.0692
22.8595,40.0692
22.8623,40.1052
22.9071,40.2594
22.9071,40.2594
22.9889,40.3976
22.9889,40.3976
23.1024,40.5111
23.1024,40.5111
23.1024,40.5111
23.2406,40.5929
23.2758,40.6031
23.3948,40.6377
23.3948,40.6377
23.3948,40.6377
23.4308,40.6405
25.4714,40.6405
25.4926,40.6467
25.5147,40.6483
25.5255,40.6564
25.5384,40.6602
25.5529,40.6769
25.5707,40.6902
25.5754,40.7028
25.5842,40.7130
25.5873,40.7349
25.5951,40.7556
25.5922,40.7688
25.5941,40.7821
25.5849,40.8023
25.5802,40.8239
25.5670,40.8417
25.5651,40.8457
25.5591,40.8522
25.5541,40.8572
25.4928,40.8907
25.4664,40.8935
18.3149,40.8935
18.1185,40.9326
18.1185,40.9326
17.9335,41.0092
17.7670,41.1204
12.5454,46.3420
12.4342,46.5085
12.3576,46.6935
12.3576,46.6935
12.3185,46.8899
12.3185,46.8899
12.3185,47.0901
12.3185,47.0901
12.3185,47.0901
12.3576,47.2865
12.3576,47.2865
12.4041,47.3988
12.4135,47.4462
12.4135,63.4905
12.3938,63.5575
12.3410,63.6033
12.2895,63.6145
12.1908,63.6145
12.1908,63.6145
12.1548,63.6173
12.0006,63.6621
12.0006,63.6621
11.8624,63.7439
11.8624,63.7439
11.7489,63.8574
11.7489,63.8574
11.6671,63.9956
11.6671,63.9956
11.6223,64.1498
11.6223,64.1498
11.6195,64.1858
11.6195,65.1642
11.6195,65.1642
11.6223,65.2002
11.6671,65.3544
11.6688,65.3583
11.6692,65.3615
11.6693,65.3619
11.6693,65.3619
11.6774,65.4276
11.6471,65.4906
11.5875,65.5272
11.5550,65.5315
11.4275,65.5315
11.3605,65.5118
11.3147,65.4590
11.3035,65.4075
11.3035,58.4370
11.3232,58.3700
11.3398,58.3493
11.4078,58.2814
11.5402,58.1489
11.5681,58.1105
11.6460,58.0033
11.7277,57.8430
11.7833,57.6718
11.8005,57.5632
11.8005,57.5632
11.8115,57.4940
11.8115,14.1340
11.8011,14.0686
11.8011,14.0686
11.7833,13.9562
11.7833,13.9562
11.7292,13.7897
11.7282,13.7859
11.6494,13.6314
11.6460,13.6247
11.5402,13.4791
11.4129,13.3518
9.7693,11.7082
9.7358,11.6469
9.7408,11.5772
9.7693,11.5328
12.3448,8.9574
12.4061,8.9239
12.4758,8.9289
12.5317,8.9707
12.5561,9.0362
12.5565,9.0450
12.5565,9.4710
12.5909,9.6883
12.6589,9.8975
12.7416,10.0599
12.7587,10.0935
12.8880,10.2714
13.0436,10.4270
13.2215,10.5563
13.2702,10.5810
13.4175,10.6561
13.4175,10.6561
13.4175,10.6561
13.5144,10.6876
13.6267,10.7241
13.8440,10.7585
13.8440,10.7585
14.0640,10.7585
14.2812,10.7241
14.4904,10.6561
14.6864,10.5563
14.8644,10.4270
15.0199,10.2714
15.1492,10.0935
15.2491,9.8975
15.3171,9.6883
15.3329,9.5883
15.3515,9.4710
15.3515,7.7626
15.3712,7.6956
15.4240,7.6498
15.4931,7.6399
15.5567,7.6689
15.5631,7.6749
15.6718,7.7836
15.8325,7.9004
16.0095,7.9906
16.1984,8.0519
16.2440,8.0591
16.2440,5.1670
16.2636,5.1000
16.3165,5.0542
16.3680,5.0430
16.6200,5.0430
Z" /> 
<path style="fill:#FFFFFF; fill-opacity:1.0000; stroke:none;fill-rule:evenodd;"
d="M 43.9806,12.5818
44.0013,12.5984
44.5402,13.1373
44.5737,13.1987
44.5765,13.2250
44.5765,38.1025
44.5568,38.1695
44.5040,38.2153
44.4525,38.2265
42.9435,38.2265
42.8764,38.2068
42.8307,38.1540
42.8207,38.0849
42.8498,38.0213
42.8872,37.9920
42.9282,37.9711
43.0669,37.9004
43.2561,37.7630
43.4214,37.5977
43.5589,37.4085
43.6650,37.2001
43.7373,36.9778
43.7739,36.7468
43.7739,36.5130
43.7373,36.2821
43.6650,36.0597
43.5589,35.8513
43.5014,35.7722
43.4214,35.6622
43.4214,35.6622
43.2561,35.4968
43.2561,35.4968
43.0669,35.3594
43.0669,35.3594
43.0669,35.3594
42.8586,35.2532
42.6362,35.1810
42.6362,35.1810
42.6362,35.1810
42.4588,35.1529
42.4053,35.1444
42.4053,35.1444
41.0908,35.1444
41.0238,35.1247
40.9780,35.0719
40.9681,35.0028
40.9905,34.9475
41.0189,34.9085
41.1250,34.7001
41.1973,34.4778
41.2339,34.2468
41.2339,34.0130
41.1973,33.7821
41.1250,33.5597
41.0189,33.3513
40.9905,33.3123
40.9670,33.2465
40.9829,33.1784
41.0330,33.1297
41.0908,33.1154
42.4053,33.1154
42.4053,33.1154
42.6362,33.0788
42.8586,33.0066
43.0669,32.9004
43.2561,32.7630
43.4214,32.5977
43.5589,32.4085
43.6650,32.2001
43.7373,31.9778
43.7739,31.7468
43.7739,31.5130
43.7373,31.2821
43.6650,31.0597
43.5589,30.8513
43.5413,30.8272
43.4214,30.6622
43.4214,30.6622
43.2561,30.4968
43.2561,30.4968
43.0669,30.3594
43.0669,30.3594
43.0669,30.3594
42.8586,30.2532
42.6362,30.1810
42.6362,30.1810
42.6362,30.1810
42.4588,30.1529
42.4053,30.1444
42.4053,30.1444
41.0908,30.1444
41.0238,30.1247
40.9780,30.0719
40.9681,30.0028
40.9905,29.9475
40.9922,29.9452
41.0189,29.9085
41.1250,29.7001
41.1973,29.4778
41.2339,29.2468
41.2339,29.0130
41.1973,28.7821
41.1250,28.5597
41.0189,28.3513
40.9965,28.3206
40.8921,28.1768
40.8686,28.1110
40.8844,28.0429
40.9345,27.9942
40.9924,27.9799
42.3946,27.9799
42.6045,27.9467
42.6045,27.9467
42.8066,27.8810
42.9959,27.7845
43.1678,27.6596
43.1678,27.6596
43.3181,27.5094
43.3181,27.5094
43.4430,27.3375
43.5395,27.1481
43.6051,26.9460
43.6051,26.9460
43.6156,26.8799
37.5811,26.8799
37.5916,26.9460
37.5916,26.9460
37.6573,27.1481
37.7537,27.3375
37.8337,27.4475
37.8572,27.5133
37.8414,27.5814
37.7913,27.6301
37.7334,27.6444
36.2515,27.6444
36.1979,27.6529
36.0205,27.6810
35.7981,27.7532
35.5898,27.8594
35.4006,27.9968
35.4006,27.9968
35.2403,28.1572
35.1790,28.1907
35.1526,28.1935
27.8736,28.1935
27.8494,28.1864
27.8244,28.1833
27.8133,28.1758
27.8066,28.1738
27.7943,28.1648
27.7899,28.1612
27.6976,28.0689
27.6330,28.0307
27.6254,28.0243
27.6112,28.0032
27.5939,27.9847
27.5921,27.9747
27.5864,27.9663
27.5859,27.9409
27.5814,27.9159
27.5852,27.9066
27.5850,27.8965
27.5983,27.8748
27.6080,27.8513
27.6163,27.8456
27.6216,27.8369
27.6445,27.8259
27.6654,27.8114
27.6795,27.8091
27.6846,27.8066
27.6879,27.8071
27.6900,27.8050
28.1900,27.8050
29.8928,27.8050
29.8928,27.8050
29.9524,27.7986
29.9524,27.7986
30.0871,27.7484
30.0871,27.7483
30.2022,27.6622
30.2022,27.6622
30.2883,27.5471
30.2884,27.5471
30.3386,27.4124
30.3386,27.4124
30.3450,27.3528
30.3450,27.3528
30.3450,26.9200
28.1900,26.9200
28.1900,27.8050
27.6900,27.8050
27.6900,26.9200
25.5350,26.9200
25.5350,27.3528
25.5414,27.4124
25.5414,27.4124
25.5916,27.5471
25.5916,27.5471
25.6778,27.6622
25.7500,27.7162
25.7919,27.7722
25.7969,27.8419
25.7634,27.9032
25.7021,27.9367
25.6757,27.9395
23.4308,27.9395
23.4308,27.9395
23.3948,27.9423
23.2406,27.9871
23.2406,27.9871
23.1024,28.0689
23.1024,28.0689
22.9889,28.1824
22.9889,28.1824
22.9071,28.3206
22.9071,28.3206
22.8623,28.4748
22.8623,28.4748
22.8595,28.5108
22.8595,29.9092
22.8595,29.9092
22.8623,29.9452
22.9071,30.0994
22.9071,30.0994
22.9889,30.2376
22.9889,30.2376
23.1024,30.3511
23.1024,30.3511
23.1024,30.3511
23.2406,30.4329
23.2813,30.4447
23.3948,30.4777
23.3948,30.4777
23.3948,30.4777
23.4308,30.4805
25.6209,30.4805
25.6880,30.5002
25.7337,30.5530
25.7437,30.6221
25.7146,30.6857
25.6841,30.7112
25.6424,30.7359
25.6424,30.7359
25.5289,30.8494
25.5289,30.8494
25.4471,30.9876
25.4471,30.9876
25.4023,31.1418
25.4023,31.1418
25.3995,31.1778
25.3995,31.1778
25.3995,31.9430
25.3798,32.0100
25.3270,32.0558
25.2755,32.0670
20.1270,32.0670
20.0600,32.0473
20.0142,31.9945
20.0030,31.9430
20.0030,18.2261
20.0227,18.1591
20.0393,18.1384
21.1380,17.0398
23.0119,15.1658
23.0732,15.1324
23.1429,15.1373
23.1627,15.1468
23.2406,15.1929
23.2813,15.2047
23.3948,15.2377
23.3948,15.2377
23.3948,15.2377
23.4308,15.2405
25.4714,15.2405
25.5384,15.2602
25.5842,15.3130
25.5941,15.3821
25.5651,15.4457
25.5591,15.4522
25.5289,15.4824
25.5289,15.4824
25.4471,15.6206
25.4471,15.6206
25.4023,15.7748
25.4023,15.7748
25.3995,15.8108
25.3995,17.2092
25.3995,17.2092
25.4023,17.2452
25.4471,17.3994
25.4471,17.3994
25.5289,17.5376
25.5289,17.5376
25.5591,17.5678
25.5926,17.6291
25.5876,17.6988
25.5457,17.7548
25.4802,17.7792
25.4714,17.7795
23.4308,17.7795
23.4308,17.7795
23.3948,17.7823
23.2406,17.8271
23.2406,17.8271
23.1024,17.9089
23.1024,17.9089
22.9889,18.0224
22.9889,18.0224
22.9071,18.1606
22.9071,18.1606
22.8623,18.3148
22.8623,18.3148
22.8595,18.3508
22.8595,19.7492
22.8595,19.7492
22.8623,19.7852
22.9071,19.9394
22.9071,19.9394
22.9889,20.0776
22.9889,20.0776
23.1024,20.1911
23.1024,20.1911
23.1024,20.1911
23.2406,20.2729
23.2813,20.2847
23.3948,20.3177
23.3948,20.3177
23.3948,20.3177
23.4308,20.3205
25.4714,20.3205
25.5384,20.3402
25.5842,20.3930
25.5941,20.4621
25.5651,20.5257
25.5591,20.5322
25.5289,20.5624
25.5289,20.5624
25.4471,20.7006
25.4471,20.7006
25.4023,20.8548
25.4023,20.8548
25.3995,20.8908
25.3995,22.2892
25.3995,22.2892
25.4023,22.3252
25.4471,22.4794
25.4471,22.4794
25.5289,22.6176
25.5289,22.6176
25.5591,22.6478
25.5926,22.7091
25.5876,22.7788
25.5457,22.8348
25.4802,22.8592
25.4714,22.8595
23.4308,22.8595
23.4308,22.8595
23.3948,22.8623
23.2406,22.9071
23.2406,22.9071
23.1024,22.9889
23.1024,22.9889
22.9889,23.1024
22.9889,23.1024
22.9071,23.2406
22.9071,23.2406
22.8623,23.3948
22.8623,23.3948
22.8595,23.4308
22.8595,24.8292
22.8595,24.8292
22.8623,24.8652
22.9071,25.0194
22.9071,25.0194
22.9889,25.1576
22.9889,25.1576
23.1024,25.2711
23.1024,25.2711
23.1024,25.2711
23.2406,25.3529
23.2678,25.3608
23.3948,25.3977
23.3948,25.3977
23.3948,25.3977
23.4308,25.4005
25.6757,25.4005
25.7427,25.4202
25.7885,25.4730
25.7984,25.5421
25.7694,25.6057
25.7500,25.6238
25.6778,25.6778
25.5916,25.7929
25.5916,25.7929
25.5414,25.9276
25.5414,25.9276
25.5350,25.9872
25.5350,26.4200
27.6900,26.4200
28.1900,26.4200
30.3450,26.4200
30.3450,25.9872
30.3450,25.9872
30.3386,25.9276
30.3386,25.9276
30.2884,25.7929
30.2883,25.7929
30.2022,25.6778
30.2022,25.6778
30.0871,25.5916
30.0871,25.5916
29.9524,25.5414
29.9524,25.5414
29.8928,25.5350
28.1900,25.5350
28.1900,26.4200
27.6900,26.4200
27.6900,25.5501
27.6361,25.5143
27.6141,25.4882
27.5919,25.4625
27.5918,25.4615
27.5911,25.4608
27.5868,25.4270
27.5820,25.3934
27.5824,25.3925
27.5822,25.3915
27.5968,25.3608
27.6110,25.3298
27.6119,25.3290
27.6122,25.3284
27.6140,25.3273
27.6416,25.3043
27.6688,25.2881
27.6976,25.2711
27.7859,25.1828
27.8472,25.1493
27.8736,25.1465
38.3296,25.1465
38.3966,25.1662
38.4424,25.2190
38.4523,25.2881
38.4233,25.3517
38.3859,25.3810
38.2008,25.4753
38.0289,25.6002
38.0289,25.6002
37.8786,25.7504
37.8786,25.7505
37.7537,25.9224
37.6573,26.1117
37.5916,26.3138
37.5916,26.3138
37.5811,26.3799
43.6156,26.3799
43.6051,26.3138
43.6051,26.3138
43.5395,26.1117
43.4430,25.9224
43.3181,25.7505
43.3181,25.7504
43.1678,25.6002
43.1678,25.6002
42.9959,25.4753
42.8066,25.3788
42.6045,25.3132
42.3946,25.2799
41.7785,25.2799
41.7115,25.2602
41.6657,25.2074
41.6558,25.1383
41.6848,25.0747
41.7310,25.0414
41.7565,25.0308
41.7565,25.0308
41.7565,25.0308
41.9230,24.9196
42.0646,24.7780
42.1758,24.6115
42.1908,24.5753
42.2177,24.5351
43.9202,22.8325
44.0245,22.6764
44.0964,22.5030
44.1330,22.3189
44.1330,22.1311
44.1330,15.1461
44.0964,14.9620
44.0905,14.9479
44.0245,14.7886
44.0245,14.7886
43.9202,14.6325
43.9202,14.6325
43.7875,14.4998
43.2440,13.9562
42.5061,13.2184
42.5061,13.2184
42.3500,13.1141
42.3500,13.1141
42.1766,13.0422
42.1766,13.0422
41.9925,13.0056
41.9925,13.0056
39.6747,13.0056
39.6453,12.9970
39.6153,12.9904
39.6103,12.9867
39.6077,12.9859
39.5870,12.9693
39.5185,12.9008
39.4850,12.8395
39.4900,12.7698
39.5319,12.7138
39.5974,12.6894
39.6062,12.6891
41.3670,12.6891
41.3670,12.6891
41.5645,12.6578
41.7547,12.5960
41.7947,12.5756
41.8510,12.5621
43.9136,12.5621
Z" /> 
<path style="fill:#FFFFFF; fill-opacity:1.0000; stroke:none;fill-rule:evenodd;"
d="M 42.1640,17.5069
42.2127,17.5570
42.2270,17.6149
42.2270,20.6341
42.2073,20.7012
42.1545,20.7469
42.0854,20.7569
42.0218,20.7279
42.0153,20.7218
42.0064,20.7129
42.0064,20.7129
41.8619,20.6079
41.7027,20.5268
41.5328,20.4716
41.3563,20.4436
39.6120,20.4436
39.6120,22.7136
41.0443,22.7136
41.1113,22.7333
41.1571,22.7861
41.1670,22.8553
41.1380,22.9188
41.1320,22.9253
40.9801,23.0772
40.9188,23.1107
40.8924,23.1135
27.8736,23.1135
27.8442,23.1049
27.8142,23.0983
27.8092,23.0946
27.8066,23.0938
27.7859,23.0772
27.7809,23.0722
27.7474,23.0109
27.7524,22.9412
27.7943,22.8852
27.8597,22.8608
27.8686,22.8605
29.9092,22.8605
29.9092,22.8605
29.9452,22.8577
30.0994,22.8129
30.2376,22.7311
30.3511,22.6176
30.4329,22.4794
30.4777,22.3252
30.4805,22.2892
30.4805,21.8286
36.3474,21.8286
36.3499,21.8444
36.4051,22.0143
36.4862,22.1735
36.5912,22.3180
36.5912,22.3180
36.7176,22.4443
36.7176,22.4444
36.8621,22.5494
37.0213,22.6305
37.1912,22.6857
37.3677,22.7136
39.1120,22.7136
39.1120,21.8286
36.3474,21.8286
30.4805,21.8286
30.4805,20.8908
30.4777,20.8548
30.4329,20.7006
30.3511,20.5624
30.3511,20.5624
30.3511,20.5624
30.2376,20.4489
30.2376,20.4489
30.0994,20.3671
30.0994,20.3671
29.9452,20.3223
29.9452,20.3223
29.9092,20.3195
29.9092,20.3195
27.8686,20.3195
27.8016,20.2998
27.7558,20.2470
27.7459,20.1779
27.7749,20.1143
27.7809,20.1078
27.8111,20.0776
27.8111,20.0776
27.8929,19.9394
27.9377,19.7852
27.9405,19.7492
27.9405,18.3508
27.9377,18.3148
27.8929,18.1606
27.8111,18.0224
27.8111,18.0224
27.8111,18.0224
27.7809,17.9922
27.7474,17.9309
27.7524,17.8612
27.7943,17.8052
27.8597,17.7808
27.8686,17.7805
29.9092,17.7805
29.9092,17.7805
29.9452,17.7777
30.0994,17.7329
30.2376,17.6511
30.3259,17.5628
30.3872,17.5293
30.4136,17.5265
31.6499,17.5265
34.4169,17.5265
34.4840,17.5462
34.5297,17.5990
34.5397,17.6681
34.5106,17.7317
34.4732,17.7610
34.3115,17.8434
34.1336,17.9727
33.9780,18.1282
33.8487,18.3062
33.7489,18.5022
33.6809,18.7114
33.6465,18.9286
33.6465,19.1486
33.6809,19.3659
33.7489,19.5751
33.8376,19.7492
33.8487,19.7711
33.9780,19.9490
34.1336,20.1046
34.3115,20.2339
34.3881,20.2729
34.5075,20.3337
34.5075,20.3337
34.5075,20.3337
34.5734,20.3551
34.7167,20.4017
34.9340,20.4361
36.7169,20.4361
36.7839,20.4558
36.8297,20.5086
36.8396,20.5778
36.8106,20.6413
36.7898,20.6604
36.7176,20.7129
36.7176,20.7129
36.5912,20.8392
36.5912,20.8392
36.4862,20.9837
36.4051,21.1429
36.3499,21.3128
36.3474,21.3286
36.3474,21.3286
39.1120,21.3286
39.1120,20.4222
39.1317,20.3551
39.1797,20.3117
39.3324,20.2339
39.5104,20.1046
39.6659,19.9490
39.7952,19.7711
39.8951,19.5751
39.9631,19.3659
39.9975,19.1486
39.9975,18.9286
39.9631,18.7114
39.8951,18.5022
39.8180,18.3508
39.7952,18.3062
39.6659,18.1282
39.5185,17.9808
39.4850,17.9195
39.4900,17.8498
39.5319,17.7938
39.5974,17.7694
39.6062,17.7691
41.3670,17.7691
41.3670,17.7691
41.5645,17.7378
41.7547,17.6760
41.9329,17.5852
42.0301,17.5146
42.0959,17.4911
Z" /> 
</g>
<g style="fill:none; 
stroke:#FFFFFF; stroke-width:0.0500; stroke-opacity:1; 
stroke-linecap:round; stroke-linejoin:round;">
<circle cx="1.8130" cy="1.9050" r="1.1780" /> 
<circle cx="2.5400" cy="68.5800" r="1.1780" /> 
<path style="fill:none; 
stroke:#FFFFFF; stroke-width:0.0500; stroke-opacity:1; 
stroke-linecap:round; stroke-linejoin:round;fill:none"
d="M 0.0000,0.0000
50.1650,0.0000
50.1650,70.4850
0.0000,70.4850
Z" /> 
<circle cx="48.2600" cy="68.5800" r="1.1780" /> 
<circle cx="48.2600" cy="1.9050" r="1.1780" /> 
</g>
<g style="fill:#000000; fill-opacity:1.0000; stroke:none;">
<circle cx="16.5100" cy="11.4300" r="0.3810" /> 
</g>
<g style="fill:#000000; fill-opacity:1.0000; stroke:none;">
<circle cx="41.2750" cy="68.5800" r="0.3810" /> 
</g>
<g style="fill:#000000; fill-opacity:1.0000; stroke:none;">
<circle cx="22.2250" cy="26.6700" r="0.3810" /> 
</g>
<g style="fill:#000000; fill-opacity:1.0000; stroke:none;">
<circle cx="33.0200" cy="21.5900" r="0.3810" /> 
</g>
<g style="fill:#000000; fill-opacity:1.0000; stroke:none;">
<circle cx="8.1280" cy="44.4500" r="0.3810" /> 
</g>
<g style="fill:#000000; fill-opacity:1.0000; stroke:none;">
<circle cx="37.4650" cy="52.0700" r="0.3810" /> 
</g>
<g style="fill:#000000; fill-opacity:1.0000; stroke:none;">
<circle cx="41.2750" cy="52.7050" r="0.3810" /> 
</g>
<g style="fill:#000000; fill-opacity:1.0000; stroke:none;">
<circle cx="45.1055" cy="51.0850" r="0.3000" /> 
</g>
<g style="fill:#000000; fill-opacity:1.0000; stroke:none;">
<circle cx="45.1055" cy="56.8650" r="0.3000" /> 
</g>
<g style="fill:#000000; fill-opacity:1.0000; stroke:none;">
<circle cx="48.7555" cy="58.2750" r="0.2540" /> 
</g>
<g style="fill:#000000; fill-opacity:1.0000; stroke:none;">
<circle cx="48.7555" cy="49.6750" r="0.2540" /> 
</g>
<g style="fill:#000000; fill-opacity:1.0000; stroke:none;">
<circle cx="44.5555" cy="58.2750" r="0.2540" /> 
</g>
<g style="fill:#000000; fill-opacity:1.0000; stroke:none;">
<circle cx="44.5555" cy="49.6750" r="0.2540" /> 
</g>
<g style="fill:#000000; fill-opacity:1.0000; stroke:none;">
<circle cx="45.7200" cy="6.9850" r="0.5000" /> 
</g>
<g style="fill:#000000; fill-opacity:1.0000; stroke:none;">
<circle cx="43.2200" cy="6.9850" r="0.5000" /> 
</g> 
</svg>
