<?xml version="1.0" standalone="no"?>
 <!DOCTYPE svg PUBLIC "-//W3C//DTD SVG 1.1//EN" 
 "http://www.w3.org/Graphics/SVG/1.1/DTD/svg11.dtd"> 
<svg
  xmlns:svg="http://www.w3.org/2000/svg"
  xmlns="http://www.w3.org/2000/svg"
  xmlns:xlink="http://www.w3.org/1999/xlink"
  version="1.1"
  width="50.1650mm" height="70.6628mm" viewBox="0.0000 0.0000 50.1650 70.6628">
<title>SVG Image created as mask-back.svg date 2025/12/12 17:11:10 </title>
  <desc>Image generated by PCBNEW </desc>
<g style="fill:#000000; fill-opacity:1.0000;stroke:#000000; stroke-opacity:1.0000;
stroke-linecap:round; stroke-linejoin:round;"
 transform="translate(0 0) scale(1 1)">
</g>
<g style="fill:#000000; fill-opacity:1.0000; stroke:none;">
<circle cx="5.0595" cy="51.0850" r="0.3000" /> 
</g>
<g style="fill:#000000; fill-opacity:1.0000; stroke:none;">
<circle cx="5.0595" cy="56.8650" r="0.3000" /> 
<path style="fill:#000000; fill-opacity:1.0000; stroke:none;fill-rule:evenodd;"
d="M 10.1024,47.8389
9.9979,47.8596
9.9093,47.9188
9.8501,48.0074
9.8294,48.1119
9.8294,49.6740
9.8501,49.7785
9.9093,49.8671
9.9979,49.9263
10.1024,49.9471
10.6485,49.9471
10.7530,49.9263
10.8416,49.8671
10.9008,49.7785
10.9216,49.6740
10.9216,48.1119
10.9008,48.0074
10.8416,47.9188
10.7530,47.8596
10.6485,47.8389
Z" /> 
<path style="fill:#000000; fill-opacity:1.0000; stroke:none;fill-rule:evenodd;"
d="M 8.7435,49.9471
8.8480,49.9263
8.9366,49.8671
8.9958,49.7785
9.0166,49.6740
9.0166,48.1119
8.9958,48.0074
8.9366,47.9188
8.8480,47.8596
8.7435,47.8389
8.1974,47.8389
8.0929,47.8596
8.0043,47.9188
7.9451,48.0074
7.9244,48.1119
7.9244,49.6740
7.9451,49.7785
8.0043,49.8671
8.0929,49.9263
8.1974,49.9471
Z" /> 
</g>
<g style="fill:none; 
stroke:#000000; stroke-width:0.9652; stroke-opacity:1; 
stroke-linecap:round; stroke-linejoin:round;">
<path d="M0.9650 58.2750
L1.8540 58.2750
" />
<path d="M0.9650 49.6750
L1.8540 49.6750
" />
</g>
<g style="fill:none; 
stroke:#000000; stroke-width:0.9906; stroke-opacity:1; 
stroke-linecap:round; stroke-linejoin:round;">
<path d="M5.1523 58.2750
L6.0667 58.2750
" />
<path d="M5.1523 49.6750
L6.0667 49.6750
" />
<path style="fill:#000000; fill-opacity:1.0000; stroke:none;fill-rule:evenodd;"
d="M 3.5950,8.6400
3.6140,8.7357
3.6682,8.8168
3.7493,8.8710
3.8450,8.8900
5.0450,8.8900
5.1407,8.8710
5.2218,8.8168
5.2760,8.7357
5.2950,8.6400
5.2950,5.3300
5.2760,5.2343
5.2218,5.1532
5.1407,5.0990
5.0450,5.0800
3.8450,5.0800
3.7493,5.0990
3.6682,5.1532
3.6140,5.2343
3.5950,5.3300
Z" /> 
<path style="fill:#000000; fill-opacity:1.0000; stroke:none;fill-rule:evenodd;"
d="M 6.0950,8.6400
6.1140,8.7357
6.1682,8.8168
6.2493,8.8710
6.3450,8.8900
7.5450,8.8900
7.6407,8.8710
7.7218,8.8168
7.7760,8.7357
7.7950,8.6400
7.7950,5.3300
7.7760,5.2343
7.7218,5.1532
7.6407,5.0990
7.5450,5.0800
6.3450,5.0800
6.2493,5.0990
6.1682,5.1532
6.1140,5.2343
6.0950,5.3300
Z" /> 
</g>
<g style="fill:none; 
stroke:#000000; stroke-width:0.0500; stroke-opacity:1; 
stroke-linecap:round; stroke-linejoin:round;">
<circle cx="48.3520" cy="1.9050" r="1.1780" /> 
<circle cx="47.6250" cy="68.5800" r="1.1780" /> 
<path style="fill:none; 
stroke:#000000; stroke-width:0.0500; stroke-opacity:1; 
stroke-linecap:round; stroke-linejoin:round;fill:none"
d="M 50.1650,0.0000
0.0000,0.0000
0.0000,70.4850
50.1650,70.4850
Z" /> 
<circle cx="1.9050" cy="68.5800" r="1.1780" /> 
<circle cx="1.9050" cy="1.9050" r="1.1780" /> 
</g>
<g style="fill:#FFFFFF; fill-opacity:1.0000; stroke:none;">
<circle cx="5.0595" cy="51.0850" r="0.3000" /> 
</g>
<g style="fill:#FFFFFF; fill-opacity:1.0000; stroke:none;">
<circle cx="5.0595" cy="56.8650" r="0.3000" /> 
</g>
<g style="fill:#FFFFFF; fill-opacity:1.0000; stroke:none;">
<circle cx="1.4095" cy="58.2750" r="0.2540" /> 
</g>
<g style="fill:#FFFFFF; fill-opacity:1.0000; stroke:none;">
<circle cx="1.4095" cy="49.6750" r="0.2540" /> 
</g>
<g style="fill:#FFFFFF; fill-opacity:1.0000; stroke:none;">
<circle cx="5.6095" cy="58.2750" r="0.2540" /> 
</g>
<g style="fill:#FFFFFF; fill-opacity:1.0000; stroke:none;">
<circle cx="5.6095" cy="49.6750" r="0.2540" /> 
</g>
<g style="fill:#FFFFFF; fill-opacity:1.0000; stroke:none;">
<circle cx="4.4450" cy="6.9850" r="0.5000" /> 
</g>
<g style="fill:#FFFFFF; fill-opacity:1.0000; stroke:none;">
<circle cx="6.9450" cy="6.9850" r="0.5000" /> 
</g> 
</svg>
