<?xml version="1.0" standalone="no"?>
 <!DOCTYPE svg PUBLIC "-//W3C//DTD SVG 1.1//EN" 
 "http://www.w3.org/Graphics/SVG/1.1/DTD/svg11.dtd"> 
<svg
  xmlns:svg="http://www.w3.org/2000/svg"
  xmlns="http://www.w3.org/2000/svg"
  xmlns:xlink="http://www.w3.org/1999/xlink"
  version="1.1"
  width="50.1650mm" height="70.6628mm" viewBox="0.0000 0.0000 50.1650 70.6628">
<title>SVG Image created as mask-front.svg date 2025/12/12 17:11:12 </title>
  <desc>Image generated by PCBNEW </desc>
<g style="fill:#000000; fill-opacity:1.0000;stroke:#000000; stroke-opacity:1.0000;
stroke-linecap:round; stroke-linejoin:round;"
 transform="translate(0 0) scale(1 1)">
</g>
<g style="fill:none; 
stroke:#000000; stroke-width:1.2700; stroke-opacity:1; 
stroke-linecap:round; stroke-linejoin:round;">
<path d="M37.4570 11.4186
L41.2670 11.4186
" />
</g>
<g style="fill:none; 
stroke:#000000; stroke-width:1.5240; stroke-opacity:1; 
stroke-linecap:round; stroke-linejoin:round;">
<path d="M35.0440 13.9586
L38.6000 13.9586
" />
</g>
<g style="fill:none; 
stroke:#000000; stroke-width:1.2700; stroke-opacity:1; 
stroke-linecap:round; stroke-linejoin:round;">
<path d="M37.4570 16.4986
L41.2670 16.4986
" />
</g>
<g style="fill:none; 
stroke:#000000; stroke-width:1.5240; stroke-opacity:1; 
stroke-linecap:round; stroke-linejoin:round;">
<path d="M35.0440 19.0386
L38.6000 19.0386
" />
</g>
<g style="fill:none; 
stroke:#000000; stroke-width:1.2700; stroke-opacity:1; 
stroke-linecap:round; stroke-linejoin:round;">
<path d="M37.4570 21.5786
L41.2670 21.5786
" />
<path style="fill:#000000; fill-opacity:1.0000; stroke:none;fill-rule:evenodd;"
d="M 25.4950,65.1950
25.4950,64.3450
27.8450,64.3450
27.8450,65.1950
Z" /> 
<path style="fill:#000000; fill-opacity:1.0000; stroke:none;fill-rule:evenodd;"
d="M 27.8450,67.1950
27.8450,66.3450
30.1950,66.3450
30.1950,67.1950
Z" /> 
<path style="fill:#000000; fill-opacity:1.0000; stroke:none;fill-rule:evenodd;"
d="M 25.4950,69.1950
25.4950,68.3450
27.8450,68.3450
27.8450,69.1950
Z" /> 
</g>
<g style="fill:#000000; fill-opacity:1.0000; stroke:none;">
<circle cx="45.1055" cy="51.0850" r="0.3000" /> 
</g>
<g style="fill:#000000; fill-opacity:1.0000; stroke:none;">
<circle cx="45.1055" cy="56.8650" r="0.3000" /> 
<path style="fill:#000000; fill-opacity:1.0000; stroke:none;fill-rule:evenodd;"
d="M 31.0130,60.9600
31.0208,60.9210
31.0429,60.8879
31.0760,60.8658
31.1150,60.8580
32.3850,60.8580
32.4240,60.8658
32.4571,60.8879
32.4792,60.9210
32.4870,60.9600
32.4870,64.7700
32.4792,64.8090
32.4571,64.8421
32.4240,64.8642
32.3850,64.8720
31.1150,64.8720
31.0760,64.8642
31.0429,64.8421
31.0208,64.8090
31.0130,64.7700
Z" /> 
<path style="fill:#000000; fill-opacity:1.0000; stroke:none;fill-rule:evenodd;"
d="M 33.5530,58.6740
33.5608,58.6350
33.5829,58.6019
33.6160,58.5798
33.6550,58.5720
34.9250,58.5720
34.9640,58.5798
34.9971,58.6019
35.0192,58.6350
35.0270,58.6740
35.0270,62.4840
35.0192,62.5230
34.9971,62.5561
34.9640,62.5782
34.9250,62.5860
33.6550,62.5860
33.6160,62.5782
33.5829,62.5561
33.5608,62.5230
33.5530,62.4840
Z" /> 
<path style="fill:#000000; fill-opacity:1.0000; stroke:none;fill-rule:evenodd;"
d="M 36.0930,60.9600
36.1008,60.9210
36.1229,60.8879
36.1560,60.8658
36.1950,60.8580
37.4650,60.8580
37.5040,60.8658
37.5371,60.8879
37.5592,60.9210
37.5670,60.9600
37.5670,64.7700
37.5592,64.8090
37.5371,64.8421
37.5040,64.8642
37.4650,64.8720
36.1950,64.8720
36.1560,64.8642
36.1229,64.8421
36.1008,64.8090
36.0930,64.7700
Z" /> 
<path style="fill:#000000; fill-opacity:1.0000; stroke:none;fill-rule:evenodd;"
d="M 38.6330,58.6740
38.6408,58.6350
38.6629,58.6019
38.6960,58.5798
38.7350,58.5720
40.0050,58.5720
40.0440,58.5798
40.0771,58.6019
40.0992,58.6350
40.1070,58.6740
40.1070,62.4840
40.0992,62.5230
40.0771,62.5561
40.0440,62.5782
40.0050,62.5860
38.7350,62.5860
38.6960,62.5782
38.6629,62.5561
38.6408,62.5230
38.6330,62.4840
Z" /> 
<path style="fill:#000000; fill-opacity:1.0000; stroke:none;fill-rule:evenodd;"
d="M 41.1730,60.9600
41.1808,60.9210
41.2029,60.8879
41.2360,60.8658
41.2750,60.8580
42.5450,60.8580
42.5840,60.8658
42.6171,60.8879
42.6392,60.9210
42.6470,60.9600
42.6470,64.7700
42.6392,64.8090
42.6171,64.8421
42.5840,64.8642
42.5450,64.8720
41.2750,64.8720
41.2360,64.8642
41.2029,64.8421
41.1808,64.8090
41.1730,64.7700
Z" /> 
<path style="fill:#000000; fill-opacity:1.0000; stroke:none;fill-rule:evenodd;"
d="M 43.7130,58.6740
43.7208,58.6350
43.7429,58.6019
43.7760,58.5798
43.8150,58.5720
45.0850,58.5720
45.1240,58.5798
45.1571,58.6019
45.1792,58.6350
45.1870,58.6740
45.1870,62.4840
45.1792,62.5230
45.1571,62.5561
45.1240,62.5782
45.0850,62.5860
43.8150,62.5860
43.7760,62.5782
43.7429,62.5561
43.7208,62.5230
43.7130,62.4840
Z" /> 
<path style="fill:#000000; fill-opacity:1.0000; stroke:none;fill-rule:evenodd;"
d="M 46.2530,60.9600
46.2608,60.9210
46.2829,60.8879
46.3160,60.8658
46.3550,60.8580
47.6250,60.8580
47.6640,60.8658
47.6971,60.8879
47.7192,60.9210
47.7270,60.9600
47.7270,64.7700
47.7192,64.8090
47.6971,64.8421
47.6640,64.8642
47.6250,64.8720
46.3550,64.8720
46.3160,64.8642
46.2829,64.8421
46.2608,64.8090
46.2530,64.7700
Z" /> 
<path style="fill:#000000; fill-opacity:1.0000; stroke:none;fill-rule:evenodd;"
d="M 31.0130,45.7200
31.0208,45.6810
31.0429,45.6479
31.0760,45.6258
31.1150,45.6180
32.3850,45.6180
32.4240,45.6258
32.4571,45.6479
32.4792,45.6810
32.4870,45.7200
32.4870,49.5300
32.4792,49.5690
32.4571,49.6021
32.4240,49.6242
32.3850,49.6320
31.1150,49.6320
31.0760,49.6242
31.0429,49.6021
31.0208,49.5690
31.0130,49.5300
Z" /> 
<path style="fill:#000000; fill-opacity:1.0000; stroke:none;fill-rule:evenodd;"
d="M 33.5530,43.4340
33.5608,43.3950
33.5829,43.3619
33.6160,43.3398
33.6550,43.3320
34.9250,43.3320
34.9640,43.3398
34.9971,43.3619
35.0192,43.3950
35.0270,43.4340
35.0270,47.2440
35.0192,47.2830
34.9971,47.3161
34.9640,47.3382
34.9250,47.3460
33.6550,47.3460
33.6160,47.3382
33.5829,47.3161
33.5608,47.2830
33.5530,47.2440
Z" /> 
<path style="fill:#000000; fill-opacity:1.0000; stroke:none;fill-rule:evenodd;"
d="M 36.0930,45.7200
36.1008,45.6810
36.1229,45.6479
36.1560,45.6258
36.1950,45.6180
37.4650,45.6180
37.5040,45.6258
37.5371,45.6479
37.5592,45.6810
37.5670,45.7200
37.5670,49.5300
37.5592,49.5690
37.5371,49.6021
37.5040,49.6242
37.4650,49.6320
36.1950,49.6320
36.1560,49.6242
36.1229,49.6021
36.1008,49.5690
36.0930,49.5300
Z" /> 
<path style="fill:#000000; fill-opacity:1.0000; stroke:none;fill-rule:evenodd;"
d="M 38.6330,43.4340
38.6408,43.3950
38.6629,43.3619
38.6960,43.3398
38.7350,43.3320
40.0050,43.3320
40.0440,43.3398
40.0771,43.3619
40.0992,43.3950
40.1070,43.4340
40.1070,47.2440
40.0992,47.2830
40.0771,47.3161
40.0440,47.3382
40.0050,47.3460
38.7350,47.3460
38.6960,47.3382
38.6629,47.3161
38.6408,47.2830
38.6330,47.2440
Z" /> 
<path style="fill:#000000; fill-opacity:1.0000; stroke:none;fill-rule:evenodd;"
d="M 41.1730,43.4340
41.1808,43.3950
41.2029,43.3619
41.2360,43.3398
41.2750,43.3320
42.5450,43.3320
42.5840,43.3398
42.6171,43.3619
42.6392,43.3950
42.6470,43.4340
42.6470,47.2440
42.6392,47.2830
42.6171,47.3161
42.5840,47.3382
42.5450,47.3460
41.2750,47.3460
41.2360,47.3382
41.2029,47.3161
41.1808,47.2830
41.1730,47.2440
Z" /> 
<path style="fill:#000000; fill-opacity:1.0000; stroke:none;fill-rule:evenodd;"
d="M 43.7130,45.7200
43.7208,45.6810
43.7429,45.6479
43.7760,45.6258
43.8150,45.6180
45.0850,45.6180
45.1240,45.6258
45.1571,45.6479
45.1792,45.6810
45.1870,45.7200
45.1870,49.5300
45.1792,49.5690
45.1571,49.6021
45.1240,49.6242
45.0850,49.6320
43.8150,49.6320
43.7760,49.6242
43.7429,49.6021
43.7208,49.5690
43.7130,49.5300
Z" /> 
<path style="fill:#000000; fill-opacity:1.0000; stroke:none;fill-rule:evenodd;"
d="M 46.2530,43.4340
46.2608,43.3950
46.2829,43.3619
46.3160,43.3398
46.3550,43.3320
47.6250,43.3320
47.6640,43.3398
47.6971,43.3619
47.7192,43.3950
47.7270,43.4340
47.7270,47.2440
47.7192,47.2830
47.6971,47.3161
47.6640,47.3382
47.6250,47.3460
46.3550,47.3460
46.3160,47.3382
46.2829,47.3161
46.2608,47.2830
46.2530,47.2440
Z" /> 
<path style="fill:#000000; fill-opacity:1.0000; stroke:none;fill-rule:evenodd;"
d="M 44.5936,57.4117
44.5859,57.4505
44.5639,57.4834
44.5310,57.5054
44.4922,57.5131
43.4188,57.5131
43.3800,57.5054
43.3471,57.4834
43.3251,57.4505
43.3174,57.4117
43.3174,56.9383
43.3251,56.8995
43.3471,56.8666
43.3800,56.8446
43.4188,56.8369
44.4922,56.8369
44.5310,56.8446
44.5639,56.8666
44.5859,56.8995
44.5936,56.9383
Z" /> 
<path style="fill:#000000; fill-opacity:1.0000; stroke:none;fill-rule:evenodd;"
d="M 44.5936,56.6117
44.5859,56.6505
44.5639,56.6834
44.5310,56.7054
44.4922,56.7131
43.4188,56.7131
43.3800,56.7054
43.3471,56.6834
43.3251,56.6505
43.3174,56.6117
43.3174,56.1383
43.3251,56.0995
43.3471,56.0666
43.3800,56.0446
43.4188,56.0369
44.4922,56.0369
44.5310,56.0446
44.5639,56.0666
44.5859,56.0995
44.5936,56.1383
Z" /> 
<path style="fill:#000000; fill-opacity:1.0000; stroke:none;fill-rule:evenodd;"
d="M 44.5936,55.3567
44.5893,55.3783
44.5771,55.3966
44.5588,55.4088
44.5372,55.4131
43.3738,55.4131
43.3522,55.4088
43.3339,55.3966
43.3217,55.3783
43.3174,55.3567
43.3174,55.0933
43.3217,55.0717
43.3339,55.0534
43.3522,55.0412
43.3738,55.0369
44.5372,55.0369
44.5588,55.0412
44.5771,55.0534
44.5893,55.0717
44.5936,55.0933
Z" /> 
<path style="fill:#000000; fill-opacity:1.0000; stroke:none;fill-rule:evenodd;"
d="M 44.5936,54.3567
44.5893,54.3783
44.5771,54.3966
44.5588,54.4088
44.5372,54.4131
43.3738,54.4131
43.3522,54.4088
43.3339,54.3966
43.3217,54.3783
43.3174,54.3567
43.3174,54.0933
43.3217,54.0717
43.3339,54.0534
43.3522,54.0412
43.3738,54.0369
44.5372,54.0369
44.5588,54.0412
44.5771,54.0534
44.5893,54.0717
44.5936,54.0933
Z" /> 
<path style="fill:#000000; fill-opacity:1.0000; stroke:none;fill-rule:evenodd;"
d="M 44.5936,53.8567
44.5893,53.8783
44.5771,53.8966
44.5588,53.9088
44.5372,53.9131
43.3738,53.9131
43.3522,53.9088
43.3339,53.8966
43.3217,53.8783
43.3174,53.8567
43.3174,53.5933
43.3217,53.5717
43.3339,53.5534
43.3522,53.5412
43.3738,53.5369
44.5372,53.5369
44.5588,53.5412
44.5771,53.5534
44.5893,53.5717
44.5936,53.5933
Z" /> 
<path style="fill:#000000; fill-opacity:1.0000; stroke:none;fill-rule:evenodd;"
d="M 44.5936,52.8567
44.5893,52.8783
44.5771,52.8966
44.5588,52.9088
44.5372,52.9131
43.3738,52.9131
43.3522,52.9088
43.3339,52.8966
43.3217,52.8783
43.3174,52.8567
43.3174,52.5933
43.3217,52.5717
43.3339,52.5534
43.3522,52.5412
43.3738,52.5369
44.5372,52.5369
44.5588,52.5412
44.5771,52.5534
44.5893,52.5717
44.5936,52.5933
Z" /> 
<path style="fill:#000000; fill-opacity:1.0000; stroke:none;fill-rule:evenodd;"
d="M 44.5936,51.0117
44.5859,51.0505
44.5639,51.0834
44.5310,51.1054
44.4922,51.1131
43.4188,51.1131
43.3800,51.1054
43.3471,51.0834
43.3251,51.0505
43.3174,51.0117
43.3174,50.5383
43.3251,50.4995
43.3471,50.4666
43.3800,50.4446
43.4188,50.4369
44.4922,50.4369
44.5310,50.4446
44.5639,50.4666
44.5859,50.4995
44.5936,50.5383
Z" /> 
<path style="fill:#000000; fill-opacity:1.0000; stroke:none;fill-rule:evenodd;"
d="M 44.5936,51.8117
44.5859,51.8505
44.5639,51.8834
44.5310,51.9054
44.4922,51.9131
43.4188,51.9131
43.3800,51.9054
43.3471,51.8834
43.3251,51.8505
43.3174,51.8117
43.3174,51.3383
43.3251,51.2995
43.3471,51.2666
43.3800,51.2446
43.4188,51.2369
44.4922,51.2369
44.5310,51.2446
44.5639,51.2666
44.5859,51.2995
44.5936,51.3383
Z" /> 
<path style="fill:#000000; fill-opacity:1.0000; stroke:none;fill-rule:evenodd;"
d="M 44.5936,52.3567
44.5893,52.3783
44.5771,52.3966
44.5588,52.4088
44.5372,52.4131
43.3738,52.4131
43.3522,52.4088
43.3339,52.3966
43.3217,52.3783
43.3174,52.3567
43.3174,52.0933
43.3217,52.0717
43.3339,52.0534
43.3522,52.0412
43.3738,52.0369
44.5372,52.0369
44.5588,52.0412
44.5771,52.0534
44.5893,52.0717
44.5936,52.0933
Z" /> 
<path style="fill:#000000; fill-opacity:1.0000; stroke:none;fill-rule:evenodd;"
d="M 44.5936,53.3567
44.5893,53.3783
44.5771,53.3966
44.5588,53.4088
44.5372,53.4131
43.3738,53.4131
43.3522,53.4088
43.3339,53.3966
43.3217,53.3783
43.3174,53.3567
43.3174,53.0933
43.3217,53.0717
43.3339,53.0534
43.3522,53.0412
43.3738,53.0369
44.5372,53.0369
44.5588,53.0412
44.5771,53.0534
44.5893,53.0717
44.5936,53.0933
Z" /> 
<path style="fill:#000000; fill-opacity:1.0000; stroke:none;fill-rule:evenodd;"
d="M 44.5936,54.8567
44.5893,54.8783
44.5771,54.8966
44.5588,54.9088
44.5372,54.9131
43.3738,54.9131
43.3522,54.9088
43.3339,54.8966
43.3217,54.8783
43.3174,54.8567
43.3174,54.5933
43.3217,54.5717
43.3339,54.5534
43.3522,54.5412
43.3738,54.5369
44.5372,54.5369
44.5588,54.5412
44.5771,54.5534
44.5893,54.5717
44.5936,54.5933
Z" /> 
<path style="fill:#000000; fill-opacity:1.0000; stroke:none;fill-rule:evenodd;"
d="M 44.5936,55.8567
44.5893,55.8783
44.5771,55.8966
44.5588,55.9088
44.5372,55.9131
43.3738,55.9131
43.3522,55.9088
43.3339,55.8966
43.3217,55.8783
43.3174,55.8567
43.3174,55.5933
43.3217,55.5717
43.3339,55.5534
43.3522,55.5412
43.3738,55.5369
44.5372,55.5369
44.5588,55.5412
44.5771,55.5534
44.5893,55.5717
44.5936,55.5933
Z" /> 
</g>
<g style="fill:none; 
stroke:#000000; stroke-width:0.9652; stroke-opacity:1; 
stroke-linecap:round; stroke-linejoin:round;">
<path d="M49.2000 58.2750
L48.3110 58.2750
" />
<path d="M49.2000 49.6750
L48.3110 49.6750
" />
</g>
<g style="fill:none; 
stroke:#000000; stroke-width:0.9906; stroke-opacity:1; 
stroke-linecap:round; stroke-linejoin:round;">
<path d="M45.0127 58.2750
L44.0983 58.2750
" />
<path d="M45.0127 49.6750
L44.0983 49.6750
" />
</g>
<g style="fill:none; 
stroke:#000000; stroke-width:1.5240; stroke-opacity:1; 
stroke-linecap:round; stroke-linejoin:round;">
<path d="M13.9540 5.8050
L13.9540 9.3610
" />
<path d="M16.4940 3.2650
L16.4940 6.8210
" />
<path d="M19.0340 5.8050
L19.0340 9.3610
" />
<path d="M21.5740 3.2650
L21.5740 6.8210
" />
<path style="fill:#000000; fill-opacity:1.0000; stroke:none;fill-rule:evenodd;"
d="M 46.5700,8.6400
46.5510,8.7357
46.4968,8.8168
46.4157,8.8710
46.3200,8.8900
45.1200,8.8900
45.0243,8.8710
44.9432,8.8168
44.8890,8.7357
44.8700,8.6400
44.8700,5.3300
44.8890,5.2343
44.9432,5.1532
45.0243,5.0990
45.1200,5.0800
46.3200,5.0800
46.4157,5.0990
46.4968,5.1532
46.5510,5.2343
46.5700,5.3300
Z" /> 
<path style="fill:#000000; fill-opacity:1.0000; stroke:none;fill-rule:evenodd;"
d="M 44.0700,8.6400
44.0510,8.7357
43.9968,8.8168
43.9157,8.8710
43.8200,8.8900
42.6200,8.8900
42.5243,8.8710
42.4432,8.8168
42.3890,8.7357
42.3700,8.6400
42.3700,5.3300
42.3890,5.2343
42.4432,5.1532
42.5243,5.0990
42.6200,5.0800
43.8200,5.0800
43.9157,5.0990
43.9968,5.1532
44.0510,5.2343
44.0700,5.3300
Z" /> 
<path style="fill:#000000; fill-opacity:1.0000; stroke:none;fill-rule:evenodd;"
d="M 12.2550,65.1000
12.2550,64.2500
14.6050,64.2500
14.6050,65.1000
Z" /> 
<path style="fill:#000000; fill-opacity:1.0000; stroke:none;fill-rule:evenodd;"
d="M 14.6050,67.1000
14.6050,66.2500
16.9550,66.2500
16.9550,67.1000
Z" /> 
<path style="fill:#000000; fill-opacity:1.0000; stroke:none;fill-rule:evenodd;"
d="M 12.2550,69.1000
12.2550,68.2500
14.6050,68.2500
14.6050,69.1000
Z" /> 
<path style="fill:#000000; fill-opacity:1.0000; stroke:none;fill-rule:evenodd;"
d="M 19.1450,65.1950
19.1450,64.3450
21.4950,64.3450
21.4950,65.1950
Z" /> 
<path style="fill:#000000; fill-opacity:1.0000; stroke:none;fill-rule:evenodd;"
d="M 21.4950,67.1950
21.4950,66.3450
23.8450,66.3450
23.8450,67.1950
Z" /> 
<path style="fill:#000000; fill-opacity:1.0000; stroke:none;fill-rule:evenodd;"
d="M 19.1450,69.1950
19.1450,68.3450
21.4950,68.3450
21.4950,69.1950
Z" /> 
<path style="fill:#000000; fill-opacity:1.0000; stroke:none;fill-rule:evenodd;"
d="M 3.0730,10.7950
3.0808,10.7560
3.1029,10.7229
3.1360,10.7008
3.1750,10.6930
6.9850,10.6930
7.0240,10.7008
7.0571,10.7229
7.0792,10.7560
7.0870,10.7950
7.0870,12.0650
7.0792,12.1040
7.0571,12.1371
7.0240,12.1592
6.9850,12.1670
3.1750,12.1670
3.1360,12.1592
3.1029,12.1371
3.0808,12.1040
3.0730,12.0650
Z" /> 
<path style="fill:#000000; fill-opacity:1.0000; stroke:none;fill-rule:evenodd;"
d="M 0.5330,13.3350
0.5408,13.2960
0.5629,13.2629
0.5960,13.2408
0.6350,13.2330
4.4450,13.2330
4.4840,13.2408
4.5171,13.2629
4.5392,13.2960
4.5470,13.3350
4.5470,14.6050
4.5392,14.6440
4.5171,14.6771
4.4840,14.6992
4.4450,14.7070
0.6350,14.7070
0.5960,14.6992
0.5629,14.6771
0.5408,14.6440
0.5330,14.6050
Z" /> 
<path style="fill:#000000; fill-opacity:1.0000; stroke:none;fill-rule:evenodd;"
d="M 3.0730,15.8750
3.0808,15.8360
3.1029,15.8029
3.1360,15.7808
3.1750,15.7730
6.9850,15.7730
7.0240,15.7808
7.0571,15.8029
7.0792,15.8360
7.0870,15.8750
7.0870,17.1450
7.0792,17.1840
7.0571,17.2171
7.0240,17.2392
6.9850,17.2470
3.1750,17.2470
3.1360,17.2392
3.1029,17.2171
3.0808,17.1840
3.0730,17.1450
Z" /> 
<path style="fill:#000000; fill-opacity:1.0000; stroke:none;fill-rule:evenodd;"
d="M 0.5330,18.4150
0.5408,18.3760
0.5629,18.3429
0.5960,18.3208
0.6350,18.3130
4.4450,18.3130
4.4840,18.3208
4.5171,18.3429
4.5392,18.3760
4.5470,18.4150
4.5470,19.6850
4.5392,19.7240
4.5171,19.7571
4.4840,19.7792
4.4450,19.7870
0.6350,19.7870
0.5960,19.7792
0.5629,19.7571
0.5408,19.7240
0.5330,19.6850
Z" /> 
<path style="fill:#000000; fill-opacity:1.0000; stroke:none;fill-rule:evenodd;"
d="M 3.0730,20.9550
3.0808,20.9160
3.1029,20.8829
3.1360,20.8608
3.1750,20.8530
6.9850,20.8530
7.0240,20.8608
7.0571,20.8829
7.0792,20.9160
7.0870,20.9550
7.0870,22.2250
7.0792,22.2640
7.0571,22.2971
7.0240,22.3192
6.9850,22.3270
3.1750,22.3270
3.1360,22.3192
3.1029,22.2971
3.0808,22.2640
3.0730,22.2250
Z" /> 
<path style="fill:#000000; fill-opacity:1.0000; stroke:none;fill-rule:evenodd;"
d="M 0.5330,23.4950
0.5408,23.4560
0.5629,23.4229
0.5960,23.4008
0.6350,23.3930
4.4450,23.3930
4.4840,23.4008
4.5171,23.4229
4.5392,23.4560
4.5470,23.4950
4.5470,24.7650
4.5392,24.8040
4.5171,24.8371
4.4840,24.8592
4.4450,24.8670
0.6350,24.8670
0.5960,24.8592
0.5629,24.8371
0.5408,24.8040
0.5330,24.7650
Z" /> 
<path style="fill:#000000; fill-opacity:1.0000; stroke:none;fill-rule:evenodd;"
d="M 3.0730,26.0350
3.0808,25.9960
3.1029,25.9629
3.1360,25.9408
3.1750,25.9330
6.9850,25.9330
7.0240,25.9408
7.0571,25.9629
7.0792,25.9960
7.0870,26.0350
7.0870,27.3050
7.0792,27.3440
7.0571,27.3771
7.0240,27.3992
6.9850,27.4070
3.1750,27.4070
3.1360,27.3992
3.1029,27.3771
3.0808,27.3440
3.0730,27.3050
Z" /> 
<path style="fill:#000000; fill-opacity:1.0000; stroke:none;fill-rule:evenodd;"
d="M 0.5330,28.5750
0.5408,28.5360
0.5629,28.5029
0.5960,28.4808
0.6350,28.4730
4.4450,28.4730
4.4840,28.4808
4.5171,28.5029
4.5392,28.5360
4.5470,28.5750
4.5470,29.8450
4.5392,29.8840
4.5171,29.9171
4.4840,29.9392
4.4450,29.9470
0.6350,29.9470
0.5960,29.9392
0.5629,29.9171
0.5408,29.8840
0.5330,29.8450
Z" /> 
<path style="fill:#000000; fill-opacity:1.0000; stroke:none;fill-rule:evenodd;"
d="M 3.0730,31.1150
3.0808,31.0760
3.1029,31.0429
3.1360,31.0208
3.1750,31.0130
6.9850,31.0130
7.0240,31.0208
7.0571,31.0429
7.0792,31.0760
7.0870,31.1150
7.0870,32.3850
7.0792,32.4240
7.0571,32.4571
7.0240,32.4792
6.9850,32.4870
3.1750,32.4870
3.1360,32.4792
3.1029,32.4571
3.0808,32.4240
3.0730,32.3850
Z" /> 
<path style="fill:#000000; fill-opacity:1.0000; stroke:none;fill-rule:evenodd;"
d="M 0.5330,33.6550
0.5408,33.6160
0.5629,33.5829
0.5960,33.5608
0.6350,33.5530
4.4450,33.5530
4.4840,33.5608
4.5171,33.5829
4.5392,33.6160
4.5470,33.6550
4.5470,34.9250
4.5392,34.9640
4.5171,34.9971
4.4840,35.0192
4.4450,35.0270
0.6350,35.0270
0.5960,35.0192
0.5629,34.9971
0.5408,34.9640
0.5330,34.9250
Z" /> 
<path style="fill:#000000; fill-opacity:1.0000; stroke:none;fill-rule:evenodd;"
d="M 3.0730,36.1950
3.0808,36.1560
3.1029,36.1229
3.1360,36.1008
3.1750,36.0930
6.9850,36.0930
7.0240,36.1008
7.0571,36.1229
7.0792,36.1560
7.0870,36.1950
7.0870,37.4650
7.0792,37.5040
7.0571,37.5371
7.0240,37.5592
6.9850,37.5670
3.1750,37.5670
3.1360,37.5592
3.1029,37.5371
3.0808,37.5040
3.0730,37.4650
Z" /> 
<path style="fill:#000000; fill-opacity:1.0000; stroke:none;fill-rule:evenodd;"
d="M 0.5330,38.7350
0.5408,38.6960
0.5629,38.6629
0.5960,38.6408
0.6350,38.6330
4.4450,38.6330
4.4840,38.6408
4.5171,38.6629
4.5392,38.6960
4.5470,38.7350
4.5470,40.0050
4.5392,40.0440
4.5171,40.0771
4.4840,40.0992
4.4450,40.1070
0.6350,40.1070
0.5960,40.0992
0.5629,40.0771
0.5408,40.0440
0.5330,40.0050
Z" /> 
<path style="fill:#000000; fill-opacity:1.0000; stroke:none;fill-rule:evenodd;"
d="M 3.0730,41.2750
3.0808,41.2360
3.1029,41.2029
3.1360,41.1808
3.1750,41.1730
6.9850,41.1730
7.0240,41.1808
7.0571,41.2029
7.0792,41.2360
7.0870,41.2750
7.0870,42.5450
7.0792,42.5840
7.0571,42.6171
7.0240,42.6392
6.9850,42.6470
3.1750,42.6470
3.1360,42.6392
3.1029,42.6171
3.0808,42.5840
3.0730,42.5450
Z" /> 
<path style="fill:#000000; fill-opacity:1.0000; stroke:none;fill-rule:evenodd;"
d="M 0.5330,43.8150
0.5408,43.7760
0.5629,43.7429
0.5960,43.7208
0.6350,43.7130
4.4450,43.7130
4.4840,43.7208
4.5171,43.7429
4.5392,43.7760
4.5470,43.8150
4.5470,45.0850
4.5392,45.1240
4.5171,45.1571
4.4840,45.1792
4.4450,45.1870
0.6350,45.1870
0.5960,45.1792
0.5629,45.1571
0.5408,45.1240
0.5330,45.0850
Z" /> 
<path style="fill:#000000; fill-opacity:1.0000; stroke:none;fill-rule:evenodd;"
d="M 3.0730,46.3550
3.0808,46.3160
3.1029,46.2829
3.1360,46.2608
3.1750,46.2530
6.9850,46.2530
7.0240,46.2608
7.0571,46.2829
7.0792,46.3160
7.0870,46.3550
7.0870,47.6250
7.0792,47.6640
7.0571,47.6971
7.0240,47.7192
6.9850,47.7270
3.1750,47.7270
3.1360,47.7192
3.1029,47.6971
3.0808,47.6640
3.0730,47.6250
Z" /> 
<path style="fill:#000000; fill-opacity:1.0000; stroke:none;fill-rule:evenodd;"
d="M 0.5330,48.8950
0.5408,48.8560
0.5629,48.8229
0.5960,48.8008
0.6350,48.7930
4.4450,48.7930
4.4840,48.8008
4.5171,48.8229
4.5392,48.8560
4.5470,48.8950
4.5470,50.1650
4.5392,50.2040
4.5171,50.2371
4.4840,50.2592
4.4450,50.2670
0.6350,50.2670
0.5960,50.2592
0.5629,50.2371
0.5408,50.2040
0.5330,50.1650
Z" /> 
<path style="fill:#000000; fill-opacity:1.0000; stroke:none;fill-rule:evenodd;"
d="M 3.0730,51.4350
3.0808,51.3960
3.1029,51.3629
3.1360,51.3408
3.1750,51.3330
6.9850,51.3330
7.0240,51.3408
7.0571,51.3629
7.0792,51.3960
7.0870,51.4350
7.0870,52.7050
7.0792,52.7440
7.0571,52.7771
7.0240,52.7992
6.9850,52.8070
3.1750,52.8070
3.1360,52.7992
3.1029,52.7771
3.0808,52.7440
3.0730,52.7050
Z" /> 
<path style="fill:#000000; fill-opacity:1.0000; stroke:none;fill-rule:evenodd;"
d="M 0.5330,53.9750
0.5408,53.9360
0.5629,53.9029
0.5960,53.8808
0.6350,53.8730
4.4450,53.8730
4.4840,53.8808
4.5171,53.9029
4.5392,53.9360
4.5470,53.9750
4.5470,55.2450
4.5392,55.2840
4.5171,55.3171
4.4840,55.3392
4.4450,55.3470
0.6350,55.3470
0.5960,55.3392
0.5629,55.3171
0.5408,55.2840
0.5330,55.2450
Z" /> 
<path style="fill:#000000; fill-opacity:1.0000; stroke:none;fill-rule:evenodd;"
d="M 3.0730,56.5150
3.0808,56.4760
3.1029,56.4429
3.1360,56.4208
3.1750,56.4130
6.9850,56.4130
7.0240,56.4208
7.0571,56.4429
7.0792,56.4760
7.0870,56.5150
7.0870,57.7850
7.0792,57.8240
7.0571,57.8571
7.0240,57.8792
6.9850,57.8870
3.1750,57.8870
3.1360,57.8792
3.1029,57.8571
3.0808,57.8240
3.0730,57.7850
Z" /> 
<path style="fill:#000000; fill-opacity:1.0000; stroke:none;fill-rule:evenodd;"
d="M 25.9330,10.7950
25.9408,10.7560
25.9629,10.7229
25.9960,10.7008
26.0350,10.6930
29.8450,10.6930
29.8840,10.7008
29.9171,10.7229
29.9392,10.7560
29.9470,10.7950
29.9470,12.0650
29.9392,12.1040
29.9171,12.1371
29.8840,12.1592
29.8450,12.1670
26.0350,12.1670
25.9960,12.1592
25.9629,12.1371
25.9408,12.1040
25.9330,12.0650
Z" /> 
<path style="fill:#000000; fill-opacity:1.0000; stroke:none;fill-rule:evenodd;"
d="M 23.3930,13.3350
23.4008,13.2960
23.4229,13.2629
23.4560,13.2408
23.4950,13.2330
27.3050,13.2330
27.3440,13.2408
27.3771,13.2629
27.3992,13.2960
27.4070,13.3350
27.4070,14.6050
27.3992,14.6440
27.3771,14.6771
27.3440,14.6992
27.3050,14.7070
23.4950,14.7070
23.4560,14.6992
23.4229,14.6771
23.4008,14.6440
23.3930,14.6050
Z" /> 
<path style="fill:#000000; fill-opacity:1.0000; stroke:none;fill-rule:evenodd;"
d="M 25.9330,15.8750
25.9408,15.8360
25.9629,15.8029
25.9960,15.7808
26.0350,15.7730
29.8450,15.7730
29.8840,15.7808
29.9171,15.8029
29.9392,15.8360
29.9470,15.8750
29.9470,17.1450
29.9392,17.1840
29.9171,17.2171
29.8840,17.2392
29.8450,17.2470
26.0350,17.2470
25.9960,17.2392
25.9629,17.2171
25.9408,17.1840
25.9330,17.1450
Z" /> 
<path style="fill:#000000; fill-opacity:1.0000; stroke:none;fill-rule:evenodd;"
d="M 23.3930,18.4150
23.4008,18.3760
23.4229,18.3429
23.4560,18.3208
23.4950,18.3130
27.3050,18.3130
27.3440,18.3208
27.3771,18.3429
27.3992,18.3760
27.4070,18.4150
27.4070,19.6850
27.3992,19.7240
27.3771,19.7571
27.3440,19.7792
27.3050,19.7870
23.4950,19.7870
23.4560,19.7792
23.4229,19.7571
23.4008,19.7240
23.3930,19.6850
Z" /> 
<path style="fill:#000000; fill-opacity:1.0000; stroke:none;fill-rule:evenodd;"
d="M 25.9330,20.9550
25.9408,20.9160
25.9629,20.8829
25.9960,20.8608
26.0350,20.8530
29.8450,20.8530
29.8840,20.8608
29.9171,20.8829
29.9392,20.9160
29.9470,20.9550
29.9470,22.2250
29.9392,22.2640
29.9171,22.2971
29.8840,22.3192
29.8450,22.3270
26.0350,22.3270
25.9960,22.3192
25.9629,22.2971
25.9408,22.2640
25.9330,22.2250
Z" /> 
<path style="fill:#000000; fill-opacity:1.0000; stroke:none;fill-rule:evenodd;"
d="M 23.3930,23.4950
23.4008,23.4560
23.4229,23.4229
23.4560,23.4008
23.4950,23.3930
27.3050,23.3930
27.3440,23.4008
27.3771,23.4229
27.3992,23.4560
27.4070,23.4950
27.4070,24.7650
27.3992,24.8040
27.3771,24.8371
27.3440,24.8592
27.3050,24.8670
23.4950,24.8670
23.4560,24.8592
23.4229,24.8371
23.4008,24.8040
23.3930,24.7650
Z" /> 
<path style="fill:#000000; fill-opacity:1.0000; stroke:none;fill-rule:evenodd;"
d="M 25.9330,26.0350
25.9408,25.9960
25.9629,25.9629
25.9960,25.9408
26.0350,25.9330
29.8450,25.9330
29.8840,25.9408
29.9171,25.9629
29.9392,25.9960
29.9470,26.0350
29.9470,27.3050
29.9392,27.3440
29.9171,27.3771
29.8840,27.3992
29.8450,27.4070
26.0350,27.4070
25.9960,27.3992
25.9629,27.3771
25.9408,27.3440
25.9330,27.3050
Z" /> 
<path style="fill:#000000; fill-opacity:1.0000; stroke:none;fill-rule:evenodd;"
d="M 23.3930,28.5750
23.4008,28.5360
23.4229,28.5029
23.4560,28.4808
23.4950,28.4730
27.3050,28.4730
27.3440,28.4808
27.3771,28.5029
27.3992,28.5360
27.4070,28.5750
27.4070,29.8450
27.3992,29.8840
27.3771,29.9171
27.3440,29.9392
27.3050,29.9470
23.4950,29.9470
23.4560,29.9392
23.4229,29.9171
23.4008,29.8840
23.3930,29.8450
Z" /> 
<path style="fill:#000000; fill-opacity:1.0000; stroke:none;fill-rule:evenodd;"
d="M 25.9330,31.2420
25.9408,31.2030
25.9629,31.1699
25.9960,31.1478
26.0350,31.1400
29.8450,31.1400
29.8840,31.1478
29.9171,31.1699
29.9392,31.2030
29.9470,31.2420
29.9470,32.2580
29.9392,32.2970
29.9171,32.3301
29.8840,32.3522
29.8450,32.3600
26.0350,32.3600
25.9960,32.3522
25.9629,32.3301
25.9408,32.2970
25.9330,32.2580
Z" /> 
<path style="fill:#000000; fill-opacity:1.0000; stroke:none;fill-rule:evenodd;"
d="M 23.3930,33.7820
23.4008,33.7430
23.4229,33.7099
23.4560,33.6878
23.4950,33.6800
27.3050,33.6800
27.3440,33.6878
27.3771,33.7099
27.3992,33.7430
27.4070,33.7820
27.4070,34.7980
27.3992,34.8370
27.3771,34.8701
27.3440,34.8922
27.3050,34.9000
23.4950,34.9000
23.4560,34.8922
23.4229,34.8701
23.4008,34.8370
23.3930,34.7980
Z" /> 
<path style="fill:#000000; fill-opacity:1.0000; stroke:none;fill-rule:evenodd;"
d="M 25.9330,36.1950
25.9408,36.1560
25.9629,36.1229
25.9960,36.1008
26.0350,36.0930
29.8450,36.0930
29.8840,36.1008
29.9171,36.1229
29.9392,36.1560
29.9470,36.1950
29.9470,37.4650
29.9392,37.5040
29.9171,37.5371
29.8840,37.5592
29.8450,37.5670
26.0350,37.5670
25.9960,37.5592
25.9629,37.5371
25.9408,37.5040
25.9330,37.4650
Z" /> 
<path style="fill:#000000; fill-opacity:1.0000; stroke:none;fill-rule:evenodd;"
d="M 23.3930,38.7350
23.4008,38.6960
23.4229,38.6629
23.4560,38.6408
23.4950,38.6330
27.3050,38.6330
27.3440,38.6408
27.3771,38.6629
27.3992,38.6960
27.4070,38.7350
27.4070,40.0050
27.3992,40.0440
27.3771,40.0771
27.3440,40.0992
27.3050,40.1070
23.4950,40.1070
23.4560,40.0992
23.4229,40.0771
23.4008,40.0440
23.3930,40.0050
Z" /> 
<path style="fill:#000000; fill-opacity:1.0000; stroke:none;fill-rule:evenodd;"
d="M 25.9330,41.2750
25.9408,41.2360
25.9629,41.2029
25.9960,41.1808
26.0350,41.1730
29.8450,41.1730
29.8840,41.1808
29.9171,41.2029
29.9392,41.2360
29.9470,41.2750
29.9470,42.5450
29.9392,42.5840
29.9171,42.6171
29.8840,42.6392
29.8450,42.6470
26.0350,42.6470
25.9960,42.6392
25.9629,42.6171
25.9408,42.5840
25.9330,42.5450
Z" /> 
<path style="fill:#000000; fill-opacity:1.0000; stroke:none;fill-rule:evenodd;"
d="M 23.3930,43.8150
23.4008,43.7760
23.4229,43.7429
23.4560,43.7208
23.4950,43.7130
27.3050,43.7130
27.3440,43.7208
27.3771,43.7429
27.3992,43.7760
27.4070,43.8150
27.4070,45.0850
27.3992,45.1240
27.3771,45.1571
27.3440,45.1792
27.3050,45.1870
23.4950,45.1870
23.4560,45.1792
23.4229,45.1571
23.4008,45.1240
23.3930,45.0850
Z" /> 
<path style="fill:#000000; fill-opacity:1.0000; stroke:none;fill-rule:evenodd;"
d="M 25.9330,46.3550
25.9408,46.3160
25.9629,46.2829
25.9960,46.2608
26.0350,46.2530
29.8450,46.2530
29.8840,46.2608
29.9171,46.2829
29.9392,46.3160
29.9470,46.3550
29.9470,47.6250
29.9392,47.6640
29.9171,47.6971
29.8840,47.7192
29.8450,47.7270
26.0350,47.7270
25.9960,47.7192
25.9629,47.6971
25.9408,47.6640
25.9330,47.6250
Z" /> 
<path style="fill:#000000; fill-opacity:1.0000; stroke:none;fill-rule:evenodd;"
d="M 23.3930,48.8950
23.4008,48.8560
23.4229,48.8229
23.4560,48.8008
23.4950,48.7930
27.3050,48.7930
27.3440,48.8008
27.3771,48.8229
27.3992,48.8560
27.4070,48.8950
27.4070,50.1650
27.3992,50.2040
27.3771,50.2371
27.3440,50.2592
27.3050,50.2670
23.4950,50.2670
23.4560,50.2592
23.4229,50.2371
23.4008,50.2040
23.3930,50.1650
Z" /> 
<path style="fill:#000000; fill-opacity:1.0000; stroke:none;fill-rule:evenodd;"
d="M 25.9330,51.4350
25.9408,51.3960
25.9629,51.3629
25.9960,51.3408
26.0350,51.3330
29.8450,51.3330
29.8840,51.3408
29.9171,51.3629
29.9392,51.3960
29.9470,51.4350
29.9470,52.7050
29.9392,52.7440
29.9171,52.7771
29.8840,52.7992
29.8450,52.8070
26.0350,52.8070
25.9960,52.7992
25.9629,52.7771
25.9408,52.7440
25.9330,52.7050
Z" /> 
<path style="fill:#000000; fill-opacity:1.0000; stroke:none;fill-rule:evenodd;"
d="M 23.3930,53.9750
23.4008,53.9360
23.4229,53.9029
23.4560,53.8808
23.4950,53.8730
27.3050,53.8730
27.3440,53.8808
27.3771,53.9029
27.3992,53.9360
27.4070,53.9750
27.4070,55.2450
27.3992,55.2840
27.3771,55.3171
27.3440,55.3392
27.3050,55.3470
23.4950,55.3470
23.4560,55.3392
23.4229,55.3171
23.4008,55.2840
23.3930,55.2450
Z" /> 
<path style="fill:#000000; fill-opacity:1.0000; stroke:none;fill-rule:evenodd;"
d="M 25.9330,56.5150
25.9408,56.4760
25.9629,56.4429
25.9960,56.4208
26.0350,56.4130
29.8450,56.4130
29.8840,56.4208
29.9171,56.4429
29.9392,56.4760
29.9470,56.5150
29.9470,57.7850
29.9392,57.8240
29.9171,57.8571
29.8840,57.8792
29.8450,57.8870
26.0350,57.8870
25.9960,57.8792
25.9629,57.8571
25.9408,57.8240
25.9330,57.7850
Z" /> 
</g>
<g style="fill:none; 
stroke:#000000; stroke-width:1.7000; stroke-opacity:1; 
stroke-linecap:round; stroke-linejoin:round;">
<path d="M42.2884 26.6299
L38.9084 26.6299
" />
<path d="M39.7484 29.1299
L36.3684 29.1299
" />
<path d="M42.2884 31.6299
L38.9084 31.6299
" />
<path d="M39.7484 34.1299
L36.3684 34.1299
" />
<path d="M42.2884 36.6299
L38.9084 36.6299
" />
<path d="M39.7484 39.1299
L36.3684 39.1299
" />
</g>
<g style="fill:none; 
stroke:#000000; stroke-width:0.0500; stroke-opacity:1; 
stroke-linecap:round; stroke-linejoin:round;">
<circle cx="1.8130" cy="1.9050" r="1.1780" /> 
<circle cx="2.5400" cy="68.5800" r="1.1780" /> 
<path style="fill:none; 
stroke:#000000; stroke-width:0.0500; stroke-opacity:1; 
stroke-linecap:round; stroke-linejoin:round;fill:none"
d="M 0.0000,0.0000
50.1650,0.0000
50.1650,70.4850
0.0000,70.4850
Z" /> 
<circle cx="48.2600" cy="68.5800" r="1.1780" /> 
<circle cx="48.2600" cy="1.9050" r="1.1780" /> 
</g>
<g style="fill:#FFFFFF; fill-opacity:1.0000; stroke:none;">
<circle cx="45.1055" cy="51.0850" r="0.3000" /> 
</g>
<g style="fill:#FFFFFF; fill-opacity:1.0000; stroke:none;">
<circle cx="45.1055" cy="56.8650" r="0.3000" /> 
</g>
<g style="fill:#FFFFFF; fill-opacity:1.0000; stroke:none;">
<circle cx="48.7555" cy="58.2750" r="0.2540" /> 
</g>
<g style="fill:#FFFFFF; fill-opacity:1.0000; stroke:none;">
<circle cx="48.7555" cy="49.6750" r="0.2540" /> 
</g>
<g style="fill:#FFFFFF; fill-opacity:1.0000; stroke:none;">
<circle cx="44.5555" cy="58.2750" r="0.2540" /> 
</g>
<g style="fill:#FFFFFF; fill-opacity:1.0000; stroke:none;">
<circle cx="44.5555" cy="49.6750" r="0.2540" /> 
</g>
<g style="fill:#FFFFFF; fill-opacity:1.0000; stroke:none;">
<circle cx="45.7200" cy="6.9850" r="0.5000" /> 
</g>
<g style="fill:#FFFFFF; fill-opacity:1.0000; stroke:none;">
<circle cx="43.2200" cy="6.9850" r="0.5000" /> 
</g> 
</svg>
