  0
SECTION
  2
HEADER
  9
$ANGBASE
  50
0.0
  9
$ANGDIR
  70
1
  9
$MEASUREMENT
  70
1
  0
ENDSEC
  0
SECTION
  2
TABLES
  0
TABLE
  2
LTYPE
  70
4
  0
LTYPE
  5
40F
  2
CONTINUOUS
  70
0
  3
Solid line
  72
65
  73
0
  40
0.0
  0
LTYPE
  5
410
  2
DASHDOT
 70
0
  3
Dash Dot ____ _ ____ _
 72
65
 73
4
 40
2.0
 49
1.25
 49
-0.25
 49
0.25
 49
-0.25
  0
LTYPE
  5
411
  2
DASHED
 70
0
  3
Dashed __ __ __ __ __
 72
65
 73
2
 40
0.75
 49
0.5
 49
-0.25
  0
LTYPE
  5
43B
  2
DOTTED
 70
0
  3
Dotted .  .  .  .
 72
65
 73
2
 40
0.2
 49
0.0
 49
-0.2
  0
ENDTAB
  0
TABLE
  2
STYLE
  70
4
  0
STYLE
  2
KICAD
  70
0
  40
0
  41
1
  42
1
  50
0
  71
0
  3
isocp.shx
  0
STYLE
  2
KICADB
  70
0
  40
0
  41
1
  42
1
  50
0
  71
0
  3
isocp.shx
  0
STYLE
  2
KICADI
  70
0
  40
0
  41
1
  42
1
  50
15
  71
0
  3
isocp.shx
  0
STYLE
  2
KICADBI
  70
0
  40
0
  41
1
  42
1
  50
15
  71
0
  3
isocp.shx
  0
ENDTAB
  0
TABLE
  2
LAYER
  70
35
  0
LAYER
  2
BLACK
  70
0
  62
7
  6
CONTINUOUS
  0
LAYER
  2
GRAY1
  70
0
  62
251
  6
CONTINUOUS
  0
LAYER
  2
GRAY2
  70
0
  62
8
  6
CONTINUOUS
  0
LAYER
  2
GRAY3
  70
0
  62
9
  6
CONTINUOUS
  0
LAYER
  2
WHITE
  70
0
  62
7
  6
CONTINUOUS
  0
LAYER
  2
LYELLOW
  70
0
  62
51
  6
CONTINUOUS
  0
LAYER
  2
LORANGE
  70
0
  62
41
  6
CONTINUOUS
  0
LAYER
  2
BLUE1
  70
0
  62
178
  6
CONTINUOUS
  0
LAYER
  2
GREEN1
  70
0
  62
98
  6
CONTINUOUS
  0
LAYER
  2
CYAN1
  70
0
  62
138
  6
CONTINUOUS
  0
LAYER
  2
RED1
  70
0
  62
18
  6
CONTINUOUS
  0
LAYER
  2
MAGENTA1
  70
0
  62
228
  6
CONTINUOUS
  0
LAYER
  2
BROWN1
  70
0
  62
58
  6
CONTINUOUS
  0
LAYER
  2
ORANGE1
  70
0
  62
34
  6
CONTINUOUS
  0
LAYER
  2
BLUE2
  70
0
  62
5
  6
CONTINUOUS
  0
LAYER
  2
GREEN2
  70
0
  62
3
  6
CONTINUOUS
  0
LAYER
  2
CYAN2
  70
0
  62
4
  6
CONTINUOUS
  0
LAYER
  2
RED2
  70
0
  62
1
  6
CONTINUOUS
  0
LAYER
  2
MAGENTA2
  70
0
  62
6
  6
CONTINUOUS
  0
LAYER
  2
BROWN2
  70
0
  62
54
  6
CONTINUOUS
  0
LAYER
  2
ORANGE2
  70
0
  62
42
  6
CONTINUOUS
  0
LAYER
  2
BLUE3
  70
0
  62
171
  6
CONTINUOUS
  0
LAYER
  2
GREEN3
  70
0
  62
91
  6
CONTINUOUS
  0
LAYER
  2
CYAN3
  70
0
  62
131
  6
CONTINUOUS
  0
LAYER
  2
RED3
  70
0
  62
11
  6
CONTINUOUS
  0
LAYER
  2
MAGENTA3
  70
0
  62
221
  6
CONTINUOUS
  0
LAYER
  2
YELLOW3
  70
0
  62
2
  6
CONTINUOUS
  0
LAYER
  2
ORANGE3
  70
0
  62
32
  6
CONTINUOUS
  0
LAYER
  2
BLUE4
  70
0
  62
5
  6
CONTINUOUS
  0
LAYER
  2
GREEN4
  70
0
  62
3
  6
CONTINUOUS
  0
LAYER
  2
CYAN4
  70
0
  62
4
  6
CONTINUOUS
  0
LAYER
  2
RED4
  70
0
  62
1
  6
CONTINUOUS
  0
LAYER
  2
MAGENTA4
  70
0
  62
6
  6
CONTINUOUS
  0
LAYER
  2
YELLOW4
  70
0
  62
2
  6
CONTINUOUS
  0
LAYER
  2
ORANGE4
  70
0
  62
40
  6
CONTINUOUS
  0
ENDTAB
  0
ENDSEC
  0
SECTION
  2
ENTITIES
0
LINE
8
GRAY3
6
CONTINUOUS
10
8.5566659999999999
20
-8.9798189999999991
11
8.5566659999999999
21
-9.6941039999999994
0
LINE
8
GRAY3
6
CONTINUOUS
10
8.5566659999999999
20
-9.6941039999999994
11
8.5090469999999989
21
-9.8369609999999987
0
LINE
8
GRAY3
6
CONTINUOUS
10
8.5090469999999989
20
-9.8369609999999987
11
8.4138089999999988
21
-9.9321999999999999
0
LINE
8
GRAY3
6
CONTINUOUS
10
8.4138089999999988
20
-9.9321999999999999
11
8.2709519999999994
21
-9.9798189999999991
0
LINE
8
GRAY3
6
CONTINUOUS
10
8.2709519999999994
20
-9.9798189999999991
11
8.1757139999999993
21
-9.9798189999999991
0
LINE
8
GRAY3
6
CONTINUOUS
10
8.9852379999999989
20
-9.0750569999999993
11
9.0328569999999999
21
-9.0274380000000001
0
LINE
8
GRAY3
6
CONTINUOUS
10
9.0328569999999999
20
-9.0274380000000001
11
9.1280950000000001
21
-8.9798189999999991
0
LINE
8
GRAY3
6
CONTINUOUS
10
9.1280950000000001
20
-8.9798189999999991
11
9.3661899999999996
21
-8.9798189999999991
0
LINE
8
GRAY3
6
CONTINUOUS
10
9.3661899999999996
20
-8.9798189999999991
11
9.4614279999999997
21
-9.0274380000000001
0
LINE
8
GRAY3
6
CONTINUOUS
10
9.4614279999999997
20
-9.0274380000000001
11
9.5090469999999989
21
-9.0750569999999993
0
LINE
8
GRAY3
6
CONTINUOUS
10
9.5090469999999989
20
-9.0750569999999993
11
9.5566659999999999
21
-9.1702949999999994
0
LINE
8
GRAY3
6
CONTINUOUS
10
9.5566659999999999
20
-9.1702949999999994
11
9.5566659999999999
21
-9.2655329999999996
0
LINE
8
GRAY3
6
CONTINUOUS
10
9.5566659999999999
20
-9.2655329999999996
11
9.5090469999999989
21
-9.4083899999999989
0
LINE
8
GRAY3
6
CONTINUOUS
10
9.5090469999999989
20
-9.4083899999999989
11
8.9376189999999998
21
-9.9798189999999991
0
LINE
8
GRAY3
6
CONTINUOUS
10
8.9376189999999998
20
-9.9798189999999991
11
9.5566659999999999
21
-9.9798189999999991
0
LINE
8
GRAY3
6
CONTINUOUS
10
8.5566659999999999
20
-1.3598189999999999
11
8.5566659999999999
21
-2.0741039999999997
0
LINE
8
GRAY3
6
CONTINUOUS
10
8.5566659999999999
20
-2.0741039999999997
11
8.5090469999999989
21
-2.216961
0
LINE
8
GRAY3
6
CONTINUOUS
10
8.5090469999999989
20
-2.216961
11
8.4138089999999988
21
-2.3121999999999998
0
LINE
8
GRAY3
6
CONTINUOUS
10
8.4138089999999988
20
-2.3121999999999998
11
8.2709519999999994
21
-2.3598189999999999
0
LINE
8
GRAY3
6
CONTINUOUS
10
8.2709519999999994
20
-2.3598189999999999
11
8.1757139999999993
21
-2.3598189999999999
0
LINE
8
GRAY3
6
CONTINUOUS
10
8.9376189999999998
20
-1.3598189999999999
11
9.5566659999999999
21
-1.3598189999999999
0
LINE
8
GRAY3
6
CONTINUOUS
10
9.5566659999999999
20
-1.3598189999999999
11
9.2233330000000002
21
-1.7407709999999998
0
LINE
8
GRAY3
6
CONTINUOUS
10
9.2233330000000002
20
-1.7407709999999998
11
9.3661899999999996
21
-1.7407709999999998
0
LINE
8
GRAY3
6
CONTINUOUS
10
9.3661899999999996
20
-1.7407709999999998
11
9.4614279999999997
21
-1.7883899999999999
0
LINE
8
GRAY3
6
CONTINUOUS
10
9.4614279999999997
20
-1.7883899999999999
11
9.5090469999999989
21
-1.836009
0
LINE
8
GRAY3
6
CONTINUOUS
10
9.5090469999999989
20
-1.836009
11
9.5566659999999999
21
-1.9312469999999999
0
LINE
8
GRAY3
6
CONTINUOUS
10
9.5566659999999999
20
-1.9312469999999999
11
9.5566659999999999
21
-2.1693419999999999
0
LINE
8
GRAY3
6
CONTINUOUS
10
9.5566659999999999
20
-2.1693419999999999
11
9.5090469999999989
21
-2.26458
0
LINE
8
GRAY3
6
CONTINUOUS
10
9.5090469999999989
20
-2.26458
11
9.4614279999999997
21
-2.3121999999999998
0
LINE
8
GRAY3
6
CONTINUOUS
10
9.4614279999999997
20
-2.3121999999999998
11
9.3661899999999996
21
-2.3598189999999999
0
LINE
8
GRAY3
6
CONTINUOUS
10
9.3661899999999996
20
-2.3598189999999999
11
9.0804759999999991
21
-2.3598189999999999
0
LINE
8
GRAY3
6
CONTINUOUS
10
9.0804759999999991
20
-2.3598189999999999
11
8.9852379999999989
21
-2.3121999999999998
0
LINE
8
GRAY3
6
CONTINUOUS
10
8.9852379999999989
20
-2.3121999999999998
11
8.9376189999999998
21
-2.26458
0
LINE
8
GRAY3
6
CONTINUOUS
10
6.439819
20
-30.8333329999999997
11
7.1541039999999994
21
-30.8333329999999997
0
LINE
8
GRAY3
6
CONTINUOUS
10
7.1541039999999994
20
-30.8333329999999997
11
7.2969609999999996
21
-30.8809519999999971
0
LINE
8
GRAY3
6
CONTINUOUS
10
7.2969609999999996
20
-30.8809519999999971
11
7.3921999999999999
21
-30.976189999999999
0
LINE
8
GRAY3
6
CONTINUOUS
10
7.3921999999999999
20
-30.976189999999999
11
7.439819
21
-31.1190469999999983
0
LINE
8
GRAY3
6
CONTINUOUS
10
7.439819
20
-31.1190469999999983
11
7.439819
21
-31.2142850000000003
0
LINE
8
GRAY3
6
CONTINUOUS
10
7.439819
20
-29.8333329999999997
11
7.439819
21
-30.404760999999997
0
LINE
8
GRAY3
6
CONTINUOUS
10
7.439819
20
-30.1190469999999983
11
6.439819
21
-30.1190469999999983
0
LINE
8
GRAY3
6
CONTINUOUS
10
6.439819
20
-30.1190469999999983
11
6.5826759999999993
21
-30.2142850000000003
0
LINE
8
GRAY3
6
CONTINUOUS
10
6.5826759999999993
20
-30.2142850000000003
11
6.6779139999999995
21
-30.3095229999999987
0
LINE
8
GRAY3
6
CONTINUOUS
10
6.6779139999999995
20
-30.3095229999999987
11
6.7255329999999995
21
-30.404760999999997
0
LINE
8
GRAY3
6
CONTINUOUS
10
7.6199999999999992
20
-8.254999999999999
11
9.5250000000000004
21
-8.254999999999999
0
LINE
8
GRAY3
6
CONTINUOUS
10
7.6199999999999992
20
-10.7949999999999999
11
7.6199999999999992
21
-8.254999999999999
0
LINE
8
GRAY3
6
CONTINUOUS
10
9.5250000000000004
20
-8.254999999999999
11
10.1600000000000001
21
-8.8899999999999988
0
LINE
8
GRAY3
6
CONTINUOUS
10
10.1600000000000001
20
-8.8899999999999988
11
10.1600000000000001
21
-10.7949999999999999
0
LINE
8
GRAY3
6
CONTINUOUS
10
10.1600000000000001
20
-10.7949999999999999
11
7.6199999999999992
21
-10.7949999999999999
0
LINE
8
GRAY3
6
CONTINUOUS
10
7.6199999999999992
20
-0.635
11
10.1600000000000001
21
-0.635
0
LINE
8
GRAY3
6
CONTINUOUS
10
7.6199999999999992
20
-2.54
11
7.6199999999999992
21
-0.635
0
LINE
8
GRAY3
6
CONTINUOUS
10
8.254999999999999
20
-3.1749999999999998
11
7.6199999999999992
21
-2.54
0
LINE
8
GRAY3
6
CONTINUOUS
10
10.1600000000000001
20
-0.635
11
10.1600000000000001
21
-3.1749999999999998
0
LINE
8
GRAY3
6
CONTINUOUS
10
10.1600000000000001
20
-3.1749999999999998
11
8.254999999999999
21
-3.1749999999999998
0
LINE
8
GRAY3
6
CONTINUOUS
10
5.6475
20
-32.3836049999999958
11
6.1475
21
-32.3836049999999958
0
LINE
8
GRAY3
6
CONTINUOUS
10
5.8975
20
-32.6336049999999958
11
5.8975
21
-32.1336049999999958
0
CIRCLE
8
GRAY3
10
6.9849999999999994
20
-30.5
40
2.5
0
CIRCLE
8
BLACK
10
8.8899999999999988
20
-9.5250000000000004
40
0.0127
0
CIRCLE
8
BLACK
10
8.8899999999999988
20
-1.9049999999999998
40
0.0127
0
CIRCLE
8
BLACK
10
6.9849999999999994
20
-31.75
40
0.4
0
CIRCLE
8
BLACK
10
6.9849999999999994
20
-29.25
40
0.4
0
CIRCLE
8
BLACK
10
1.3574999999999999
20
-3.8099999999999996
40
0.5
0
CIRCLE
8
BLACK
10
1.3574999999999999
20
-6.3499999999999996
40
0.254
0
CIRCLE
8
BLACK
10
1.3574999999999999
20
-8.8899999999999988
40
0.254
0
CIRCLE
8
BLACK
10
1.3574999999999999
20
-11.4299999999999997
40
0.254
0
CIRCLE
8
BLACK
10
1.3574999999999999
20
-13.9699999999999989
40
0.254
0
CIRCLE
8
BLACK
10
1.3574999999999999
20
-16.509999999999998
40
0.254
0
CIRCLE
8
BLACK
10
1.3574999999999999
20
-19.0500000000000007
40
0.254
0
CIRCLE
8
BLACK
10
1.3574999999999999
20
-21.5899999999999999
40
0.254
0
CIRCLE
8
BLACK
10
1.3574999999999999
20
-24.129999999999999
40
0.254
0
CIRCLE
8
BLACK
10
1.3574999999999999
20
-26.6699999999999982
40
0.5
0
CIRCLE
8
BLACK
10
1.3574999999999999
20
-29.2099999999999973
40
0.254
0
CIRCLE
8
BLACK
10
1.3574999999999999
20
-31.75
40
0.254
0
CIRCLE
8
BLACK
10
16.5975000000000001
20
-3.8099999999999996
40
0.254
0
CIRCLE
8
BLACK
10
16.5975000000000001
20
-6.3499999999999996
40
0.254
0
CIRCLE
8
BLACK
10
16.5975000000000001
20
-8.8899999999999988
40
0.254
0
CIRCLE
8
BLACK
10
16.5975000000000001
20
-11.4299999999999997
40
0.254
0
CIRCLE
8
BLACK
10
16.5975000000000001
20
-13.9699999999999989
40
0.254
0
CIRCLE
8
BLACK
10
16.5975000000000001
20
-16.509999999999998
40
0.254
0
CIRCLE
8
BLACK
10
16.5975000000000001
20
-19.0500000000000007
40
0.254
0
CIRCLE
8
BLACK
10
16.5975000000000001
20
-21.5899999999999999
40
0.254
0
CIRCLE
8
BLACK
10
16.5975000000000001
20
-24.129999999999999
40
0.254
0
CIRCLE
8
BLACK
10
16.5975000000000001
20
-26.6699999999999982
40
0.254
0
CIRCLE
8
BLACK
10
16.5975000000000001
20
-29.2099999999999973
40
0.254
0
CIRCLE
8
BLACK
10
16.5975000000000001
20
-31.75
40
0.254
0
CIRCLE
8
BLACK
10
3.8975
20
-26.6699999999999982
40
0.5
0
CIRCLE
8
BLACK
10
6.4375
20
-26.6699999999999982
40
0.5
0
CIRCLE
8
BLACK
10
8.9774999999999991
20
-26.6699999999999982
40
0.5
0
CIRCLE
8
BLACK
10
1.3574999999999999
20
-1.27
40
0.254
0
CIRCLE
8
BLACK
10
16.5975000000000001
20
-1.27
40
0.254
  0
ENDSEC
  0
EOF
