  0
SECTION
  2
HEADER
  9
$ANGBASE
  50
0.0
  9
$ANGDIR
  70
1
  9
$MEASUREMENT
  70
1
  0
ENDSEC
  0
SECTION
  2
TABLES
  0
TABLE
  2
LTYPE
  70
4
  0
LTYPE
  5
40F
  2
CONTINUOUS
  70
0
  3
Solid line
  72
65
  73
0
  40
0.0
  0
LTYPE
  5
410
  2
DASHDOT
 70
0
  3
Dash Dot ____ _ ____ _
 72
65
 73
4
 40
2.0
 49
1.25
 49
-0.25
 49
0.25
 49
-0.25
  0
LTYPE
  5
411
  2
DASHED
 70
0
  3
Dashed __ __ __ __ __
 72
65
 73
2
 40
0.75
 49
0.5
 49
-0.25
  0
LTYPE
  5
43B
  2
DOTTED
 70
0
  3
Dotted .  .  .  .
 72
65
 73
2
 40
0.2
 49
0.0
 49
-0.2
  0
ENDTAB
  0
TABLE
  2
STYLE
  70
4
  0
STYLE
  2
KICAD
  70
0
  40
0
  41
1
  42
1
  50
0
  71
0
  3
isocp.shx
  0
STYLE
  2
KICADB
  70
0
  40
0
  41
1
  42
1
  50
0
  71
0
  3
isocp.shx
  0
STYLE
  2
KICADI
  70
0
  40
0
  41
1
  42
1
  50
15
  71
0
  3
isocp.shx
  0
STYLE
  2
KICADBI
  70
0
  40
0
  41
1
  42
1
  50
15
  71
0
  3
isocp.shx
  0
ENDTAB
  0
TABLE
  2
LAYER
  70
35
  0
LAYER
  2
BLACK
  70
0
  62
7
  6
CONTINUOUS
  0
LAYER
  2
GRAY1
  70
0
  62
251
  6
CONTINUOUS
  0
LAYER
  2
GRAY2
  70
0
  62
8
  6
CONTINUOUS
  0
LAYER
  2
GRAY3
  70
0
  62
9
  6
CONTINUOUS
  0
LAYER
  2
WHITE
  70
0
  62
7
  6
CONTINUOUS
  0
LAYER
  2
LYELLOW
  70
0
  62
51
  6
CONTINUOUS
  0
LAYER
  2
LORANGE
  70
0
  62
41
  6
CONTINUOUS
  0
LAYER
  2
BLUE1
  70
0
  62
178
  6
CONTINUOUS
  0
LAYER
  2
GREEN1
  70
0
  62
98
  6
CONTINUOUS
  0
LAYER
  2
CYAN1
  70
0
  62
138
  6
CONTINUOUS
  0
LAYER
  2
RED1
  70
0
  62
18
  6
CONTINUOUS
  0
LAYER
  2
MAGENTA1
  70
0
  62
228
  6
CONTINUOUS
  0
LAYER
  2
BROWN1
  70
0
  62
58
  6
CONTINUOUS
  0
LAYER
  2
ORANGE1
  70
0
  62
34
  6
CONTINUOUS
  0
LAYER
  2
BLUE2
  70
0
  62
5
  6
CONTINUOUS
  0
LAYER
  2
GREEN2
  70
0
  62
3
  6
CONTINUOUS
  0
LAYER
  2
CYAN2
  70
0
  62
4
  6
CONTINUOUS
  0
LAYER
  2
RED2
  70
0
  62
1
  6
CONTINUOUS
  0
LAYER
  2
MAGENTA2
  70
0
  62
6
  6
CONTINUOUS
  0
LAYER
  2
BROWN2
  70
0
  62
54
  6
CONTINUOUS
  0
LAYER
  2
ORANGE2
  70
0
  62
42
  6
CONTINUOUS
  0
LAYER
  2
BLUE3
  70
0
  62
171
  6
CONTINUOUS
  0
LAYER
  2
GREEN3
  70
0
  62
91
  6
CONTINUOUS
  0
LAYER
  2
CYAN3
  70
0
  62
131
  6
CONTINUOUS
  0
LAYER
  2
RED3
  70
0
  62
11
  6
CONTINUOUS
  0
LAYER
  2
MAGENTA3
  70
0
  62
221
  6
CONTINUOUS
  0
LAYER
  2
YELLOW3
  70
0
  62
2
  6
CONTINUOUS
  0
LAYER
  2
ORANGE3
  70
0
  62
32
  6
CONTINUOUS
  0
LAYER
  2
BLUE4
  70
0
  62
5
  6
CONTINUOUS
  0
LAYER
  2
GREEN4
  70
0
  62
3
  6
CONTINUOUS
  0
LAYER
  2
CYAN4
  70
0
  62
4
  6
CONTINUOUS
  0
LAYER
  2
RED4
  70
0
  62
1
  6
CONTINUOUS
  0
LAYER
  2
MAGENTA4
  70
0
  62
6
  6
CONTINUOUS
  0
LAYER
  2
YELLOW4
  70
0
  62
2
  6
CONTINUOUS
  0
LAYER
  2
ORANGE4
  70
0
  62
40
  6
CONTINUOUS
  0
ENDTAB
  0
ENDSEC
  0
SECTION
  2
ENTITIES
0
LINE
8
LYELLOW
6
CONTINUOUS
10
36.031296999999995
20
-24.5798299999999976
11
57.1212969999999984
21
-24.5798299999999976
0
LINE
8
LYELLOW
6
CONTINUOUS
10
57.1212969999999984
20
-24.5798299999999976
11
57.1212969999999984
21
-41.8748299999999958
0
LINE
8
LYELLOW
6
CONTINUOUS
10
57.1212969999999984
20
-41.8748299999999958
11
36.031296999999995
21
-41.8748299999999958
0
LINE
8
LYELLOW
6
CONTINUOUS
10
36.031296999999995
20
-41.8748299999999958
11
36.031296999999995
21
-24.5798299999999976
0
LINE
8
LYELLOW
6
CONTINUOUS
10
43.7041249999999977
20
-14.4160339999999998
11
43.7041249999999977
21
-13.4160339999999998
0
LINE
8
LYELLOW
6
CONTINUOUS
10
43.7041249999999977
20
-13.4160339999999998
11
43.9422199999999989
21
-13.4160339999999998
0
LINE
8
LYELLOW
6
CONTINUOUS
10
43.9422199999999989
20
-13.4160339999999998
11
44.0850769999999983
21
-13.463652999999999
0
LINE
8
LYELLOW
6
CONTINUOUS
10
44.0850769999999983
20
-13.463652999999999
11
44.1803150000000002
21
-13.5588909999999991
0
LINE
8
LYELLOW
6
CONTINUOUS
10
44.1803150000000002
20
-13.5588909999999991
11
44.2279339999999976
21
-13.6541289999999993
0
LINE
8
LYELLOW
6
CONTINUOUS
10
44.2279339999999976
20
-13.6541289999999993
11
44.2755529999999951
21
-13.8446049999999996
0
LINE
8
LYELLOW
6
CONTINUOUS
10
44.2755529999999951
20
-13.8446049999999996
11
44.2755529999999951
21
-13.987461999999999
0
LINE
8
LYELLOW
6
CONTINUOUS
10
44.2755529999999951
20
-13.987461999999999
11
44.2279339999999976
21
-14.1779379999999993
0
LINE
8
LYELLOW
6
CONTINUOUS
10
44.2279339999999976
20
-14.1779379999999993
11
44.1803150000000002
21
-14.2731759999999994
0
LINE
8
LYELLOW
6
CONTINUOUS
10
44.1803150000000002
20
-14.2731759999999994
11
44.0850769999999983
21
-14.3684149999999988
0
LINE
8
LYELLOW
6
CONTINUOUS
10
44.0850769999999983
20
-14.3684149999999988
11
43.9422199999999989
21
-14.4160339999999998
0
LINE
8
LYELLOW
6
CONTINUOUS
10
43.9422199999999989
20
-14.4160339999999998
11
43.7041249999999977
21
-14.4160339999999998
0
LINE
8
LYELLOW
6
CONTINUOUS
10
44.6565060000000003
20
-14.3684149999999988
11
44.7993629999999996
21
-14.4160339999999998
0
LINE
8
LYELLOW
6
CONTINUOUS
10
44.7993629999999996
20
-14.4160339999999998
11
45.0374580000000009
21
-14.4160339999999998
0
LINE
8
LYELLOW
6
CONTINUOUS
10
45.0374580000000009
20
-14.4160339999999998
11
45.1326959999999957
21
-14.3684149999999988
0
LINE
8
LYELLOW
6
CONTINUOUS
10
45.1326959999999957
20
-14.3684149999999988
11
45.1803150000000002
21
-14.3207949999999986
0
LINE
8
LYELLOW
6
CONTINUOUS
10
45.1803150000000002
20
-14.3207949999999986
11
45.2279339999999976
21
-14.2255570000000002
0
LINE
8
LYELLOW
6
CONTINUOUS
10
45.2279339999999976
20
-14.2255570000000002
11
45.2279339999999976
21
-14.1303190000000001
0
LINE
8
LYELLOW
6
CONTINUOUS
10
45.2279339999999976
20
-14.1303190000000001
11
45.1803150000000002
21
-14.0350809999999999
0
LINE
8
LYELLOW
6
CONTINUOUS
10
45.1803150000000002
20
-14.0350809999999999
11
45.1326959999999957
21
-13.987461999999999
0
LINE
8
LYELLOW
6
CONTINUOUS
10
45.1326959999999957
20
-13.987461999999999
11
45.0374580000000009
21
-13.9398429999999998
0
LINE
8
LYELLOW
6
CONTINUOUS
10
45.0374580000000009
20
-13.9398429999999998
11
44.846981999999997
21
-13.8922239999999988
0
LINE
8
LYELLOW
6
CONTINUOUS
10
44.846981999999997
20
-13.8922239999999988
11
44.7517439999999951
21
-13.8446049999999996
0
LINE
8
LYELLOW
6
CONTINUOUS
10
44.7517439999999951
20
-13.8446049999999996
11
44.7041249999999977
21
-13.7969859999999986
0
LINE
8
LYELLOW
6
CONTINUOUS
10
44.7041249999999977
20
-13.7969859999999986
11
44.6565060000000003
21
-13.7017480000000003
0
LINE
8
LYELLOW
6
CONTINUOUS
10
44.6565060000000003
20
-13.7017480000000003
11
44.6565060000000003
21
-13.6065100000000001
0
LINE
8
LYELLOW
6
CONTINUOUS
10
44.6565060000000003
20
-13.6065100000000001
11
44.7041249999999977
21
-13.5112719999999999
0
LINE
8
LYELLOW
6
CONTINUOUS
10
44.7041249999999977
20
-13.5112719999999999
11
44.7517439999999951
21
-13.463652999999999
0
LINE
8
LYELLOW
6
CONTINUOUS
10
44.7517439999999951
20
-13.463652999999999
11
44.846981999999997
21
-13.4160339999999998
0
LINE
8
LYELLOW
6
CONTINUOUS
10
44.846981999999997
20
-13.4160339999999998
11
45.0850769999999983
21
-13.4160339999999998
0
LINE
8
LYELLOW
6
CONTINUOUS
10
45.0850769999999983
20
-13.4160339999999998
11
45.2279339999999976
21
-13.463652999999999
0
LINE
8
LYELLOW
6
CONTINUOUS
10
45.5612679999999983
20
-13.4160339999999998
11
46.1803150000000002
21
-13.4160339999999998
0
LINE
8
LYELLOW
6
CONTINUOUS
10
46.1803150000000002
20
-13.4160339999999998
11
45.846981999999997
21
-13.7969859999999986
0
LINE
8
LYELLOW
6
CONTINUOUS
10
45.846981999999997
20
-13.7969859999999986
11
45.9898389999999964
21
-13.7969859999999986
0
LINE
8
LYELLOW
6
CONTINUOUS
10
45.9898389999999964
20
-13.7969859999999986
11
46.0850769999999983
21
-13.8446049999999996
0
LINE
8
LYELLOW
6
CONTINUOUS
10
46.0850769999999983
20
-13.8446049999999996
11
46.1326959999999957
21
-13.8922239999999988
0
LINE
8
LYELLOW
6
CONTINUOUS
10
46.1326959999999957
20
-13.8922239999999988
11
46.1803150000000002
21
-13.987461999999999
0
LINE
8
LYELLOW
6
CONTINUOUS
10
46.1803150000000002
20
-13.987461999999999
11
46.1803150000000002
21
-14.2255570000000002
0
LINE
8
LYELLOW
6
CONTINUOUS
10
46.1803150000000002
20
-14.2255570000000002
11
46.1326959999999957
21
-14.3207949999999986
0
LINE
8
LYELLOW
6
CONTINUOUS
10
46.1326959999999957
20
-14.3207949999999986
11
46.0850769999999983
21
-14.3684149999999988
0
LINE
8
LYELLOW
6
CONTINUOUS
10
46.0850769999999983
20
-14.3684149999999988
11
45.9898389999999964
21
-14.4160339999999998
0
LINE
8
LYELLOW
6
CONTINUOUS
10
45.9898389999999964
20
-14.4160339999999998
11
45.7041249999999977
21
-14.4160339999999998
0
LINE
8
LYELLOW
6
CONTINUOUS
10
45.7041249999999977
20
-14.4160339999999998
11
45.6088869999999957
21
-14.3684149999999988
0
LINE
8
LYELLOW
6
CONTINUOUS
10
45.6088869999999957
20
-14.3684149999999988
11
45.5612679999999983
21
-14.3207949999999986
0
LINE
8
LYELLOW
6
CONTINUOUS
10
47.1326959999999957
20
-14.4160339999999998
11
46.5612679999999983
21
-14.4160339999999998
0
LINE
8
LYELLOW
6
CONTINUOUS
10
46.846981999999997
20
-14.4160339999999998
11
46.846981999999997
21
-13.4160339999999998
0
LINE
8
LYELLOW
6
CONTINUOUS
10
46.846981999999997
20
-13.4160339999999998
11
46.7517439999999951
21
-13.5588909999999991
0
LINE
8
LYELLOW
6
CONTINUOUS
10
46.7517439999999951
20
-13.5588909999999991
11
46.6565060000000003
21
-13.6541289999999993
0
LINE
8
LYELLOW
6
CONTINUOUS
10
46.6565060000000003
20
-13.6541289999999993
11
46.5612679999999983
21
-13.7017480000000003
0
LINE
8
LYELLOW
6
CONTINUOUS
10
47.4660299999999964
20
-13.4160339999999998
11
48.0850769999999983
21
-13.4160339999999998
0
LINE
8
LYELLOW
6
CONTINUOUS
10
48.0850769999999983
20
-13.4160339999999998
11
47.7517439999999951
21
-13.7969859999999986
0
LINE
8
LYELLOW
6
CONTINUOUS
10
47.7517439999999951
20
-13.7969859999999986
11
47.8946009999999944
21
-13.7969859999999986
0
LINE
8
LYELLOW
6
CONTINUOUS
10
47.8946009999999944
20
-13.7969859999999986
11
47.9898389999999964
21
-13.8446049999999996
0
LINE
8
LYELLOW
6
CONTINUOUS
10
47.9898389999999964
20
-13.8446049999999996
11
48.0374580000000009
21
-13.8922239999999988
0
LINE
8
LYELLOW
6
CONTINUOUS
10
48.0374580000000009
20
-13.8922239999999988
11
48.0850769999999983
21
-13.987461999999999
0
LINE
8
LYELLOW
6
CONTINUOUS
10
48.0850769999999983
20
-13.987461999999999
11
48.0850769999999983
21
-14.2255570000000002
0
LINE
8
LYELLOW
6
CONTINUOUS
10
48.0850769999999983
20
-14.2255570000000002
11
48.0374580000000009
21
-14.3207949999999986
0
LINE
8
LYELLOW
6
CONTINUOUS
10
48.0374580000000009
20
-14.3207949999999986
11
47.9898389999999964
21
-14.3684149999999988
0
LINE
8
LYELLOW
6
CONTINUOUS
10
47.9898389999999964
20
-14.3684149999999988
11
47.8946009999999944
21
-14.4160339999999998
0
LINE
8
LYELLOW
6
CONTINUOUS
10
47.8946009999999944
20
-14.4160339999999998
11
47.6088869999999957
21
-14.4160339999999998
0
LINE
8
LYELLOW
6
CONTINUOUS
10
47.6088869999999957
20
-14.4160339999999998
11
47.5136490000000009
21
-14.3684149999999988
0
LINE
8
LYELLOW
6
CONTINUOUS
10
47.5136490000000009
20
-14.3684149999999988
11
47.4660299999999964
21
-14.3207949999999986
0
LINE
8
LYELLOW
6
CONTINUOUS
10
49.0374580000000009
20
-14.4160339999999998
11
48.4660299999999964
21
-14.4160339999999998
0
LINE
8
LYELLOW
6
CONTINUOUS
10
48.7517439999999951
20
-14.4160339999999998
11
48.7517439999999951
21
-13.4160339999999998
0
LINE
8
LYELLOW
6
CONTINUOUS
10
48.7517439999999951
20
-13.4160339999999998
11
48.6565060000000003
21
-13.5588909999999991
0
LINE
8
LYELLOW
6
CONTINUOUS
10
48.6565060000000003
20
-13.5588909999999991
11
48.5612679999999983
21
-13.6541289999999993
0
LINE
8
LYELLOW
6
CONTINUOUS
10
48.5612679999999983
20
-13.6541289999999993
11
48.4660299999999964
21
-13.7017480000000003
0
LINE
8
LYELLOW
6
CONTINUOUS
10
40.8246749999999992
20
-21.1336529999999989
11
40.7294369999999972
21
-21.0860339999999979
0
LINE
8
LYELLOW
6
CONTINUOUS
10
40.7294369999999972
20
-21.0860339999999979
11
40.5865799999999979
21
-21.0860339999999979
0
LINE
8
LYELLOW
6
CONTINUOUS
10
40.5865799999999979
20
-21.0860339999999979
11
40.4437229999999985
21
-21.1336529999999989
0
LINE
8
LYELLOW
6
CONTINUOUS
10
40.4437229999999985
20
-21.1336529999999989
11
40.3484849999999966
21
-21.2288909999999973
0
LINE
8
LYELLOW
6
CONTINUOUS
10
40.3484849999999966
20
-21.2288909999999973
11
40.3008659999999992
21
-21.3241289999999992
0
LINE
8
LYELLOW
6
CONTINUOUS
10
40.3008659999999992
20
-21.3241289999999992
11
40.2532469999999947
21
-21.5146049999999995
0
LINE
8
LYELLOW
6
CONTINUOUS
10
40.2532469999999947
20
-21.5146049999999995
11
40.2532469999999947
21
-21.6574619999999989
0
LINE
8
LYELLOW
6
CONTINUOUS
10
40.2532469999999947
20
-21.6574619999999989
11
40.3008659999999992
21
-21.8479379999999992
0
LINE
8
LYELLOW
6
CONTINUOUS
10
40.3008659999999992
20
-21.8479379999999992
11
40.3484849999999966
21
-21.9431759999999976
0
LINE
8
LYELLOW
6
CONTINUOUS
10
40.3484849999999966
20
-21.9431759999999976
11
40.4437229999999985
21
-22.0384150000000005
0
LINE
8
LYELLOW
6
CONTINUOUS
10
40.4437229999999985
20
-22.0384150000000005
11
40.5865799999999979
21
-22.0860339999999979
0
LINE
8
LYELLOW
6
CONTINUOUS
10
40.5865799999999979
20
-22.0860339999999979
11
40.6818179999999998
21
-22.0860339999999979
0
LINE
8
LYELLOW
6
CONTINUOUS
10
40.6818179999999998
20
-22.0860339999999979
11
40.8246749999999992
21
-22.0384150000000005
0
LINE
8
LYELLOW
6
CONTINUOUS
10
40.8246749999999992
20
-22.0384150000000005
11
40.8722939999999966
21
-21.9907949999999985
0
LINE
8
LYELLOW
6
CONTINUOUS
10
40.8722939999999966
20
-21.9907949999999985
11
40.8722939999999966
21
-21.6574619999999989
0
LINE
8
LYELLOW
6
CONTINUOUS
10
40.8722939999999966
20
-21.6574619999999989
11
40.6818179999999998
21
-21.6574619999999989
0
LINE
8
LYELLOW
6
CONTINUOUS
10
41.3008659999999992
20
-22.0860339999999979
11
41.3008659999999992
21
-21.0860339999999979
0
LINE
8
LYELLOW
6
CONTINUOUS
10
41.3008659999999992
20
-21.0860339999999979
11
41.8722939999999966
21
-22.0860339999999979
0
LINE
8
LYELLOW
6
CONTINUOUS
10
41.8722939999999966
20
-22.0860339999999979
11
41.8722939999999966
21
-21.0860339999999979
0
LINE
8
LYELLOW
6
CONTINUOUS
10
42.3484849999999966
20
-22.0860339999999979
11
42.3484849999999966
21
-21.0860339999999979
0
LINE
8
LYELLOW
6
CONTINUOUS
10
42.3484849999999966
20
-21.0860339999999979
11
42.5865799999999979
21
-21.0860339999999979
0
LINE
8
LYELLOW
6
CONTINUOUS
10
42.5865799999999979
20
-21.0860339999999979
11
42.7294369999999972
21
-21.1336529999999989
0
LINE
8
LYELLOW
6
CONTINUOUS
10
42.7294369999999972
20
-21.1336529999999989
11
42.8246749999999992
21
-21.2288909999999973
0
LINE
8
LYELLOW
6
CONTINUOUS
10
42.8246749999999992
20
-21.2288909999999973
11
42.8722939999999966
21
-21.3241289999999992
0
LINE
8
LYELLOW
6
CONTINUOUS
10
42.8722939999999966
20
-21.3241289999999992
11
42.9199130000000011
21
-21.5146049999999995
0
LINE
8
LYELLOW
6
CONTINUOUS
10
42.9199130000000011
20
-21.5146049999999995
11
42.9199130000000011
21
-21.6574619999999989
0
LINE
8
LYELLOW
6
CONTINUOUS
10
42.9199130000000011
20
-21.6574619999999989
11
42.8722939999999966
21
-21.8479379999999992
0
LINE
8
LYELLOW
6
CONTINUOUS
10
42.8722939999999966
20
-21.8479379999999992
11
42.8246749999999992
21
-21.9431759999999976
0
LINE
8
LYELLOW
6
CONTINUOUS
10
42.8246749999999992
20
-21.9431759999999976
11
42.7294369999999972
21
-22.0384150000000005
0
LINE
8
LYELLOW
6
CONTINUOUS
10
42.7294369999999972
20
-22.0384150000000005
11
42.5865799999999979
21
-22.0860339999999979
0
LINE
8
LYELLOW
6
CONTINUOUS
10
42.5865799999999979
20
-22.0860339999999979
11
42.3484849999999966
21
-22.0860339999999979
0
LINE
8
LYELLOW
6
CONTINUOUS
10
39.6182469999999967
20
-14.4184149999999995
11
39.761103999999996
21
-14.4660339999999987
0
LINE
8
LYELLOW
6
CONTINUOUS
10
39.761103999999996
20
-14.4660339999999987
11
39.9991989999999973
21
-14.4660339999999987
0
LINE
8
LYELLOW
6
CONTINUOUS
10
39.9991989999999973
20
-14.4660339999999987
11
40.0944369999999992
21
-14.4184149999999995
0
LINE
8
LYELLOW
6
CONTINUOUS
10
40.0944369999999992
20
-14.4184149999999995
11
40.1420559999999966
21
-14.3707949999999993
0
LINE
8
LYELLOW
6
CONTINUOUS
10
40.1420559999999966
20
-14.3707949999999993
11
40.1896750000000011
21
-14.2755569999999992
0
LINE
8
LYELLOW
6
CONTINUOUS
10
40.1896750000000011
20
-14.2755569999999992
11
40.1896750000000011
21
-14.180318999999999
0
LINE
8
LYELLOW
6
CONTINUOUS
10
40.1896750000000011
20
-14.180318999999999
11
40.1420559999999966
21
-14.0850809999999989
0
LINE
8
LYELLOW
6
CONTINUOUS
10
40.1420559999999966
20
-14.0850809999999989
11
40.0944369999999992
21
-14.0374619999999997
0
LINE
8
LYELLOW
6
CONTINUOUS
10
40.0944369999999992
20
-14.0374619999999997
11
39.9991989999999973
21
-13.9898429999999987
0
LINE
8
LYELLOW
6
CONTINUOUS
10
39.9991989999999973
20
-13.9898429999999987
11
39.8087230000000005
21
-13.9422239999999995
0
LINE
8
LYELLOW
6
CONTINUOUS
10
39.8087230000000005
20
-13.9422239999999995
11
39.7134849999999986
21
-13.8946049999999985
0
LINE
8
LYELLOW
6
CONTINUOUS
10
39.7134849999999986
20
-13.8946049999999985
11
39.6658660000000012
21
-13.8469859999999994
0
LINE
8
LYELLOW
6
CONTINUOUS
10
39.6658660000000012
20
-13.8469859999999994
11
39.6182469999999967
21
-13.7517479999999992
0
LINE
8
LYELLOW
6
CONTINUOUS
10
39.6182469999999967
20
-13.7517479999999992
11
39.6182469999999967
21
-13.656509999999999
0
LINE
8
LYELLOW
6
CONTINUOUS
10
39.6182469999999967
20
-13.656509999999999
11
39.6658660000000012
21
-13.5612719999999989
0
LINE
8
LYELLOW
6
CONTINUOUS
10
39.6658660000000012
20
-13.5612719999999989
11
39.7134849999999986
21
-13.5136529999999997
0
LINE
8
LYELLOW
6
CONTINUOUS
10
39.7134849999999986
20
-13.5136529999999997
11
39.8087230000000005
21
-13.4660339999999987
0
LINE
8
LYELLOW
6
CONTINUOUS
10
39.8087230000000005
20
-13.4660339999999987
11
40.0468179999999947
21
-13.4660339999999987
0
LINE
8
LYELLOW
6
CONTINUOUS
10
40.0468179999999947
20
-13.4660339999999987
11
40.1896750000000011
21
-13.5136529999999997
0
LINE
8
LYELLOW
6
CONTINUOUS
10
40.6182469999999967
20
-14.4660339999999987
11
40.6182469999999967
21
-13.4660339999999987
0
LINE
8
LYELLOW
6
CONTINUOUS
10
40.6182469999999967
20
-13.4660339999999987
11
40.8563419999999979
21
-13.4660339999999987
0
LINE
8
LYELLOW
6
CONTINUOUS
10
40.8563419999999979
20
-13.4660339999999987
11
40.9991989999999973
21
-13.5136529999999997
0
LINE
8
LYELLOW
6
CONTINUOUS
10
40.9991989999999973
20
-13.5136529999999997
11
41.0944369999999992
21
-13.6088909999999998
0
LINE
8
LYELLOW
6
CONTINUOUS
10
41.0944369999999992
20
-13.6088909999999998
11
41.1420559999999966
21
-13.704129
0
LINE
8
LYELLOW
6
CONTINUOUS
10
41.1420559999999966
20
-13.704129
11
41.1896750000000011
21
-13.8946049999999985
0
LINE
8
LYELLOW
6
CONTINUOUS
10
41.1896750000000011
20
-13.8946049999999985
11
41.1896750000000011
21
-14.0374619999999997
0
LINE
8
LYELLOW
6
CONTINUOUS
10
41.1896750000000011
20
-14.0374619999999997
11
41.1420559999999966
21
-14.227938
0
LINE
8
LYELLOW
6
CONTINUOUS
10
41.1420559999999966
20
-14.227938
11
41.0944369999999992
21
-14.3231760000000001
0
LINE
8
LYELLOW
6
CONTINUOUS
10
41.0944369999999992
20
-14.3231760000000001
11
40.9991989999999973
21
-14.4184149999999995
0
LINE
8
LYELLOW
6
CONTINUOUS
10
40.9991989999999973
20
-14.4184149999999995
11
40.8563419999999979
21
-14.4660339999999987
0
LINE
8
LYELLOW
6
CONTINUOUS
10
40.8563419999999979
20
-14.4660339999999987
11
40.6182469999999967
21
-14.4660339999999987
0
LINE
8
LYELLOW
6
CONTINUOUS
10
41.5706279999999992
20
-14.180318999999999
11
42.0468179999999947
21
-14.180318999999999
0
LINE
8
LYELLOW
6
CONTINUOUS
10
41.4753899999999973
20
-14.4660339999999987
11
41.8087230000000005
21
-13.4660339999999987
0
LINE
8
LYELLOW
6
CONTINUOUS
10
41.8087230000000005
20
-13.4660339999999987
11
42.1420559999999966
21
-14.4660339999999987
0
LINE
8
LYELLOW
6
CONTINUOUS
10
39.6182469999999967
20
-16.3234150000000007
11
39.761103999999996
21
-16.3710339999999981
0
LINE
8
LYELLOW
6
CONTINUOUS
10
39.761103999999996
20
-16.3710339999999981
11
39.9991989999999973
21
-16.3710339999999981
0
LINE
8
LYELLOW
6
CONTINUOUS
10
39.9991989999999973
20
-16.3710339999999981
11
40.0944369999999992
21
-16.3234150000000007
0
LINE
8
LYELLOW
6
CONTINUOUS
10
40.0944369999999992
20
-16.3234150000000007
11
40.1420559999999966
21
-16.2757949999999987
0
LINE
8
LYELLOW
6
CONTINUOUS
10
40.1420559999999966
20
-16.2757949999999987
11
40.1896750000000011
21
-16.1805570000000003
0
LINE
8
LYELLOW
6
CONTINUOUS
10
40.1896750000000011
20
-16.1805570000000003
11
40.1896750000000011
21
-16.0853189999999984
0
LINE
8
LYELLOW
6
CONTINUOUS
10
40.1896750000000011
20
-16.0853189999999984
11
40.1420559999999966
21
-15.990081
0
LINE
8
LYELLOW
6
CONTINUOUS
10
40.1420559999999966
20
-15.990081
11
40.0944369999999992
21
-15.942461999999999
0
LINE
8
LYELLOW
6
CONTINUOUS
10
40.0944369999999992
20
-15.942461999999999
11
39.9991989999999973
21
-15.8948429999999998
0
LINE
8
LYELLOW
6
CONTINUOUS
10
39.9991989999999973
20
-15.8948429999999998
11
39.8087230000000005
21
-15.8472239999999989
0
LINE
8
LYELLOW
6
CONTINUOUS
10
39.8087230000000005
20
-15.8472239999999989
11
39.7134849999999986
21
-15.7996049999999997
0
LINE
8
LYELLOW
6
CONTINUOUS
10
39.7134849999999986
20
-15.7996049999999997
11
39.6658660000000012
21
-15.7519859999999987
0
LINE
8
LYELLOW
6
CONTINUOUS
10
39.6658660000000012
20
-15.7519859999999987
11
39.6182469999999967
21
-15.6567479999999986
0
LINE
8
LYELLOW
6
CONTINUOUS
10
39.6182469999999967
20
-15.6567479999999986
11
39.6182469999999967
21
-15.5615100000000002
0
LINE
8
LYELLOW
6
CONTINUOUS
10
39.6182469999999967
20
-15.5615100000000002
11
39.6658660000000012
21
-15.466272
0
LINE
8
LYELLOW
6
CONTINUOUS
10
39.6658660000000012
20
-15.466272
11
39.7134849999999986
21
-15.4186529999999991
0
LINE
8
LYELLOW
6
CONTINUOUS
10
39.7134849999999986
20
-15.4186529999999991
11
39.8087230000000005
21
-15.3710339999999999
0
LINE
8
LYELLOW
6
CONTINUOUS
10
39.8087230000000005
20
-15.3710339999999999
11
40.0468179999999947
21
-15.3710339999999999
0
LINE
8
LYELLOW
6
CONTINUOUS
10
40.0468179999999947
20
-15.3710339999999999
11
40.1896750000000011
21
-15.4186529999999991
0
LINE
8
LYELLOW
6
CONTINUOUS
10
41.1896750000000011
20
-16.2757949999999987
11
41.1420559999999966
21
-16.3234150000000007
0
LINE
8
LYELLOW
6
CONTINUOUS
10
41.1420559999999966
20
-16.3234150000000007
11
40.9991989999999973
21
-16.3710339999999981
0
LINE
8
LYELLOW
6
CONTINUOUS
10
40.9991989999999973
20
-16.3710339999999981
11
40.9039609999999954
21
-16.3710339999999981
0
LINE
8
LYELLOW
6
CONTINUOUS
10
40.9039609999999954
20
-16.3710339999999981
11
40.761103999999996
21
-16.3234150000000007
0
LINE
8
LYELLOW
6
CONTINUOUS
10
40.761103999999996
20
-16.3234150000000007
11
40.6658660000000012
21
-16.2281759999999977
0
LINE
8
LYELLOW
6
CONTINUOUS
10
40.6658660000000012
20
-16.2281759999999977
11
40.6182469999999967
21
-16.1329379999999993
0
LINE
8
LYELLOW
6
CONTINUOUS
10
40.6182469999999967
20
-16.1329379999999993
11
40.5706279999999992
21
-15.942461999999999
0
LINE
8
LYELLOW
6
CONTINUOUS
10
40.5706279999999992
20
-15.942461999999999
11
40.5706279999999992
21
-15.7996049999999997
0
LINE
8
LYELLOW
6
CONTINUOUS
10
40.5706279999999992
20
-15.7996049999999997
11
40.6182469999999967
21
-15.6091289999999994
0
LINE
8
LYELLOW
6
CONTINUOUS
10
40.6182469999999967
20
-15.6091289999999994
11
40.6658660000000012
21
-15.5138909999999992
0
LINE
8
LYELLOW
6
CONTINUOUS
10
40.6658660000000012
20
-15.5138909999999992
11
40.761103999999996
21
-15.4186529999999991
0
LINE
8
LYELLOW
6
CONTINUOUS
10
40.761103999999996
20
-15.4186529999999991
11
40.9039609999999954
21
-15.3710339999999999
0
LINE
8
LYELLOW
6
CONTINUOUS
10
40.9039609999999954
20
-15.3710339999999999
11
40.9991989999999973
21
-15.3710339999999999
0
LINE
8
LYELLOW
6
CONTINUOUS
10
40.9991989999999973
20
-15.3710339999999999
11
41.1420559999999966
21
-15.4186529999999991
0
LINE
8
LYELLOW
6
CONTINUOUS
10
41.1420559999999966
20
-15.4186529999999991
11
41.1896750000000011
21
-15.466272
0
LINE
8
LYELLOW
6
CONTINUOUS
10
42.0944369999999992
20
-16.3710339999999981
11
41.6182469999999967
21
-16.3710339999999981
0
LINE
8
LYELLOW
6
CONTINUOUS
10
41.6182469999999967
20
-16.3710339999999981
11
41.6182469999999967
21
-15.3710339999999999
0
LINE
8
LYELLOW
6
CONTINUOUS
10
40.2056279999999973
20
-18.5460339999999988
11
40.8722939999999966
21
-19.5460339999999988
0
LINE
8
LYELLOW
6
CONTINUOUS
10
40.8722939999999966
20
-18.5460339999999988
11
40.2056279999999973
21
-19.5460339999999988
0
LINE
8
LYELLOW
6
CONTINUOUS
10
39.5230089999999947
20
-10.9260339999999996
11
39.8563419999999979
21
-11.9260339999999996
0
LINE
8
LYELLOW
6
CONTINUOUS
10
39.8563419999999979
20
-11.9260339999999996
11
40.1896750000000011
21
-10.9260339999999996
0
LINE
8
LYELLOW
6
CONTINUOUS
10
41.0944369999999992
20
-11.8307950000000002
11
41.0468179999999947
21
-11.8784149999999986
0
LINE
8
LYELLOW
6
CONTINUOUS
10
41.0468179999999947
20
-11.8784149999999986
11
40.9039609999999954
21
-11.9260339999999996
0
LINE
8
LYELLOW
6
CONTINUOUS
10
40.9039609999999954
20
-11.9260339999999996
11
40.8087230000000005
21
-11.9260339999999996
0
LINE
8
LYELLOW
6
CONTINUOUS
10
40.8087230000000005
20
-11.9260339999999996
11
40.6658660000000012
21
-11.8784149999999986
0
LINE
8
LYELLOW
6
CONTINUOUS
10
40.6658660000000012
20
-11.8784149999999986
11
40.5706279999999992
21
-11.7831759999999992
0
LINE
8
LYELLOW
6
CONTINUOUS
10
40.5706279999999992
20
-11.7831759999999992
11
40.5230089999999947
21
-11.6879379999999991
0
LINE
8
LYELLOW
6
CONTINUOUS
10
40.5230089999999947
20
-11.6879379999999991
11
40.4753899999999973
21
-11.4974619999999987
0
LINE
8
LYELLOW
6
CONTINUOUS
10
40.4753899999999973
20
-11.4974619999999987
11
40.4753899999999973
21
-11.3546049999999994
0
LINE
8
LYELLOW
6
CONTINUOUS
10
40.4753899999999973
20
-11.3546049999999994
11
40.5230089999999947
21
-11.1641289999999991
0
LINE
8
LYELLOW
6
CONTINUOUS
10
40.5230089999999947
20
-11.1641289999999991
11
40.5706279999999992
21
-11.0688909999999989
0
LINE
8
LYELLOW
6
CONTINUOUS
10
40.5706279999999992
20
-11.0688909999999989
11
40.6658660000000012
21
-10.9736529999999988
0
LINE
8
LYELLOW
6
CONTINUOUS
10
40.6658660000000012
20
-10.9736529999999988
11
40.8087230000000005
21
-10.9260339999999996
0
LINE
8
LYELLOW
6
CONTINUOUS
10
40.8087230000000005
20
-10.9260339999999996
11
40.9039609999999954
21
-10.9260339999999996
0
LINE
8
LYELLOW
6
CONTINUOUS
10
40.9039609999999954
20
-10.9260339999999996
11
41.0468179999999947
21
-10.9736529999999988
0
LINE
8
LYELLOW
6
CONTINUOUS
10
41.0468179999999947
20
-10.9736529999999988
11
41.0944369999999992
21
-11.0212719999999997
0
LINE
8
LYELLOW
6
CONTINUOUS
10
42.0944369999999992
20
-11.8307950000000002
11
42.0468179999999947
21
-11.8784149999999986
0
LINE
8
LYELLOW
6
CONTINUOUS
10
42.0468179999999947
20
-11.8784149999999986
11
41.9039609999999954
21
-11.9260339999999996
0
LINE
8
LYELLOW
6
CONTINUOUS
10
41.9039609999999954
20
-11.9260339999999996
11
41.8087230000000005
21
-11.9260339999999996
0
LINE
8
LYELLOW
6
CONTINUOUS
10
41.8087230000000005
20
-11.9260339999999996
11
41.6658660000000012
21
-11.8784149999999986
0
LINE
8
LYELLOW
6
CONTINUOUS
10
41.6658660000000012
20
-11.8784149999999986
11
41.5706279999999992
21
-11.7831759999999992
0
LINE
8
LYELLOW
6
CONTINUOUS
10
41.5706279999999992
20
-11.7831759999999992
11
41.5230089999999947
21
-11.6879379999999991
0
LINE
8
LYELLOW
6
CONTINUOUS
10
41.5230089999999947
20
-11.6879379999999991
11
41.4753899999999973
21
-11.4974619999999987
0
LINE
8
LYELLOW
6
CONTINUOUS
10
41.4753899999999973
20
-11.4974619999999987
11
41.4753899999999973
21
-11.3546049999999994
0
LINE
8
LYELLOW
6
CONTINUOUS
10
41.4753899999999973
20
-11.3546049999999994
11
41.5230089999999947
21
-11.1641289999999991
0
LINE
8
LYELLOW
6
CONTINUOUS
10
41.5230089999999947
20
-11.1641289999999991
11
41.5706279999999992
21
-11.0688909999999989
0
LINE
8
LYELLOW
6
CONTINUOUS
10
41.5706279999999992
20
-11.0688909999999989
11
41.6658660000000012
21
-10.9736529999999988
0
LINE
8
LYELLOW
6
CONTINUOUS
10
41.6658660000000012
20
-10.9736529999999988
11
41.8087230000000005
21
-10.9260339999999996
0
LINE
8
LYELLOW
6
CONTINUOUS
10
41.8087230000000005
20
-10.9260339999999996
11
41.9039609999999954
21
-10.9260339999999996
0
LINE
8
LYELLOW
6
CONTINUOUS
10
41.9039609999999954
20
-10.9260339999999996
11
42.0468179999999947
21
-10.9736529999999988
0
LINE
8
LYELLOW
6
CONTINUOUS
10
42.0468179999999947
20
-10.9736529999999988
11
42.0944369999999992
21
-11.0212719999999997
0
LINE
8
LYELLOW
6
CONTINUOUS
10
27.5116659999999982
20
-62.1148189999999971
11
27.5116659999999982
21
-62.8291039999999938
0
LINE
8
LYELLOW
6
CONTINUOUS
10
27.5116659999999982
20
-62.8291039999999938
11
27.4640469999999972
21
-62.9719610000000003
0
LINE
8
LYELLOW
6
CONTINUOUS
10
27.4640469999999972
20
-62.9719610000000003
11
27.3688089999999988
21
-63.0671999999999997
0
LINE
8
LYELLOW
6
CONTINUOUS
10
27.3688089999999988
20
-63.0671999999999997
11
27.2259519999999995
21
-63.1148189999999971
0
LINE
8
LYELLOW
6
CONTINUOUS
10
27.2259519999999995
20
-63.1148189999999971
11
27.1307139999999976
21
-63.1148189999999971
0
LINE
8
LYELLOW
6
CONTINUOUS
10
28.0354759999999992
20
-63.1148189999999971
11
28.2259519999999995
21
-63.1148189999999971
0
LINE
8
LYELLOW
6
CONTINUOUS
10
28.2259519999999995
20
-63.1148189999999971
11
28.3211899999999979
21
-63.0671999999999997
0
LINE
8
LYELLOW
6
CONTINUOUS
10
28.3211899999999979
20
-63.0671999999999997
11
28.3688089999999988
21
-63.0195799999999977
0
LINE
8
LYELLOW
6
CONTINUOUS
10
28.3688089999999988
20
-63.0195799999999977
11
28.4640469999999972
21
-62.8767229999999984
0
LINE
8
LYELLOW
6
CONTINUOUS
10
28.4640469999999972
20
-62.8767229999999984
11
28.5116659999999982
21
-62.6862469999999945
0
LINE
8
LYELLOW
6
CONTINUOUS
10
28.5116659999999982
20
-62.6862469999999945
11
28.5116659999999982
21
-62.3052949999999939
0
LINE
8
LYELLOW
6
CONTINUOUS
10
28.5116659999999982
20
-62.3052949999999939
11
28.4640469999999972
21
-62.2100569999999991
0
LINE
8
LYELLOW
6
CONTINUOUS
10
28.4640469999999972
20
-62.2100569999999991
11
28.4164279999999998
21
-62.1624379999999945
0
LINE
8
LYELLOW
6
CONTINUOUS
10
28.4164279999999998
20
-62.1624379999999945
11
28.3211899999999979
21
-62.1148189999999971
0
LINE
8
LYELLOW
6
CONTINUOUS
10
28.3211899999999979
20
-62.1148189999999971
11
28.1307139999999976
21
-62.1148189999999971
0
LINE
8
LYELLOW
6
CONTINUOUS
10
28.1307139999999976
20
-62.1148189999999971
11
28.0354759999999992
21
-62.1624379999999945
0
LINE
8
LYELLOW
6
CONTINUOUS
10
28.0354759999999992
20
-62.1624379999999945
11
27.9878569999999982
21
-62.2100569999999991
0
LINE
8
LYELLOW
6
CONTINUOUS
10
27.9878569999999982
20
-62.2100569999999991
11
27.9402379999999972
21
-62.3052949999999939
0
LINE
8
LYELLOW
6
CONTINUOUS
10
27.9402379999999972
20
-62.3052949999999939
11
27.9402379999999972
21
-62.5433899999999952
0
LINE
8
LYELLOW
6
CONTINUOUS
10
27.9402379999999972
20
-62.5433899999999952
11
27.9878569999999982
21
-62.6386279999999971
0
LINE
8
LYELLOW
6
CONTINUOUS
10
27.9878569999999982
20
-62.6386279999999971
11
28.0354759999999992
21
-62.6862469999999945
0
LINE
8
LYELLOW
6
CONTINUOUS
10
28.0354759999999992
20
-62.6862469999999945
11
28.1307139999999976
21
-62.733865999999999
0
LINE
8
LYELLOW
6
CONTINUOUS
10
28.1307139999999976
20
-62.733865999999999
11
28.3211899999999979
21
-62.733865999999999
0
LINE
8
LYELLOW
6
CONTINUOUS
10
28.3211899999999979
20
-62.733865999999999
11
28.4164279999999998
21
-62.6862469999999945
0
LINE
8
LYELLOW
6
CONTINUOUS
10
28.4164279999999998
20
-62.6862469999999945
11
28.4640469999999972
21
-62.6386279999999971
0
LINE
8
LYELLOW
6
CONTINUOUS
10
28.4640469999999972
20
-62.6386279999999971
11
28.5116659999999982
21
-62.5433899999999952
0
LINE
8
LYELLOW
6
CONTINUOUS
10
40.0276330000000016
20
-51.1003809999999987
11
40.0276330000000016
21
-51.9099039999999974
0
LINE
8
LYELLOW
6
CONTINUOUS
10
40.0276330000000016
20
-51.9099039999999974
11
40.075251999999999
21
-52.0051419999999993
0
LINE
8
LYELLOW
6
CONTINUOUS
10
40.075251999999999
20
-52.0051419999999993
11
40.1228709999999964
21
-52.0527619999999942
0
LINE
8
LYELLOW
6
CONTINUOUS
10
40.1228709999999964
20
-52.0527619999999942
11
40.2181089999999983
21
-52.1003809999999987
0
LINE
8
LYELLOW
6
CONTINUOUS
10
40.2181089999999983
20
-52.1003809999999987
11
40.4085849999999951
21
-52.1003809999999987
0
LINE
8
LYELLOW
6
CONTINUOUS
10
40.4085849999999951
20
-52.1003809999999987
11
40.503822999999997
21
-52.0527619999999942
0
LINE
8
LYELLOW
6
CONTINUOUS
10
40.503822999999997
20
-52.0527619999999942
11
40.5514420000000015
21
-52.0051419999999993
0
LINE
8
LYELLOW
6
CONTINUOUS
10
40.5514420000000015
20
-52.0051419999999993
11
40.599060999999999
21
-51.9099039999999974
0
LINE
8
LYELLOW
6
CONTINUOUS
10
40.599060999999999
20
-51.9099039999999974
11
40.599060999999999
21
-51.1003809999999987
0
LINE
8
LYELLOW
6
CONTINUOUS
10
40.9800139999999971
20
-51.1003809999999987
11
41.599060999999999
21
-51.1003809999999987
0
LINE
8
LYELLOW
6
CONTINUOUS
10
41.599060999999999
20
-51.1003809999999987
11
41.2657279999999957
21
-51.4813329999999993
0
LINE
8
LYELLOW
6
CONTINUOUS
10
41.2657279999999957
20
-51.4813329999999993
11
41.4085849999999951
21
-51.4813329999999993
0
LINE
8
LYELLOW
6
CONTINUOUS
10
41.4085849999999951
20
-51.4813329999999993
11
41.503822999999997
21
-51.5289519999999968
0
LINE
8
LYELLOW
6
CONTINUOUS
10
41.503822999999997
20
-51.5289519999999968
11
41.5514420000000015
21
-51.5765709999999942
0
LINE
8
LYELLOW
6
CONTINUOUS
10
41.5514420000000015
20
-51.5765709999999942
11
41.599060999999999
21
-51.6718089999999961
0
LINE
8
LYELLOW
6
CONTINUOUS
10
41.599060999999999
20
-51.6718089999999961
11
41.599060999999999
21
-51.9099039999999974
0
LINE
8
LYELLOW
6
CONTINUOUS
10
41.599060999999999
20
-51.9099039999999974
11
41.5514420000000015
21
-52.0051419999999993
0
LINE
8
LYELLOW
6
CONTINUOUS
10
41.5514420000000015
20
-52.0051419999999993
11
41.503822999999997
21
-52.0527619999999942
0
LINE
8
LYELLOW
6
CONTINUOUS
10
41.503822999999997
20
-52.0527619999999942
11
41.4085849999999951
21
-52.1003809999999987
0
LINE
8
LYELLOW
6
CONTINUOUS
10
41.4085849999999951
20
-52.1003809999999987
11
41.1228709999999964
21
-52.1003809999999987
0
LINE
8
LYELLOW
6
CONTINUOUS
10
41.1228709999999964
20
-52.1003809999999987
11
41.0276330000000016
21
-52.0527619999999942
0
LINE
8
LYELLOW
6
CONTINUOUS
10
41.0276330000000016
20
-52.0527619999999942
11
40.9800139999999971
21
-52.0051419999999993
0
LINE
8
LYELLOW
6
CONTINUOUS
10
38.917117999999995
20
-57.1968460000000007
11
39.917117999999995
21
-57.1968460000000007
0
LINE
8
LYELLOW
6
CONTINUOUS
10
39.917117999999995
20
-57.1968460000000007
11
39.2028329999999983
21
-57.5301789999999968
0
LINE
8
LYELLOW
6
CONTINUOUS
10
39.2028329999999983
20
-57.5301789999999968
11
39.917117999999995
21
-57.8635120000000001
0
LINE
8
LYELLOW
6
CONTINUOUS
10
39.917117999999995
20
-57.8635120000000001
11
38.917117999999995
21
-57.8635120000000001
0
LINE
8
LYELLOW
6
CONTINUOUS
10
39.917117999999995
20
-58.5301789999999968
11
39.917117999999995
21
-58.7206550000000007
0
LINE
8
LYELLOW
6
CONTINUOUS
10
39.917117999999995
20
-58.7206550000000007
11
39.8694989999999976
21
-58.8158929999999955
0
LINE
8
LYELLOW
6
CONTINUOUS
10
39.8694989999999976
20
-58.8158929999999955
11
39.7742609999999956
21
-58.9111309999999975
0
LINE
8
LYELLOW
6
CONTINUOUS
10
39.7742609999999956
20
-58.9111309999999975
11
39.5837849999999989
21
-58.9587499999999949
0
LINE
8
LYELLOW
6
CONTINUOUS
10
39.5837849999999989
20
-58.9587499999999949
11
39.2504519999999957
21
-58.9587499999999949
0
LINE
8
LYELLOW
6
CONTINUOUS
10
39.2504519999999957
20
-58.9587499999999949
11
39.0599759999999989
21
-58.9111309999999975
0
LINE
8
LYELLOW
6
CONTINUOUS
10
39.0599759999999989
20
-58.9111309999999975
11
38.964737999999997
21
-58.8158929999999955
0
LINE
8
LYELLOW
6
CONTINUOUS
10
38.964737999999997
20
-58.8158929999999955
11
38.917117999999995
21
-58.7206550000000007
0
LINE
8
LYELLOW
6
CONTINUOUS
10
38.917117999999995
20
-58.7206550000000007
11
38.917117999999995
21
-58.5301789999999968
0
LINE
8
LYELLOW
6
CONTINUOUS
10
38.917117999999995
20
-58.5301789999999968
11
38.964737999999997
21
-58.4349409999999949
0
LINE
8
LYELLOW
6
CONTINUOUS
10
38.964737999999997
20
-58.4349409999999949
11
39.0599759999999989
21
-58.3397030000000001
0
LINE
8
LYELLOW
6
CONTINUOUS
10
39.0599759999999989
20
-58.3397030000000001
11
39.2504519999999957
21
-58.2920839999999956
0
LINE
8
LYELLOW
6
CONTINUOUS
10
39.2504519999999957
20
-58.2920839999999956
11
39.5837849999999989
21
-58.2920839999999956
0
LINE
8
LYELLOW
6
CONTINUOUS
10
39.5837849999999989
20
-58.2920839999999956
11
39.7742609999999956
21
-58.3397030000000001
0
LINE
8
LYELLOW
6
CONTINUOUS
10
39.7742609999999956
20
-58.3397030000000001
11
39.8694989999999976
21
-58.4349409999999949
0
LINE
8
LYELLOW
6
CONTINUOUS
10
39.8694989999999976
20
-58.4349409999999949
11
39.917117999999995
21
-58.5301789999999968
0
LINE
8
LYELLOW
6
CONTINUOUS
10
38.964737999999997
20
-59.3397030000000001
11
38.917117999999995
21
-59.4825599999999994
0
LINE
8
LYELLOW
6
CONTINUOUS
10
38.917117999999995
20
-59.4825599999999994
11
38.917117999999995
21
-59.7206550000000007
0
LINE
8
LYELLOW
6
CONTINUOUS
10
38.917117999999995
20
-59.7206550000000007
11
38.964737999999997
21
-59.8158929999999955
0
LINE
8
LYELLOW
6
CONTINUOUS
10
38.964737999999997
20
-59.8158929999999955
11
39.0123570000000015
21
-59.8635120000000001
0
LINE
8
LYELLOW
6
CONTINUOUS
10
39.0123570000000015
20
-59.8635120000000001
11
39.1075949999999963
21
-59.9111309999999975
0
LINE
8
LYELLOW
6
CONTINUOUS
10
39.1075949999999963
20
-59.9111309999999975
11
39.2028329999999983
21
-59.9111309999999975
0
LINE
8
LYELLOW
6
CONTINUOUS
10
39.2028329999999983
20
-59.9111309999999975
11
39.2980710000000002
21
-59.8635120000000001
0
LINE
8
LYELLOW
6
CONTINUOUS
10
39.2980710000000002
20
-59.8635120000000001
11
39.3456899999999976
21
-59.8158929999999955
0
LINE
8
LYELLOW
6
CONTINUOUS
10
39.3456899999999976
20
-59.8158929999999955
11
39.393308999999995
21
-59.7206550000000007
0
LINE
8
LYELLOW
6
CONTINUOUS
10
39.393308999999995
20
-59.7206550000000007
11
39.4409279999999995
21
-59.5301789999999968
0
LINE
8
LYELLOW
6
CONTINUOUS
10
39.4409279999999995
20
-59.5301789999999968
11
39.488546999999997
21
-59.4349409999999949
0
LINE
8
LYELLOW
6
CONTINUOUS
10
39.488546999999997
20
-59.4349409999999949
11
39.5361660000000015
21
-59.3873219999999975
0
LINE
8
LYELLOW
6
CONTINUOUS
10
39.5361660000000015
20
-59.3873219999999975
11
39.6314039999999963
21
-59.3397030000000001
0
LINE
8
LYELLOW
6
CONTINUOUS
10
39.6314039999999963
20
-59.3397030000000001
11
39.7266419999999982
21
-59.3397030000000001
0
LINE
8
LYELLOW
6
CONTINUOUS
10
39.7266419999999982
20
-59.3397030000000001
11
39.8218800000000002
21
-59.3873219999999975
0
LINE
8
LYELLOW
6
CONTINUOUS
10
39.8218800000000002
20
-59.3873219999999975
11
39.8694989999999976
21
-59.4349409999999949
0
LINE
8
LYELLOW
6
CONTINUOUS
10
39.8694989999999976
20
-59.4349409999999949
11
39.917117999999995
21
-59.5301789999999968
0
LINE
8
LYELLOW
6
CONTINUOUS
10
39.917117999999995
20
-59.5301789999999968
11
39.917117999999995
21
-59.7682739999999981
0
LINE
8
LYELLOW
6
CONTINUOUS
10
39.917117999999995
20
-59.7682739999999981
11
39.8694989999999976
21
-59.9111309999999975
0
LINE
8
LYELLOW
6
CONTINUOUS
10
38.917117999999995
20
-60.3397030000000001
11
39.917117999999995
21
-60.3397030000000001
0
LINE
8
LYELLOW
6
CONTINUOUS
10
46.667117999999995
20
-47.9468460000000007
11
47.667117999999995
21
-47.9468460000000007
0
LINE
8
LYELLOW
6
CONTINUOUS
10
47.667117999999995
20
-47.9468460000000007
11
47.667117999999995
21
-48.1849409999999949
0
LINE
8
LYELLOW
6
CONTINUOUS
10
47.667117999999995
20
-48.1849409999999949
11
47.6194989999999976
21
-48.3277979999999943
0
LINE
8
LYELLOW
6
CONTINUOUS
10
47.6194989999999976
20
-48.3277979999999943
11
47.5242609999999956
21
-48.4230359999999962
0
LINE
8
LYELLOW
6
CONTINUOUS
10
47.5242609999999956
20
-48.4230359999999962
11
47.4290230000000008
21
-48.4706550000000007
0
LINE
8
LYELLOW
6
CONTINUOUS
10
47.4290230000000008
20
-48.4706550000000007
11
47.238546999999997
21
-48.5182739999999981
0
LINE
8
LYELLOW
6
CONTINUOUS
10
47.238546999999997
20
-48.5182739999999981
11
47.0956899999999976
21
-48.5182739999999981
0
LINE
8
LYELLOW
6
CONTINUOUS
10
47.0956899999999976
20
-48.5182739999999981
11
46.9052140000000009
21
-48.4706550000000007
0
LINE
8
LYELLOW
6
CONTINUOUS
10
46.9052140000000009
20
-48.4706550000000007
11
46.8099759999999989
21
-48.4230359999999962
0
LINE
8
LYELLOW
6
CONTINUOUS
10
46.8099759999999989
20
-48.4230359999999962
11
46.714737999999997
21
-48.3277979999999943
0
LINE
8
LYELLOW
6
CONTINUOUS
10
46.714737999999997
20
-48.3277979999999943
11
46.667117999999995
21
-48.1849409999999949
0
LINE
8
LYELLOW
6
CONTINUOUS
10
46.667117999999995
20
-48.1849409999999949
11
46.667117999999995
21
-47.9468460000000007
0
LINE
8
LYELLOW
6
CONTINUOUS
10
47.667117999999995
20
-49.1373219999999975
11
47.667117999999995
21
-49.2325599999999994
0
LINE
8
LYELLOW
6
CONTINUOUS
10
47.667117999999995
20
-49.2325599999999994
11
47.6194989999999976
21
-49.3277979999999943
0
LINE
8
LYELLOW
6
CONTINUOUS
10
47.6194989999999976
20
-49.3277979999999943
11
47.5718800000000002
21
-49.3754169999999988
0
LINE
8
LYELLOW
6
CONTINUOUS
10
47.5718800000000002
20
-49.3754169999999988
11
47.4766419999999982
21
-49.4230359999999962
0
LINE
8
LYELLOW
6
CONTINUOUS
10
47.4766419999999982
20
-49.4230359999999962
11
47.2861659999999944
21
-49.4706550000000007
0
LINE
8
LYELLOW
6
CONTINUOUS
10
47.2861659999999944
20
-49.4706550000000007
11
47.0480710000000002
21
-49.4706550000000007
0
LINE
8
LYELLOW
6
CONTINUOUS
10
47.0480710000000002
20
-49.4706550000000007
11
46.8575949999999963
21
-49.4230359999999962
0
LINE
8
LYELLOW
6
CONTINUOUS
10
46.8575949999999963
20
-49.4230359999999962
11
46.7623569999999944
21
-49.3754169999999988
0
LINE
8
LYELLOW
6
CONTINUOUS
10
46.7623569999999944
20
-49.3754169999999988
11
46.714737999999997
21
-49.3277979999999943
0
LINE
8
LYELLOW
6
CONTINUOUS
10
46.714737999999997
20
-49.3277979999999943
11
46.667117999999995
21
-49.2325599999999994
0
LINE
8
LYELLOW
6
CONTINUOUS
10
46.667117999999995
20
-49.2325599999999994
11
46.667117999999995
21
-49.1373219999999975
0
LINE
8
LYELLOW
6
CONTINUOUS
10
46.667117999999995
20
-49.1373219999999975
11
46.714737999999997
21
-49.0420839999999956
0
LINE
8
LYELLOW
6
CONTINUOUS
10
46.714737999999997
20
-49.0420839999999956
11
46.7623569999999944
21
-48.9944649999999982
0
LINE
8
LYELLOW
6
CONTINUOUS
10
46.7623569999999944
20
-48.9944649999999982
11
46.8575949999999963
21
-48.9468460000000007
0
LINE
8
LYELLOW
6
CONTINUOUS
10
46.8575949999999963
20
-48.9468460000000007
11
47.0480710000000002
21
-48.8992269999999962
0
LINE
8
LYELLOW
6
CONTINUOUS
10
47.0480710000000002
20
-48.8992269999999962
11
47.2861659999999944
21
-48.8992269999999962
0
LINE
8
LYELLOW
6
CONTINUOUS
10
47.2861659999999944
20
-48.8992269999999962
11
47.4766419999999982
21
-48.9468460000000007
0
LINE
8
LYELLOW
6
CONTINUOUS
10
47.4766419999999982
20
-48.9468460000000007
11
47.5718800000000002
21
-48.9944649999999982
0
LINE
8
LYELLOW
6
CONTINUOUS
10
47.5718800000000002
20
-48.9944649999999982
11
47.6194989999999976
21
-49.0420839999999956
0
LINE
8
LYELLOW
6
CONTINUOUS
10
47.6194989999999976
20
-49.0420839999999956
11
47.667117999999995
21
-49.1373219999999975
0
LINE
8
LYELLOW
6
CONTINUOUS
10
47.667117999999995
20
-59.4230359999999962
11
47.667117999999995
21
-58.9468460000000007
0
LINE
8
LYELLOW
6
CONTINUOUS
10
47.667117999999995
20
-58.9468460000000007
11
47.1909279999999995
21
-58.8992269999999962
0
LINE
8
LYELLOW
6
CONTINUOUS
10
47.1909279999999995
20
-58.8992269999999962
11
47.238546999999997
21
-58.9468460000000007
0
LINE
8
LYELLOW
6
CONTINUOUS
10
47.238546999999997
20
-58.9468460000000007
11
47.2861659999999944
21
-59.0420839999999956
0
LINE
8
LYELLOW
6
CONTINUOUS
10
47.2861659999999944
20
-59.0420839999999956
11
47.2861659999999944
21
-59.2801789999999968
0
LINE
8
LYELLOW
6
CONTINUOUS
10
47.2861659999999944
20
-59.2801789999999968
11
47.238546999999997
21
-59.3754169999999988
0
LINE
8
LYELLOW
6
CONTINUOUS
10
47.238546999999997
20
-59.3754169999999988
11
47.1909279999999995
21
-59.4230359999999962
0
LINE
8
LYELLOW
6
CONTINUOUS
10
47.1909279999999995
20
-59.4230359999999962
11
47.0956899999999976
21
-59.4706550000000007
0
LINE
8
LYELLOW
6
CONTINUOUS
10
47.0956899999999976
20
-59.4706550000000007
11
46.8575949999999963
21
-59.4706550000000007
0
LINE
8
LYELLOW
6
CONTINUOUS
10
46.8575949999999963
20
-59.4706550000000007
11
46.7623569999999944
21
-59.4230359999999962
0
LINE
8
LYELLOW
6
CONTINUOUS
10
46.7623569999999944
20
-59.4230359999999962
11
46.714737999999997
21
-59.3754169999999988
0
LINE
8
LYELLOW
6
CONTINUOUS
10
46.714737999999997
20
-59.3754169999999988
11
46.667117999999995
21
-59.2801789999999968
0
LINE
8
LYELLOW
6
CONTINUOUS
10
46.667117999999995
20
-59.2801789999999968
11
46.667117999999995
21
-59.0420839999999956
0
LINE
8
LYELLOW
6
CONTINUOUS
10
46.667117999999995
20
-59.0420839999999956
11
46.714737999999997
21
-58.9468460000000007
0
LINE
8
LYELLOW
6
CONTINUOUS
10
46.714737999999997
20
-58.9468460000000007
11
46.7623569999999944
21
-58.8992269999999962
0
LINE
8
LYELLOW
6
CONTINUOUS
10
47.667117999999995
20
-59.7563699999999969
11
46.667117999999995
21
-60.0897030000000001
0
LINE
8
LYELLOW
6
CONTINUOUS
10
46.667117999999995
20
-60.0897030000000001
11
47.667117999999995
21
-60.4230359999999962
0
LINE
8
LYELLOW
6
CONTINUOUS
10
42.417117999999995
20
-57.6016079999999988
11
42.417117999999995
21
-58.2206550000000007
0
LINE
8
LYELLOW
6
CONTINUOUS
10
42.417117999999995
20
-58.2206550000000007
11
42.0361660000000015
21
-57.8873219999999975
0
LINE
8
LYELLOW
6
CONTINUOUS
10
42.0361660000000015
20
-57.8873219999999975
11
42.0361660000000015
21
-58.0301789999999968
0
LINE
8
LYELLOW
6
CONTINUOUS
10
42.0361660000000015
20
-58.0301789999999968
11
41.988546999999997
21
-58.1254169999999988
0
LINE
8
LYELLOW
6
CONTINUOUS
10
41.988546999999997
20
-58.1254169999999988
11
41.9409279999999995
21
-58.1730359999999962
0
LINE
8
LYELLOW
6
CONTINUOUS
10
41.9409279999999995
20
-58.1730359999999962
11
41.8456899999999976
21
-58.2206550000000007
0
LINE
8
LYELLOW
6
CONTINUOUS
10
41.8456899999999976
20
-58.2206550000000007
11
41.6075949999999963
21
-58.2206550000000007
0
LINE
8
LYELLOW
6
CONTINUOUS
10
41.6075949999999963
20
-58.2206550000000007
11
41.5123570000000015
21
-58.1730359999999962
0
LINE
8
LYELLOW
6
CONTINUOUS
10
41.5123570000000015
20
-58.1730359999999962
11
41.464737999999997
21
-58.1254169999999988
0
LINE
8
LYELLOW
6
CONTINUOUS
10
41.464737999999997
20
-58.1254169999999988
11
41.417117999999995
21
-58.0301789999999968
0
LINE
8
LYELLOW
6
CONTINUOUS
10
41.417117999999995
20
-58.0301789999999968
11
41.417117999999995
21
-57.7444649999999982
0
LINE
8
LYELLOW
6
CONTINUOUS
10
41.417117999999995
20
-57.7444649999999982
11
41.464737999999997
21
-57.6492269999999962
0
LINE
8
LYELLOW
6
CONTINUOUS
10
41.464737999999997
20
-57.6492269999999962
11
41.5123570000000015
21
-57.6016079999999988
0
LINE
8
LYELLOW
6
CONTINUOUS
10
42.417117999999995
20
-58.5063699999999969
11
41.417117999999995
21
-58.8397030000000001
0
LINE
8
LYELLOW
6
CONTINUOUS
10
41.417117999999995
20
-58.8397030000000001
11
42.417117999999995
21
-59.1730359999999962
0
LINE
8
LYELLOW
6
CONTINUOUS
10
42.417117999999995
20
-59.4111319999999949
11
42.417117999999995
21
-60.0301789999999968
0
LINE
8
LYELLOW
6
CONTINUOUS
10
42.417117999999995
20
-60.0301789999999968
11
42.0361660000000015
21
-59.6968460000000007
0
LINE
8
LYELLOW
6
CONTINUOUS
10
42.0361660000000015
20
-59.6968460000000007
11
42.0361660000000015
21
-59.8397030000000001
0
LINE
8
LYELLOW
6
CONTINUOUS
10
42.0361660000000015
20
-59.8397030000000001
11
41.988546999999997
21
-59.9349409999999949
0
LINE
8
LYELLOW
6
CONTINUOUS
10
41.988546999999997
20
-59.9349409999999949
11
41.9409279999999995
21
-59.9825599999999994
0
LINE
8
LYELLOW
6
CONTINUOUS
10
41.9409279999999995
20
-59.9825599999999994
11
41.8456899999999976
21
-60.0301789999999968
0
LINE
8
LYELLOW
6
CONTINUOUS
10
41.8456899999999976
20
-60.0301789999999968
11
41.6075949999999963
21
-60.0301789999999968
0
LINE
8
LYELLOW
6
CONTINUOUS
10
41.6075949999999963
20
-60.0301789999999968
11
41.5123570000000015
21
-59.9825599999999994
0
LINE
8
LYELLOW
6
CONTINUOUS
10
41.5123570000000015
20
-59.9825599999999994
11
41.464737999999997
21
-59.9349409999999949
0
LINE
8
LYELLOW
6
CONTINUOUS
10
41.464737999999997
20
-59.9349409999999949
11
41.417117999999995
21
-59.8397030000000001
0
LINE
8
LYELLOW
6
CONTINUOUS
10
41.417117999999995
20
-59.8397030000000001
11
41.417117999999995
21
-59.5539889999999943
0
LINE
8
LYELLOW
6
CONTINUOUS
10
41.417117999999995
20
-59.5539889999999943
11
41.464737999999997
21
-59.4587509999999995
0
LINE
8
LYELLOW
6
CONTINUOUS
10
41.464737999999997
20
-59.4587509999999995
11
41.5123570000000015
21
-59.4111319999999949
0
LINE
8
LYELLOW
6
CONTINUOUS
10
42.417117999999995
20
-47.6968460000000007
11
43.417117999999995
21
-47.6968460000000007
0
LINE
8
LYELLOW
6
CONTINUOUS
10
43.417117999999995
20
-47.6968460000000007
11
43.417117999999995
21
-47.9349409999999949
0
LINE
8
LYELLOW
6
CONTINUOUS
10
43.417117999999995
20
-47.9349409999999949
11
43.3694989999999976
21
-48.0777980000000014
0
LINE
8
LYELLOW
6
CONTINUOUS
10
43.3694989999999976
20
-48.0777980000000014
11
43.2742609999999956
21
-48.1730359999999962
0
LINE
8
LYELLOW
6
CONTINUOUS
10
43.2742609999999956
20
-48.1730359999999962
11
43.1790230000000008
21
-48.2206550000000007
0
LINE
8
LYELLOW
6
CONTINUOUS
10
43.1790230000000008
20
-48.2206550000000007
11
42.988546999999997
21
-48.2682739999999981
0
LINE
8
LYELLOW
6
CONTINUOUS
10
42.988546999999997
20
-48.2682739999999981
11
42.8456899999999976
21
-48.2682739999999981
0
LINE
8
LYELLOW
6
CONTINUOUS
10
42.8456899999999976
20
-48.2682739999999981
11
42.6552140000000009
21
-48.2206550000000007
0
LINE
8
LYELLOW
6
CONTINUOUS
10
42.6552140000000009
20
-48.2206550000000007
11
42.5599759999999989
21
-48.1730359999999962
0
LINE
8
LYELLOW
6
CONTINUOUS
10
42.5599759999999989
20
-48.1730359999999962
11
42.464737999999997
21
-48.0777980000000014
0
LINE
8
LYELLOW
6
CONTINUOUS
10
42.464737999999997
20
-48.0777980000000014
11
42.417117999999995
21
-47.9349409999999949
0
LINE
8
LYELLOW
6
CONTINUOUS
10
42.417117999999995
20
-47.9349409999999949
11
42.417117999999995
21
-47.6968460000000007
0
LINE
8
LYELLOW
6
CONTINUOUS
10
43.3218800000000002
20
-48.6492269999999962
11
43.3694989999999976
21
-48.6968460000000007
0
LINE
8
LYELLOW
6
CONTINUOUS
10
43.3694989999999976
20
-48.6968460000000007
11
43.417117999999995
21
-48.7920839999999956
0
LINE
8
LYELLOW
6
CONTINUOUS
10
43.417117999999995
20
-48.7920839999999956
11
43.417117999999995
21
-49.0301789999999968
0
LINE
8
LYELLOW
6
CONTINUOUS
10
43.417117999999995
20
-49.0301789999999968
11
43.3694989999999976
21
-49.1254169999999988
0
LINE
8
LYELLOW
6
CONTINUOUS
10
43.3694989999999976
20
-49.1254169999999988
11
43.3218800000000002
21
-49.1730359999999962
0
LINE
8
LYELLOW
6
CONTINUOUS
10
43.3218800000000002
20
-49.1730359999999962
11
43.2266419999999982
21
-49.2206550000000007
0
LINE
8
LYELLOW
6
CONTINUOUS
10
43.2266419999999982
20
-49.2206550000000007
11
43.1314039999999963
21
-49.2206550000000007
0
LINE
8
LYELLOW
6
CONTINUOUS
10
43.1314039999999963
20
-49.2206550000000007
11
42.988546999999997
21
-49.1730359999999962
0
LINE
8
LYELLOW
6
CONTINUOUS
10
42.988546999999997
20
-49.1730359999999962
11
42.417117999999995
21
-48.6016079999999988
0
LINE
8
LYELLOW
6
CONTINUOUS
10
42.417117999999995
20
-48.6016079999999988
11
42.417117999999995
21
-49.2206550000000007
0
LINE
8
LYELLOW
6
CONTINUOUS
10
33.714737999999997
20
-57.6492269999999962
11
33.667117999999995
21
-57.7920839999999956
0
LINE
8
LYELLOW
6
CONTINUOUS
10
33.667117999999995
20
-57.7920839999999956
11
33.667117999999995
21
-58.0301789999999968
0
LINE
8
LYELLOW
6
CONTINUOUS
10
33.667117999999995
20
-58.0301789999999968
11
33.714737999999997
21
-58.1254169999999988
0
LINE
8
LYELLOW
6
CONTINUOUS
10
33.714737999999997
20
-58.1254169999999988
11
33.7623570000000015
21
-58.1730359999999962
0
LINE
8
LYELLOW
6
CONTINUOUS
10
33.7623570000000015
20
-58.1730359999999962
11
33.8575949999999963
21
-58.2206550000000007
0
LINE
8
LYELLOW
6
CONTINUOUS
10
33.8575949999999963
20
-58.2206550000000007
11
33.9528329999999983
21
-58.2206550000000007
0
LINE
8
LYELLOW
6
CONTINUOUS
10
33.9528329999999983
20
-58.2206550000000007
11
34.0480710000000002
21
-58.1730359999999962
0
LINE
8
LYELLOW
6
CONTINUOUS
10
34.0480710000000002
20
-58.1730359999999962
11
34.0956899999999976
21
-58.1254169999999988
0
LINE
8
LYELLOW
6
CONTINUOUS
10
34.0956899999999976
20
-58.1254169999999988
11
34.143308999999995
21
-58.0301789999999968
0
LINE
8
LYELLOW
6
CONTINUOUS
10
34.143308999999995
20
-58.0301789999999968
11
34.1909279999999995
21
-57.8397030000000001
0
LINE
8
LYELLOW
6
CONTINUOUS
10
34.1909279999999995
20
-57.8397030000000001
11
34.238546999999997
21
-57.7444649999999982
0
LINE
8
LYELLOW
6
CONTINUOUS
10
34.238546999999997
20
-57.7444649999999982
11
34.2861660000000015
21
-57.6968460000000007
0
LINE
8
LYELLOW
6
CONTINUOUS
10
34.2861660000000015
20
-57.6968460000000007
11
34.3814039999999963
21
-57.6492269999999962
0
LINE
8
LYELLOW
6
CONTINUOUS
10
34.3814039999999963
20
-57.6492269999999962
11
34.4766419999999982
21
-57.6492269999999962
0
LINE
8
LYELLOW
6
CONTINUOUS
10
34.4766419999999982
20
-57.6492269999999962
11
34.5718800000000002
21
-57.6968460000000007
0
LINE
8
LYELLOW
6
CONTINUOUS
10
34.5718800000000002
20
-57.6968460000000007
11
34.6194989999999976
21
-57.7444649999999982
0
LINE
8
LYELLOW
6
CONTINUOUS
10
34.6194989999999976
20
-57.7444649999999982
11
34.667117999999995
21
-57.8397030000000001
0
LINE
8
LYELLOW
6
CONTINUOUS
10
34.667117999999995
20
-57.8397030000000001
11
34.667117999999995
21
-58.0777979999999943
0
LINE
8
LYELLOW
6
CONTINUOUS
10
34.667117999999995
20
-58.0777979999999943
11
34.6194989999999976
21
-58.2206550000000007
0
LINE
8
LYELLOW
6
CONTINUOUS
10
33.7623570000000015
20
-59.2206550000000007
11
33.714737999999997
21
-59.1730359999999962
0
LINE
8
LYELLOW
6
CONTINUOUS
10
33.714737999999997
20
-59.1730359999999962
11
33.667117999999995
21
-59.0301789999999968
0
LINE
8
LYELLOW
6
CONTINUOUS
10
33.667117999999995
20
-59.0301789999999968
11
33.667117999999995
21
-58.9349409999999949
0
LINE
8
LYELLOW
6
CONTINUOUS
10
33.667117999999995
20
-58.9349409999999949
11
33.714737999999997
21
-58.7920839999999956
0
LINE
8
LYELLOW
6
CONTINUOUS
10
33.714737999999997
20
-58.7920839999999956
11
33.8099759999999989
21
-58.6968460000000007
0
LINE
8
LYELLOW
6
CONTINUOUS
10
33.8099759999999989
20
-58.6968460000000007
11
33.9052140000000009
21
-58.6492269999999962
0
LINE
8
LYELLOW
6
CONTINUOUS
10
33.9052140000000009
20
-58.6492269999999962
11
34.0956899999999976
21
-58.6016079999999988
0
LINE
8
LYELLOW
6
CONTINUOUS
10
34.0956899999999976
20
-58.6016079999999988
11
34.238546999999997
21
-58.6016079999999988
0
LINE
8
LYELLOW
6
CONTINUOUS
10
34.238546999999997
20
-58.6016079999999988
11
34.4290230000000008
21
-58.6492269999999962
0
LINE
8
LYELLOW
6
CONTINUOUS
10
34.4290230000000008
20
-58.6492269999999962
11
34.5242609999999956
21
-58.6968460000000007
0
LINE
8
LYELLOW
6
CONTINUOUS
10
34.5242609999999956
20
-58.6968460000000007
11
34.6194989999999976
21
-58.7920839999999956
0
LINE
8
LYELLOW
6
CONTINUOUS
10
34.6194989999999976
20
-58.7920839999999956
11
34.667117999999995
21
-58.9349409999999949
0
LINE
8
LYELLOW
6
CONTINUOUS
10
34.667117999999995
20
-58.9349409999999949
11
34.667117999999995
21
-59.0301789999999968
0
LINE
8
LYELLOW
6
CONTINUOUS
10
34.667117999999995
20
-59.0301789999999968
11
34.6194989999999976
21
-59.1730359999999962
0
LINE
8
LYELLOW
6
CONTINUOUS
10
34.6194989999999976
20
-59.1730359999999962
11
34.5718800000000002
21
-59.2206550000000007
0
LINE
8
LYELLOW
6
CONTINUOUS
10
33.667117999999995
20
-59.6492269999999962
11
34.667117999999995
21
-59.6492269999999962
0
LINE
8
LYELLOW
6
CONTINUOUS
10
33.667117999999995
20
-60.2206550000000007
11
34.238546999999997
21
-59.7920839999999956
0
LINE
8
LYELLOW
6
CONTINUOUS
10
34.667117999999995
20
-60.2206550000000007
11
34.0956899999999976
21
-59.6492269999999962
0
LINE
8
LYELLOW
6
CONTINUOUS
10
38.417117999999995
20
-47.4468460000000007
11
39.417117999999995
21
-47.4468460000000007
0
LINE
8
LYELLOW
6
CONTINUOUS
10
39.417117999999995
20
-47.4468460000000007
11
39.417117999999995
21
-47.6849409999999949
0
LINE
8
LYELLOW
6
CONTINUOUS
10
39.417117999999995
20
-47.6849409999999949
11
39.3694989999999976
21
-47.8277980000000014
0
LINE
8
LYELLOW
6
CONTINUOUS
10
39.3694989999999976
20
-47.8277980000000014
11
39.2742609999999956
21
-47.9230359999999962
0
LINE
8
LYELLOW
6
CONTINUOUS
10
39.2742609999999956
20
-47.9230359999999962
11
39.1790230000000008
21
-47.9706550000000007
0
LINE
8
LYELLOW
6
CONTINUOUS
10
39.1790230000000008
20
-47.9706550000000007
11
38.988546999999997
21
-48.0182739999999981
0
LINE
8
LYELLOW
6
CONTINUOUS
10
38.988546999999997
20
-48.0182739999999981
11
38.8456899999999976
21
-48.0182739999999981
0
LINE
8
LYELLOW
6
CONTINUOUS
10
38.8456899999999976
20
-48.0182739999999981
11
38.6552140000000009
21
-47.9706550000000007
0
LINE
8
LYELLOW
6
CONTINUOUS
10
38.6552140000000009
20
-47.9706550000000007
11
38.5599759999999989
21
-47.9230359999999962
0
LINE
8
LYELLOW
6
CONTINUOUS
10
38.5599759999999989
20
-47.9230359999999962
11
38.464737999999997
21
-47.8277980000000014
0
LINE
8
LYELLOW
6
CONTINUOUS
10
38.464737999999997
20
-47.8277980000000014
11
38.417117999999995
21
-47.6849409999999949
0
LINE
8
LYELLOW
6
CONTINUOUS
10
38.417117999999995
20
-47.6849409999999949
11
38.417117999999995
21
-47.4468460000000007
0
LINE
8
LYELLOW
6
CONTINUOUS
10
39.417117999999995
20
-48.3516079999999988
11
39.417117999999995
21
-48.9706550000000007
0
LINE
8
LYELLOW
6
CONTINUOUS
10
39.417117999999995
20
-48.9706550000000007
11
39.0361660000000015
21
-48.6373219999999975
0
LINE
8
LYELLOW
6
CONTINUOUS
10
39.0361660000000015
20
-48.6373219999999975
11
39.0361660000000015
21
-48.7801789999999968
0
LINE
8
LYELLOW
6
CONTINUOUS
10
39.0361660000000015
20
-48.7801789999999968
11
38.988546999999997
21
-48.8754169999999988
0
LINE
8
LYELLOW
6
CONTINUOUS
10
38.988546999999997
20
-48.8754169999999988
11
38.9409279999999995
21
-48.9230359999999962
0
LINE
8
LYELLOW
6
CONTINUOUS
10
38.9409279999999995
20
-48.9230359999999962
11
38.8456899999999976
21
-48.9706550000000007
0
LINE
8
LYELLOW
6
CONTINUOUS
10
38.8456899999999976
20
-48.9706550000000007
11
38.6075949999999963
21
-48.9706550000000007
0
LINE
8
LYELLOW
6
CONTINUOUS
10
38.6075949999999963
20
-48.9706550000000007
11
38.5123570000000015
21
-48.9230359999999962
0
LINE
8
LYELLOW
6
CONTINUOUS
10
38.5123570000000015
20
-48.9230359999999962
11
38.464737999999997
21
-48.8754169999999988
0
LINE
8
LYELLOW
6
CONTINUOUS
10
38.464737999999997
20
-48.8754169999999988
11
38.417117999999995
21
-48.7801789999999968
0
LINE
8
LYELLOW
6
CONTINUOUS
10
38.417117999999995
20
-48.7801789999999968
11
38.417117999999995
21
-48.4944649999999982
0
LINE
8
LYELLOW
6
CONTINUOUS
10
38.417117999999995
20
-48.4944649999999982
11
38.464737999999997
21
-48.3992269999999962
0
LINE
8
LYELLOW
6
CONTINUOUS
10
38.464737999999997
20
-48.3992269999999962
11
38.5123570000000015
21
-48.3516079999999988
0
LINE
8
LYELLOW
6
CONTINUOUS
10
32.417117999999995
20
-48.0539889999999943
11
32.417117999999995
21
-48.6254169999999988
0
LINE
8
LYELLOW
6
CONTINUOUS
10
31.4171179999999985
20
-48.3397030000000001
11
32.417117999999995
21
-48.3397030000000001
0
LINE
8
LYELLOW
6
CONTINUOUS
10
32.417117999999995
20
-48.8635129999999975
11
31.4171179999999985
21
-49.5301789999999968
0
LINE
8
LYELLOW
6
CONTINUOUS
10
32.417117999999995
20
-49.5301789999999968
11
31.4171179999999985
21
-48.8635129999999975
0
LINE
8
LYELLOW
6
CONTINUOUS
10
36.417117999999995
20
-57.1968460000000007
11
37.417117999999995
21
-57.1968460000000007
0
LINE
8
LYELLOW
6
CONTINUOUS
10
37.417117999999995
20
-57.1968460000000007
11
36.7028329999999983
21
-57.5301789999999968
0
LINE
8
LYELLOW
6
CONTINUOUS
10
36.7028329999999983
20
-57.5301789999999968
11
37.417117999999995
21
-57.8635120000000001
0
LINE
8
LYELLOW
6
CONTINUOUS
10
37.417117999999995
20
-57.8635120000000001
11
36.417117999999995
21
-57.8635120000000001
0
LINE
8
LYELLOW
6
CONTINUOUS
10
36.417117999999995
20
-58.3397030000000001
11
37.417117999999995
21
-58.3397030000000001
0
LINE
8
LYELLOW
6
CONTINUOUS
10
36.464737999999997
20
-58.7682739999999981
11
36.417117999999995
21
-58.9111309999999975
0
LINE
8
LYELLOW
6
CONTINUOUS
10
36.417117999999995
20
-58.9111309999999975
11
36.417117999999995
21
-59.1492259999999987
0
LINE
8
LYELLOW
6
CONTINUOUS
10
36.417117999999995
20
-59.1492259999999987
11
36.464737999999997
21
-59.2444640000000007
0
LINE
8
LYELLOW
6
CONTINUOUS
10
36.464737999999997
20
-59.2444640000000007
11
36.5123570000000015
21
-59.2920829999999981
0
LINE
8
LYELLOW
6
CONTINUOUS
10
36.5123570000000015
20
-59.2920829999999981
11
36.6075949999999963
21
-59.3397019999999955
0
LINE
8
LYELLOW
6
CONTINUOUS
10
36.6075949999999963
20
-59.3397019999999955
11
36.7028329999999983
21
-59.3397019999999955
0
LINE
8
LYELLOW
6
CONTINUOUS
10
36.7028329999999983
20
-59.3397019999999955
11
36.7980710000000002
21
-59.2920829999999981
0
LINE
8
LYELLOW
6
CONTINUOUS
10
36.7980710000000002
20
-59.2920829999999981
11
36.8456899999999976
21
-59.2444640000000007
0
LINE
8
LYELLOW
6
CONTINUOUS
10
36.8456899999999976
20
-59.2444640000000007
11
36.893308999999995
21
-59.1492259999999987
0
LINE
8
LYELLOW
6
CONTINUOUS
10
36.893308999999995
20
-59.1492259999999987
11
36.9409279999999995
21
-58.9587499999999949
0
LINE
8
LYELLOW
6
CONTINUOUS
10
36.9409279999999995
20
-58.9587499999999949
11
36.988546999999997
21
-58.8635120000000001
0
LINE
8
LYELLOW
6
CONTINUOUS
10
36.988546999999997
20
-58.8635120000000001
11
37.0361660000000015
21
-58.8158929999999955
0
LINE
8
LYELLOW
6
CONTINUOUS
10
37.0361660000000015
20
-58.8158929999999955
11
37.1314039999999963
21
-58.7682739999999981
0
LINE
8
LYELLOW
6
CONTINUOUS
10
37.1314039999999963
20
-58.7682739999999981
11
37.2266419999999982
21
-58.7682739999999981
0
LINE
8
LYELLOW
6
CONTINUOUS
10
37.2266419999999982
20
-58.7682739999999981
11
37.3218800000000002
21
-58.8158929999999955
0
LINE
8
LYELLOW
6
CONTINUOUS
10
37.3218800000000002
20
-58.8158929999999955
11
37.3694989999999976
21
-58.8635120000000001
0
LINE
8
LYELLOW
6
CONTINUOUS
10
37.3694989999999976
20
-58.8635120000000001
11
37.417117999999995
21
-58.9587499999999949
0
LINE
8
LYELLOW
6
CONTINUOUS
10
37.417117999999995
20
-58.9587499999999949
11
37.417117999999995
21
-59.1968449999999962
0
LINE
8
LYELLOW
6
CONTINUOUS
10
37.417117999999995
20
-59.1968449999999962
11
37.3694989999999976
21
-59.3397019999999955
0
LINE
8
LYELLOW
6
CONTINUOUS
10
37.417117999999995
20
-59.9587499999999949
11
37.417117999999995
21
-60.1492259999999987
0
LINE
8
LYELLOW
6
CONTINUOUS
10
37.417117999999995
20
-60.1492259999999987
11
37.3694989999999976
21
-60.2444640000000007
0
LINE
8
LYELLOW
6
CONTINUOUS
10
37.3694989999999976
20
-60.2444640000000007
11
37.2742609999999956
21
-60.3397019999999955
0
LINE
8
LYELLOW
6
CONTINUOUS
10
37.2742609999999956
20
-60.3397019999999955
11
37.0837849999999989
21
-60.387321
0
LINE
8
LYELLOW
6
CONTINUOUS
10
37.0837849999999989
20
-60.387321
11
36.7504519999999957
21
-60.387321
0
LINE
8
LYELLOW
6
CONTINUOUS
10
36.7504519999999957
20
-60.387321
11
36.5599759999999989
21
-60.3397019999999955
0
LINE
8
LYELLOW
6
CONTINUOUS
10
36.5599759999999989
20
-60.3397019999999955
11
36.464737999999997
21
-60.2444640000000007
0
LINE
8
LYELLOW
6
CONTINUOUS
10
36.464737999999997
20
-60.2444640000000007
11
36.417117999999995
21
-60.1492259999999987
0
LINE
8
LYELLOW
6
CONTINUOUS
10
36.417117999999995
20
-60.1492259999999987
11
36.417117999999995
21
-59.9587499999999949
0
LINE
8
LYELLOW
6
CONTINUOUS
10
36.417117999999995
20
-59.9587499999999949
11
36.464737999999997
21
-59.8635120000000001
0
LINE
8
LYELLOW
6
CONTINUOUS
10
36.464737999999997
20
-59.8635120000000001
11
36.5599759999999989
21
-59.7682739999999981
0
LINE
8
LYELLOW
6
CONTINUOUS
10
36.5599759999999989
20
-59.7682739999999981
11
36.7504519999999957
21
-59.7206550000000007
0
LINE
8
LYELLOW
6
CONTINUOUS
10
36.7504519999999957
20
-59.7206550000000007
11
37.0837849999999989
21
-59.7206550000000007
0
LINE
8
LYELLOW
6
CONTINUOUS
10
37.0837849999999989
20
-59.7206550000000007
11
37.2742609999999956
21
-59.7682739999999981
0
LINE
8
LYELLOW
6
CONTINUOUS
10
37.2742609999999956
20
-59.7682739999999981
11
37.3694989999999976
21
-59.8635120000000001
0
LINE
8
LYELLOW
6
CONTINUOUS
10
37.3694989999999976
20
-59.8635120000000001
11
37.417117999999995
21
-59.9587499999999949
0
LINE
8
LYELLOW
6
CONTINUOUS
10
36.714737999999997
20
-47.6492269999999962
11
36.667117999999995
21
-47.7920839999999956
0
LINE
8
LYELLOW
6
CONTINUOUS
10
36.667117999999995
20
-47.7920839999999956
11
36.667117999999995
21
-48.0301789999999968
0
LINE
8
LYELLOW
6
CONTINUOUS
10
36.667117999999995
20
-48.0301789999999968
11
36.714737999999997
21
-48.1254169999999988
0
LINE
8
LYELLOW
6
CONTINUOUS
10
36.714737999999997
20
-48.1254169999999988
11
36.7623570000000015
21
-48.1730359999999962
0
LINE
8
LYELLOW
6
CONTINUOUS
10
36.7623570000000015
20
-48.1730359999999962
11
36.8575949999999963
21
-48.2206550000000007
0
LINE
8
LYELLOW
6
CONTINUOUS
10
36.8575949999999963
20
-48.2206550000000007
11
36.9528329999999983
21
-48.2206550000000007
0
LINE
8
LYELLOW
6
CONTINUOUS
10
36.9528329999999983
20
-48.2206550000000007
11
37.0480710000000002
21
-48.1730359999999962
0
LINE
8
LYELLOW
6
CONTINUOUS
10
37.0480710000000002
20
-48.1730359999999962
11
37.0956899999999976
21
-48.1254169999999988
0
LINE
8
LYELLOW
6
CONTINUOUS
10
37.0956899999999976
20
-48.1254169999999988
11
37.143308999999995
21
-48.0301789999999968
0
LINE
8
LYELLOW
6
CONTINUOUS
10
37.143308999999995
20
-48.0301789999999968
11
37.1909279999999995
21
-47.8397030000000001
0
LINE
8
LYELLOW
6
CONTINUOUS
10
37.1909279999999995
20
-47.8397030000000001
11
37.238546999999997
21
-47.7444649999999982
0
LINE
8
LYELLOW
6
CONTINUOUS
10
37.238546999999997
20
-47.7444649999999982
11
37.2861660000000015
21
-47.6968460000000007
0
LINE
8
LYELLOW
6
CONTINUOUS
10
37.2861660000000015
20
-47.6968460000000007
11
37.3814039999999963
21
-47.6492269999999962
0
LINE
8
LYELLOW
6
CONTINUOUS
10
37.3814039999999963
20
-47.6492269999999962
11
37.4766419999999982
21
-47.6492269999999962
0
LINE
8
LYELLOW
6
CONTINUOUS
10
37.4766419999999982
20
-47.6492269999999962
11
37.5718800000000002
21
-47.6968460000000007
0
LINE
8
LYELLOW
6
CONTINUOUS
10
37.5718800000000002
20
-47.6968460000000007
11
37.6194989999999976
21
-47.7444649999999982
0
LINE
8
LYELLOW
6
CONTINUOUS
10
37.6194989999999976
20
-47.7444649999999982
11
37.667117999999995
21
-47.8397030000000001
0
LINE
8
LYELLOW
6
CONTINUOUS
10
37.667117999999995
20
-47.8397030000000001
11
37.667117999999995
21
-48.0777980000000014
0
LINE
8
LYELLOW
6
CONTINUOUS
10
37.667117999999995
20
-48.0777980000000014
11
37.6194989999999976
21
-48.2206550000000007
0
LINE
8
LYELLOW
6
CONTINUOUS
10
36.667117999999995
20
-48.6492269999999962
11
37.667117999999995
21
-48.6492269999999962
0
LINE
8
LYELLOW
6
CONTINUOUS
10
37.667117999999995
20
-48.6492269999999962
11
37.667117999999995
21
-48.8873219999999975
0
LINE
8
LYELLOW
6
CONTINUOUS
10
37.667117999999995
20
-48.8873219999999975
11
37.6194989999999976
21
-49.0301789999999968
0
LINE
8
LYELLOW
6
CONTINUOUS
10
37.6194989999999976
20
-49.0301789999999968
11
37.5242609999999956
21
-49.1254169999999988
0
LINE
8
LYELLOW
6
CONTINUOUS
10
37.5242609999999956
20
-49.1254169999999988
11
37.4290230000000008
21
-49.1730359999999962
0
LINE
8
LYELLOW
6
CONTINUOUS
10
37.4290230000000008
20
-49.1730359999999962
11
37.238546999999997
21
-49.2206550000000007
0
LINE
8
LYELLOW
6
CONTINUOUS
10
37.238546999999997
20
-49.2206550000000007
11
37.0956899999999976
21
-49.2206550000000007
0
LINE
8
LYELLOW
6
CONTINUOUS
10
37.0956899999999976
20
-49.2206550000000007
11
36.9052140000000009
21
-49.1730359999999962
0
LINE
8
LYELLOW
6
CONTINUOUS
10
36.9052140000000009
20
-49.1730359999999962
11
36.8099759999999989
21
-49.1254169999999988
0
LINE
8
LYELLOW
6
CONTINUOUS
10
36.8099759999999989
20
-49.1254169999999988
11
36.714737999999997
21
-49.0301789999999968
0
LINE
8
LYELLOW
6
CONTINUOUS
10
36.714737999999997
20
-49.0301789999999968
11
36.667117999999995
21
-48.8873219999999975
0
LINE
8
LYELLOW
6
CONTINUOUS
10
36.667117999999995
20
-48.8873219999999975
11
36.667117999999995
21
-48.6492269999999962
0
LINE
8
LYELLOW
6
CONTINUOUS
10
36.9528329999999983
20
-49.6016079999999988
11
36.9528329999999983
21
-50.0777979999999943
0
LINE
8
LYELLOW
6
CONTINUOUS
10
36.667117999999995
20
-49.5063699999999969
11
37.667117999999995
21
-49.8397030000000001
0
LINE
8
LYELLOW
6
CONTINUOUS
10
37.667117999999995
20
-49.8397030000000001
11
36.667117999999995
21
-50.1730359999999962
0
LINE
8
LYELLOW
6
CONTINUOUS
10
45.1194989999999976
20
-60.2206550000000007
11
45.167117999999995
21
-60.1254169999999988
0
LINE
8
LYELLOW
6
CONTINUOUS
10
45.167117999999995
20
-60.1254169999999988
11
45.167117999999995
21
-59.9825599999999994
0
LINE
8
LYELLOW
6
CONTINUOUS
10
45.167117999999995
20
-59.9825599999999994
11
45.1194989999999976
21
-59.8397030000000001
0
LINE
8
LYELLOW
6
CONTINUOUS
10
45.1194989999999976
20
-59.8397030000000001
11
45.0242609999999956
21
-59.7444649999999982
0
LINE
8
LYELLOW
6
CONTINUOUS
10
45.0242609999999956
20
-59.7444649999999982
11
44.9290230000000008
21
-59.6968460000000007
0
LINE
8
LYELLOW
6
CONTINUOUS
10
44.9290230000000008
20
-59.6968460000000007
11
44.738546999999997
21
-59.6492269999999962
0
LINE
8
LYELLOW
6
CONTINUOUS
10
44.738546999999997
20
-59.6492269999999962
11
44.5956899999999976
21
-59.6492269999999962
0
LINE
8
LYELLOW
6
CONTINUOUS
10
44.5956899999999976
20
-59.6492269999999962
11
44.4052140000000009
21
-59.6968460000000007
0
LINE
8
LYELLOW
6
CONTINUOUS
10
44.4052140000000009
20
-59.6968460000000007
11
44.3099759999999989
21
-59.7444649999999982
0
LINE
8
LYELLOW
6
CONTINUOUS
10
44.3099759999999989
20
-59.7444649999999982
11
44.214737999999997
21
-59.8397030000000001
0
LINE
8
LYELLOW
6
CONTINUOUS
10
44.214737999999997
20
-59.8397030000000001
11
44.167117999999995
21
-59.9825599999999994
0
LINE
8
LYELLOW
6
CONTINUOUS
10
44.167117999999995
20
-59.9825599999999994
11
44.167117999999995
21
-60.0777979999999943
0
LINE
8
LYELLOW
6
CONTINUOUS
10
44.167117999999995
20
-60.0777979999999943
11
44.214737999999997
21
-60.2206550000000007
0
LINE
8
LYELLOW
6
CONTINUOUS
10
44.214737999999997
20
-60.2206550000000007
11
44.2623570000000015
21
-60.2682739999999981
0
LINE
8
LYELLOW
6
CONTINUOUS
10
44.2623570000000015
20
-60.2682739999999981
11
44.5956899999999976
21
-60.2682739999999981
0
LINE
8
LYELLOW
6
CONTINUOUS
10
44.5956899999999976
20
-60.2682739999999981
11
44.5956899999999976
21
-60.0777979999999943
0
LINE
8
LYELLOW
6
CONTINUOUS
10
43.917117999999995
20
-47.9468460000000007
11
44.917117999999995
21
-47.9468460000000007
0
LINE
8
LYELLOW
6
CONTINUOUS
10
44.917117999999995
20
-47.9468460000000007
11
44.917117999999995
21
-48.1849409999999949
0
LINE
8
LYELLOW
6
CONTINUOUS
10
44.917117999999995
20
-48.1849409999999949
11
44.8694989999999976
21
-48.3277979999999943
0
LINE
8
LYELLOW
6
CONTINUOUS
10
44.8694989999999976
20
-48.3277979999999943
11
44.7742609999999956
21
-48.4230359999999962
0
LINE
8
LYELLOW
6
CONTINUOUS
10
44.7742609999999956
20
-48.4230359999999962
11
44.6790230000000008
21
-48.4706550000000007
0
LINE
8
LYELLOW
6
CONTINUOUS
10
44.6790230000000008
20
-48.4706550000000007
11
44.488546999999997
21
-48.5182739999999981
0
LINE
8
LYELLOW
6
CONTINUOUS
10
44.488546999999997
20
-48.5182739999999981
11
44.3456899999999976
21
-48.5182739999999981
0
LINE
8
LYELLOW
6
CONTINUOUS
10
44.3456899999999976
20
-48.5182739999999981
11
44.1552140000000009
21
-48.4706550000000007
0
LINE
8
LYELLOW
6
CONTINUOUS
10
44.1552140000000009
20
-48.4706550000000007
11
44.0599759999999989
21
-48.4230359999999962
0
LINE
8
LYELLOW
6
CONTINUOUS
10
44.0599759999999989
20
-48.4230359999999962
11
43.964737999999997
21
-48.3277979999999943
0
LINE
8
LYELLOW
6
CONTINUOUS
10
43.964737999999997
20
-48.3277979999999943
11
43.917117999999995
21
-48.1849409999999949
0
LINE
8
LYELLOW
6
CONTINUOUS
10
43.917117999999995
20
-48.1849409999999949
11
43.917117999999995
21
-47.9468460000000007
0
LINE
8
LYELLOW
6
CONTINUOUS
10
43.917117999999995
20
-49.4706550000000007
11
43.917117999999995
21
-48.8992269999999962
0
LINE
8
LYELLOW
6
CONTINUOUS
10
43.917117999999995
20
-49.1849409999999949
11
44.917117999999995
21
-49.1849409999999949
0
LINE
8
LYELLOW
6
CONTINUOUS
10
44.917117999999995
20
-49.1849409999999949
11
44.7742609999999956
21
-49.0897030000000001
0
LINE
8
LYELLOW
6
CONTINUOUS
10
44.7742609999999956
20
-49.0897030000000001
11
44.6790230000000008
21
-48.9944649999999982
0
LINE
8
LYELLOW
6
CONTINUOUS
10
44.6790230000000008
20
-48.9944649999999982
11
44.6314039999999963
21
-48.8992269999999962
0
LINE
8
LYELLOW
6
CONTINUOUS
10
34.214737999999997
20
-47.8992269999999962
11
34.167117999999995
21
-48.0420839999999956
0
LINE
8
LYELLOW
6
CONTINUOUS
10
34.167117999999995
20
-48.0420839999999956
11
34.167117999999995
21
-48.2801789999999968
0
LINE
8
LYELLOW
6
CONTINUOUS
10
34.167117999999995
20
-48.2801789999999968
11
34.214737999999997
21
-48.3754169999999988
0
LINE
8
LYELLOW
6
CONTINUOUS
10
34.214737999999997
20
-48.3754169999999988
11
34.2623570000000015
21
-48.4230359999999962
0
LINE
8
LYELLOW
6
CONTINUOUS
10
34.2623570000000015
20
-48.4230359999999962
11
34.3575949999999963
21
-48.4706550000000007
0
LINE
8
LYELLOW
6
CONTINUOUS
10
34.3575949999999963
20
-48.4706550000000007
11
34.4528329999999983
21
-48.4706550000000007
0
LINE
8
LYELLOW
6
CONTINUOUS
10
34.4528329999999983
20
-48.4706550000000007
11
34.5480710000000002
21
-48.4230359999999962
0
LINE
8
LYELLOW
6
CONTINUOUS
10
34.5480710000000002
20
-48.4230359999999962
11
34.5956899999999976
21
-48.3754169999999988
0
LINE
8
LYELLOW
6
CONTINUOUS
10
34.5956899999999976
20
-48.3754169999999988
11
34.643308999999995
21
-48.2801789999999968
0
LINE
8
LYELLOW
6
CONTINUOUS
10
34.643308999999995
20
-48.2801789999999968
11
34.6909279999999995
21
-48.0897030000000001
0
LINE
8
LYELLOW
6
CONTINUOUS
10
34.6909279999999995
20
-48.0897030000000001
11
34.738546999999997
21
-47.9944649999999982
0
LINE
8
LYELLOW
6
CONTINUOUS
10
34.738546999999997
20
-47.9944649999999982
11
34.7861660000000015
21
-47.9468460000000007
0
LINE
8
LYELLOW
6
CONTINUOUS
10
34.7861660000000015
20
-47.9468460000000007
11
34.8814039999999963
21
-47.8992269999999962
0
LINE
8
LYELLOW
6
CONTINUOUS
10
34.8814039999999963
20
-47.8992269999999962
11
34.9766419999999982
21
-47.8992269999999962
0
LINE
8
LYELLOW
6
CONTINUOUS
10
34.9766419999999982
20
-47.8992269999999962
11
35.0718800000000002
21
-47.9468460000000007
0
LINE
8
LYELLOW
6
CONTINUOUS
10
35.0718800000000002
20
-47.9468460000000007
11
35.1194989999999976
21
-47.9944649999999982
0
LINE
8
LYELLOW
6
CONTINUOUS
10
35.1194989999999976
20
-47.9944649999999982
11
35.167117999999995
21
-48.0897030000000001
0
LINE
8
LYELLOW
6
CONTINUOUS
10
35.167117999999995
20
-48.0897030000000001
11
35.167117999999995
21
-48.3277979999999943
0
LINE
8
LYELLOW
6
CONTINUOUS
10
35.167117999999995
20
-48.3277979999999943
11
35.1194989999999976
21
-48.4706550000000007
0
LINE
8
LYELLOW
6
CONTINUOUS
10
34.2623570000000015
20
-49.4706550000000007
11
34.214737999999997
21
-49.4230359999999962
0
LINE
8
LYELLOW
6
CONTINUOUS
10
34.214737999999997
20
-49.4230359999999962
11
34.167117999999995
21
-49.2801789999999968
0
LINE
8
LYELLOW
6
CONTINUOUS
10
34.167117999999995
20
-49.2801789999999968
11
34.167117999999995
21
-49.1849409999999949
0
LINE
8
LYELLOW
6
CONTINUOUS
10
34.167117999999995
20
-49.1849409999999949
11
34.214737999999997
21
-49.0420839999999956
0
LINE
8
LYELLOW
6
CONTINUOUS
10
34.214737999999997
20
-49.0420839999999956
11
34.3099759999999989
21
-48.9468460000000007
0
LINE
8
LYELLOW
6
CONTINUOUS
10
34.3099759999999989
20
-48.9468460000000007
11
34.4052140000000009
21
-48.8992269999999962
0
LINE
8
LYELLOW
6
CONTINUOUS
10
34.4052140000000009
20
-48.8992269999999962
11
34.5956899999999976
21
-48.8516079999999988
0
LINE
8
LYELLOW
6
CONTINUOUS
10
34.5956899999999976
20
-48.8516079999999988
11
34.738546999999997
21
-48.8516079999999988
0
LINE
8
LYELLOW
6
CONTINUOUS
10
34.738546999999997
20
-48.8516079999999988
11
34.9290230000000008
21
-48.8992269999999962
0
LINE
8
LYELLOW
6
CONTINUOUS
10
34.9290230000000008
20
-48.8992269999999962
11
35.0242609999999956
21
-48.9468460000000007
0
LINE
8
LYELLOW
6
CONTINUOUS
10
35.0242609999999956
20
-48.9468460000000007
11
35.1194989999999976
21
-49.0420839999999956
0
LINE
8
LYELLOW
6
CONTINUOUS
10
35.1194989999999976
20
-49.0420839999999956
11
35.167117999999995
21
-49.1849409999999949
0
LINE
8
LYELLOW
6
CONTINUOUS
10
35.167117999999995
20
-49.1849409999999949
11
35.167117999999995
21
-49.2801789999999968
0
LINE
8
LYELLOW
6
CONTINUOUS
10
35.167117999999995
20
-49.2801789999999968
11
35.1194989999999976
21
-49.4230359999999962
0
LINE
8
LYELLOW
6
CONTINUOUS
10
35.1194989999999976
20
-49.4230359999999962
11
35.0718800000000002
21
-49.4706550000000007
0
LINE
8
LYELLOW
6
CONTINUOUS
10
34.167117999999995
20
-50.3754169999999988
11
34.167117999999995
21
-49.8992269999999962
0
LINE
8
LYELLOW
6
CONTINUOUS
10
34.167117999999995
20
-49.8992269999999962
11
35.167117999999995
21
-49.8992269999999962
0
LINE
8
LYELLOW
6
CONTINUOUS
10
31.1671179999999985
20
-59.5182739999999981
11
31.6433089999999986
21
-59.1849409999999949
0
LINE
8
LYELLOW
6
CONTINUOUS
10
31.1671179999999985
20
-58.9468460000000007
11
32.167117999999995
21
-58.9468460000000007
0
LINE
8
LYELLOW
6
CONTINUOUS
10
32.167117999999995
20
-58.9468460000000007
11
32.167117999999995
21
-59.3277979999999943
0
LINE
8
LYELLOW
6
CONTINUOUS
10
32.167117999999995
20
-59.3277979999999943
11
32.1194989999999976
21
-59.4230359999999962
0
LINE
8
LYELLOW
6
CONTINUOUS
10
32.1194989999999976
20
-59.4230359999999962
11
32.0718800000000002
21
-59.4706550000000007
0
LINE
8
LYELLOW
6
CONTINUOUS
10
32.0718800000000002
20
-59.4706550000000007
11
31.9766419999999982
21
-59.5182739999999981
0
LINE
8
LYELLOW
6
CONTINUOUS
10
31.9766419999999982
20
-59.5182739999999981
11
31.8337849999999989
21
-59.5182739999999981
0
LINE
8
LYELLOW
6
CONTINUOUS
10
31.8337849999999989
20
-59.5182739999999981
11
31.738546999999997
21
-59.4706550000000007
0
LINE
8
LYELLOW
6
CONTINUOUS
10
31.738546999999997
20
-59.4706550000000007
11
31.6909279999999995
21
-59.4230359999999962
0
LINE
8
LYELLOW
6
CONTINUOUS
10
31.6909279999999995
20
-59.4230359999999962
11
31.6433089999999986
21
-59.3277979999999943
0
LINE
8
LYELLOW
6
CONTINUOUS
10
31.6433089999999986
20
-59.3277979999999943
11
31.6433089999999986
21
-58.9468460000000007
0
LINE
8
LYELLOW
6
CONTINUOUS
10
32.167117999999995
20
-59.8516079999999988
11
31.1671179999999985
21
-60.5182739999999981
0
LINE
8
LYELLOW
6
CONTINUOUS
10
32.167117999999995
20
-60.5182739999999981
11
31.1671179999999985
21
-59.8516079999999988
0
LINE
8
LYELLOW
6
CONTINUOUS
10
1.9746789999999999
20
-4.4328319999999994
11
1.9746789999999999
21
-3.4328319999999999
0
LINE
8
LYELLOW
6
CONTINUOUS
10
1.9746789999999999
20
-3.4328319999999999
11
2.212774
21
-3.4328319999999999
0
LINE
8
LYELLOW
6
CONTINUOUS
10
2.212774
20
-3.4328319999999999
11
2.3556309999999998
21
-3.480451
0
LINE
8
LYELLOW
6
CONTINUOUS
10
2.3556309999999998
20
-3.480451
11
2.450869
21
-3.5756889999999997
0
LINE
8
LYELLOW
6
CONTINUOUS
10
2.450869
20
-3.5756889999999997
11
2.498488
21
-3.6709269999999998
0
LINE
8
LYELLOW
6
CONTINUOUS
10
2.498488
20
-3.6709269999999998
11
2.5461069999999997
21
-3.8614029999999997
0
LINE
8
LYELLOW
6
CONTINUOUS
10
2.5461069999999997
20
-3.8614029999999997
11
2.5461069999999997
21
-4.0042599999999995
0
LINE
8
LYELLOW
6
CONTINUOUS
10
2.5461069999999997
20
-4.0042599999999995
11
2.498488
21
-4.1947359999999998
0
LINE
8
LYELLOW
6
CONTINUOUS
10
2.498488
20
-4.1947359999999998
11
2.450869
21
-4.289974
0
LINE
8
LYELLOW
6
CONTINUOUS
10
2.450869
20
-4.289974
11
2.3556309999999998
21
-4.3852129999999994
0
LINE
8
LYELLOW
6
CONTINUOUS
10
2.3556309999999998
20
-4.3852129999999994
11
2.212774
21
-4.4328319999999994
0
LINE
8
LYELLOW
6
CONTINUOUS
10
2.212774
20
-4.4328319999999994
11
1.9746789999999999
21
-4.4328319999999994
0
LINE
8
LYELLOW
6
CONTINUOUS
10
2.92706
20
-4.3852129999999994
11
3.0699169999999998
21
-4.4328319999999994
0
LINE
8
LYELLOW
6
CONTINUOUS
10
3.0699169999999998
20
-4.4328319999999994
11
3.3080119999999997
21
-4.4328319999999994
0
LINE
8
LYELLOW
6
CONTINUOUS
10
3.3080119999999997
20
-4.4328319999999994
11
3.4032499999999999
21
-4.3852129999999994
0
LINE
8
LYELLOW
6
CONTINUOUS
10
3.4032499999999999
20
-4.3852129999999994
11
3.450869
21
-4.337593
0
LINE
8
LYELLOW
6
CONTINUOUS
10
3.450869
20
-4.337593
11
3.498488
21
-4.2423549999999999
0
LINE
8
LYELLOW
6
CONTINUOUS
10
3.498488
20
-4.2423549999999999
11
3.498488
21
-4.1471169999999997
0
LINE
8
LYELLOW
6
CONTINUOUS
10
3.498488
20
-4.1471169999999997
11
3.450869
21
-4.0518789999999996
0
LINE
8
LYELLOW
6
CONTINUOUS
10
3.450869
20
-4.0518789999999996
11
3.4032499999999999
21
-4.0042599999999995
0
LINE
8
LYELLOW
6
CONTINUOUS
10
3.4032499999999999
20
-4.0042599999999995
11
3.3080119999999997
21
-3.9566409999999999
0
LINE
8
LYELLOW
6
CONTINUOUS
10
3.3080119999999997
20
-3.9566409999999999
11
3.1175359999999999
21
-3.9090219999999998
0
LINE
8
LYELLOW
6
CONTINUOUS
10
3.1175359999999999
20
-3.9090219999999998
11
3.0222979999999997
21
-3.8614029999999997
0
LINE
8
LYELLOW
6
CONTINUOUS
10
3.0222979999999997
20
-3.8614029999999997
11
2.9746790000000001
21
-3.8137839999999996
0
LINE
8
LYELLOW
6
CONTINUOUS
10
2.9746790000000001
20
-3.8137839999999996
11
2.92706
21
-3.7185459999999999
0
LINE
8
LYELLOW
6
CONTINUOUS
10
2.92706
20
-3.7185459999999999
11
2.92706
21
-3.6233079999999998
0
LINE
8
LYELLOW
6
CONTINUOUS
10
2.92706
20
-3.6233079999999998
11
2.9746790000000001
21
-3.52807
0
LINE
8
LYELLOW
6
CONTINUOUS
10
2.9746790000000001
20
-3.52807
11
3.0222979999999997
21
-3.480451
0
LINE
8
LYELLOW
6
CONTINUOUS
10
3.0222979999999997
20
-3.480451
11
3.1175359999999999
21
-3.4328319999999999
0
LINE
8
LYELLOW
6
CONTINUOUS
10
3.1175359999999999
20
-3.4328319999999999
11
3.3556309999999998
21
-3.4328319999999999
0
LINE
8
LYELLOW
6
CONTINUOUS
10
3.3556309999999998
20
-3.4328319999999999
11
3.498488
21
-3.480451
0
LINE
8
LYELLOW
6
CONTINUOUS
10
4.450869
20
-4.4328319999999994
11
3.8794409999999999
21
-4.4328319999999994
0
LINE
8
LYELLOW
6
CONTINUOUS
10
4.1651549999999995
20
-4.4328319999999994
11
4.1651549999999995
21
-3.4328319999999999
0
LINE
8
LYELLOW
6
CONTINUOUS
10
4.1651549999999995
20
-3.4328319999999999
11
4.0699170000000002
21
-3.5756889999999997
0
LINE
8
LYELLOW
6
CONTINUOUS
10
4.0699170000000002
20
-3.5756889999999997
11
3.9746789999999996
21
-3.6709269999999998
0
LINE
8
LYELLOW
6
CONTINUOUS
10
3.9746789999999996
20
-3.6709269999999998
11
3.8794409999999999
21
-3.7185459999999999
0
LINE
8
LYELLOW
6
CONTINUOUS
10
44.1366659999999982
20
-9.2398189999999989
11
44.1366659999999982
21
-9.9541039999999992
0
LINE
8
LYELLOW
6
CONTINUOUS
10
44.1366659999999982
20
-9.9541039999999992
11
44.0890470000000008
21
-10.0969610000000003
0
LINE
8
LYELLOW
6
CONTINUOUS
10
44.0890470000000008
20
-10.0969610000000003
11
43.9938089999999988
21
-10.1921999999999997
0
LINE
8
LYELLOW
6
CONTINUOUS
10
43.9938089999999988
20
-10.1921999999999997
11
43.8509519999999995
21
-10.2398189999999989
0
LINE
8
LYELLOW
6
CONTINUOUS
10
43.8509519999999995
20
-10.2398189999999989
11
43.7557139999999976
21
-10.2398189999999989
0
LINE
8
LYELLOW
6
CONTINUOUS
10
45.0414279999999962
20
-9.2398189999999989
11
44.8509519999999995
21
-9.2398189999999989
0
LINE
8
LYELLOW
6
CONTINUOUS
10
44.8509519999999995
20
-9.2398189999999989
11
44.7557139999999976
21
-9.2874379999999999
0
LINE
8
LYELLOW
6
CONTINUOUS
10
44.7557139999999976
20
-9.2874379999999999
11
44.7080950000000001
21
-9.3350569999999991
0
LINE
8
LYELLOW
6
CONTINUOUS
10
44.7080950000000001
20
-9.3350569999999991
11
44.6128569999999982
21
-9.4779140000000002
0
LINE
8
LYELLOW
6
CONTINUOUS
10
44.6128569999999982
20
-9.4779140000000002
11
44.5652380000000008
21
-9.6683899999999987
0
LINE
8
LYELLOW
6
CONTINUOUS
10
44.5652380000000008
20
-9.6683899999999987
11
44.5652380000000008
21
-10.0493419999999993
0
LINE
8
LYELLOW
6
CONTINUOUS
10
44.5652380000000008
20
-10.0493419999999993
11
44.6128569999999982
21
-10.1445799999999995
0
LINE
8
LYELLOW
6
CONTINUOUS
10
44.6128569999999982
20
-10.1445799999999995
11
44.6604759999999956
21
-10.1921999999999997
0
LINE
8
LYELLOW
6
CONTINUOUS
10
44.6604759999999956
20
-10.1921999999999997
11
44.7557139999999976
21
-10.2398189999999989
0
LINE
8
LYELLOW
6
CONTINUOUS
10
44.7557139999999976
20
-10.2398189999999989
11
44.9461900000000014
21
-10.2398189999999989
0
LINE
8
LYELLOW
6
CONTINUOUS
10
44.9461900000000014
20
-10.2398189999999989
11
45.0414279999999962
21
-10.1921999999999997
0
LINE
8
LYELLOW
6
CONTINUOUS
10
45.0414279999999962
20
-10.1921999999999997
11
45.0890470000000008
21
-10.1445799999999995
0
LINE
8
LYELLOW
6
CONTINUOUS
10
45.0890470000000008
20
-10.1445799999999995
11
45.1366659999999982
21
-10.0493419999999993
0
LINE
8
LYELLOW
6
CONTINUOUS
10
45.1366659999999982
20
-10.0493419999999993
11
45.1366659999999982
21
-9.8112469999999998
0
LINE
8
LYELLOW
6
CONTINUOUS
10
45.1366659999999982
20
-9.8112469999999998
11
45.0890470000000008
21
-9.7160089999999997
0
LINE
8
LYELLOW
6
CONTINUOUS
10
45.0890470000000008
20
-9.7160089999999997
11
45.0414279999999962
21
-9.6683899999999987
0
LINE
8
LYELLOW
6
CONTINUOUS
10
45.0414279999999962
20
-9.6683899999999987
11
44.9461900000000014
21
-9.6207709999999995
0
LINE
8
LYELLOW
6
CONTINUOUS
10
44.9461900000000014
20
-9.6207709999999995
11
44.7557139999999976
21
-9.6207709999999995
0
LINE
8
LYELLOW
6
CONTINUOUS
10
44.7557139999999976
20
-9.6207709999999995
11
44.6604759999999956
21
-9.6683899999999987
0
LINE
8
LYELLOW
6
CONTINUOUS
10
44.6604759999999956
20
-9.6683899999999987
11
44.6128569999999982
21
-9.7160089999999997
0
LINE
8
LYELLOW
6
CONTINUOUS
10
44.6128569999999982
20
-9.7160089999999997
11
44.5652380000000008
21
-9.8112469999999998
0
LINE
8
LYELLOW
6
CONTINUOUS
10
14.2716659999999997
20
-62.0198189999999983
11
14.2716659999999997
21
-62.734103999999995
0
LINE
8
LYELLOW
6
CONTINUOUS
10
14.2716659999999997
20
-62.734103999999995
11
14.2240469999999988
21
-62.8769609999999943
0
LINE
8
LYELLOW
6
CONTINUOUS
10
14.2240469999999988
20
-62.8769609999999943
11
14.1288089999999986
21
-62.9721999999999937
0
LINE
8
LYELLOW
6
CONTINUOUS
10
14.1288089999999986
20
-62.9721999999999937
11
13.9859519999999993
21
-63.0198189999999983
0
LINE
8
LYELLOW
6
CONTINUOUS
10
13.9859519999999993
20
-63.0198189999999983
11
13.8907139999999991
21
-63.0198189999999983
0
LINE
8
LYELLOW
6
CONTINUOUS
10
14.6526189999999996
20
-62.0198189999999983
11
15.3192849999999989
21
-62.0198189999999983
0
LINE
8
LYELLOW
6
CONTINUOUS
10
15.3192849999999989
20
-62.0198189999999983
11
14.8907139999999991
21
-63.0198189999999983
0
LINE
8
LYELLOW
6
CONTINUOUS
10
21.1616660000000003
20
-62.1148189999999971
11
21.1616660000000003
21
-62.8291039999999938
0
LINE
8
LYELLOW
6
CONTINUOUS
10
21.1616660000000003
20
-62.8291039999999938
11
21.1140469999999993
21
-62.9719610000000003
0
LINE
8
LYELLOW
6
CONTINUOUS
10
21.1140469999999993
20
-62.9719610000000003
11
21.0188089999999974
21
-63.0671999999999997
0
LINE
8
LYELLOW
6
CONTINUOUS
10
21.0188089999999974
20
-63.0671999999999997
11
20.8759519999999981
21
-63.1148189999999971
0
LINE
8
LYELLOW
6
CONTINUOUS
10
20.8759519999999981
20
-63.1148189999999971
11
20.7807139999999997
21
-63.1148189999999971
0
LINE
8
LYELLOW
6
CONTINUOUS
10
21.7807139999999997
20
-62.5433899999999952
11
21.6854759999999978
21
-62.4957709999999977
0
LINE
8
LYELLOW
6
CONTINUOUS
10
21.6854759999999978
20
-62.4957709999999977
11
21.6378570000000003
21
-62.4481520000000003
0
LINE
8
LYELLOW
6
CONTINUOUS
10
21.6378570000000003
20
-62.4481520000000003
11
21.5902379999999994
21
-62.3529139999999984
0
LINE
8
LYELLOW
6
CONTINUOUS
10
21.5902379999999994
20
-62.3529139999999984
11
21.5902379999999994
21
-62.3052949999999939
0
LINE
8
LYELLOW
6
CONTINUOUS
10
21.5902379999999994
20
-62.3052949999999939
11
21.6378570000000003
21
-62.2100569999999991
0
LINE
8
LYELLOW
6
CONTINUOUS
10
21.6378570000000003
20
-62.2100569999999991
11
21.6854759999999978
21
-62.1624379999999945
0
LINE
8
LYELLOW
6
CONTINUOUS
10
21.6854759999999978
20
-62.1624379999999945
11
21.7807139999999997
21
-62.1148189999999971
0
LINE
8
LYELLOW
6
CONTINUOUS
10
21.7807139999999997
20
-62.1148189999999971
11
21.97119
21
-62.1148189999999971
0
LINE
8
LYELLOW
6
CONTINUOUS
10
21.97119
20
-62.1148189999999971
11
22.0664279999999984
21
-62.1624379999999945
0
LINE
8
LYELLOW
6
CONTINUOUS
10
22.0664279999999984
20
-62.1624379999999945
11
22.1140469999999993
21
-62.2100569999999991
0
LINE
8
LYELLOW
6
CONTINUOUS
10
22.1140469999999993
20
-62.2100569999999991
11
22.1616660000000003
21
-62.3052949999999939
0
LINE
8
LYELLOW
6
CONTINUOUS
10
22.1616660000000003
20
-62.3052949999999939
11
22.1616660000000003
21
-62.3529139999999984
0
LINE
8
LYELLOW
6
CONTINUOUS
10
22.1616660000000003
20
-62.3529139999999984
11
22.1140469999999993
21
-62.4481520000000003
0
LINE
8
LYELLOW
6
CONTINUOUS
10
22.1140469999999993
20
-62.4481520000000003
11
22.0664279999999984
21
-62.4957709999999977
0
LINE
8
LYELLOW
6
CONTINUOUS
10
22.0664279999999984
20
-62.4957709999999977
11
21.97119
21
-62.5433899999999952
0
LINE
8
LYELLOW
6
CONTINUOUS
10
21.97119
20
-62.5433899999999952
11
21.7807139999999997
21
-62.5433899999999952
0
LINE
8
LYELLOW
6
CONTINUOUS
10
21.7807139999999997
20
-62.5433899999999952
11
21.6854759999999978
21
-62.5910089999999997
0
LINE
8
LYELLOW
6
CONTINUOUS
10
21.6854759999999978
20
-62.5910089999999997
11
21.6378570000000003
21
-62.6386279999999971
0
LINE
8
LYELLOW
6
CONTINUOUS
10
21.6378570000000003
20
-62.6386279999999971
11
21.5902379999999994
21
-62.733865999999999
0
LINE
8
LYELLOW
6
CONTINUOUS
10
21.5902379999999994
20
-62.733865999999999
11
21.5902379999999994
21
-62.9243419999999958
0
LINE
8
LYELLOW
6
CONTINUOUS
10
21.5902379999999994
20
-62.9243419999999958
11
21.6378570000000003
21
-63.0195799999999977
0
LINE
8
LYELLOW
6
CONTINUOUS
10
21.6378570000000003
20
-63.0195799999999977
11
21.6854759999999978
21
-63.0671999999999997
0
LINE
8
LYELLOW
6
CONTINUOUS
10
21.6854759999999978
20
-63.0671999999999997
11
21.7807139999999997
21
-63.1148189999999971
0
LINE
8
LYELLOW
6
CONTINUOUS
10
21.7807139999999997
20
-63.1148189999999971
11
21.97119
21
-63.1148189999999971
0
LINE
8
LYELLOW
6
CONTINUOUS
10
21.97119
20
-63.1148189999999971
11
22.0664279999999984
21
-63.0671999999999997
0
LINE
8
LYELLOW
6
CONTINUOUS
10
22.0664279999999984
20
-63.0671999999999997
11
22.1140469999999993
21
-63.0195799999999977
0
LINE
8
LYELLOW
6
CONTINUOUS
10
22.1140469999999993
20
-63.0195799999999977
11
22.1616660000000003
21
-62.9243419999999958
0
LINE
8
LYELLOW
6
CONTINUOUS
10
22.1616660000000003
20
-62.9243419999999958
11
22.1616660000000003
21
-62.733865999999999
0
LINE
8
LYELLOW
6
CONTINUOUS
10
22.1616660000000003
20
-62.733865999999999
11
22.1140469999999993
21
-62.6386279999999971
0
LINE
8
LYELLOW
6
CONTINUOUS
10
22.1140469999999993
20
-62.6386279999999971
11
22.0664279999999984
21
-62.5910089999999997
0
LINE
8
LYELLOW
6
CONTINUOUS
10
22.0664279999999984
20
-62.5910089999999997
11
21.97119
21
-62.5433899999999952
0
LINE
8
LYELLOW
6
CONTINUOUS
10
4.9186259999999997
20
-2.7585669999999998
11
4.9186259999999997
21
-3.568403
0
LINE
8
LYELLOW
6
CONTINUOUS
10
4.9186259999999997
20
-3.568403
11
4.9662629999999996
21
-3.663678
0
LINE
8
LYELLOW
6
CONTINUOUS
10
4.9662629999999996
20
-3.663678
11
5.0139009999999997
21
-3.7113159999999996
0
LINE
8
LYELLOW
6
CONTINUOUS
10
5.0139009999999997
20
-3.7113159999999996
11
5.1091749999999996
21
-3.758953
0
LINE
8
LYELLOW
6
CONTINUOUS
10
5.1091749999999996
20
-3.758953
11
5.2997249999999996
21
-3.758953
0
LINE
8
LYELLOW
6
CONTINUOUS
10
5.2997249999999996
20
-3.758953
11
5.3949999999999996
21
-3.7113159999999996
0
LINE
8
LYELLOW
6
CONTINUOUS
10
5.3949999999999996
20
-3.7113159999999996
11
5.4426369999999995
21
-3.663678
0
LINE
8
LYELLOW
6
CONTINUOUS
10
5.4426369999999995
20
-3.663678
11
5.4902749999999996
21
-3.568403
0
LINE
8
LYELLOW
6
CONTINUOUS
10
5.4902749999999996
20
-3.568403
11
5.4902749999999996
21
-2.7585669999999998
0
LINE
8
LYELLOW
6
CONTINUOUS
10
6.4906600000000001
20
-3.758953
11
5.9190109999999994
21
-3.758953
0
LINE
8
LYELLOW
6
CONTINUOUS
10
6.2048359999999994
20
-3.758953
11
6.2048359999999994
21
-2.7585669999999998
0
LINE
8
LYELLOW
6
CONTINUOUS
10
6.2048359999999994
20
-2.7585669999999998
11
6.1095609999999994
21
-2.9014789999999997
0
LINE
8
LYELLOW
6
CONTINUOUS
10
6.1095609999999994
20
-2.9014789999999997
11
6.0142859999999994
21
-2.9967539999999997
0
LINE
8
LYELLOW
6
CONTINUOUS
10
6.0142859999999994
20
-2.9967539999999997
11
5.9190109999999994
21
-3.0443919999999998
0
LINE
8
LYELLOW
6
CONTINUOUS
10
41.5831820000000008
20
-33.213245999999998
11
42.2974669999999975
21
-33.213245999999998
0
LINE
8
LYELLOW
6
CONTINUOUS
10
42.2974669999999975
20
-33.213245999999998
11
42.4403239999999968
21
-33.2608649999999955
0
LINE
8
LYELLOW
6
CONTINUOUS
10
42.4403239999999968
20
-33.2608649999999955
11
42.5355629999999962
21
-33.3561029999999974
0
LINE
8
LYELLOW
6
CONTINUOUS
10
42.5355629999999962
20
-33.3561029999999974
11
42.5831820000000008
21
-33.4989599999999967
0
LINE
8
LYELLOW
6
CONTINUOUS
10
42.5831820000000008
20
-33.4989599999999967
11
42.5831820000000008
21
-33.5941979999999987
0
LINE
8
LYELLOW
6
CONTINUOUS
10
42.5831820000000008
20
-32.213245999999998
11
42.5831820000000008
21
-32.7846739999999954
0
LINE
8
LYELLOW
6
CONTINUOUS
10
42.5831820000000008
20
-32.4989599999999967
11
41.5831820000000008
21
-32.4989599999999967
0
LINE
8
LYELLOW
6
CONTINUOUS
10
41.5831820000000008
20
-32.4989599999999967
11
41.7260390000000001
21
-32.5941979999999987
0
LINE
8
LYELLOW
6
CONTINUOUS
10
41.7260390000000001
20
-32.5941979999999987
11
41.8212769999999949
21
-32.6894360000000006
0
LINE
8
LYELLOW
6
CONTINUOUS
10
41.8212769999999949
20
-32.6894360000000006
11
41.8688959999999994
21
-32.7846739999999954
0
LINE
8
LYELLOW
6
CONTINUOUS
10
36.8219819999999984
20
-10.1486149999999995
11
49.5219820000000013
21
-10.1486149999999995
0
LINE
8
LYELLOW
6
CONTINUOUS
10
49.5219820000000013
20
-10.1486149999999995
11
49.5219820000000013
21
-22.8486149999999988
0
LINE
8
LYELLOW
6
CONTINUOUS
10
49.5219820000000013
20
-22.8486149999999988
11
36.8219819999999984
21
-22.8486149999999988
0
LINE
8
LYELLOW
6
CONTINUOUS
10
36.8219819999999984
20
-22.8486149999999988
11
36.8219819999999984
21
-10.1486149999999995
0
LINE
8
LYELLOW
6
CONTINUOUS
10
26.7349999999999994
20
-63.6599999999999966
11
26.7349999999999994
21
-64.0349999999999966
0
LINE
8
LYELLOW
6
CONTINUOUS
10
26.7349999999999994
20
-63.6599999999999966
11
28.9549999999999983
21
-63.6599999999999966
0
LINE
8
LYELLOW
6
CONTINUOUS
10
26.7349999999999994
20
-64.0349999999999966
11
25.5549999999999997
21
-64.0349999999999966
0
LINE
8
LYELLOW
6
CONTINUOUS
10
26.7349999999999994
20
-65.5049999999999955
11
26.7349999999999994
21
-68.0349999999999966
0
LINE
8
LYELLOW
6
CONTINUOUS
10
26.7349999999999994
20
-69.8799999999999955
11
28.9549999999999983
21
-69.8799999999999955
0
LINE
8
LYELLOW
6
CONTINUOUS
10
28.9549999999999983
20
-64.0349999999999966
11
28.9549999999999983
21
-66.0349999999999966
0
LINE
8
LYELLOW
6
CONTINUOUS
10
28.9549999999999983
20
-67.5049999999999955
11
28.9549999999999983
21
-69.8799999999999955
0
LINE
8
LYELLOW
6
CONTINUOUS
10
28.9549999999999983
20
-69.5049999999999955
11
28.9549999999999983
21
-69.8799999999999955
0
LINE
8
LYELLOW
6
CONTINUOUS
10
28.8924999999999983
20
-46.9899999999999949
11
28.8924999999999983
21
-60.9599999999999937
0
LINE
8
LYELLOW
6
CONTINUOUS
10
30.7895380000000003
20
-45.1429619999999971
11
47.7895380000000003
21
-45.1429619999999971
0
LINE
8
LYELLOW
6
CONTINUOUS
10
30.7895380000000003
20
-62.8929619999999971
11
48.0395380000000003
21
-62.8929619999999971
0
LINE
8
LYELLOW
6
CONTINUOUS
10
43.7895380000000003
20
-49.6429619999999971
11
51.1395379999999946
21
-49.6429619999999971
0
LINE
8
LYELLOW
6
CONTINUOUS
10
43.7895380000000003
20
-58.6429619999999971
11
43.7895380000000003
21
-49.6429619999999971
0
LINE
8
LYELLOW
6
CONTINUOUS
10
49.8474999999999966
20
-60.9599999999999937
11
49.8474999999999966
21
-46.9899999999999949
0
LINE
8
LYELLOW
6
CONTINUOUS
10
51.1395379999999946
20
-49.6429619999999971
11
51.1395379999999946
21
-58.6429619999999971
0
LINE
8
LYELLOW
6
CONTINUOUS
10
51.1395379999999946
20
-58.6429619999999971
11
43.7895380000000003
21
-58.6429619999999971
0
ARC
8
LYELLOW
10
30.7975009999999969
20
-46.9900009999999995
40
1.9050010000002624
50
90.00003008
51
179.99996992
0
ARC
8
LYELLOW
10
30.7975009999999969
20
-60.9599989999999963
40
1.9050010000002624
50
-179.99996992
51
-90.00003008
0
ARC
8
LYELLOW
10
47.9424980000000005
20
-46.9900019999999969
40
1.9050020000010497
50
0.00006015
51
89.99993985
0
ARC
8
LYELLOW
10
47.9424980000000005
20
-60.9600019999999958
40
1.9050020000010497
50
-89.99993985
51
0.00006015
0
LINE
8
LYELLOW
6
CONTINUOUS
10
0.013965
20
-5.0130129999999999
11
35.5139649999999989
21
-5.0130129999999999
0
LINE
8
LYELLOW
6
CONTINUOUS
10
0.013965
20
-38.7130129999999966
11
0.013965
21
-5.0130129999999999
0
LINE
8
LYELLOW
6
CONTINUOUS
10
35.5139649999999989
20
-5.0130129999999999
11
35.5139649999999989
21
-38.7130129999999966
0
LINE
8
LYELLOW
6
CONTINUOUS
10
35.5139649999999989
20
-38.7130129999999966
11
0.013965
21
-38.7130129999999966
0
CIRCLE
8
LYELLOW
10
13.9539650000000002
20
-4.4630130000000001
40
0.1
0
LINE
8
LYELLOW
6
CONTINUOUS
10
40.6099999999999994
20
-4.6749999999999998
11
40.6099999999999994
21
-8.6950000000000003
0
LINE
8
LYELLOW
6
CONTINUOUS
10
40.6099999999999994
20
-6.1749999999999998
11
41.6099999999999994
21
-6.1749999999999998
0
LINE
8
LYELLOW
6
CONTINUOUS
10
40.6099999999999994
20
-8.6950000000000003
11
48.3299999999999983
21
-8.6950000000000003
0
LINE
8
LYELLOW
6
CONTINUOUS
10
41.1099999999999994
20
-6.9849999999999994
11
40.6099999999999994
21
-6.9849999999999994
0
LINE
8
LYELLOW
6
CONTINUOUS
10
41.1099999999999994
20
-8.1950000000000003
11
41.1099999999999994
21
-6.9849999999999994
0
LINE
8
LYELLOW
6
CONTINUOUS
10
41.6099999999999994
20
-6.1749999999999998
11
41.6099999999999994
21
-4.6749999999999998
0
LINE
8
LYELLOW
6
CONTINUOUS
10
47.3299999999999983
20
-6.1749999999999998
11
47.3299999999999983
21
-4.6749999999999998
0
LINE
8
LYELLOW
6
CONTINUOUS
10
47.8299999999999983
20
-6.9849999999999994
11
47.8299999999999983
21
-8.1950000000000003
0
LINE
8
LYELLOW
6
CONTINUOUS
10
47.8299999999999983
20
-8.1950000000000003
11
41.1099999999999994
21
-8.1950000000000003
0
LINE
8
LYELLOW
6
CONTINUOUS
10
48.3299999999999983
20
-4.6749999999999998
11
40.6099999999999994
21
-4.6749999999999998
0
LINE
8
LYELLOW
6
CONTINUOUS
10
48.3299999999999983
20
-6.1749999999999998
11
47.3299999999999983
21
-6.1749999999999998
0
LINE
8
LYELLOW
6
CONTINUOUS
10
48.3299999999999983
20
-6.9849999999999994
11
47.8299999999999983
21
-6.9849999999999994
0
LINE
8
LYELLOW
6
CONTINUOUS
10
48.3299999999999983
20
-8.6950000000000003
11
48.3299999999999983
21
-4.6749999999999998
0
LINE
8
LYELLOW
6
CONTINUOUS
10
48.6299999999999955
20
-4.375
11
46.1299999999999955
21
-4.375
0
LINE
8
LYELLOW
6
CONTINUOUS
10
48.6299999999999955
20
-6.875
11
48.6299999999999955
21
-4.375
0
LINE
8
LYELLOW
6
CONTINUOUS
10
13.4949999999999992
20
-63.5649999999999977
11
13.4949999999999992
21
-63.9399999999999977
0
LINE
8
LYELLOW
6
CONTINUOUS
10
13.4949999999999992
20
-63.5649999999999977
11
15.7149999999999999
21
-63.5649999999999977
0
LINE
8
LYELLOW
6
CONTINUOUS
10
13.4949999999999992
20
-63.9399999999999977
11
12.3149999999999995
21
-63.9399999999999977
0
LINE
8
LYELLOW
6
CONTINUOUS
10
13.4949999999999992
20
-65.4099999999999966
11
13.4949999999999992
21
-67.9399999999999977
0
LINE
8
LYELLOW
6
CONTINUOUS
10
13.4949999999999992
20
-69.7849999999999966
11
15.7149999999999999
21
-69.7849999999999966
0
LINE
8
LYELLOW
6
CONTINUOUS
10
15.7149999999999999
20
-63.9399999999999977
11
15.7149999999999999
21
-65.9399999999999977
0
LINE
8
LYELLOW
6
CONTINUOUS
10
15.7149999999999999
20
-67.4099999999999966
11
15.7149999999999999
21
-69.7849999999999966
0
LINE
8
LYELLOW
6
CONTINUOUS
10
15.7149999999999999
20
-69.4099999999999966
11
15.7149999999999999
21
-69.7849999999999966
0
LINE
8
LYELLOW
6
CONTINUOUS
10
20.384999999999998
20
-63.6599999999999966
11
20.384999999999998
21
-64.0349999999999966
0
LINE
8
LYELLOW
6
CONTINUOUS
10
20.384999999999998
20
-63.6599999999999966
11
22.6050000000000004
21
-63.6599999999999966
0
LINE
8
LYELLOW
6
CONTINUOUS
10
20.384999999999998
20
-64.0349999999999966
11
19.2049999999999983
21
-64.0349999999999966
0
LINE
8
LYELLOW
6
CONTINUOUS
10
20.384999999999998
20
-65.5049999999999955
11
20.384999999999998
21
-68.0349999999999966
0
LINE
8
LYELLOW
6
CONTINUOUS
10
20.384999999999998
20
-69.8799999999999955
11
22.6050000000000004
21
-69.8799999999999955
0
LINE
8
LYELLOW
6
CONTINUOUS
10
22.6050000000000004
20
-64.0349999999999966
11
22.6050000000000004
21
-66.0349999999999966
0
LINE
8
LYELLOW
6
CONTINUOUS
10
22.6050000000000004
20
-67.5049999999999955
11
22.6050000000000004
21
-69.8799999999999955
0
LINE
8
LYELLOW
6
CONTINUOUS
10
22.6050000000000004
20
-69.5049999999999955
11
22.6050000000000004
21
-69.8799999999999955
0
LINE
8
LYELLOW
6
CONTINUOUS
10
2.286
20
-10.1600000000000001
11
28.320999999999998
21
-10.1600000000000001
0
LINE
8
LYELLOW
6
CONTINUOUS
10
28.320999999999998
20
-10.1600000000000001
11
28.320999999999998
21
-61.5949999999999989
0
LINE
8
LYELLOW
6
CONTINUOUS
10
28.320999999999998
20
-61.5949999999999989
11
2.286
21
-61.5949999999999989
0
LINE
8
LYELLOW
6
CONTINUOUS
10
2.286
20
-61.5949999999999989
11
2.286
21
-10.1600000000000001
0
LINE
8
LYELLOW
6
CONTINUOUS
10
36.7183629999999965
20
-23.7199129999999982
11
36.7183629999999965
21
-26.2199129999999982
0
LINE
8
LYELLOW
6
CONTINUOUS
10
37.0183630000000008
20
-24.019912999999999
11
37.0183630000000008
21
-41.7399130000000014
0
LINE
8
LYELLOW
6
CONTINUOUS
10
37.0183630000000008
20
-41.7399130000000014
11
41.0383629999999968
21
-41.7399130000000014
0
LINE
8
LYELLOW
6
CONTINUOUS
10
38.5183630000000008
20
-24.019912999999999
11
38.5183630000000008
21
-25.019912999999999
0
LINE
8
LYELLOW
6
CONTINUOUS
10
38.5183630000000008
20
-25.019912999999999
11
37.0183630000000008
21
-25.019912999999999
0
LINE
8
LYELLOW
6
CONTINUOUS
10
38.5183630000000008
20
-40.7399130000000014
11
37.0183630000000008
21
-40.7399130000000014
0
LINE
8
LYELLOW
6
CONTINUOUS
10
38.5183630000000008
20
-41.7399130000000014
11
38.5183630000000008
21
-40.7399130000000014
0
LINE
8
LYELLOW
6
CONTINUOUS
10
39.2183629999999965
20
-23.7199129999999982
11
36.7183629999999965
21
-23.7199129999999982
0
LINE
8
LYELLOW
6
CONTINUOUS
10
39.328362999999996
20
-24.019912999999999
11
39.328362999999996
21
-24.519912999999999
0
LINE
8
LYELLOW
6
CONTINUOUS
10
39.328362999999996
20
-24.519912999999999
11
40.5383629999999968
21
-24.519912999999999
0
LINE
8
LYELLOW
6
CONTINUOUS
10
39.328362999999996
20
-41.2399130000000014
11
39.328362999999996
21
-41.7399130000000014
0
LINE
8
LYELLOW
6
CONTINUOUS
10
40.5383629999999968
20
-24.519912999999999
11
40.5383629999999968
21
-41.2399130000000014
0
LINE
8
LYELLOW
6
CONTINUOUS
10
40.5383629999999968
20
-41.2399130000000014
11
39.328362999999996
21
-41.2399130000000014
0
LINE
8
LYELLOW
6
CONTINUOUS
10
41.0383629999999968
20
-24.019912999999999
11
37.0183630000000008
21
-24.019912999999999
0
LINE
8
LYELLOW
6
CONTINUOUS
10
41.0383629999999968
20
-41.7399130000000014
11
41.0383629999999968
21
-24.019912999999999
0
CIRCLE
8
BLACK
10
45.1054999999999993
20
-51.0850000000000009
40
0.299999
0
CIRCLE
8
BLACK
10
45.1054999999999993
20
-56.8649999999999949
40
0.299999
0
CIRCLE
8
BLACK
10
48.7554999999999978
20
-58.2749999999999986
40
0.254
0
CIRCLE
8
BLACK
10
48.7554999999999978
20
-49.6749999999999972
40
0.254
0
CIRCLE
8
BLACK
10
44.555499999999995
20
-58.2749999999999986
40
0.254
0
CIRCLE
8
BLACK
10
44.555499999999995
20
-49.6749999999999972
40
0.254
0
CIRCLE
8
BLACK
10
45.7199999999999989
20
-6.9849999999999994
40
0.5
0
CIRCLE
8
BLACK
10
43.2199999999999989
20
-6.9849999999999994
40
0.5
  0
ENDSEC
  0
EOF
