  0
SECTION
  2
HEADER
  9
$ANGBASE
  50
0.0
  9
$ANGDIR
  70
1
  9
$MEASUREMENT
  70
1
  0
ENDSEC
  0
SECTION
  2
TABLES
  0
TABLE
  2
LTYPE
  70
4
  0
LTYPE
  5
40F
  2
CONTINUOUS
  70
0
  3
Solid line
  72
65
  73
0
  40
0.0
  0
LTYPE
  5
410
  2
DASHDOT
 70
0
  3
Dash Dot ____ _ ____ _
 72
65
 73
4
 40
2.0
 49
1.25
 49
-0.25
 49
0.25
 49
-0.25
  0
LTYPE
  5
411
  2
DASHED
 70
0
  3
Dashed __ __ __ __ __
 72
65
 73
2
 40
0.75
 49
0.5
 49
-0.25
  0
LTYPE
  5
43B
  2
DOTTED
 70
0
  3
Dotted .  .  .  .
 72
65
 73
2
 40
0.2
 49
0.0
 49
-0.2
  0
ENDTAB
  0
TABLE
  2
STYLE
  70
4
  0
STYLE
  2
KICAD
  70
0
  40
0
  41
1
  42
1
  50
0
  71
0
  3
isocp.shx
  0
STYLE
  2
KICADB
  70
0
  40
0
  41
1
  42
1
  50
0
  71
0
  3
isocp.shx
  0
STYLE
  2
KICADI
  70
0
  40
0
  41
1
  42
1
  50
15
  71
0
  3
isocp.shx
  0
STYLE
  2
KICADBI
  70
0
  40
0
  41
1
  42
1
  50
15
  71
0
  3
isocp.shx
  0
ENDTAB
  0
TABLE
  2
LAYER
  70
35
  0
LAYER
  2
BLACK
  70
0
  62
7
  6
CONTINUOUS
  0
LAYER
  2
GRAY1
  70
0
  62
251
  6
CONTINUOUS
  0
LAYER
  2
GRAY2
  70
0
  62
8
  6
CONTINUOUS
  0
LAYER
  2
GRAY3
  70
0
  62
9
  6
CONTINUOUS
  0
LAYER
  2
WHITE
  70
0
  62
7
  6
CONTINUOUS
  0
LAYER
  2
LYELLOW
  70
0
  62
51
  6
CONTINUOUS
  0
LAYER
  2
LORANGE
  70
0
  62
41
  6
CONTINUOUS
  0
LAYER
  2
BLUE1
  70
0
  62
178
  6
CONTINUOUS
  0
LAYER
  2
GREEN1
  70
0
  62
98
  6
CONTINUOUS
  0
LAYER
  2
CYAN1
  70
0
  62
138
  6
CONTINUOUS
  0
LAYER
  2
RED1
  70
0
  62
18
  6
CONTINUOUS
  0
LAYER
  2
MAGENTA1
  70
0
  62
228
  6
CONTINUOUS
  0
LAYER
  2
BROWN1
  70
0
  62
58
  6
CONTINUOUS
  0
LAYER
  2
ORANGE1
  70
0
  62
34
  6
CONTINUOUS
  0
LAYER
  2
BLUE2
  70
0
  62
5
  6
CONTINUOUS
  0
LAYER
  2
GREEN2
  70
0
  62
3
  6
CONTINUOUS
  0
LAYER
  2
CYAN2
  70
0
  62
4
  6
CONTINUOUS
  0
LAYER
  2
RED2
  70
0
  62
1
  6
CONTINUOUS
  0
LAYER
  2
MAGENTA2
  70
0
  62
6
  6
CONTINUOUS
  0
LAYER
  2
BROWN2
  70
0
  62
54
  6
CONTINUOUS
  0
LAYER
  2
ORANGE2
  70
0
  62
42
  6
CONTINUOUS
  0
LAYER
  2
BLUE3
  70
0
  62
171
  6
CONTINUOUS
  0
LAYER
  2
GREEN3
  70
0
  62
91
  6
CONTINUOUS
  0
LAYER
  2
CYAN3
  70
0
  62
131
  6
CONTINUOUS
  0
LAYER
  2
RED3
  70
0
  62
11
  6
CONTINUOUS
  0
LAYER
  2
MAGENTA3
  70
0
  62
221
  6
CONTINUOUS
  0
LAYER
  2
YELLOW3
  70
0
  62
2
  6
CONTINUOUS
  0
LAYER
  2
ORANGE3
  70
0
  62
32
  6
CONTINUOUS
  0
LAYER
  2
BLUE4
  70
0
  62
5
  6
CONTINUOUS
  0
LAYER
  2
GREEN4
  70
0
  62
3
  6
CONTINUOUS
  0
LAYER
  2
CYAN4
  70
0
  62
4
  6
CONTINUOUS
  0
LAYER
  2
RED4
  70
0
  62
1
  6
CONTINUOUS
  0
LAYER
  2
MAGENTA4
  70
0
  62
6
  6
CONTINUOUS
  0
LAYER
  2
YELLOW4
  70
0
  62
2
  6
CONTINUOUS
  0
LAYER
  2
ORANGE4
  70
0
  62
40
  6
CONTINUOUS
  0
ENDTAB
  0
ENDSEC
  0
SECTION
  2
ENTITIES
0
CIRCLE
8
BLACK
10
8.254999999999999
20
-9.6519999999999992
40
0.0127
0
CIRCLE
8
BLACK
10
8.8899999999999988
20
-1.9049999999999998
40
0.0127
0
CIRCLE
8
BLACK
10
6.9849999999999994
20
-31.75
40
0.4
0
CIRCLE
8
BLACK
10
6.9849999999999994
20
-29.25
40
0.4
0
CIRCLE
8
BLACK
10
1.3574999999999999
20
-3.8099999999999996
40
0.254
0
CIRCLE
8
BLACK
10
1.3574999999999999
20
-6.3499999999999996
40
0.254
0
CIRCLE
8
BLACK
10
1.3574999999999999
20
-8.8899999999999988
40
0.254
0
CIRCLE
8
BLACK
10
1.3574999999999999
20
-11.4299999999999997
40
0.254
0
CIRCLE
8
BLACK
10
1.3574999999999999
20
-13.9699999999999989
40
0.254
0
CIRCLE
8
BLACK
10
1.3574999999999999
20
-16.509999999999998
40
0.254
0
CIRCLE
8
BLACK
10
1.3574999999999999
20
-19.0500000000000007
40
0.254
0
CIRCLE
8
BLACK
10
1.3574999999999999
20
-21.5899999999999999
40
0.254
0
CIRCLE
8
BLACK
10
1.3574999999999999
20
-24.129999999999999
40
0.254
0
CIRCLE
8
BLACK
10
1.3574999999999999
20
-26.6699999999999982
40
0.254
0
CIRCLE
8
BLACK
10
1.3574999999999999
20
-29.2099999999999973
40
0.254
0
CIRCLE
8
BLACK
10
1.3574999999999999
20
-31.75
40
0.254
0
CIRCLE
8
BLACK
10
16.5975000000000001
20
-3.8099999999999996
40
0.254
0
CIRCLE
8
BLACK
10
16.5975000000000001
20
-6.3499999999999996
40
0.254
0
CIRCLE
8
BLACK
10
16.5975000000000001
20
-8.8899999999999988
40
0.254
0
CIRCLE
8
BLACK
10
16.5975000000000001
20
-11.4299999999999997
40
0.254
0
CIRCLE
8
BLACK
10
16.5975000000000001
20
-13.9699999999999989
40
0.254
0
CIRCLE
8
BLACK
10
16.5975000000000001
20
-16.509999999999998
40
0.254
0
CIRCLE
8
BLACK
10
16.5975000000000001
20
-19.0500000000000007
40
0.254
0
CIRCLE
8
BLACK
10
16.5975000000000001
20
-21.5899999999999999
40
0.254
0
CIRCLE
8
BLACK
10
16.5975000000000001
20
-24.129999999999999
40
0.254
0
CIRCLE
8
BLACK
10
16.5975000000000001
20
-26.6699999999999982
40
0.254
0
CIRCLE
8
BLACK
10
16.5975000000000001
20
-29.2099999999999973
40
0.254
0
CIRCLE
8
BLACK
10
16.5975000000000001
20
-31.75
40
0.254
0
CIRCLE
8
BLACK
10
3.8975
20
-26.6699999999999982
40
0.5
0
CIRCLE
8
BLACK
10
6.4375
20
-26.6699999999999982
40
0.5
0
CIRCLE
8
BLACK
10
8.9774999999999991
20
-26.6699999999999982
40
0.5
0
CIRCLE
8
BLACK
10
1.3574999999999999
20
-1.27
40
0.254
0
CIRCLE
8
BLACK
10
16.5975000000000001
20
-1.27
40
0.254
  0
ENDSEC
  0
EOF
