%TF.GenerationSoftware,KiCad,Pcbnew,9.0.5*%
%TF.CreationDate,2026-09-01T18:49:43-04:00*%
%TF.ProjectId,xc_nice_nano_tx_ board,78635f6e-6963-4655-9f6e-616e6f5f7478,rev?*%
%TF.SameCoordinates,Original*%
%TF.FileFunction,Legend,Bot*%
%TF.FilePolarity,Positive*%
%FSLAX46Y46*%
G04 Gerber Fmt 4.6, Leading zero omitted, Abs format (unit mm)*
G04 Created by KiCad (PCBNEW 9.0.5) date 2026-09-01 18:49:43*
%MOMM*%
%LPD*%
G01*
G04 APERTURE LIST*
%ADD10C,0.150000*%
%ADD11C,0.120000*%
G04 APERTURE END LIST*
D10*
X9819819Y-22058333D02*
X9343628Y-21725000D01*
X9819819Y-21486905D02*
X8819819Y-21486905D01*
X8819819Y-21486905D02*
X8819819Y-21867857D01*
X8819819Y-21867857D02*
X8867438Y-21963095D01*
X8867438Y-21963095D02*
X8915057Y-22010714D01*
X8915057Y-22010714D02*
X9010295Y-22058333D01*
X9010295Y-22058333D02*
X9153152Y-22058333D01*
X9153152Y-22058333D02*
X9248390Y-22010714D01*
X9248390Y-22010714D02*
X9296009Y-21963095D01*
X9296009Y-21963095D02*
X9343628Y-21867857D01*
X9343628Y-21867857D02*
X9343628Y-21486905D01*
X9819819Y-23010714D02*
X9819819Y-22439286D01*
X9819819Y-22725000D02*
X8819819Y-22725000D01*
X8819819Y-22725000D02*
X8962676Y-22629762D01*
X8962676Y-22629762D02*
X9057914Y-22534524D01*
X9057914Y-22534524D02*
X9105533Y-22439286D01*
X8454580Y-5929333D02*
X8502200Y-5881714D01*
X8502200Y-5881714D02*
X8549819Y-5738857D01*
X8549819Y-5738857D02*
X8549819Y-5643619D01*
X8549819Y-5643619D02*
X8502200Y-5500762D01*
X8502200Y-5500762D02*
X8406961Y-5405524D01*
X8406961Y-5405524D02*
X8311723Y-5357905D01*
X8311723Y-5357905D02*
X8121247Y-5310286D01*
X8121247Y-5310286D02*
X7978390Y-5310286D01*
X7978390Y-5310286D02*
X7787914Y-5357905D01*
X7787914Y-5357905D02*
X7692676Y-5405524D01*
X7692676Y-5405524D02*
X7597438Y-5500762D01*
X7597438Y-5500762D02*
X7549819Y-5643619D01*
X7549819Y-5643619D02*
X7549819Y-5738857D01*
X7549819Y-5738857D02*
X7597438Y-5881714D01*
X7597438Y-5881714D02*
X7645057Y-5929333D01*
X7645057Y-6310286D02*
X7597438Y-6357905D01*
X7597438Y-6357905D02*
X7549819Y-6453143D01*
X7549819Y-6453143D02*
X7549819Y-6691238D01*
X7549819Y-6691238D02*
X7597438Y-6786476D01*
X7597438Y-6786476D02*
X7645057Y-6834095D01*
X7645057Y-6834095D02*
X7740295Y-6881714D01*
X7740295Y-6881714D02*
X7835533Y-6881714D01*
X7835533Y-6881714D02*
X7978390Y-6834095D01*
X7978390Y-6834095D02*
X8549819Y-6262667D01*
X8549819Y-6262667D02*
X8549819Y-6881714D01*
X7786666Y-21789580D02*
X7834285Y-21837200D01*
X7834285Y-21837200D02*
X7977142Y-21884819D01*
X7977142Y-21884819D02*
X8072380Y-21884819D01*
X8072380Y-21884819D02*
X8215237Y-21837200D01*
X8215237Y-21837200D02*
X8310475Y-21741961D01*
X8310475Y-21741961D02*
X8358094Y-21646723D01*
X8358094Y-21646723D02*
X8405713Y-21456247D01*
X8405713Y-21456247D02*
X8405713Y-21313390D01*
X8405713Y-21313390D02*
X8358094Y-21122914D01*
X8358094Y-21122914D02*
X8310475Y-21027676D01*
X8310475Y-21027676D02*
X8215237Y-20932438D01*
X8215237Y-20932438D02*
X8072380Y-20884819D01*
X8072380Y-20884819D02*
X7977142Y-20884819D01*
X7977142Y-20884819D02*
X7834285Y-20932438D01*
X7834285Y-20932438D02*
X7786666Y-20980057D01*
X7453332Y-20884819D02*
X6834285Y-20884819D01*
X6834285Y-20884819D02*
X7167618Y-21265771D01*
X7167618Y-21265771D02*
X7024761Y-21265771D01*
X7024761Y-21265771D02*
X6929523Y-21313390D01*
X6929523Y-21313390D02*
X6881904Y-21361009D01*
X6881904Y-21361009D02*
X6834285Y-21456247D01*
X6834285Y-21456247D02*
X6834285Y-21694342D01*
X6834285Y-21694342D02*
X6881904Y-21789580D01*
X6881904Y-21789580D02*
X6929523Y-21837200D01*
X6929523Y-21837200D02*
X7024761Y-21884819D01*
X7024761Y-21884819D02*
X7310475Y-21884819D01*
X7310475Y-21884819D02*
X7405713Y-21837200D01*
X7405713Y-21837200D02*
X7453332Y-21789580D01*
X6549580Y-5929333D02*
X6597200Y-5881714D01*
X6597200Y-5881714D02*
X6644819Y-5738857D01*
X6644819Y-5738857D02*
X6644819Y-5643619D01*
X6644819Y-5643619D02*
X6597200Y-5500762D01*
X6597200Y-5500762D02*
X6501961Y-5405524D01*
X6501961Y-5405524D02*
X6406723Y-5357905D01*
X6406723Y-5357905D02*
X6216247Y-5310286D01*
X6216247Y-5310286D02*
X6073390Y-5310286D01*
X6073390Y-5310286D02*
X5882914Y-5357905D01*
X5882914Y-5357905D02*
X5787676Y-5405524D01*
X5787676Y-5405524D02*
X5692438Y-5500762D01*
X5692438Y-5500762D02*
X5644819Y-5643619D01*
X5644819Y-5643619D02*
X5644819Y-5738857D01*
X5644819Y-5738857D02*
X5692438Y-5881714D01*
X5692438Y-5881714D02*
X5740057Y-5929333D01*
X6644819Y-6881714D02*
X6644819Y-6310286D01*
X6644819Y-6596000D02*
X5644819Y-6596000D01*
X5644819Y-6596000D02*
X5787676Y-6500762D01*
X5787676Y-6500762D02*
X5882914Y-6405524D01*
X5882914Y-6405524D02*
X5930533Y-6310286D01*
D11*
%TO.C,R1*%
X10272500Y-21987742D02*
X10272500Y-22462258D01*
X11317500Y-21987742D02*
X11317500Y-22462258D01*
%TO.C,C2*%
X9015000Y-5955420D02*
X9015000Y-6236580D01*
X10035000Y-5955420D02*
X10035000Y-6236580D01*
%TO.C,C3*%
X7760580Y-22350000D02*
X7479420Y-22350000D01*
X7760580Y-23370000D02*
X7479420Y-23370000D01*
%TO.C,C1*%
X7110000Y-5955420D02*
X7110000Y-6236580D01*
X8130000Y-5955420D02*
X8130000Y-6236580D01*
%TD*%
M02*
