%TF.GenerationSoftware,KiCad,Pcbnew,9.0.5*%
%TF.CreationDate,2026-09-01T18:49:43-04:00*%
%TF.ProjectId,xc_nice_nano_tx_ board,78635f6e-6963-4655-9f6e-616e6f5f7478,rev?*%
%TF.SameCoordinates,Original*%
%TF.FileFunction,Legend,Top*%
%TF.FilePolarity,Positive*%
%FSLAX46Y46*%
G04 Gerber Fmt 4.6, Leading zero omitted, Abs format (unit mm)*
G04 Created by KiCad (PCBNEW 9.0.5) date 2026-09-01 18:49:43*
%MOMM*%
%LPD*%
G01*
G04 APERTURE LIST*
%ADD10C,0.100000*%
%ADD11C,0.150000*%
%ADD12C,0.120000*%
G04 APERTURE END LIST*
D10*
X20900412Y-15240000D02*
G75*
G02*
X-3120412Y-15240000I-12010412J0D01*
G01*
X-3120412Y-15240000D02*
G75*
G02*
X20900412Y-15240000I12010412J0D01*
G01*
D11*
X7921666Y-6336819D02*
X7921666Y-7051104D01*
X7921666Y-7051104D02*
X7874047Y-7193961D01*
X7874047Y-7193961D02*
X7778809Y-7289200D01*
X7778809Y-7289200D02*
X7635952Y-7336819D01*
X7635952Y-7336819D02*
X7540714Y-7336819D01*
X8350238Y-6432057D02*
X8397857Y-6384438D01*
X8397857Y-6384438D02*
X8493095Y-6336819D01*
X8493095Y-6336819D02*
X8731190Y-6336819D01*
X8731190Y-6336819D02*
X8826428Y-6384438D01*
X8826428Y-6384438D02*
X8874047Y-6432057D01*
X8874047Y-6432057D02*
X8921666Y-6527295D01*
X8921666Y-6527295D02*
X8921666Y-6622533D01*
X8921666Y-6622533D02*
X8874047Y-6765390D01*
X8874047Y-6765390D02*
X8302619Y-7336819D01*
X8302619Y-7336819D02*
X8921666Y-7336819D01*
X8556666Y-4129819D02*
X8556666Y-4844104D01*
X8556666Y-4844104D02*
X8509047Y-4986961D01*
X8509047Y-4986961D02*
X8413809Y-5082200D01*
X8413809Y-5082200D02*
X8270952Y-5129819D01*
X8270952Y-5129819D02*
X8175714Y-5129819D01*
X8937619Y-4129819D02*
X9556666Y-4129819D01*
X9556666Y-4129819D02*
X9223333Y-4510771D01*
X9223333Y-4510771D02*
X9366190Y-4510771D01*
X9366190Y-4510771D02*
X9461428Y-4558390D01*
X9461428Y-4558390D02*
X9509047Y-4606009D01*
X9509047Y-4606009D02*
X9556666Y-4701247D01*
X9556666Y-4701247D02*
X9556666Y-4939342D01*
X9556666Y-4939342D02*
X9509047Y-5034580D01*
X9509047Y-5034580D02*
X9461428Y-5082200D01*
X9461428Y-5082200D02*
X9366190Y-5129819D01*
X9366190Y-5129819D02*
X9080476Y-5129819D01*
X9080476Y-5129819D02*
X8985238Y-5082200D01*
X8985238Y-5082200D02*
X8937619Y-5034580D01*
X2689819Y-30833333D02*
X3404104Y-30833333D01*
X3404104Y-30833333D02*
X3546961Y-30880952D01*
X3546961Y-30880952D02*
X3642200Y-30976190D01*
X3642200Y-30976190D02*
X3689819Y-31119047D01*
X3689819Y-31119047D02*
X3689819Y-31214285D01*
X3689819Y-29833333D02*
X3689819Y-30404761D01*
X3689819Y-30119047D02*
X2689819Y-30119047D01*
X2689819Y-30119047D02*
X2832676Y-30214285D01*
X2832676Y-30214285D02*
X2927914Y-30309523D01*
X2927914Y-30309523D02*
X2975533Y-30404761D01*
X174279Y-33474819D02*
X174279Y-34284342D01*
X174279Y-34284342D02*
X221898Y-34379580D01*
X221898Y-34379580D02*
X269517Y-34427200D01*
X269517Y-34427200D02*
X364755Y-34474819D01*
X364755Y-34474819D02*
X555231Y-34474819D01*
X555231Y-34474819D02*
X650469Y-34427200D01*
X650469Y-34427200D02*
X698088Y-34379580D01*
X698088Y-34379580D02*
X745707Y-34284342D01*
X745707Y-34284342D02*
X745707Y-33474819D01*
X1745707Y-34474819D02*
X1174279Y-34474819D01*
X1459993Y-34474819D02*
X1459993Y-33474819D01*
X1459993Y-33474819D02*
X1364755Y-33617676D01*
X1364755Y-33617676D02*
X1269517Y-33712914D01*
X1269517Y-33712914D02*
X1174279Y-33760533D01*
X3548214Y-4367319D02*
X2976786Y-4367319D01*
X3262500Y-4367319D02*
X3262500Y-3367319D01*
X3262500Y-3367319D02*
X3167262Y-3510176D01*
X3167262Y-3510176D02*
X3072024Y-3605414D01*
X3072024Y-3605414D02*
X2976786Y-3653033D01*
X6358452Y-2183152D02*
X6739404Y-2183152D01*
X6501309Y-1849819D02*
X6501309Y-2706961D01*
X6501309Y-2706961D02*
X6548928Y-2802200D01*
X6548928Y-2802200D02*
X6644166Y-2849819D01*
X6644166Y-2849819D02*
X6739404Y-2849819D01*
X7215595Y-2849819D02*
X7120357Y-2802200D01*
X7120357Y-2802200D02*
X7072738Y-2754580D01*
X7072738Y-2754580D02*
X7025119Y-2659342D01*
X7025119Y-2659342D02*
X7025119Y-2373628D01*
X7025119Y-2373628D02*
X7072738Y-2278390D01*
X7072738Y-2278390D02*
X7120357Y-2230771D01*
X7120357Y-2230771D02*
X7215595Y-2183152D01*
X7215595Y-2183152D02*
X7358452Y-2183152D01*
X7358452Y-2183152D02*
X7453690Y-2230771D01*
X7453690Y-2230771D02*
X7501309Y-2278390D01*
X7501309Y-2278390D02*
X7548928Y-2373628D01*
X7548928Y-2373628D02*
X7548928Y-2659342D01*
X7548928Y-2659342D02*
X7501309Y-2754580D01*
X7501309Y-2754580D02*
X7453690Y-2802200D01*
X7453690Y-2802200D02*
X7358452Y-2849819D01*
X7358452Y-2849819D02*
X7215595Y-2849819D01*
X7977500Y-2183152D02*
X7977500Y-3183152D01*
X7977500Y-2230771D02*
X8072738Y-2183152D01*
X8072738Y-2183152D02*
X8263214Y-2183152D01*
X8263214Y-2183152D02*
X8358452Y-2230771D01*
X8358452Y-2230771D02*
X8406071Y-2278390D01*
X8406071Y-2278390D02*
X8453690Y-2373628D01*
X8453690Y-2373628D02*
X8453690Y-2659342D01*
X8453690Y-2659342D02*
X8406071Y-2754580D01*
X8406071Y-2754580D02*
X8358452Y-2802200D01*
X8358452Y-2802200D02*
X8263214Y-2849819D01*
X8263214Y-2849819D02*
X8072738Y-2849819D01*
X8072738Y-2849819D02*
X7977500Y-2802200D01*
X8834643Y-2802200D02*
X8929881Y-2849819D01*
X8929881Y-2849819D02*
X9120357Y-2849819D01*
X9120357Y-2849819D02*
X9215595Y-2802200D01*
X9215595Y-2802200D02*
X9263214Y-2706961D01*
X9263214Y-2706961D02*
X9263214Y-2659342D01*
X9263214Y-2659342D02*
X9215595Y-2564104D01*
X9215595Y-2564104D02*
X9120357Y-2516485D01*
X9120357Y-2516485D02*
X8977500Y-2516485D01*
X8977500Y-2516485D02*
X8882262Y-2468866D01*
X8882262Y-2468866D02*
X8834643Y-2373628D01*
X8834643Y-2373628D02*
X8834643Y-2326009D01*
X8834643Y-2326009D02*
X8882262Y-2230771D01*
X8882262Y-2230771D02*
X8977500Y-2183152D01*
X8977500Y-2183152D02*
X9120357Y-2183152D01*
X9120357Y-2183152D02*
X9215595Y-2230771D01*
X9691786Y-2849819D02*
X9691786Y-2183152D01*
X9691786Y-1849819D02*
X9644167Y-1897438D01*
X9644167Y-1897438D02*
X9691786Y-1945057D01*
X9691786Y-1945057D02*
X9739405Y-1897438D01*
X9739405Y-1897438D02*
X9691786Y-1849819D01*
X9691786Y-1849819D02*
X9691786Y-1945057D01*
X10596547Y-2849819D02*
X10596547Y-1849819D01*
X10596547Y-2802200D02*
X10501309Y-2849819D01*
X10501309Y-2849819D02*
X10310833Y-2849819D01*
X10310833Y-2849819D02*
X10215595Y-2802200D01*
X10215595Y-2802200D02*
X10167976Y-2754580D01*
X10167976Y-2754580D02*
X10120357Y-2659342D01*
X10120357Y-2659342D02*
X10120357Y-2373628D01*
X10120357Y-2373628D02*
X10167976Y-2278390D01*
X10167976Y-2278390D02*
X10215595Y-2230771D01*
X10215595Y-2230771D02*
X10310833Y-2183152D01*
X10310833Y-2183152D02*
X10501309Y-2183152D01*
X10501309Y-2183152D02*
X10596547Y-2230771D01*
X11453690Y-2802200D02*
X11358452Y-2849819D01*
X11358452Y-2849819D02*
X11167976Y-2849819D01*
X11167976Y-2849819D02*
X11072738Y-2802200D01*
X11072738Y-2802200D02*
X11025119Y-2706961D01*
X11025119Y-2706961D02*
X11025119Y-2326009D01*
X11025119Y-2326009D02*
X11072738Y-2230771D01*
X11072738Y-2230771D02*
X11167976Y-2183152D01*
X11167976Y-2183152D02*
X11358452Y-2183152D01*
X11358452Y-2183152D02*
X11453690Y-2230771D01*
X11453690Y-2230771D02*
X11501309Y-2326009D01*
X11501309Y-2326009D02*
X11501309Y-2421247D01*
X11501309Y-2421247D02*
X11025119Y-2516485D01*
X7715595Y-449819D02*
X7715595Y-1259342D01*
X7715595Y-1259342D02*
X7763214Y-1354580D01*
X7763214Y-1354580D02*
X7810833Y-1402200D01*
X7810833Y-1402200D02*
X7906071Y-1449819D01*
X7906071Y-1449819D02*
X8096547Y-1449819D01*
X8096547Y-1449819D02*
X8191785Y-1402200D01*
X8191785Y-1402200D02*
X8239404Y-1354580D01*
X8239404Y-1354580D02*
X8287023Y-1259342D01*
X8287023Y-1259342D02*
X8287023Y-449819D01*
X8715595Y-1402200D02*
X8858452Y-1449819D01*
X8858452Y-1449819D02*
X9096547Y-1449819D01*
X9096547Y-1449819D02*
X9191785Y-1402200D01*
X9191785Y-1402200D02*
X9239404Y-1354580D01*
X9239404Y-1354580D02*
X9287023Y-1259342D01*
X9287023Y-1259342D02*
X9287023Y-1164104D01*
X9287023Y-1164104D02*
X9239404Y-1068866D01*
X9239404Y-1068866D02*
X9191785Y-1021247D01*
X9191785Y-1021247D02*
X9096547Y-973628D01*
X9096547Y-973628D02*
X8906071Y-926009D01*
X8906071Y-926009D02*
X8810833Y-878390D01*
X8810833Y-878390D02*
X8763214Y-830771D01*
X8763214Y-830771D02*
X8715595Y-735533D01*
X8715595Y-735533D02*
X8715595Y-640295D01*
X8715595Y-640295D02*
X8763214Y-545057D01*
X8763214Y-545057D02*
X8810833Y-497438D01*
X8810833Y-497438D02*
X8906071Y-449819D01*
X8906071Y-449819D02*
X9144166Y-449819D01*
X9144166Y-449819D02*
X9287023Y-497438D01*
X10048928Y-926009D02*
X10191785Y-973628D01*
X10191785Y-973628D02*
X10239404Y-1021247D01*
X10239404Y-1021247D02*
X10287023Y-1116485D01*
X10287023Y-1116485D02*
X10287023Y-1259342D01*
X10287023Y-1259342D02*
X10239404Y-1354580D01*
X10239404Y-1354580D02*
X10191785Y-1402200D01*
X10191785Y-1402200D02*
X10096547Y-1449819D01*
X10096547Y-1449819D02*
X9715595Y-1449819D01*
X9715595Y-1449819D02*
X9715595Y-449819D01*
X9715595Y-449819D02*
X10048928Y-449819D01*
X10048928Y-449819D02*
X10144166Y-497438D01*
X10144166Y-497438D02*
X10191785Y-545057D01*
X10191785Y-545057D02*
X10239404Y-640295D01*
X10239404Y-640295D02*
X10239404Y-735533D01*
X10239404Y-735533D02*
X10191785Y-830771D01*
X10191785Y-830771D02*
X10144166Y-878390D01*
X10144166Y-878390D02*
X10048928Y-926009D01*
X10048928Y-926009D02*
X9715595Y-926009D01*
D12*
%TO.C,J2*%
X6925000Y-10862000D02*
X6925000Y-10982000D01*
X6925000Y-10982000D02*
X9585000Y-10982000D01*
X8255000Y-8322000D02*
X9585000Y-8322000D01*
X9585000Y-8322000D02*
X9585000Y-9652000D01*
X9585000Y-10862000D02*
X9585000Y-10982000D01*
%TO.C,J3*%
X7560000Y-695000D02*
X7560000Y-575000D01*
X7560000Y-3235000D02*
X7560000Y-1905000D01*
X8890000Y-3235000D02*
X7560000Y-3235000D01*
X10220000Y-575000D02*
X7560000Y-575000D01*
X10220000Y-695000D02*
X10220000Y-575000D01*
%TO.C,J1*%
X4405000Y-30460000D02*
X9565000Y-30460000D01*
X4405000Y-30500000D02*
X9565000Y-30500000D01*
X4406000Y-30420000D02*
X9564000Y-30420000D01*
X4408000Y-30380000D02*
X9562000Y-30380000D01*
X4410000Y-30340000D02*
X9560000Y-30340000D01*
X4413000Y-30300000D02*
X9557000Y-30300000D01*
X4416000Y-30260000D02*
X5945000Y-30260000D01*
X4420000Y-30220000D02*
X5945000Y-30220000D01*
X4425000Y-30180000D02*
X5945000Y-30180000D01*
X4430000Y-30140000D02*
X5945000Y-30140000D01*
X4436000Y-30100000D02*
X5945000Y-30100000D01*
X4442000Y-30060000D02*
X5945000Y-30060000D01*
X4449000Y-30020000D02*
X5945000Y-30020000D01*
X4457000Y-29980000D02*
X5945000Y-29980000D01*
X4466000Y-29940000D02*
X5945000Y-29940000D01*
X4475000Y-29900000D02*
X5945000Y-29900000D01*
X4484000Y-29860000D02*
X5945000Y-29860000D01*
X4495000Y-29820000D02*
X5945000Y-29820000D01*
X4506000Y-29780000D02*
X5945000Y-29780000D01*
X4518000Y-29740000D02*
X5945000Y-29740000D01*
X4530000Y-29700000D02*
X5945000Y-29700000D01*
X4543000Y-29660000D02*
X5945000Y-29660000D01*
X4557000Y-29620000D02*
X5945000Y-29620000D01*
X4572000Y-29580000D02*
X5945000Y-29580000D01*
X4587000Y-29540000D02*
X5945000Y-29540000D01*
X4603000Y-29500000D02*
X5945000Y-29500000D01*
X4620000Y-29460000D02*
X5945000Y-29460000D01*
X4638000Y-29420000D02*
X5945000Y-29420000D01*
X4656000Y-29380000D02*
X5945000Y-29380000D01*
X4676000Y-29340000D02*
X5945000Y-29340000D01*
X4696000Y-29300000D02*
X5945000Y-29300000D01*
X4717000Y-29260000D02*
X5945000Y-29260000D01*
X4739000Y-29220000D02*
X5945000Y-29220000D01*
X4762000Y-29180000D02*
X5945000Y-29180000D01*
X4786000Y-29140000D02*
X5945000Y-29140000D01*
X4810000Y-29100000D02*
X5945000Y-29100000D01*
X4836000Y-29060000D02*
X5945000Y-29060000D01*
X4863000Y-29020000D02*
X5945000Y-29020000D01*
X4891000Y-28980000D02*
X5945000Y-28980000D01*
X4920000Y-28940000D02*
X5945000Y-28940000D01*
X4950000Y-28900000D02*
X5945000Y-28900000D01*
X4982000Y-28860000D02*
X5945000Y-28860000D01*
X5015000Y-28820000D02*
X5945000Y-28820000D01*
X5049000Y-28780000D02*
X5945000Y-28780000D01*
X5084000Y-28740000D02*
X5945000Y-28740000D01*
X5121000Y-28700000D02*
X5945000Y-28700000D01*
X5160000Y-28660000D02*
X5945000Y-28660000D01*
X5200000Y-28620000D02*
X5945000Y-28620000D01*
X5242000Y-28580000D02*
X5945000Y-28580000D01*
X5260000Y-33054775D02*
X5760000Y-33054775D01*
X5286000Y-28540000D02*
X5945000Y-28540000D01*
X5333000Y-28500000D02*
X5945000Y-28500000D01*
X5381000Y-28460000D02*
X5945000Y-28460000D01*
X5432000Y-28420000D02*
X5945000Y-28420000D01*
X5486000Y-28380000D02*
X5945000Y-28380000D01*
X5510000Y-33304775D02*
X5510000Y-32804775D01*
X5542000Y-28340000D02*
X5945000Y-28340000D01*
X5602000Y-28300000D02*
X5945000Y-28300000D01*
X5666000Y-28260000D02*
X5945000Y-28260000D01*
X5734000Y-28220000D02*
X5945000Y-28220000D01*
X5808000Y-28180000D02*
X8162000Y-28180000D01*
X5887000Y-28140000D02*
X8083000Y-28140000D01*
X5974000Y-28100000D02*
X7996000Y-28100000D01*
X6071000Y-28060000D02*
X7899000Y-28060000D01*
X6180000Y-28020000D02*
X7790000Y-28020000D01*
X6308000Y-27980000D02*
X7662000Y-27980000D01*
X6468000Y-27940000D02*
X7502000Y-27940000D01*
X6702000Y-27900000D02*
X7268000Y-27900000D01*
X8025000Y-28220000D02*
X8236000Y-28220000D01*
X8025000Y-28260000D02*
X8304000Y-28260000D01*
X8025000Y-28300000D02*
X8368000Y-28300000D01*
X8025000Y-28340000D02*
X8428000Y-28340000D01*
X8025000Y-28380000D02*
X8484000Y-28380000D01*
X8025000Y-28420000D02*
X8538000Y-28420000D01*
X8025000Y-28460000D02*
X8589000Y-28460000D01*
X8025000Y-28500000D02*
X8637000Y-28500000D01*
X8025000Y-28540000D02*
X8684000Y-28540000D01*
X8025000Y-28580000D02*
X8728000Y-28580000D01*
X8025000Y-28620000D02*
X8770000Y-28620000D01*
X8025000Y-28660000D02*
X8810000Y-28660000D01*
X8025000Y-28700000D02*
X8849000Y-28700000D01*
X8025000Y-28740000D02*
X8886000Y-28740000D01*
X8025000Y-28780000D02*
X8921000Y-28780000D01*
X8025000Y-28820000D02*
X8955000Y-28820000D01*
X8025000Y-28860000D02*
X8988000Y-28860000D01*
X8025000Y-28900000D02*
X9020000Y-28900000D01*
X8025000Y-28940000D02*
X9050000Y-28940000D01*
X8025000Y-28980000D02*
X9079000Y-28980000D01*
X8025000Y-29020000D02*
X9107000Y-29020000D01*
X8025000Y-29060000D02*
X9134000Y-29060000D01*
X8025000Y-29100000D02*
X9160000Y-29100000D01*
X8025000Y-29140000D02*
X9184000Y-29140000D01*
X8025000Y-29180000D02*
X9208000Y-29180000D01*
X8025000Y-29220000D02*
X9231000Y-29220000D01*
X8025000Y-29260000D02*
X9253000Y-29260000D01*
X8025000Y-29300000D02*
X9274000Y-29300000D01*
X8025000Y-29340000D02*
X9294000Y-29340000D01*
X8025000Y-29380000D02*
X9314000Y-29380000D01*
X8025000Y-29420000D02*
X9332000Y-29420000D01*
X8025000Y-29460000D02*
X9350000Y-29460000D01*
X8025000Y-29500000D02*
X9367000Y-29500000D01*
X8025000Y-29540000D02*
X9383000Y-29540000D01*
X8025000Y-29580000D02*
X9398000Y-29580000D01*
X8025000Y-29620000D02*
X9413000Y-29620000D01*
X8025000Y-29660000D02*
X9427000Y-29660000D01*
X8025000Y-29700000D02*
X9440000Y-29700000D01*
X8025000Y-29740000D02*
X9452000Y-29740000D01*
X8025000Y-29780000D02*
X9464000Y-29780000D01*
X8025000Y-29820000D02*
X9475000Y-29820000D01*
X8025000Y-29860000D02*
X9486000Y-29860000D01*
X8025000Y-29900000D02*
X9495000Y-29900000D01*
X8025000Y-29940000D02*
X9504000Y-29940000D01*
X8025000Y-29980000D02*
X9513000Y-29980000D01*
X8025000Y-30020000D02*
X9521000Y-30020000D01*
X8025000Y-30060000D02*
X9528000Y-30060000D01*
X8025000Y-30100000D02*
X9534000Y-30100000D01*
X8025000Y-30140000D02*
X9540000Y-30140000D01*
X8025000Y-30180000D02*
X9545000Y-30180000D01*
X8025000Y-30220000D02*
X9550000Y-30220000D01*
X8025000Y-30260000D02*
X9554000Y-30260000D01*
D10*
X6985000Y-33185000D02*
X19985000Y-33185000D01*
X19985000Y-27815000D01*
X6985000Y-27815000D01*
X6985000Y-33185000D01*
D12*
X9605000Y-30500000D02*
G75*
G02*
X4365000Y-30500000I-2620000J0D01*
G01*
X4365000Y-30500000D02*
G75*
G02*
X9605000Y-30500000I2620000J0D01*
G01*
D11*
%TO.C,U1*%
X5427500Y-3580000D02*
X5427500Y0D01*
X12527500Y-3580000D02*
X5427500Y-3580000D01*
X12527500Y-3580000D02*
X12527500Y0D01*
X1087500Y0D02*
X16867500Y0D01*
X16867500Y-33020000D01*
X1087500Y-33020000D01*
X1087500Y0D01*
%TD*%
M02*
