%TF.GenerationSoftware,KiCad,Pcbnew,9.0.5*%
%TF.CreationDate,2026-09-01T18:49:43-04:00*%
%TF.ProjectId,xc_nice_nano_tx_ board,78635f6e-6963-4655-9f6e-616e6f5f7478,rev?*%
%TF.SameCoordinates,Original*%
%TF.FileFunction,Soldermask,Bot*%
%TF.FilePolarity,Negative*%
%FSLAX46Y46*%
G04 Gerber Fmt 4.6, Leading zero omitted, Abs format (unit mm)*
G04 Created by KiCad (PCBNEW 9.0.5) date 2026-09-01 18:49:43*
%MOMM*%
%LPD*%
G01*
G04 APERTURE LIST*
G04 Aperture macros list*
%AMRoundRect*
0 Rectangle with rounded corners*
0 $1 Rounding radius*
0 $2 $3 $4 $5 $6 $7 $8 $9 X,Y pos of 4 corners*
0 Add a 4 corners polygon primitive as box body*
4,1,4,$2,$3,$4,$5,$6,$7,$8,$9,$2,$3,0*
0 Add four circle primitives for the rounded corners*
1,1,$1+$1,$2,$3*
1,1,$1+$1,$4,$5*
1,1,$1+$1,$6,$7*
1,1,$1+$1,$8,$9*
0 Add four rect primitives between the rounded corners*
20,1,$1+$1,$2,$3,$4,$5,0*
20,1,$1+$1,$4,$5,$6,$7,0*
20,1,$1+$1,$6,$7,$8,$9,0*
20,1,$1+$1,$8,$9,$2,$3,0*%
G04 Aperture macros list end*
%ADD10R,4.572000X2.540000*%
%ADD11R,5.080000X3.810000*%
%ADD12RoundRect,0.250000X0.550000X-0.550000X0.550000X0.550000X-0.550000X0.550000X-0.550000X-0.550000X0*%
%ADD13C,1.600000*%
%ADD14R,1.778000X1.270000*%
%ADD15R,3.556000X1.270000*%
%ADD16C,1.800000*%
%ADD17RoundRect,0.200000X-0.275000X0.200000X-0.275000X-0.200000X0.275000X-0.200000X0.275000X0.200000X0*%
%ADD18RoundRect,0.225000X-0.250000X0.225000X-0.250000X-0.225000X0.250000X-0.225000X0.250000X0.225000X0*%
%ADD19RoundRect,0.225000X0.225000X0.250000X-0.225000X0.250000X-0.225000X-0.250000X0.225000X-0.250000X0*%
G04 APERTURE END LIST*
D10*
%TO.C,J2*%
X8255000Y-9652000D03*
%TD*%
D11*
%TO.C,J3*%
X8890000Y-1905000D03*
%TD*%
D12*
%TO.C,J1*%
X6985000Y-31750000D03*
D13*
X6985000Y-29250000D03*
%TD*%
D14*
%TO.C,U1*%
X1357500Y-3810000D03*
D15*
X2373500Y-6350000D03*
X2373500Y-8890000D03*
X2373500Y-11430000D03*
X2373500Y-13970000D03*
X2373500Y-16510000D03*
X2373500Y-19050000D03*
X2373500Y-21590000D03*
X2373500Y-24130000D03*
D14*
X1357500Y-26670000D03*
D15*
X2373500Y-29210000D03*
X2373500Y-31750000D03*
X15581500Y-3810000D03*
X15581500Y-6350000D03*
X15581500Y-8890000D03*
X15581500Y-11430000D03*
X15581500Y-13970000D03*
X15581500Y-16510000D03*
X15581500Y-19050000D03*
X15581500Y-21590000D03*
X15581500Y-24130000D03*
X15581500Y-26670000D03*
X15581500Y-29210000D03*
X15581500Y-31750000D03*
D16*
X3897500Y-26670000D03*
X6437500Y-26670000D03*
X8977500Y-26670000D03*
D15*
X2373500Y-1270000D03*
X15581500Y-1270000D03*
%TD*%
D17*
%TO.C,R1*%
X10795000Y-21400000D03*
X10795000Y-23050000D03*
%TD*%
D18*
%TO.C,C2*%
X9525000Y-5321000D03*
X9525000Y-6871000D03*
%TD*%
D19*
%TO.C,C3*%
X8395000Y-22860000D03*
X6845000Y-22860000D03*
%TD*%
D18*
%TO.C,C1*%
X7620000Y-5321000D03*
X7620000Y-6871000D03*
%TD*%
M02*
