%TF.GenerationSoftware,KiCad,Pcbnew,9.0.5*%
%TF.CreationDate,2026-09-01T18:49:43-04:00*%
%TF.ProjectId,xc_nice_nano_tx_ board,78635f6e-6963-4655-9f6e-616e6f5f7478,rev?*%
%TF.SameCoordinates,Original*%
%TF.FileFunction,Copper,L2,Bot*%
%TF.FilePolarity,Positive*%
%FSLAX46Y46*%
G04 Gerber Fmt 4.6, Leading zero omitted, Abs format (unit mm)*
G04 Created by KiCad (PCBNEW 9.0.5) date 2026-09-01 18:49:43*
%MOMM*%
%LPD*%
G01*
G04 APERTURE LIST*
G04 Aperture macros list*
%AMRoundRect*
0 Rectangle with rounded corners*
0 $1 Rounding radius*
0 $2 $3 $4 $5 $6 $7 $8 $9 X,Y pos of 4 corners*
0 Add a 4 corners polygon primitive as box body*
4,1,4,$2,$3,$4,$5,$6,$7,$8,$9,$2,$3,0*
0 Add four circle primitives for the rounded corners*
1,1,$1+$1,$2,$3*
1,1,$1+$1,$4,$5*
1,1,$1+$1,$6,$7*
1,1,$1+$1,$8,$9*
0 Add four rect primitives between the rounded corners*
20,1,$1+$1,$2,$3,$4,$5,0*
20,1,$1+$1,$4,$5,$6,$7,0*
20,1,$1+$1,$6,$7,$8,$9,0*
20,1,$1+$1,$8,$9,$2,$3,0*%
G04 Aperture macros list end*
%TA.AperFunction,ComponentPad*%
%ADD10R,4.572000X2.540000*%
%TD*%
%TA.AperFunction,ComponentPad*%
%ADD11R,5.080000X3.810000*%
%TD*%
%TA.AperFunction,ComponentPad*%
%ADD12RoundRect,0.250000X0.550000X-0.550000X0.550000X0.550000X-0.550000X0.550000X-0.550000X-0.550000X0*%
%TD*%
%TA.AperFunction,ComponentPad*%
%ADD13C,1.600000*%
%TD*%
%TA.AperFunction,ComponentPad*%
%ADD14R,1.778000X1.270000*%
%TD*%
%TA.AperFunction,ComponentPad*%
%ADD15R,3.556000X1.270000*%
%TD*%
%TA.AperFunction,ComponentPad*%
%ADD16C,1.800000*%
%TD*%
%TA.AperFunction,SMDPad,CuDef*%
%ADD17RoundRect,0.200000X-0.275000X0.200000X-0.275000X-0.200000X0.275000X-0.200000X0.275000X0.200000X0*%
%TD*%
%TA.AperFunction,SMDPad,CuDef*%
%ADD18RoundRect,0.225000X-0.250000X0.225000X-0.250000X-0.225000X0.250000X-0.225000X0.250000X0.225000X0*%
%TD*%
%TA.AperFunction,SMDPad,CuDef*%
%ADD19RoundRect,0.225000X0.225000X0.250000X-0.225000X0.250000X-0.225000X-0.250000X0.225000X-0.250000X0*%
%TD*%
%TA.AperFunction,Conductor*%
%ADD20C,0.762000*%
%TD*%
%TA.AperFunction,Conductor*%
%ADD21C,0.200000*%
%TD*%
%TA.AperFunction,Conductor*%
%ADD22C,0.508000*%
%TD*%
G04 APERTURE END LIST*
D10*
%TO.P,J2,1,Pin_1*%
%TO.N,BAT-*%
X8255000Y-9652000D03*
%TD*%
D11*
%TO.P,J3,1,Pin_1*%
%TO.N,BAT+*%
X8890000Y-1905000D03*
%TD*%
D12*
%TO.P,J1,1,Pin_1*%
%TO.N,WAKE_PIN*%
X6985000Y-31750000D03*
D13*
%TO.P,J1,2,Pin_2*%
%TO.N,BAT-*%
X6985000Y-29250000D03*
%TD*%
D14*
%TO.P,U1,1,P0.06*%
%TO.N,unconnected-(U1-P0.06-Pad1)*%
X1357500Y-3810000D03*
D15*
%TO.P,U1,2,P0.08*%
%TO.N,unconnected-(U1-P0.08-Pad2)*%
X2373500Y-6350000D03*
%TO.P,U1,3,GND*%
%TO.N,BAT-*%
X2373500Y-8890000D03*
%TO.P,U1,4,GND*%
X2373500Y-11430000D03*
%TO.P,U1,5,P0.17*%
%TO.N,unconnected-(U1-P0.17-Pad5)*%
X2373500Y-13970000D03*
%TO.P,U1,6,P0.20*%
%TO.N,unconnected-(U1-P0.20-Pad6)*%
X2373500Y-16510000D03*
%TO.P,U1,7,P0.22*%
%TO.N,unconnected-(U1-P0.22-Pad7)*%
X2373500Y-19050000D03*
%TO.P,U1,8,P0.24*%
%TO.N,unconnected-(U1-P0.24-Pad8)*%
X2373500Y-21590000D03*
%TO.P,U1,9,P1.00*%
%TO.N,unconnected-(U1-P1.00-Pad9)*%
X2373500Y-24130000D03*
D14*
%TO.P,U1,10,P0.11*%
%TO.N,unconnected-(U1-P0.11-Pad10)*%
X1357500Y-26670000D03*
D15*
%TO.P,U1,11,P1.04-LF*%
%TO.N,unconnected-(U1-P1.04-LF-Pad11)*%
X2373500Y-29210000D03*
%TO.P,U1,12,P1.06-LF*%
%TO.N,WAKE_PIN*%
X2373500Y-31750000D03*
%TO.P,U1,13,BAT+*%
%TO.N,BAT+*%
X15581500Y-3810000D03*
%TO.P,U1,14,GND*%
%TO.N,BAT-*%
X15581500Y-6350000D03*
%TO.P,U1,15,RST*%
%TO.N,unconnected-(U1-RST-Pad15)*%
X15581500Y-8890000D03*
%TO.P,U1,16,3V3*%
%TO.N,3V3*%
X15581500Y-11430000D03*
%TO.P,U1,17,P0.31-LF*%
%TO.N,unconnected-(U1-P0.31-LF-Pad17)*%
X15581500Y-13970000D03*
%TO.P,U1,18,P0.29-LF*%
%TO.N,P0.29*%
X15581500Y-16510000D03*
%TO.P,U1,19,P0.02-LF*%
%TO.N,unconnected-(U1-P0.02-LF-Pad19)*%
X15581500Y-19050000D03*
%TO.P,U1,20,P1.15-LF*%
%TO.N,unconnected-(U1-P1.15-LF-Pad20)*%
X15581500Y-21590000D03*
%TO.P,U1,21,P1.13-LF*%
%TO.N,unconnected-(U1-P1.13-LF-Pad21)*%
X15581500Y-24130000D03*
%TO.P,U1,22,P1.11-LF*%
%TO.N,unconnected-(U1-P1.11-LF-Pad22)*%
X15581500Y-26670000D03*
%TO.P,U1,23,P0.10-LF*%
%TO.N,unconnected-(U1-P0.10-LF-Pad23)*%
X15581500Y-29210000D03*
%TO.P,U1,24,P0.09-LF*%
%TO.N,unconnected-(U1-P0.09-LF-Pad24)*%
X15581500Y-31750000D03*
D16*
%TO.P,U1,25,P1.01-LF*%
%TO.N,unconnected-(U1-P1.01-LF-Pad25)*%
X3897500Y-26670000D03*
%TO.P,U1,26,P1.02-LF*%
%TO.N,unconnected-(U1-P1.02-LF-Pad26)*%
X6437500Y-26670000D03*
%TO.P,U1,27,P1.07-LF*%
%TO.N,unconnected-(U1-P1.07-LF-Pad27)*%
X8977500Y-26670000D03*
D15*
%TO.P,U1,28,GND*%
%TO.N,BAT-*%
X2373500Y-1270000D03*
%TO.P,U1,29,BAT+*%
%TO.N,BAT+*%
X15581500Y-1270000D03*
%TD*%
D17*
%TO.P,R1,1*%
%TO.N,BAT+*%
X10795000Y-21400000D03*
%TO.P,R1,2*%
%TO.N,WAKE_PIN*%
X10795000Y-23050000D03*
%TD*%
D18*
%TO.P,C2,1*%
%TO.N,BAT+*%
X9525000Y-5321000D03*
%TO.P,C2,2*%
%TO.N,BAT-*%
X9525000Y-6871000D03*
%TD*%
D19*
%TO.P,C3,1*%
%TO.N,WAKE_PIN*%
X8395000Y-22860000D03*
%TO.P,C3,2*%
%TO.N,BAT-*%
X6845000Y-22860000D03*
%TD*%
D18*
%TO.P,C1,1*%
%TO.N,BAT+*%
X7620000Y-5321000D03*
%TO.P,C1,2*%
%TO.N,BAT-*%
X7620000Y-6871000D03*
%TD*%
D20*
%TO.N,BAT+*%
X16129000Y-3810000D02*
X16597500Y-3810000D01*
D21*
X8890000Y-1905000D02*
X8890000Y-2540000D01*
D20*
X16597500Y-1270000D02*
X15621000Y-1270000D01*
D22*
X7620000Y-3175000D02*
X7620000Y-5321000D01*
D20*
X14859000Y-2032000D02*
X14859000Y-2540000D01*
D21*
X8890000Y-2540000D02*
X9525000Y-3175000D01*
X8890000Y-1905000D02*
X7620000Y-3175000D01*
X16597500Y-3810000D02*
X15240000Y-3810000D01*
D20*
X15621000Y-1270000D02*
X14859000Y-2032000D01*
D22*
X9525000Y-3175000D02*
X9525000Y-5321000D01*
X12065000Y-20130000D02*
X10795000Y-21400000D01*
D20*
X14859000Y-2540000D02*
X16129000Y-3810000D01*
D22*
X9525000Y-5321000D02*
X11544000Y-5321000D01*
X11544000Y-5321000D02*
X12065000Y-5842000D01*
X12065000Y-5842000D02*
X12065000Y-20130000D01*
D20*
X16597500Y-1270000D02*
X9525000Y-1270000D01*
%TO.N,WAKE_PIN*%
X6985000Y-31750000D02*
X12065000Y-31750000D01*
X1357500Y-31750000D02*
X6985000Y-31750000D01*
X8395000Y-22860000D02*
X10605000Y-22860000D01*
X12065000Y-24130000D02*
X10795000Y-23050000D01*
X12065000Y-31750000D02*
X12065000Y-24130000D01*
X10605000Y-22860000D02*
X10795000Y-23050000D01*
%TO.N,BAT-*%
X6985000Y-10922000D02*
X8255000Y-9652000D01*
X6845000Y-22860000D02*
X6845000Y-23990000D01*
X16597500Y-6350000D02*
X16457500Y-6490000D01*
D22*
X7620000Y-8255000D02*
X8890000Y-9525000D01*
X5461000Y-1270000D02*
X5461000Y-4572000D01*
D20*
X10795000Y-29210000D02*
X10160000Y-29210000D01*
X10120000Y-29250000D02*
X6985000Y-29250000D01*
D22*
X7620000Y-6871000D02*
X7620000Y-8255000D01*
D20*
X10795000Y-25400000D02*
X10795000Y-29210000D01*
D22*
X5461000Y-4572000D02*
X5969000Y-5080000D01*
X5969000Y-6223000D02*
X6617000Y-6871000D01*
D20*
X8255000Y-8890000D02*
X8890000Y-9525000D01*
X6985000Y-11430000D02*
X6985000Y-10922000D01*
D22*
X1357500Y-1270000D02*
X5461000Y-1270000D01*
X6617000Y-6871000D02*
X7620000Y-6871000D01*
D20*
X1357500Y-11430000D02*
X6985000Y-11430000D01*
X10160000Y-24765000D02*
X10795000Y-25400000D01*
X10160000Y-29210000D02*
X10120000Y-29250000D01*
X6985000Y-11430000D02*
X6845000Y-22860000D01*
D22*
X7620000Y-6871000D02*
X9525000Y-6871000D01*
X5969000Y-5080000D02*
X5969000Y-6223000D01*
D20*
X6845000Y-23990000D02*
X7620000Y-24765000D01*
X7620000Y-24765000D02*
X10160000Y-24765000D01*
X1357500Y-8890000D02*
X8255000Y-8890000D01*
%TD*%
%TA.AperFunction,Conductor*%
%TO.N,BAT-*%
G36*
X5771818Y-5748744D02*
G01*
X5853897Y-5803588D01*
X5908740Y-5885667D01*
X5922614Y-5930566D01*
X5931757Y-5974173D01*
X5931759Y-5974181D01*
X5931760Y-5974183D01*
X6021852Y-6205069D01*
X6148718Y-6417978D01*
X6308898Y-6607102D01*
X6498022Y-6767282D01*
X6662103Y-6865053D01*
X6735415Y-6931155D01*
X6777852Y-7020284D01*
X6782951Y-7118868D01*
X6749935Y-7211899D01*
X6737708Y-7230504D01*
X6672361Y-7320998D01*
X6701153Y-7407886D01*
X6701155Y-7407890D01*
X6750680Y-7488182D01*
X6785116Y-7580696D01*
X6781527Y-7679347D01*
X6740459Y-7769114D01*
X6668165Y-7836333D01*
X6575651Y-7870769D01*
X6535347Y-7874000D01*
X5920394Y-7874000D01*
X5859910Y-7880503D01*
X5859903Y-7880505D01*
X5723040Y-7931552D01*
X5723034Y-7931555D01*
X5606097Y-8019094D01*
X5606094Y-8019097D01*
X5518555Y-8136034D01*
X5518552Y-8136040D01*
X5467505Y-8272903D01*
X5467503Y-8272910D01*
X5461000Y-8333394D01*
X5461000Y-9144000D01*
X8002000Y-9144000D01*
X8098819Y-9163258D01*
X8180898Y-9218102D01*
X8235742Y-9300181D01*
X8255000Y-9397000D01*
X8255000Y-9639300D01*
X8249740Y-9639300D01*
X8242300Y-9646740D01*
X8242300Y-9657260D01*
X8249740Y-9664700D01*
X8260260Y-9664700D01*
X8267700Y-9657260D01*
X8267700Y-9652000D01*
X8510000Y-9652000D01*
X8606819Y-9671258D01*
X8688898Y-9726102D01*
X8743742Y-9808181D01*
X8763000Y-9905000D01*
X8763000Y-11430000D01*
X10287500Y-11430000D01*
X10384319Y-11449258D01*
X10466398Y-11504102D01*
X10521242Y-11586181D01*
X10540500Y-11683000D01*
X10540500Y-19393734D01*
X10521242Y-19490553D01*
X10466398Y-19572632D01*
X10347413Y-19691617D01*
X10265334Y-19746461D01*
X10220435Y-19760334D01*
X10098984Y-19785799D01*
X10098976Y-19785801D01*
X9871948Y-19874387D01*
X9871947Y-19874388D01*
X9662601Y-19999132D01*
X9662592Y-19999138D01*
X9476636Y-20156636D01*
X9319138Y-20342592D01*
X9319132Y-20342601D01*
X9194388Y-20551947D01*
X9194387Y-20551948D01*
X9105801Y-20778976D01*
X9105800Y-20778982D01*
X9076074Y-20920750D01*
X9037356Y-21011556D01*
X8966836Y-21080633D01*
X8875249Y-21117465D01*
X8812784Y-21121343D01*
X8702563Y-21114500D01*
X8702548Y-21114500D01*
X8087452Y-21114500D01*
X8087441Y-21114500D01*
X7984384Y-21120898D01*
X7984383Y-21120898D01*
X7741828Y-21171757D01*
X7741818Y-21171759D01*
X7510932Y-21261851D01*
X7298022Y-21388718D01*
X7298016Y-21388722D01*
X7108898Y-21548898D01*
X6948722Y-21738016D01*
X6948716Y-21738025D01*
X6850947Y-21902102D01*
X6784843Y-21975416D01*
X6695714Y-22017852D01*
X6597130Y-22022951D01*
X6504099Y-21989934D01*
X6485494Y-21977708D01*
X6395000Y-21912362D01*
X6308113Y-21941153D01*
X6308109Y-21941155D01*
X6162275Y-22031106D01*
X6162268Y-22031112D01*
X6041112Y-22152268D01*
X6041106Y-22152275D01*
X5951155Y-22298109D01*
X5951153Y-22298113D01*
X5921091Y-22388832D01*
X5918931Y-22410000D01*
X6421500Y-22410000D01*
X6518319Y-22429258D01*
X6600398Y-22484102D01*
X6655242Y-22566181D01*
X6674500Y-22663000D01*
X6674500Y-23057000D01*
X6655242Y-23153819D01*
X6600398Y-23235898D01*
X6518319Y-23290742D01*
X6421500Y-23310000D01*
X5931185Y-23310000D01*
X5956287Y-23430209D01*
X6041106Y-23567724D01*
X6041112Y-23567731D01*
X6162268Y-23688887D01*
X6162278Y-23688895D01*
X6308103Y-23778841D01*
X6308112Y-23778845D01*
X6394999Y-23807636D01*
X6485491Y-23742291D01*
X6486379Y-23741884D01*
X6487052Y-23741172D01*
X6531264Y-23721349D01*
X6575258Y-23701223D01*
X6576235Y-23701187D01*
X6577129Y-23700787D01*
X6625544Y-23699393D01*
X6673909Y-23697634D01*
X6674825Y-23697975D01*
X6675804Y-23697947D01*
X6721089Y-23715195D01*
X6766424Y-23732070D01*
X6767139Y-23732735D01*
X6768055Y-23733084D01*
X6773436Y-23738589D01*
X6838718Y-23799288D01*
X6839837Y-23800849D01*
X6845730Y-23809142D01*
X6948718Y-23981978D01*
X7071943Y-24127470D01*
X7078168Y-24136229D01*
X7094048Y-24171650D01*
X7112876Y-24205597D01*
X7114108Y-24216392D01*
X7118553Y-24226306D01*
X7119669Y-24265105D01*
X7124073Y-24303676D01*
X7121080Y-24314121D01*
X7121393Y-24324981D01*
X7107576Y-24361255D01*
X7096885Y-24398574D01*
X7090123Y-24407078D01*
X7086256Y-24417232D01*
X7059605Y-24445461D01*
X7035450Y-24475844D01*
X7025950Y-24481112D01*
X7018491Y-24489014D01*
X6983069Y-24504894D01*
X6949123Y-24523722D01*
X6938327Y-24524954D01*
X6928414Y-24529399D01*
X6889614Y-24530515D01*
X6851044Y-24534919D01*
X6838913Y-24533618D01*
X6579775Y-24499500D01*
X6579762Y-24499500D01*
X6295238Y-24499500D01*
X6295224Y-24499500D01*
X6013147Y-24536638D01*
X6013143Y-24536638D01*
X5740480Y-24609698D01*
X5641975Y-24616154D01*
X5548498Y-24584423D01*
X5474280Y-24519335D01*
X5430620Y-24430800D01*
X5421999Y-24365319D01*
X5421999Y-23429758D01*
X5421999Y-23429753D01*
X5411430Y-23295447D01*
X5355551Y-23073684D01*
X5306017Y-22964632D01*
X5283510Y-22868516D01*
X5299499Y-22771104D01*
X5306017Y-22755368D01*
X5319988Y-22724608D01*
X5355551Y-22646316D01*
X5411430Y-22424553D01*
X5422000Y-22290247D01*
X5421999Y-20889754D01*
X5413282Y-20778976D01*
X5411431Y-20755454D01*
X5411430Y-20755451D01*
X5411430Y-20755447D01*
X5355551Y-20533684D01*
X5306017Y-20424632D01*
X5283510Y-20328516D01*
X5299499Y-20231104D01*
X5306017Y-20215368D01*
X5355548Y-20106322D01*
X5355551Y-20106316D01*
X5411430Y-19884553D01*
X5422000Y-19750247D01*
X5421999Y-18349754D01*
X5411430Y-18215447D01*
X5355551Y-17993684D01*
X5306017Y-17884632D01*
X5283510Y-17788516D01*
X5299499Y-17691104D01*
X5306017Y-17675368D01*
X5355548Y-17566322D01*
X5355551Y-17566316D01*
X5411430Y-17344553D01*
X5422000Y-17210247D01*
X5421999Y-15809754D01*
X5411430Y-15675447D01*
X5355551Y-15453684D01*
X5306017Y-15344632D01*
X5283510Y-15248516D01*
X5299499Y-15151104D01*
X5306017Y-15135368D01*
X5355548Y-15026322D01*
X5355551Y-15026316D01*
X5411430Y-14804553D01*
X5422000Y-14670247D01*
X5421999Y-13269754D01*
X5411430Y-13135447D01*
X5355551Y-12913684D01*
X5260972Y-12705464D01*
X5130734Y-12517477D01*
X4969023Y-12355766D01*
X4969021Y-12355764D01*
X4771697Y-12219058D01*
X4773237Y-12216834D01*
X4712934Y-12164740D01*
X4668615Y-12076532D01*
X4659500Y-12009232D01*
X4659500Y-11938000D01*
X2626500Y-11938000D01*
X2529681Y-11918742D01*
X2447602Y-11863898D01*
X2392758Y-11781819D01*
X2373500Y-11685000D01*
X2373500Y-11430000D01*
X2118500Y-11430000D01*
X2021681Y-11410742D01*
X1939602Y-11355898D01*
X1884758Y-11273819D01*
X1865500Y-11177000D01*
X1865500Y-10970605D01*
X5461000Y-10970605D01*
X5467503Y-11031089D01*
X5467505Y-11031096D01*
X5518552Y-11167959D01*
X5518555Y-11167965D01*
X5606094Y-11284902D01*
X5606097Y-11284905D01*
X5723034Y-11372444D01*
X5723040Y-11372447D01*
X5859903Y-11423494D01*
X5859910Y-11423496D01*
X5920394Y-11429999D01*
X5920412Y-11430000D01*
X7747000Y-11430000D01*
X7747000Y-10160000D01*
X5461000Y-10160000D01*
X5461000Y-10970605D01*
X1865500Y-10970605D01*
X1865500Y-10261227D01*
X1862554Y-10256819D01*
X1843296Y-10160000D01*
X1862554Y-10063181D01*
X1865500Y-10058772D01*
X2881500Y-10058772D01*
X2884446Y-10063181D01*
X2903704Y-10160000D01*
X2884446Y-10256819D01*
X2881500Y-10261227D01*
X2881500Y-10922000D01*
X4659500Y-10922000D01*
X4659500Y-10746412D01*
X4659499Y-10746394D01*
X4652996Y-10685910D01*
X4652994Y-10685903D01*
X4601947Y-10549040D01*
X4601944Y-10549034D01*
X4514405Y-10432097D01*
X4514402Y-10432094D01*
X4421484Y-10362536D01*
X4399817Y-10338415D01*
X4375072Y-10317459D01*
X4367122Y-10302017D01*
X4355518Y-10289098D01*
X4344729Y-10258517D01*
X4329890Y-10229690D01*
X4328455Y-10212384D01*
X4322677Y-10196005D01*
X4324412Y-10163623D01*
X4321734Y-10131312D01*
X4327031Y-10114774D01*
X4327961Y-10097431D01*
X4341956Y-10068179D01*
X4351847Y-10037301D01*
X4362662Y-10024901D01*
X4370566Y-10008382D01*
X4415643Y-9961970D01*
X4522656Y-9876881D01*
X4601944Y-9770965D01*
X4601947Y-9770959D01*
X4652994Y-9634096D01*
X4652996Y-9634089D01*
X4659499Y-9573605D01*
X4659500Y-9573587D01*
X4659500Y-9398000D01*
X2881500Y-9398000D01*
X2881500Y-10058772D01*
X1865500Y-10058772D01*
X1865500Y-9143000D01*
X1884758Y-9046181D01*
X1939602Y-8964102D01*
X2021681Y-8909258D01*
X2118500Y-8890000D01*
X2373500Y-8890000D01*
X2373500Y-8635000D01*
X2392758Y-8538181D01*
X2447602Y-8456102D01*
X2529681Y-8401258D01*
X2626500Y-8382000D01*
X4659500Y-8382000D01*
X4659500Y-8310767D01*
X4678758Y-8213948D01*
X4733602Y-8131869D01*
X4772571Y-8102203D01*
X4771697Y-8100942D01*
X4889837Y-8019094D01*
X4969023Y-7964234D01*
X5130734Y-7802523D01*
X5260972Y-7614536D01*
X5355551Y-7406316D01*
X5411430Y-7184553D01*
X5422000Y-7050247D01*
X5421999Y-5982484D01*
X5441257Y-5885667D01*
X5496101Y-5803588D01*
X5578180Y-5748745D01*
X5674999Y-5729486D01*
X5771818Y-5748744D01*
G37*
%TD.AperFunction*%
%TD*%
M02*
